<svg width="976" height="275" viewBox="0 0 976 275" fill="none" xmlns="http://www.w3.org/2000/svg">
<rect width="976" height="275" rx="10" fill="white"/>
<g filter="url(#filter0_d_24_183)">
<path d="M914 138H55V27H914V138Z" fill="#17406D"/>
</g>
<g filter="url(#filter1_d_24_183)">
<path d="M914 249H55V138H914V249Z" fill="#EAECED"/>
</g>
<path d="M145.63 88.57C145.63 89.51 145.41 90.32 144.97 91C144.55 91.66 143.85 92.27 142.87 92.83C142.21 93.23 141.44 93.53 140.56 93.73C139.68 93.93 138.79 94.03 137.89 94.03C136.97 94.03 135.83 93.73 134.47 93.13C133.49 92.65 132.71 92.08 132.13 91.42C131.57 90.76 131.29 90.04 131.29 89.26C131.29 88.72 131.41 88.33 131.65 88.09C131.89 87.83 132.28 87.7 132.82 87.7C133.1 87.7 133.39 87.82 133.69 88.06C133.99 88.28 134.17 88.5 134.23 88.72C134.51 89.54 135 90.17 135.7 90.61C136.4 91.03 137.27 91.24 138.31 91.24C139.51 91.24 140.51 91.02 141.31 90.58C142.13 90.14 142.54 89.55 142.54 88.81C142.54 88.09 142.1 87.45 141.22 86.89C140.34 86.33 139.44 85.94 138.52 85.72C137.2 85.36 136.03 84.93 135.01 84.43C133.95 83.91 133.16 83.27 132.64 82.51C132.12 81.75 131.86 80.95 131.86 80.11C131.86 79.33 132.13 78.54 132.67 77.74C133.21 76.92 133.85 76.33 134.59 75.97C134.99 75.77 135.67 75.56 136.63 75.34C137.61 75.1 138.32 74.98 138.76 74.98C139.34 74.98 139.98 75.05 140.68 75.19C141.38 75.33 141.95 75.53 142.39 75.79C143.27 76.29 143.92 76.74 144.34 77.14C144.76 77.54 144.97 78.04 144.97 78.64C144.97 79 144.83 79.32 144.55 79.6C144.29 79.88 143.83 80.02 143.17 80.02C143.01 80.02 142.85 79.95 142.69 79.81C142.53 79.67 142.33 79.46 142.09 79.18C141.77 78.76 141.46 78.48 141.16 78.34C140.86 78.24 140.42 78.13 139.84 78.01C139.28 77.89 138.78 77.83 138.34 77.83C137.86 77.83 137.36 77.93 136.84 78.13C136.32 78.33 135.88 78.62 135.52 79C135.18 79.36 135.01 79.78 135.01 80.26C135.01 80.66 135.19 81.01 135.55 81.31C135.93 81.59 136.38 81.82 136.9 82C137.5 82.24 138.15 82.45 138.85 82.63C139.77 82.91 140.52 83.17 141.1 83.41C141.7 83.63 142.28 83.91 142.84 84.25C143.82 84.83 144.53 85.43 144.97 86.05C145.41 86.65 145.63 87.49 145.63 88.57ZM148.196 87.64C148.196 86.88 148.336 86.12 148.616 85.36C148.896 84.58 149.266 83.87 149.726 83.23C150.186 82.59 150.916 82.07 151.916 81.67C152.916 81.25 153.806 81.04 154.586 81.04C155.386 81.04 156.196 81.15 157.016 81.37C157.856 81.59 158.436 81.93 158.756 82.39C159.496 83.43 159.866 84.45 159.866 85.45C159.866 85.99 159.746 86.45 159.506 86.83C159.286 87.21 158.966 87.62 158.546 88.06C158.206 88.42 157.666 88.66 156.926 88.78C156.206 88.9 155.486 88.96 154.766 88.96C154.306 88.96 153.746 88.92 153.086 88.84C152.426 88.74 151.786 88.62 151.166 88.48C151.206 88.88 151.306 89.27 151.466 89.65C151.626 90.03 151.816 90.32 152.036 90.52C152.436 90.9 152.846 91.14 153.266 91.24C153.706 91.34 154.266 91.39 154.946 91.39C155.666 91.39 156.336 91.27 156.956 91.03C157.456 90.85 157.866 90.76 158.186 90.76C158.566 90.76 158.856 90.88 159.056 91.12C159.256 91.34 159.356 91.63 159.356 91.99C159.356 92.49 159.066 92.9 158.486 93.22C157.906 93.54 157.236 93.78 156.476 93.94C155.736 94.08 155.136 94.15 154.676 94.15C153.736 94.15 152.826 93.98 151.946 93.64C151.066 93.3 150.336 92.82 149.756 92.2C149.276 91.64 148.896 90.97 148.616 90.19C148.336 89.39 148.196 88.54 148.196 87.64ZM154.736 83.59C154.296 83.59 153.856 83.68 153.416 83.86C152.976 84.02 152.616 84.25 152.336 84.55C151.976 84.93 151.726 85.24 151.586 85.48C151.466 85.7 151.386 86.01 151.346 86.41C151.846 86.57 152.886 86.65 154.466 86.65C155.326 86.65 155.986 86.52 156.446 86.26C156.926 86 157.166 85.66 157.166 85.24C157.166 84.82 156.906 84.44 156.386 84.1C155.866 83.76 155.316 83.59 154.736 83.59ZM171.133 87.25C171.293 87.35 171.603 87.54 172.063 87.82C172.543 88.08 172.863 88.39 173.023 88.75C173.183 89.11 173.263 89.61 173.263 90.25C173.263 90.97 173.053 91.61 172.633 92.17C172.213 92.71 171.673 93.13 171.013 93.43C170.533 93.65 169.943 93.82 169.243 93.94C168.563 94.06 168.023 94.12 167.623 94.12C167.223 94.12 166.703 94.06 166.063 93.94C165.443 93.82 165.013 93.71 164.773 93.61C164.153 93.25 163.613 92.81 163.153 92.29C162.713 91.77 162.493 91.24 162.493 90.7C162.493 90.3 162.623 89.99 162.883 89.77C163.143 89.53 163.483 89.41 163.903 89.41C164.103 89.41 164.313 89.49 164.533 89.65C164.753 89.79 164.903 89.94 164.983 90.1C165.203 90.62 165.573 91.01 166.093 91.27C166.613 91.53 167.143 91.66 167.683 91.66C168.383 91.66 169.033 91.55 169.633 91.33C170.233 91.09 170.533 90.77 170.533 90.37C170.533 90.19 170.483 90.05 170.383 89.95C170.303 89.83 170.183 89.71 170.023 89.59C169.743 89.39 169.323 89.23 168.763 89.11C168.203 88.97 167.843 88.88 167.683 88.84C166.863 88.66 166.063 88.39 165.283 88.03C164.503 87.65 163.883 87.2 163.423 86.68C162.963 86.16 162.733 85.49 162.733 84.67C162.733 84.13 162.933 83.57 163.333 82.99C163.733 82.39 164.183 81.97 164.683 81.73C165.043 81.59 165.643 81.44 166.483 81.28C167.343 81.12 167.923 81.04 168.223 81.04C168.683 81.04 169.183 81.09 169.723 81.19C170.263 81.27 170.673 81.41 170.953 81.61C171.493 81.93 171.933 82.27 172.273 82.63C172.613 82.97 172.783 83.36 172.783 83.8C172.783 84.02 172.733 84.26 172.633 84.52C172.533 84.76 172.413 84.91 172.273 84.97C171.973 85.11 171.623 85.18 171.223 85.18C171.043 85.18 170.893 85.13 170.773 85.03C170.673 84.93 170.533 84.77 170.353 84.55C170.133 84.21 169.923 84.01 169.723 83.95C169.483 83.89 169.133 83.82 168.673 83.74C168.213 83.64 167.903 83.59 167.743 83.59C167.283 83.59 166.803 83.72 166.303 83.98C165.823 84.24 165.583 84.54 165.583 84.88C165.583 85.06 165.653 85.2 165.793 85.3C165.953 85.4 166.113 85.49 166.273 85.57C166.453 85.65 166.573 85.7 166.633 85.72C167.053 85.92 167.513 86.09 168.013 86.23C168.533 86.37 168.853 86.46 168.973 86.5C170.053 86.76 170.773 87.01 171.133 87.25ZM184.492 87.52C184.652 87.62 184.962 87.81 185.422 88.09C185.902 88.35 186.222 88.66 186.382 89.02C186.542 89.38 186.622 89.88 186.622 90.52C186.622 91.24 186.412 91.88 185.992 92.44C185.572 92.98 185.032 93.4 184.372 93.7C183.912 93.9 183.412 94.02 182.872 94.06C182.352 94.1 181.722 94.12 180.982 94.12C180.582 94.12 180.062 94.06 179.422 93.94C178.802 93.82 178.372 93.71 178.132 93.61C177.492 93.25 176.952 92.83 176.512 92.35C176.072 91.87 175.852 91.38 175.852 90.88C175.852 90.48 175.982 90.16 176.242 89.92C176.502 89.68 176.842 89.56 177.262 89.56C177.482 89.56 177.692 89.62 177.892 89.74C178.112 89.84 178.262 89.96 178.342 90.1C178.562 90.62 178.932 91.01 179.452 91.27C179.972 91.53 180.502 91.66 181.042 91.66C182.942 91.66 183.892 91.32 183.892 90.64C183.892 90.46 183.842 90.32 183.742 90.22C183.662 90.1 183.542 89.98 183.382 89.86C183.122 89.68 182.752 89.49 182.272 89.29C181.812 89.09 181.402 88.94 181.042 88.84C180.222 88.66 179.422 88.39 178.642 88.03C177.922 87.67 177.332 87.2 176.872 86.62C176.412 86.02 176.182 85.29 176.182 84.43C176.182 83.91 176.372 83.4 176.752 82.9C177.152 82.38 177.612 81.99 178.132 81.73C178.492 81.59 179.082 81.44 179.902 81.28C180.722 81.12 181.282 81.04 181.582 81.04C182.042 81.04 182.542 81.09 183.082 81.19C183.622 81.27 184.032 81.41 184.312 81.61C184.852 81.93 185.292 82.27 185.632 82.63C185.972 82.97 186.142 83.36 186.142 83.8C186.142 84.02 186.092 84.26 185.992 84.52C185.892 84.76 185.772 84.91 185.632 84.97C185.332 85.11 184.982 85.18 184.582 85.18C184.402 85.18 184.252 85.13 184.132 85.03C184.032 84.93 183.892 84.77 183.712 84.55C183.492 84.21 183.282 84.01 183.082 83.95C182.842 83.89 182.492 83.82 182.032 83.74C181.572 83.64 181.262 83.59 181.102 83.59C180.602 83.59 180.122 83.69 179.662 83.89C179.222 84.09 179.002 84.36 179.002 84.7C179.002 85.1 179.332 85.44 179.992 85.72C180.412 85.92 180.872 86.09 181.372 86.23C181.892 86.37 182.212 86.46 182.332 86.5C182.612 86.56 182.972 86.7 183.412 86.92C183.872 87.14 184.232 87.34 184.492 87.52ZM190.981 74.74C191.681 74.8 192.291 74.99 192.811 75.31C193.331 75.61 193.591 76.07 193.591 76.69C193.591 77.15 193.371 77.52 192.931 77.8C192.511 78.06 192.001 78.19 191.401 78.19C190.821 78.19 190.421 78.04 190.201 77.74C189.981 77.44 189.871 77.13 189.871 76.81C189.871 76.21 189.931 75.71 190.051 75.31C190.191 74.91 190.501 74.72 190.981 74.74ZM193.381 88.03V88.9C193.381 89.68 193.401 90.42 193.441 91.12C193.501 91.8 193.571 92.49 193.651 93.19C193.651 93.43 193.511 93.65 193.231 93.85C192.951 94.03 192.691 94.12 192.451 94.12C192.071 94.12 191.681 94.05 191.281 93.91C190.901 93.75 190.671 93.56 190.591 93.34C190.471 92.7 190.411 92.13 190.411 91.63C190.411 89.99 190.361 88.15 190.261 86.11C190.181 84.31 190.141 83.05 190.141 82.33C190.141 81.97 190.321 81.66 190.681 81.4C191.041 81.14 191.421 81.01 191.821 81.01C192.401 81.01 192.801 81.14 193.021 81.4C193.261 81.66 193.381 82.07 193.381 82.63V88.03ZM208.947 84.37C209.107 84.65 209.237 85.06 209.337 85.6C209.437 86.12 209.487 86.59 209.487 87.01C209.487 87.57 209.397 88.27 209.217 89.11C209.037 89.93 208.887 90.48 208.767 90.76C207.687 93 205.607 94.12 202.527 94.12C201.547 94.12 200.587 93.8 199.647 93.16C198.707 92.5 198.037 91.73 197.637 90.85L197.427 90.25C197.407 90.17 197.297 89.87 197.097 89.35C196.917 88.81 196.827 88.4 196.827 88.12C196.827 87.3 197.027 86.35 197.427 85.27C197.827 84.19 198.287 83.33 198.807 82.69C199.147 82.23 199.797 81.84 200.757 81.52C201.717 81.18 202.567 81.01 203.307 81.01C204.687 81.01 205.797 81.27 206.637 81.79C207.497 82.31 208.267 83.17 208.947 84.37ZM206.187 89.2C206.267 89.06 206.337 88.81 206.397 88.45C206.457 88.09 206.487 87.67 206.487 87.19C206.487 86.61 206.377 86.04 206.157 85.48C205.957 84.92 205.657 84.44 205.257 84.04C205.237 84 205.167 83.94 205.047 83.86C204.927 83.76 204.737 83.67 204.477 83.59C204.217 83.49 203.887 83.44 203.487 83.44C202.707 83.44 202.047 83.67 201.507 84.13C200.967 84.59 200.557 85.16 200.277 85.84C200.017 86.52 199.887 87.19 199.887 87.85C199.887 88.03 199.947 88.4 200.067 88.96C200.187 89.52 200.277 89.88 200.337 90.04C200.497 90.32 200.807 90.65 201.267 91.03C201.727 91.39 202.247 91.57 202.827 91.57C203.727 91.57 204.427 91.36 204.927 90.94C205.447 90.52 205.867 89.94 206.187 89.2ZM226.041 91.69C226.141 91.73 226.301 91.78 226.521 91.84C226.741 91.9 226.901 91.96 227.001 92.02C227.101 92.08 227.151 92.17 227.151 92.29C227.171 92.77 226.991 93.17 226.611 93.49C226.251 93.79 225.821 93.94 225.321 93.94C224.541 93.94 223.931 93.73 223.491 93.31C223.051 92.89 222.731 92.25 222.531 91.39C222.451 91.05 222.411 90.58 222.411 89.98C222.411 89.64 222.431 89.09 222.471 88.33C222.511 87.53 222.531 86.89 222.531 86.41C222.531 85.55 222.441 84.9 222.261 84.46C222.081 84 221.651 83.77 220.971 83.77C220.271 83.77 219.641 84.05 219.081 84.61C218.541 85.17 218.081 86.01 217.701 87.13C217.181 88.69 216.891 90.76 216.831 93.34C216.831 93.48 216.681 93.65 216.381 93.85C216.101 94.03 215.761 94.12 215.361 94.12C214.621 94.12 214.161 93.73 213.981 92.95L213.951 92.44C213.951 92.26 213.971 92.05 214.011 91.81C214.251 90.41 214.371 89.19 214.371 88.15C214.371 87.69 214.361 87.33 214.341 87.07L214.311 85.66C214.311 85.18 214.191 84.72 213.951 84.28C213.711 83.82 213.431 83.59 213.111 83.59C213.011 83.59 212.871 83.63 212.691 83.71C212.511 83.77 212.361 83.8 212.241 83.8C212.041 83.8 211.821 83.7 211.581 83.5C211.361 83.3 211.251 83.09 211.251 82.87C211.251 82.45 211.391 82.11 211.671 81.85C211.971 81.61 212.261 81.42 212.541 81.28C212.841 81.14 213.181 81.07 213.561 81.07C213.881 81.07 214.141 81.1 214.341 81.16C214.541 81.22 214.811 81.35 215.151 81.55C215.351 81.65 215.581 81.93 215.841 82.39C216.101 82.85 216.301 83.5 216.441 84.34C216.841 83.6 217.511 82.82 218.451 82C219.151 81.36 220.161 81.04 221.481 81.04C222.681 81.04 223.631 81.48 224.331 82.36C225.031 83.22 225.381 84.41 225.381 85.93C225.381 86.23 225.361 86.72 225.321 87.4C225.261 87.94 225.231 88.51 225.231 89.11C225.231 90.51 225.501 91.37 226.041 91.69ZM241.521 77.44C241.461 78.72 241.431 79.95 241.431 81.13C241.431 82.35 241.511 84.14 241.671 86.5C241.691 86.86 241.731 87.59 241.791 88.69C241.851 89.77 241.881 90.76 241.881 91.66C242.081 91.64 242.291 91.61 242.511 91.57C242.751 91.53 242.931 91.51 243.051 91.51C243.491 91.51 243.841 91.62 244.101 91.84C244.361 92.06 244.491 92.4 244.491 92.86C244.491 93.16 244.371 93.39 244.131 93.55C243.891 93.71 243.471 93.83 242.871 93.91C242.291 93.97 241.441 94 240.321 94C239.081 94 238.151 93.96 237.531 93.88C236.911 93.8 236.481 93.65 236.241 93.43C236.001 93.19 235.881 92.84 235.881 92.38C235.881 92.04 235.991 91.81 236.211 91.69C236.431 91.57 236.741 91.51 237.141 91.51L237.771 91.54L238.761 91.6L238.611 88.06C238.491 86.14 238.431 84.38 238.431 82.78C238.431 81.92 238.461 80.74 238.521 79.24L238.581 77.59C237.901 77.63 237.371 77.65 236.991 77.65C236.551 77.65 236.251 77.57 236.091 77.41C235.951 77.25 235.881 76.92 235.881 76.42C235.881 75.86 236.261 75.5 237.021 75.34C237.801 75.18 238.981 75.1 240.561 75.1C241.781 75.1 242.691 75.14 243.291 75.22C243.911 75.3 244.221 75.48 244.221 75.76C244.221 76.44 244.071 76.89 243.771 77.11C243.491 77.31 242.941 77.41 242.121 77.41L241.521 77.44ZM252.173 74.98C254.893 74.98 257.043 75.36 258.623 76.12C260.223 76.86 261.433 77.69 262.253 78.61C262.913 79.37 263.453 80.25 263.873 81.25C264.293 82.23 264.503 83.41 264.503 84.79C264.503 85.81 264.273 86.88 263.813 88C263.353 89.1 262.753 89.99 262.013 90.67C261.233 91.41 260.493 92.01 259.793 92.47C259.113 92.93 258.183 93.31 257.003 93.61C255.843 93.89 254.363 94.03 252.563 94.03C251.203 94.03 249.973 93.88 248.873 93.58C247.773 93.26 247.223 92.73 247.223 91.99C247.223 91.69 247.353 91.46 247.613 91.3C247.893 91.12 248.193 91.03 248.513 91.03C248.693 91.03 248.813 91.04 248.873 91.06C249.013 89.74 249.083 88.34 249.083 86.86C249.083 85.2 249.043 83.83 248.963 82.75C248.883 81.65 248.773 80.56 248.633 79.48C248.613 79.34 248.563 78.95 248.483 78.31C248.423 77.67 248.393 77.02 248.393 76.36C248.393 75.94 248.603 75.59 249.023 75.31C249.443 75.01 249.873 74.86 250.313 74.86C250.573 74.86 250.923 74.88 251.363 74.92C251.723 74.96 251.993 74.98 252.173 74.98ZM251.783 91.21C252.263 91.29 252.893 91.33 253.673 91.33C254.993 91.33 256.243 91.06 257.423 90.52C258.603 89.96 259.553 89.19 260.273 88.21C260.993 87.21 261.353 86.06 261.353 84.76C261.353 83.4 261.113 82.24 260.633 81.28C260.153 80.32 259.413 79.53 258.413 78.91C257.673 78.45 256.763 78.12 255.683 77.92C254.603 77.7 253.303 77.59 251.783 77.59C251.783 78.07 251.813 78.67 251.873 79.39C251.873 79.63 251.893 80.05 251.933 80.65C252.053 82.97 252.113 84.84 252.113 86.26C252.113 88.32 252.003 89.97 251.783 91.21Z" fill="white"/>
<path d="M456.63 88.57C456.63 89.51 456.41 90.32 455.97 91C455.55 91.66 454.85 92.27 453.87 92.83C453.21 93.23 452.44 93.53 451.56 93.73C450.68 93.93 449.79 94.03 448.89 94.03C447.97 94.03 446.83 93.73 445.47 93.13C444.49 92.65 443.71 92.08 443.13 91.42C442.57 90.76 442.29 90.04 442.29 89.26C442.29 88.72 442.41 88.33 442.65 88.09C442.89 87.83 443.28 87.7 443.82 87.7C444.1 87.7 444.39 87.82 444.69 88.06C444.99 88.28 445.17 88.5 445.23 88.72C445.51 89.54 446 90.17 446.7 90.61C447.4 91.03 448.27 91.24 449.31 91.24C450.51 91.24 451.51 91.02 452.31 90.58C453.13 90.14 453.54 89.55 453.54 88.81C453.54 88.09 453.1 87.45 452.22 86.89C451.34 86.33 450.44 85.94 449.52 85.72C448.2 85.36 447.03 84.93 446.01 84.43C444.95 83.91 444.16 83.27 443.64 82.51C443.12 81.75 442.86 80.95 442.86 80.11C442.86 79.33 443.13 78.54 443.67 77.74C444.21 76.92 444.85 76.33 445.59 75.97C445.99 75.77 446.67 75.56 447.63 75.34C448.61 75.1 449.32 74.98 449.76 74.98C450.34 74.98 450.98 75.05 451.68 75.19C452.38 75.33 452.95 75.53 453.39 75.79C454.27 76.29 454.92 76.74 455.34 77.14C455.76 77.54 455.97 78.04 455.97 78.64C455.97 79 455.83 79.32 455.55 79.6C455.29 79.88 454.83 80.02 454.17 80.02C454.01 80.02 453.85 79.95 453.69 79.81C453.53 79.67 453.33 79.46 453.09 79.18C452.77 78.76 452.46 78.48 452.16 78.34C451.86 78.24 451.42 78.13 450.84 78.01C450.28 77.89 449.78 77.83 449.34 77.83C448.86 77.83 448.36 77.93 447.84 78.13C447.32 78.33 446.88 78.62 446.52 79C446.18 79.36 446.01 79.78 446.01 80.26C446.01 80.66 446.19 81.01 446.55 81.31C446.93 81.59 447.38 81.82 447.9 82C448.5 82.24 449.15 82.45 449.85 82.63C450.77 82.91 451.52 83.17 452.1 83.41C452.7 83.63 453.28 83.91 453.84 84.25C454.82 84.83 455.53 85.43 455.97 86.05C456.41 86.65 456.63 87.49 456.63 88.57ZM459.436 83.62C459.156 83.58 458.926 83.46 458.746 83.26C458.586 83.06 458.506 82.82 458.506 82.54C458.506 82.4 458.536 82.25 458.596 82.09C458.676 81.93 458.786 81.79 458.926 81.67C459.186 81.41 459.886 81.28 461.026 81.28C461.186 80.5 461.266 79.71 461.266 78.91C461.266 78.61 461.256 78.35 461.236 78.13C461.216 77.91 461.206 77.74 461.206 77.62C461.206 77.18 461.366 76.85 461.686 76.63C462.026 76.41 462.406 76.3 462.826 76.3C463.346 76.3 463.696 76.43 463.876 76.69C464.076 76.95 464.176 77.43 464.176 78.13C464.176 79.17 464.086 80.19 463.906 81.19C464.226 81.19 464.666 81.17 465.226 81.13C465.986 81.09 466.536 81.07 466.876 81.07C467.216 81.07 467.506 81.16 467.746 81.34C468.006 81.5 468.136 81.73 468.136 82.03C468.136 82.81 467.786 83.27 467.086 83.41C466.346 83.59 465.196 83.7 463.636 83.74C463.576 84.52 463.546 85.37 463.546 86.29C463.546 87.73 463.636 88.91 463.816 89.83C463.936 90.47 464.136 90.94 464.416 91.24C464.716 91.52 465.156 91.66 465.736 91.66C466.076 91.66 466.426 91.57 466.786 91.39C467.026 91.25 467.246 91.18 467.446 91.18C467.726 91.18 467.926 91.27 468.046 91.45C468.186 91.63 468.256 91.87 468.256 92.17C468.256 92.73 467.956 93.2 467.356 93.58C466.756 93.94 465.986 94.12 465.046 94.12C464.466 94.12 463.876 93.98 463.276 93.7C462.696 93.42 462.206 93.07 461.806 92.65C461.746 92.59 461.636 92.36 461.476 91.96C461.316 91.56 461.176 91.13 461.056 90.67C460.856 89.73 460.756 88.41 460.756 86.71C460.756 85.97 460.796 84.98 460.876 83.74L459.436 83.62ZM484.365 92.56C484.365 93 484.125 93.37 483.645 93.67C483.185 93.97 482.755 94.12 482.355 94.12C481.595 94.12 480.985 94.03 480.525 93.85C480.085 93.65 479.675 93.29 479.295 92.77C478.775 93.23 478.065 93.58 477.165 93.82C476.265 94.04 475.435 94.15 474.675 94.15C473.435 94.15 472.415 93.82 471.615 93.16C470.815 92.48 470.415 91.49 470.415 90.19C470.415 89.63 470.565 89.12 470.865 88.66C471.165 88.18 471.575 87.76 472.095 87.4C472.675 87.02 473.335 86.73 474.075 86.53C474.815 86.31 475.585 86.2 476.385 86.2C476.805 86.2 477.305 86.28 477.885 86.44C478.465 86.6 478.915 86.77 479.235 86.95V86.47C479.235 85.39 478.975 84.65 478.455 84.25C477.935 83.83 477.095 83.62 475.935 83.62C475.595 83.62 475.255 83.69 474.915 83.83C474.595 83.97 474.225 84.16 473.805 84.4C473.245 84.7 472.715 84.85 472.215 84.85C472.035 84.85 471.865 84.73 471.705 84.49C471.545 84.23 471.465 84 471.465 83.8C471.465 83.22 471.735 82.72 472.275 82.3C472.835 81.88 473.495 81.57 474.255 81.37C475.015 81.15 475.695 81.04 476.295 81.04C476.895 81.04 477.585 81.16 478.365 81.4C479.145 81.62 479.785 81.93 480.285 82.33C480.885 82.85 481.345 83.46 481.665 84.16C482.005 84.84 482.175 85.59 482.175 86.41C482.175 86.67 482.155 87.06 482.115 87.58C482.075 88.14 482.055 88.62 482.055 89.02C482.055 89.2 482.035 89.47 481.995 89.83C481.955 90.27 481.935 90.62 481.935 90.88C481.935 91.12 482.025 91.33 482.205 91.51C482.385 91.67 482.595 91.75 482.835 91.75L483.675 91.72C483.895 91.72 484.065 91.8 484.185 91.96C484.305 92.12 484.365 92.32 484.365 92.56ZM474.705 91.78C475.565 91.78 476.285 91.69 476.865 91.51C477.445 91.33 478.145 91 478.965 90.52C479.045 90.18 479.095 89.73 479.115 89.17C478.015 88.65 477.105 88.39 476.385 88.39C475.565 88.39 474.835 88.54 474.195 88.84C473.555 89.14 473.235 89.67 473.235 90.43C473.235 90.81 473.395 91.13 473.715 91.39C474.035 91.65 474.365 91.78 474.705 91.78ZM486.36 83.56C486.08 83.52 485.85 83.41 485.67 83.23C485.51 83.03 485.43 82.79 485.43 82.51C485.43 82.15 485.57 81.85 485.85 81.61C485.91 81.55 486.01 81.5 486.15 81.46C486.29 81.4 486.4 81.35 486.48 81.31C486.92 81.17 487.2 81.06 487.32 80.98C487.78 80.7 488.09 80.24 488.25 79.6C488.41 78.84 488.51 78.32 488.55 78.04C488.59 77.6 488.73 77.27 488.97 77.05C489.23 76.81 489.55 76.69 489.93 76.69C490.43 76.69 490.78 76.82 490.98 77.08C491.18 77.34 491.28 77.82 491.28 78.52C491.28 79.44 491.06 80.31 490.62 81.13C490.9 81.13 491.36 81.11 492 81.07C492.96 81.03 493.63 81.01 494.01 81.01C494.35 81.01 494.64 81.1 494.88 81.28C495.14 81.44 495.27 81.68 495.27 82C495.27 82.76 494.92 83.21 494.22 83.35C493.58 83.53 492.42 83.64 490.74 83.68C490.6 85.64 490.53 87.19 490.53 88.33C490.53 89.03 490.56 89.53 490.62 89.83C490.74 90.45 490.94 90.91 491.22 91.21C491.52 91.49 491.96 91.63 492.54 91.63C492.82 91.63 493.24 91.56 493.8 91.42C494.14 91.32 494.41 91.27 494.61 91.27C494.87 91.27 495.07 91.36 495.21 91.54C495.35 91.72 495.42 91.96 495.42 92.26C495.42 92.8 495.07 93.25 494.37 93.61C493.67 93.95 492.84 94.12 491.88 94.12C491.28 94.12 490.69 93.98 490.11 93.7C489.53 93.4 489.04 93.04 488.64 92.62C488.56 92.58 488.44 92.36 488.28 91.96C488.14 91.56 488 91.12 487.86 90.64C487.8 90.4 487.77 89.82 487.77 88.9C487.77 88.02 487.83 86.5 487.95 84.34L487.98 83.68C487.84 83.68 487.58 83.67 487.2 83.65C486.82 83.61 486.54 83.58 486.36 83.56ZM498.87 80.98C500.19 80.98 500.85 81.85 500.85 83.59C500.85 83.81 500.83 84.3 500.79 85.06C500.75 85.94 500.73 86.63 500.73 87.13C500.73 88.53 500.92 89.66 501.3 90.52C501.44 90.8 501.69 91.02 502.05 91.18C502.43 91.34 502.75 91.42 503.01 91.42C503.41 91.42 503.74 91.37 504 91.27C504.26 91.17 504.5 91.02 504.72 90.82C504.96 90.62 505.19 90.4 505.41 90.16C505.79 89.74 506.03 89.26 506.13 88.72C506.25 88.16 506.32 87.42 506.34 86.5C506.34 85.92 506.37 85.36 506.43 84.82C506.55 83.94 506.61 83.12 506.61 82.36C506.61 81.94 506.72 81.59 506.94 81.31C507.18 81.01 507.52 80.86 507.96 80.86C508.18 80.86 508.44 80.94 508.74 81.1C509.06 81.24 509.27 81.4 509.37 81.58C509.51 81.82 509.58 82.15 509.58 82.57C509.58 82.83 509.55 83.07 509.49 83.29C509.39 83.59 509.34 83.97 509.34 84.43C509.34 84.67 509.36 85.07 509.4 85.63C509.46 86.05 509.49 86.48 509.49 86.92C509.49 88.26 509.59 89.25 509.79 89.89C510.01 90.57 510.31 91.17 510.69 91.69C511.09 92.11 511.36 92.42 511.5 92.62C511.64 92.8 511.71 92.96 511.71 93.1C511.71 93.34 511.59 93.57 511.35 93.79C511.11 94.01 510.86 94.12 510.6 94.12C509.86 94.12 509.21 93.87 508.65 93.37C508.11 92.85 507.71 92.19 507.45 91.39C507.23 91.65 506.94 91.97 506.58 92.35C506.22 92.73 505.88 93.04 505.56 93.28C504.78 93.84 503.78 94.12 502.56 94.12C502.06 94.12 501.51 93.97 500.91 93.67C500.33 93.37 499.8 92.98 499.32 92.5C498.84 92 498.51 91.47 498.33 90.91C498.31 90.87 498.25 90.71 498.15 90.43C498.07 90.15 498.03 89.73 498.03 89.17L498 84.37C498 84.09 497.93 83.65 497.79 83.05C497.67 82.65 497.61 82.35 497.61 82.15C497.61 81.81 497.72 81.53 497.94 81.31C498.18 81.09 498.49 80.98 498.87 80.98ZM522.477 87.13C523.277 87.59 523.837 88.05 524.157 88.51C524.477 88.95 524.637 89.53 524.637 90.25C524.637 90.97 524.427 91.61 524.007 92.17C523.587 92.71 523.047 93.13 522.387 93.43C521.907 93.65 521.307 93.82 520.587 93.94C519.887 94.06 519.337 94.12 518.937 94.12C518.237 94.12 517.477 93.99 516.657 93.73C515.837 93.47 515.137 93.1 514.557 92.62C513.997 92.14 513.717 91.58 513.717 90.94C513.717 90.54 513.847 90.23 514.107 90.01C514.367 89.77 514.707 89.65 515.127 89.65C515.467 89.65 515.827 89.89 516.207 90.37C516.587 90.79 517.027 91.11 517.527 91.33C518.047 91.55 518.557 91.66 519.057 91.66C520.957 91.66 521.907 91.23 521.907 90.37C521.907 90.19 521.847 90.02 521.727 89.86C521.607 89.68 521.497 89.56 521.397 89.5C521.217 89.36 520.967 89.24 520.647 89.14C520.327 89.04 520.007 88.96 519.687 88.9C519.367 88.82 519.127 88.76 518.967 88.72C518.807 88.68 518.467 88.61 517.947 88.51C517.447 88.41 516.967 88.24 516.507 88C515.747 87.64 515.127 87.2 514.647 86.68C514.187 86.16 513.957 85.49 513.957 84.67C513.957 84.21 514.067 83.75 514.287 83.29C514.527 82.81 514.847 82.45 515.247 82.21C515.847 81.83 516.507 81.54 517.227 81.34C517.947 81.14 518.617 81.04 519.237 81.04C519.737 81.04 520.297 81.09 520.917 81.19C521.557 81.29 522.017 81.43 522.297 81.61C522.817 81.89 523.197 82.18 523.437 82.48C523.677 82.78 523.797 83.16 523.797 83.62C523.797 83.84 523.747 84.06 523.647 84.28C523.547 84.48 523.427 84.62 523.287 84.7C522.967 84.82 522.687 84.88 522.447 84.88C522.267 84.88 522.117 84.85 521.997 84.79C521.877 84.71 521.767 84.63 521.667 84.55C521.587 84.47 521.537 84.42 521.517 84.4C521.257 84.12 520.967 83.9 520.647 83.74C520.327 83.58 519.857 83.5 519.237 83.5C518.837 83.5 518.447 83.56 518.067 83.68C517.707 83.78 517.427 83.91 517.227 84.07C517.067 84.19 516.957 84.3 516.897 84.4C516.837 84.48 516.807 84.59 516.807 84.73C516.807 85.29 517.367 85.7 518.487 85.96C519.627 86.22 520.227 86.36 520.287 86.38C520.407 86.42 520.737 86.52 521.277 86.68C521.837 86.84 522.237 86.99 522.477 87.13Z" fill="white"/>
<path d="M700.88 86.05C701.58 87.23 702.28 88.28 702.98 89.2C703.7 90.1 704.64 91.21 705.8 92.53C705.94 92.67 706.01 92.83 706.01 93.01C706.01 93.29 705.85 93.53 705.53 93.73C705.23 93.93 704.86 94.03 704.42 94.03C703.8 94.03 703.13 93.77 702.41 93.25C701.77 92.79 701.2 92.18 700.7 91.42C700.2 90.66 699.62 89.67 698.96 88.45C698.44 87.51 698.13 86.96 698.03 86.8C697.25 87.12 696.03 87.32 694.37 87.4C694.37 88.08 694.43 89 694.55 90.16C694.67 91.36 694.73 92.23 694.73 92.77C694.73 93.13 694.55 93.43 694.19 93.67C693.85 93.91 693.46 94.03 693.02 94.03C692.5 94.03 692.1 93.82 691.82 93.4C691.54 92.84 691.36 92.17 691.28 91.39C691.2 90.61 691.16 89.68 691.16 88.6C691.16 87.46 691.23 86.17 691.37 84.73C691.49 83.13 691.55 81.95 691.55 81.19C691.55 80.57 691.49 79.74 691.37 78.7C691.35 78.52 691.32 78.21 691.28 77.77C691.24 77.33 691.22 76.93 691.22 76.57C691.22 76.29 691.32 76.05 691.52 75.85C691.74 75.63 691.97 75.48 692.21 75.4C693.83 75.14 695.41 75.01 696.95 75.01C699.57 75.01 701.74 75.5 703.46 76.48C705.18 77.46 706.04 78.95 706.04 80.95C706.04 81.57 705.9 82.17 705.62 82.75C705.36 83.31 705 83.78 704.54 84.16C703.32 85.1 702.1 85.73 700.88 86.05ZM702.89 80.86C702.89 79.9 702.38 79.12 701.36 78.52C700.34 77.9 698.89 77.59 697.01 77.59C696.17 77.59 695.34 77.69 694.52 77.89L694.55 79.42C694.55 80.3 694.52 81.16 694.46 82C694.4 82.84 694.37 83.74 694.37 84.7C694.71 84.62 695.07 84.57 695.45 84.55C695.83 84.51 696.08 84.48 696.2 84.46C697.08 84.38 697.76 84.28 698.24 84.16C699.14 83.88 699.88 83.63 700.46 83.41C701.06 83.17 701.61 82.84 702.11 82.42C702.63 81.98 702.89 81.46 702.89 80.86ZM708.28 87.64C708.28 86.88 708.42 86.12 708.7 85.36C708.98 84.58 709.35 83.87 709.81 83.23C710.27 82.59 711 82.07 712 81.67C713 81.25 713.89 81.04 714.67 81.04C715.47 81.04 716.28 81.15 717.1 81.37C717.94 81.59 718.52 81.93 718.84 82.39C719.58 83.43 719.95 84.45 719.95 85.45C719.95 85.99 719.83 86.45 719.59 86.83C719.37 87.21 719.05 87.62 718.63 88.06C718.29 88.42 717.75 88.66 717.01 88.78C716.29 88.9 715.57 88.96 714.85 88.96C714.39 88.96 713.83 88.92 713.17 88.84C712.51 88.74 711.87 88.62 711.25 88.48C711.29 88.88 711.39 89.27 711.55 89.65C711.71 90.03 711.9 90.32 712.12 90.52C712.52 90.9 712.93 91.14 713.35 91.24C713.79 91.34 714.35 91.39 715.03 91.39C715.75 91.39 716.42 91.27 717.04 91.03C717.54 90.85 717.95 90.76 718.27 90.76C718.65 90.76 718.94 90.88 719.14 91.12C719.34 91.34 719.44 91.63 719.44 91.99C719.44 92.49 719.15 92.9 718.57 93.22C717.99 93.54 717.32 93.78 716.56 93.94C715.82 94.08 715.22 94.15 714.76 94.15C713.82 94.15 712.91 93.98 712.03 93.64C711.15 93.3 710.42 92.82 709.84 92.2C709.36 91.64 708.98 90.97 708.7 90.19C708.42 89.39 708.28 88.54 708.28 87.64ZM714.82 83.59C714.38 83.59 713.94 83.68 713.5 83.86C713.06 84.02 712.7 84.25 712.42 84.55C712.06 84.93 711.81 85.24 711.67 85.48C711.55 85.7 711.47 86.01 711.43 86.41C711.93 86.57 712.97 86.65 714.55 86.65C715.41 86.65 716.07 86.52 716.53 86.26C717.01 86 717.25 85.66 717.25 85.24C717.25 84.82 716.99 84.44 716.47 84.1C715.95 83.76 715.4 83.59 714.82 83.59ZM731.217 87.25C731.377 87.35 731.687 87.54 732.147 87.82C732.627 88.08 732.947 88.39 733.107 88.75C733.267 89.11 733.347 89.61 733.347 90.25C733.347 90.97 733.137 91.61 732.717 92.17C732.297 92.71 731.757 93.13 731.097 93.43C730.617 93.65 730.027 93.82 729.327 93.94C728.647 94.06 728.107 94.12 727.707 94.12C727.307 94.12 726.787 94.06 726.147 93.94C725.527 93.82 725.097 93.71 724.857 93.61C724.237 93.25 723.697 92.81 723.237 92.29C722.797 91.77 722.577 91.24 722.577 90.7C722.577 90.3 722.707 89.99 722.967 89.77C723.227 89.53 723.567 89.41 723.987 89.41C724.187 89.41 724.397 89.49 724.617 89.65C724.837 89.79 724.987 89.94 725.067 90.1C725.287 90.62 725.657 91.01 726.177 91.27C726.697 91.53 727.227 91.66 727.767 91.66C728.467 91.66 729.117 91.55 729.717 91.33C730.317 91.09 730.617 90.77 730.617 90.37C730.617 90.19 730.567 90.05 730.467 89.95C730.387 89.83 730.267 89.71 730.107 89.59C729.827 89.39 729.407 89.23 728.847 89.11C728.287 88.97 727.927 88.88 727.767 88.84C726.947 88.66 726.147 88.39 725.367 88.03C724.587 87.65 723.967 87.2 723.507 86.68C723.047 86.16 722.817 85.49 722.817 84.67C722.817 84.13 723.017 83.57 723.417 82.99C723.817 82.39 724.267 81.97 724.767 81.73C725.127 81.59 725.727 81.44 726.567 81.28C727.427 81.12 728.007 81.04 728.307 81.04C728.767 81.04 729.267 81.09 729.807 81.19C730.347 81.27 730.757 81.41 731.037 81.61C731.577 81.93 732.017 82.27 732.357 82.63C732.697 82.97 732.867 83.36 732.867 83.8C732.867 84.02 732.817 84.26 732.717 84.52C732.617 84.76 732.497 84.91 732.357 84.97C732.057 85.11 731.707 85.18 731.307 85.18C731.127 85.18 730.977 85.13 730.857 85.03C730.757 84.93 730.617 84.77 730.437 84.55C730.217 84.21 730.007 84.01 729.807 83.95C729.567 83.89 729.217 83.82 728.757 83.74C728.297 83.64 727.987 83.59 727.827 83.59C727.367 83.59 726.887 83.72 726.387 83.98C725.907 84.24 725.667 84.54 725.667 84.88C725.667 85.06 725.737 85.2 725.877 85.3C726.037 85.4 726.197 85.49 726.357 85.57C726.537 85.65 726.657 85.7 726.717 85.72C727.137 85.92 727.597 86.09 728.097 86.23C728.617 86.37 728.937 86.46 729.057 86.5C730.137 86.76 730.857 87.01 731.217 87.25ZM735.846 83.77C735.646 83.49 735.506 83.25 735.426 83.05C735.346 82.85 735.306 82.6 735.306 82.3C735.306 81.98 735.436 81.71 735.696 81.49C735.976 81.27 736.326 81.16 736.746 81.16C737.166 81.16 737.586 81.32 738.006 81.64C738.426 81.94 738.766 82.33 739.026 82.81C739.446 82.21 740.016 81.78 740.736 81.52C741.456 81.26 742.236 81.13 743.076 81.13C743.996 81.13 744.846 81.41 745.626 81.97C746.426 82.53 747.056 83.25 747.516 84.13C747.976 85.01 748.206 85.89 748.206 86.77C748.206 87.63 748.116 88.4 747.936 89.08C747.756 89.74 747.436 90.41 746.976 91.09C746.456 91.81 745.756 92.4 744.876 92.86C744.016 93.32 742.986 93.55 741.786 93.55C741.466 93.55 741.076 93.47 740.616 93.31C740.156 93.13 739.776 92.94 739.476 92.74C739.336 94.1 739.266 95.28 739.266 96.28C739.266 96.88 739.296 97.45 739.356 97.99C739.396 98.63 739.416 99.09 739.416 99.37C739.416 99.81 739.266 100.13 738.966 100.33C738.666 100.55 738.336 100.66 737.976 100.66C737.256 100.66 736.776 100.46 736.536 100.06C736.316 99.68 736.206 99.13 736.206 98.41C736.286 96.69 736.386 95.1 736.506 93.64C736.646 91.54 736.716 88.96 736.716 85.9C736.716 85.66 736.616 85.31 736.416 84.85C736.236 84.39 736.046 84.03 735.846 83.77ZM739.596 89.77C739.696 90.15 739.976 90.47 740.436 90.73C740.916 90.97 741.346 91.09 741.726 91.09C742.866 91.09 743.716 90.78 744.276 90.16C744.696 89.72 744.966 89.29 745.086 88.87C745.226 88.45 745.296 87.78 745.296 86.86C745.296 86.14 745.156 85.54 744.876 85.06C744.596 84.56 744.256 84.2 743.856 83.98C743.456 83.74 743.076 83.62 742.716 83.62C741.896 83.62 741.226 83.87 740.706 84.37C740.206 84.85 739.886 85.51 739.746 86.35C739.646 87.01 739.596 88.15 739.596 89.77ZM762.791 84.37C762.951 84.65 763.081 85.06 763.181 85.6C763.281 86.12 763.331 86.59 763.331 87.01C763.331 87.55 763.271 88.15 763.151 88.81C763.031 89.47 762.921 89.98 762.821 90.34C761.441 92.86 759.401 94.12 756.701 94.12C755.701 94.12 754.681 93.79 753.641 93.13C752.601 92.47 751.881 91.71 751.481 90.85C750.941 89.15 750.671 88.06 750.671 87.58C750.671 86.78 750.841 85.93 751.181 85.03C751.541 84.13 751.991 83.35 752.531 82.69C752.891 82.23 753.511 81.84 754.391 81.52C755.271 81.18 756.071 81.01 756.791 81.01C758.191 81.01 759.371 81.28 760.331 81.82C761.311 82.34 762.131 83.19 762.791 84.37ZM760.181 89.2C760.281 89 760.331 88.33 760.331 87.19C760.331 86.61 760.221 86.04 760.001 85.48C759.801 84.92 759.501 84.44 759.101 84.04C759.061 84 758.951 83.94 758.771 83.86C758.591 83.76 758.341 83.67 758.021 83.59C757.721 83.49 757.371 83.44 756.971 83.44C755.851 83.44 755.031 83.89 754.511 84.79C753.991 85.69 753.731 86.71 753.731 87.85C753.731 88.03 753.791 88.4 753.911 88.96C754.031 89.52 754.121 89.88 754.181 90.04C754.341 90.32 754.661 90.65 755.141 91.03C755.641 91.39 756.181 91.57 756.761 91.57C757.661 91.57 758.371 91.36 758.891 90.94C759.431 90.5 759.861 89.92 760.181 89.2ZM779.885 91.69C779.985 91.73 780.145 91.78 780.365 91.84C780.585 91.9 780.745 91.96 780.845 92.02C780.945 92.08 780.995 92.17 780.995 92.29C781.015 92.77 780.835 93.17 780.455 93.49C780.095 93.79 779.665 93.94 779.165 93.94C778.385 93.94 777.775 93.73 777.335 93.31C776.895 92.89 776.575 92.25 776.375 91.39C776.295 91.05 776.255 90.58 776.255 89.98C776.255 89.64 776.275 89.09 776.315 88.33C776.355 87.53 776.375 86.89 776.375 86.41C776.375 85.55 776.285 84.9 776.105 84.46C775.925 84 775.495 83.77 774.815 83.77C774.115 83.77 773.485 84.05 772.925 84.61C772.385 85.17 771.925 86.01 771.545 87.13C771.025 88.69 770.735 90.76 770.675 93.34C770.675 93.48 770.525 93.65 770.225 93.85C769.945 94.03 769.605 94.12 769.205 94.12C768.465 94.12 768.005 93.73 767.825 92.95L767.795 92.44C767.795 92.26 767.815 92.05 767.855 91.81C768.095 90.41 768.215 89.19 768.215 88.15C768.215 87.69 768.205 87.33 768.185 87.07L768.155 85.66C768.155 85.18 768.035 84.72 767.795 84.28C767.555 83.82 767.275 83.59 766.955 83.59C766.855 83.59 766.715 83.63 766.535 83.71C766.355 83.77 766.205 83.8 766.085 83.8C765.885 83.8 765.665 83.7 765.425 83.5C765.205 83.3 765.095 83.09 765.095 82.87C765.095 82.45 765.235 82.11 765.515 81.85C765.815 81.61 766.105 81.42 766.385 81.28C766.685 81.14 767.025 81.07 767.405 81.07C767.725 81.07 767.985 81.1 768.185 81.16C768.385 81.22 768.655 81.35 768.995 81.55C769.195 81.65 769.425 81.93 769.685 82.39C769.945 82.85 770.145 83.5 770.285 84.34C770.685 83.6 771.355 82.82 772.295 82C772.995 81.36 774.005 81.04 775.325 81.04C776.525 81.04 777.475 81.48 778.175 82.36C778.875 83.22 779.225 84.41 779.225 85.93C779.225 86.23 779.205 86.72 779.165 87.4C779.105 87.94 779.075 88.51 779.075 89.11C779.075 90.51 779.345 91.37 779.885 91.69ZM791.627 87.25C791.787 87.35 792.097 87.54 792.557 87.82C793.037 88.08 793.357 88.39 793.517 88.75C793.677 89.11 793.757 89.61 793.757 90.25C793.757 90.97 793.547 91.61 793.127 92.17C792.707 92.71 792.167 93.13 791.507 93.43C791.027 93.65 790.437 93.82 789.737 93.94C789.057 94.06 788.517 94.12 788.117 94.12C787.717 94.12 787.197 94.06 786.557 93.94C785.937 93.82 785.507 93.71 785.267 93.61C784.647 93.25 784.107 92.81 783.647 92.29C783.207 91.77 782.987 91.24 782.987 90.7C782.987 90.3 783.117 89.99 783.377 89.77C783.637 89.53 783.977 89.41 784.397 89.41C784.597 89.41 784.807 89.49 785.027 89.65C785.247 89.79 785.397 89.94 785.477 90.1C785.697 90.62 786.067 91.01 786.587 91.27C787.107 91.53 787.637 91.66 788.177 91.66C788.877 91.66 789.527 91.55 790.127 91.33C790.727 91.09 791.027 90.77 791.027 90.37C791.027 90.19 790.977 90.05 790.877 89.95C790.797 89.83 790.677 89.71 790.517 89.59C790.237 89.39 789.817 89.23 789.257 89.11C788.697 88.97 788.337 88.88 788.177 88.84C787.357 88.66 786.557 88.39 785.777 88.03C784.997 87.65 784.377 87.2 783.917 86.68C783.457 86.16 783.227 85.49 783.227 84.67C783.227 84.13 783.427 83.57 783.827 82.99C784.227 82.39 784.677 81.97 785.177 81.73C785.537 81.59 786.137 81.44 786.977 81.28C787.837 81.12 788.417 81.04 788.717 81.04C789.177 81.04 789.677 81.09 790.217 81.19C790.757 81.27 791.167 81.41 791.447 81.61C791.987 81.93 792.427 82.27 792.767 82.63C793.107 82.97 793.277 83.36 793.277 83.8C793.277 84.02 793.227 84.26 793.127 84.52C793.027 84.76 792.907 84.91 792.767 84.97C792.467 85.11 792.117 85.18 791.717 85.18C791.537 85.18 791.387 85.13 791.267 85.03C791.167 84.93 791.027 84.77 790.847 84.55C790.627 84.21 790.417 84.01 790.217 83.95C789.977 83.89 789.627 83.82 789.167 83.74C788.707 83.64 788.397 83.59 788.237 83.59C787.777 83.59 787.297 83.72 786.797 83.98C786.317 84.24 786.077 84.54 786.077 84.88C786.077 85.06 786.147 85.2 786.287 85.3C786.447 85.4 786.607 85.49 786.767 85.57C786.947 85.65 787.067 85.7 787.127 85.72C787.547 85.92 788.007 86.09 788.507 86.23C789.027 86.37 789.347 86.46 789.467 86.5C790.547 86.76 791.267 87.01 791.627 87.25ZM796.346 87.22C796.346 86.5 796.476 85.83 796.736 85.21C796.996 84.57 797.376 83.91 797.876 83.23C798.376 82.55 799.066 82.02 799.946 81.64C800.826 81.24 801.786 81.04 802.826 81.04C803.626 81.04 804.396 81.21 805.136 81.55C805.896 81.87 806.576 82.27 807.176 82.75C807.256 82.89 807.396 83.15 807.596 83.53C807.796 83.89 807.936 84.22 808.016 84.52C808.116 84.82 808.166 85.13 808.166 85.45C808.166 86.79 807.676 87.69 806.696 88.15C805.716 88.59 804.476 88.81 802.976 88.81C801.476 88.81 800.256 88.71 799.316 88.51C799.356 88.89 799.456 89.27 799.616 89.65C799.776 90.03 799.966 90.32 800.186 90.52C800.586 90.9 800.976 91.15 801.356 91.27C801.756 91.37 802.286 91.42 802.946 91.42C803.946 91.42 804.726 91.23 805.286 90.85C805.806 90.51 806.206 90.34 806.486 90.34C806.866 90.34 807.156 90.46 807.356 90.7C807.556 90.92 807.656 91.21 807.656 91.57C807.656 92.33 807.166 92.95 806.186 93.43C805.226 93.91 804.136 94.15 802.916 94.15C801.956 94.15 801.006 93.98 800.066 93.64C799.126 93.3 798.376 92.82 797.816 92.2C797.436 91.56 797.096 90.78 796.796 89.86C796.496 88.94 796.346 88.06 796.346 87.22ZM802.946 83.5C802.506 83.5 802.046 83.58 801.566 83.74C801.106 83.88 800.746 84.1 800.486 84.4C800.166 84.74 799.926 85.05 799.766 85.33C799.626 85.61 799.536 85.96 799.496 86.38C799.716 86.38 799.926 86.39 800.126 86.41C800.326 86.43 800.516 86.45 800.696 86.47C801.576 86.55 802.236 86.59 802.676 86.59C803.556 86.59 804.226 86.46 804.686 86.2C805.166 85.94 805.406 85.59 805.406 85.15C805.406 84.73 805.136 84.35 804.596 84.01C804.076 83.67 803.526 83.5 802.946 83.5Z" fill="white"/>
<path d="M172.46 195.07C173.68 195.55 174.66 196.19 175.4 196.99C176.14 197.79 176.51 198.71 176.51 199.75C176.51 200.05 176.44 200.43 176.3 200.89C176.18 201.33 176.01 201.71 175.79 202.03C174.47 204.07 172.14 205.09 168.8 205.09C167.06 205.09 165.55 204.74 164.27 204.04C162.99 203.32 162.35 202.25 162.35 200.83C162.35 198.81 163.74 197.08 166.52 195.64C163.92 194.68 162.62 193.26 162.62 191.38C162.62 190.24 162.94 189.28 163.58 188.5C164.22 187.72 165.06 187.14 166.1 186.76C167.16 186.38 168.31 186.19 169.55 186.19C170.47 186.19 171.41 186.41 172.37 186.85C173.33 187.27 173.99 187.82 174.35 188.5C174.71 189.26 174.89 189.97 174.89 190.63C174.89 191.49 174.71 192.28 174.35 193C174.01 193.72 173.38 194.41 172.46 195.07ZM169.34 194.17C169.98 193.75 170.47 193.41 170.81 193.15C171.17 192.87 171.47 192.54 171.71 192.16C171.97 191.76 172.1 191.3 172.1 190.78C172.1 190.18 171.86 189.68 171.38 189.28C170.9 188.88 170.32 188.68 169.64 188.68C168.18 188.68 167.16 188.93 166.58 189.43C166.02 189.93 165.74 190.52 165.74 191.2C165.74 191.74 165.92 192.2 166.28 192.58C166.64 192.94 167.04 193.23 167.48 193.45C167.94 193.65 168.56 193.89 169.34 194.17ZM173.33 199.54C173.33 199.2 173.11 198.84 172.67 198.46C172.25 198.08 171.75 197.75 171.17 197.47C170.59 197.17 170.1 196.97 169.7 196.87C169.02 197.15 168.27 197.6 167.45 198.22C166.63 198.82 166.13 199.26 165.95 199.54C165.75 199.82 165.61 200.06 165.53 200.26C165.47 200.44 165.44 200.66 165.44 200.92C165.44 201.22 165.62 201.51 165.98 201.79C166.34 202.05 166.77 202.26 167.27 202.42C167.77 202.58 168.2 202.66 168.56 202.66C169.98 202.66 171.13 202.38 172.01 201.82C172.89 201.24 173.33 200.48 173.33 199.54ZM186.484 199.6C186.484 198.48 186.494 197.63 186.514 197.05L186.544 194.2C186.544 193.04 186.514 191.77 186.454 190.39C186.434 189.97 186.364 189.39 186.244 188.65C186.084 187.53 186.004 186.69 186.004 186.13C186.004 185.21 186.464 184.75 187.384 184.75C187.964 184.75 188.374 184.91 188.614 185.23C188.874 185.53 189.054 186.01 189.154 186.67C189.354 188.05 189.454 189.67 189.454 191.53C189.454 192.09 189.434 192.93 189.394 194.05C189.774 193.45 190.264 192.98 190.864 192.64C191.484 192.3 192.094 192.13 192.694 192.13C194.434 192.13 195.934 192.85 197.194 194.29C197.534 194.79 197.834 195.39 198.094 196.09C198.374 196.77 198.514 197.36 198.514 197.86C198.514 198.74 198.414 199.55 198.214 200.29C198.034 201.03 197.704 201.75 197.224 202.45C196.744 203.15 196.134 203.72 195.394 204.16C194.674 204.6 193.834 204.82 192.874 204.82C192.034 204.82 191.274 204.65 190.594 204.31C189.934 203.97 189.404 203.52 189.004 202.96C188.904 203.46 188.684 203.96 188.344 204.46C188.004 204.94 187.614 205.18 187.174 205.18C186.814 205.18 186.514 205.09 186.274 204.91C186.034 204.71 185.914 204.42 185.914 204.04C185.914 203.76 185.974 203.41 186.094 202.99C186.214 202.41 186.304 201.88 186.364 201.4C186.444 200.9 186.484 200.3 186.484 199.6ZM192.124 202.33C193.104 202.33 193.924 201.99 194.584 201.31C195.244 200.61 195.574 199.67 195.574 198.49C195.574 197.41 195.284 196.48 194.704 195.7C194.504 195.44 194.214 195.23 193.834 195.07C193.474 194.91 193.114 194.83 192.754 194.83C191.914 194.83 191.204 195.08 190.624 195.58C190.044 196.06 189.714 196.73 189.634 197.59C189.554 198.75 189.514 199.75 189.514 200.59C189.754 201.05 190.114 201.46 190.594 201.82C191.094 202.16 191.604 202.33 192.124 202.33ZM202.88 185.74C203.58 185.8 204.19 185.99 204.71 186.31C205.23 186.61 205.49 187.07 205.49 187.69C205.49 188.15 205.27 188.52 204.83 188.8C204.41 189.06 203.9 189.19 203.3 189.19C202.72 189.19 202.32 189.04 202.1 188.74C201.88 188.44 201.77 188.13 201.77 187.81C201.77 187.21 201.83 186.71 201.95 186.31C202.09 185.91 202.4 185.72 202.88 185.74ZM205.28 199.03V199.9C205.28 200.68 205.3 201.42 205.34 202.12C205.4 202.8 205.47 203.49 205.55 204.19C205.53 204.39 205.38 204.6 205.1 204.82C204.82 205.02 204.57 205.12 204.35 205.12C203.97 205.12 203.58 205.05 203.18 204.91C202.8 204.75 202.57 204.56 202.49 204.34C202.37 203.7 202.31 203.13 202.31 202.63C202.31 200.99 202.26 199.15 202.16 197.11C202.08 195.31 202.04 194.05 202.04 193.33C202.04 192.97 202.22 192.66 202.58 192.4C202.94 192.14 203.32 192.01 203.72 192.01C204.3 192.01 204.7 192.14 204.92 192.4C205.16 192.66 205.28 193.07 205.28 193.63V199.03ZM209.026 194.56C208.746 194.52 208.516 194.41 208.336 194.23C208.176 194.03 208.096 193.79 208.096 193.51C208.096 193.15 208.236 192.85 208.516 192.61C208.576 192.55 208.676 192.5 208.816 192.46C208.956 192.4 209.066 192.35 209.146 192.31C209.586 192.17 209.866 192.06 209.986 191.98C210.446 191.7 210.756 191.24 210.916 190.6C211.076 189.84 211.176 189.32 211.216 189.04C211.256 188.6 211.396 188.27 211.636 188.05C211.896 187.81 212.216 187.69 212.596 187.69C213.096 187.69 213.446 187.82 213.646 188.08C213.846 188.34 213.946 188.82 213.946 189.52C213.946 190.44 213.726 191.31 213.286 192.13C213.566 192.13 214.026 192.11 214.666 192.07C215.626 192.03 216.296 192.01 216.676 192.01C217.016 192.01 217.306 192.1 217.546 192.28C217.806 192.44 217.936 192.68 217.936 193C217.936 193.76 217.586 194.21 216.886 194.35C216.246 194.53 215.086 194.64 213.406 194.68C213.266 196.64 213.196 198.19 213.196 199.33C213.196 200.03 213.226 200.53 213.286 200.83C213.406 201.45 213.606 201.91 213.886 202.21C214.186 202.49 214.626 202.63 215.206 202.63C215.486 202.63 215.906 202.56 216.466 202.42C216.806 202.32 217.076 202.27 217.276 202.27C217.536 202.27 217.736 202.36 217.876 202.54C218.016 202.72 218.086 202.96 218.086 203.26C218.086 203.8 217.736 204.25 217.036 204.61C216.336 204.95 215.506 205.12 214.546 205.12C213.946 205.12 213.356 204.98 212.776 204.7C212.196 204.4 211.706 204.04 211.306 203.62C211.226 203.58 211.106 203.36 210.946 202.96C210.806 202.56 210.666 202.12 210.526 201.64C210.466 201.4 210.436 200.82 210.436 199.9C210.436 199.02 210.496 197.5 210.616 195.34L210.646 194.68C210.506 194.68 210.246 194.67 209.866 194.65C209.486 194.61 209.206 194.58 209.026 194.56ZM228.766 198.13C229.566 198.59 230.126 199.05 230.446 199.51C230.766 199.95 230.926 200.53 230.926 201.25C230.926 201.97 230.716 202.61 230.296 203.17C229.876 203.71 229.336 204.13 228.676 204.43C228.196 204.65 227.596 204.82 226.876 204.94C226.176 205.06 225.626 205.12 225.226 205.12C224.526 205.12 223.766 204.99 222.946 204.73C222.126 204.47 221.426 204.1 220.846 203.62C220.286 203.14 220.006 202.58 220.006 201.94C220.006 201.54 220.136 201.23 220.396 201.01C220.656 200.77 220.996 200.65 221.416 200.65C221.756 200.65 222.116 200.89 222.496 201.37C222.876 201.79 223.316 202.11 223.816 202.33C224.336 202.55 224.846 202.66 225.346 202.66C227.246 202.66 228.196 202.23 228.196 201.37C228.196 201.19 228.136 201.02 228.016 200.86C227.896 200.68 227.786 200.56 227.686 200.5C227.506 200.36 227.256 200.24 226.936 200.14C226.616 200.04 226.296 199.96 225.976 199.9C225.656 199.82 225.416 199.76 225.256 199.72C225.096 199.68 224.756 199.61 224.236 199.51C223.736 199.41 223.256 199.24 222.796 199C222.036 198.64 221.416 198.2 220.936 197.68C220.476 197.16 220.246 196.49 220.246 195.67C220.246 195.21 220.356 194.75 220.576 194.29C220.816 193.81 221.136 193.45 221.536 193.21C222.136 192.83 222.796 192.54 223.516 192.34C224.236 192.14 224.906 192.04 225.526 192.04C226.026 192.04 226.586 192.09 227.206 192.19C227.846 192.29 228.306 192.43 228.586 192.61C229.106 192.89 229.486 193.18 229.726 193.48C229.966 193.78 230.086 194.16 230.086 194.62C230.086 194.84 230.036 195.06 229.936 195.28C229.836 195.48 229.716 195.62 229.576 195.7C229.256 195.82 228.976 195.88 228.736 195.88C228.556 195.88 228.406 195.85 228.286 195.79C228.166 195.71 228.056 195.63 227.956 195.55C227.876 195.47 227.826 195.42 227.806 195.4C227.546 195.12 227.256 194.9 226.936 194.74C226.616 194.58 226.146 194.5 225.526 194.5C225.126 194.5 224.736 194.56 224.356 194.68C223.996 194.78 223.716 194.91 223.516 195.07C223.356 195.19 223.246 195.3 223.186 195.4C223.126 195.48 223.096 195.59 223.096 195.73C223.096 196.29 223.656 196.7 224.776 196.96C225.916 197.22 226.516 197.36 226.576 197.38C226.696 197.42 227.026 197.52 227.566 197.68C228.126 197.84 228.526 197.99 228.766 198.13Z" fill="black"/>
<path d="M460.46 195.07C461.68 195.55 462.66 196.19 463.4 196.99C464.14 197.79 464.51 198.71 464.51 199.75C464.51 200.05 464.44 200.43 464.3 200.89C464.18 201.33 464.01 201.71 463.79 202.03C462.47 204.07 460.14 205.09 456.8 205.09C455.06 205.09 453.55 204.74 452.27 204.04C450.99 203.32 450.35 202.25 450.35 200.83C450.35 198.81 451.74 197.08 454.52 195.64C451.92 194.68 450.62 193.26 450.62 191.38C450.62 190.24 450.94 189.28 451.58 188.5C452.22 187.72 453.06 187.14 454.1 186.76C455.16 186.38 456.31 186.19 457.55 186.19C458.47 186.19 459.41 186.41 460.37 186.85C461.33 187.27 461.99 187.82 462.35 188.5C462.71 189.26 462.89 189.97 462.89 190.63C462.89 191.49 462.71 192.28 462.35 193C462.01 193.72 461.38 194.41 460.46 195.07ZM457.34 194.17C457.98 193.75 458.47 193.41 458.81 193.15C459.17 192.87 459.47 192.54 459.71 192.16C459.97 191.76 460.1 191.3 460.1 190.78C460.1 190.18 459.86 189.68 459.38 189.28C458.9 188.88 458.32 188.68 457.64 188.68C456.18 188.68 455.16 188.93 454.58 189.43C454.02 189.93 453.74 190.52 453.74 191.2C453.74 191.74 453.92 192.2 454.28 192.58C454.64 192.94 455.04 193.23 455.48 193.45C455.94 193.65 456.56 193.89 457.34 194.17ZM461.33 199.54C461.33 199.2 461.11 198.84 460.67 198.46C460.25 198.08 459.75 197.75 459.17 197.47C458.59 197.17 458.1 196.97 457.7 196.87C457.02 197.15 456.27 197.6 455.45 198.22C454.63 198.82 454.13 199.26 453.95 199.54C453.75 199.82 453.61 200.06 453.53 200.26C453.47 200.44 453.44 200.66 453.44 200.92C453.44 201.22 453.62 201.51 453.98 201.79C454.34 202.05 454.77 202.26 455.27 202.42C455.77 202.58 456.2 202.66 456.56 202.66C457.98 202.66 459.13 202.38 460.01 201.82C460.89 201.24 461.33 200.48 461.33 199.54ZM474.484 199.6C474.484 198.48 474.494 197.63 474.514 197.05L474.544 194.2C474.544 193.04 474.514 191.77 474.454 190.39C474.434 189.97 474.364 189.39 474.244 188.65C474.084 187.53 474.004 186.69 474.004 186.13C474.004 185.21 474.464 184.75 475.384 184.75C475.964 184.75 476.374 184.91 476.614 185.23C476.874 185.53 477.054 186.01 477.154 186.67C477.354 188.05 477.454 189.67 477.454 191.53C477.454 192.09 477.434 192.93 477.394 194.05C477.774 193.45 478.264 192.98 478.864 192.64C479.484 192.3 480.094 192.13 480.694 192.13C482.434 192.13 483.934 192.85 485.194 194.29C485.534 194.79 485.834 195.39 486.094 196.09C486.374 196.77 486.514 197.36 486.514 197.86C486.514 198.74 486.414 199.55 486.214 200.29C486.034 201.03 485.704 201.75 485.224 202.45C484.744 203.15 484.134 203.72 483.394 204.16C482.674 204.6 481.834 204.82 480.874 204.82C480.034 204.82 479.274 204.65 478.594 204.31C477.934 203.97 477.404 203.52 477.004 202.96C476.904 203.46 476.684 203.96 476.344 204.46C476.004 204.94 475.614 205.18 475.174 205.18C474.814 205.18 474.514 205.09 474.274 204.91C474.034 204.71 473.914 204.42 473.914 204.04C473.914 203.76 473.974 203.41 474.094 202.99C474.214 202.41 474.304 201.88 474.364 201.4C474.444 200.9 474.484 200.3 474.484 199.6ZM480.124 202.33C481.104 202.33 481.924 201.99 482.584 201.31C483.244 200.61 483.574 199.67 483.574 198.49C483.574 197.41 483.284 196.48 482.704 195.7C482.504 195.44 482.214 195.23 481.834 195.07C481.474 194.91 481.114 194.83 480.754 194.83C479.914 194.83 479.204 195.08 478.624 195.58C478.044 196.06 477.714 196.73 477.634 197.59C477.554 198.75 477.514 199.75 477.514 200.59C477.754 201.05 478.114 201.46 478.594 201.82C479.094 202.16 479.604 202.33 480.124 202.33ZM490.88 185.74C491.58 185.8 492.19 185.99 492.71 186.31C493.23 186.61 493.49 187.07 493.49 187.69C493.49 188.15 493.27 188.52 492.83 188.8C492.41 189.06 491.9 189.19 491.3 189.19C490.72 189.19 490.32 189.04 490.1 188.74C489.88 188.44 489.77 188.13 489.77 187.81C489.77 187.21 489.83 186.71 489.95 186.31C490.09 185.91 490.4 185.72 490.88 185.74ZM493.28 199.03V199.9C493.28 200.68 493.3 201.42 493.34 202.12C493.4 202.8 493.47 203.49 493.55 204.19C493.53 204.39 493.38 204.6 493.1 204.82C492.82 205.02 492.57 205.12 492.35 205.12C491.97 205.12 491.58 205.05 491.18 204.91C490.8 204.75 490.57 204.56 490.49 204.34C490.37 203.7 490.31 203.13 490.31 202.63C490.31 200.99 490.26 199.15 490.16 197.11C490.08 195.31 490.04 194.05 490.04 193.33C490.04 192.97 490.22 192.66 490.58 192.4C490.94 192.14 491.32 192.01 491.72 192.01C492.3 192.01 492.7 192.14 492.92 192.4C493.16 192.66 493.28 193.07 493.28 193.63V199.03ZM497.026 194.56C496.746 194.52 496.516 194.41 496.336 194.23C496.176 194.03 496.096 193.79 496.096 193.51C496.096 193.15 496.236 192.85 496.516 192.61C496.576 192.55 496.676 192.5 496.816 192.46C496.956 192.4 497.066 192.35 497.146 192.31C497.586 192.17 497.866 192.06 497.986 191.98C498.446 191.7 498.756 191.24 498.916 190.6C499.076 189.84 499.176 189.32 499.216 189.04C499.256 188.6 499.396 188.27 499.636 188.05C499.896 187.81 500.216 187.69 500.596 187.69C501.096 187.69 501.446 187.82 501.646 188.08C501.846 188.34 501.946 188.82 501.946 189.52C501.946 190.44 501.726 191.31 501.286 192.13C501.566 192.13 502.026 192.11 502.666 192.07C503.626 192.03 504.296 192.01 504.676 192.01C505.016 192.01 505.306 192.1 505.546 192.28C505.806 192.44 505.936 192.68 505.936 193C505.936 193.76 505.586 194.21 504.886 194.35C504.246 194.53 503.086 194.64 501.406 194.68C501.266 196.64 501.196 198.19 501.196 199.33C501.196 200.03 501.226 200.53 501.286 200.83C501.406 201.45 501.606 201.91 501.886 202.21C502.186 202.49 502.626 202.63 503.206 202.63C503.486 202.63 503.906 202.56 504.466 202.42C504.806 202.32 505.076 202.27 505.276 202.27C505.536 202.27 505.736 202.36 505.876 202.54C506.016 202.72 506.086 202.96 506.086 203.26C506.086 203.8 505.736 204.25 505.036 204.61C504.336 204.95 503.506 205.12 502.546 205.12C501.946 205.12 501.356 204.98 500.776 204.7C500.196 204.4 499.706 204.04 499.306 203.62C499.226 203.58 499.106 203.36 498.946 202.96C498.806 202.56 498.666 202.12 498.526 201.64C498.466 201.4 498.436 200.82 498.436 199.9C498.436 199.02 498.496 197.5 498.616 195.34L498.646 194.68C498.506 194.68 498.246 194.67 497.866 194.65C497.486 194.61 497.206 194.58 497.026 194.56ZM516.766 198.13C517.566 198.59 518.126 199.05 518.446 199.51C518.766 199.95 518.926 200.53 518.926 201.25C518.926 201.97 518.716 202.61 518.296 203.17C517.876 203.71 517.336 204.13 516.676 204.43C516.196 204.65 515.596 204.82 514.876 204.94C514.176 205.06 513.626 205.12 513.226 205.12C512.526 205.12 511.766 204.99 510.946 204.73C510.126 204.47 509.426 204.1 508.846 203.62C508.286 203.14 508.006 202.58 508.006 201.94C508.006 201.54 508.136 201.23 508.396 201.01C508.656 200.77 508.996 200.65 509.416 200.65C509.756 200.65 510.116 200.89 510.496 201.37C510.876 201.79 511.316 202.11 511.816 202.33C512.336 202.55 512.846 202.66 513.346 202.66C515.246 202.66 516.196 202.23 516.196 201.37C516.196 201.19 516.136 201.02 516.016 200.86C515.896 200.68 515.786 200.56 515.686 200.5C515.506 200.36 515.256 200.24 514.936 200.14C514.616 200.04 514.296 199.96 513.976 199.9C513.656 199.82 513.416 199.76 513.256 199.72C513.096 199.68 512.756 199.61 512.236 199.51C511.736 199.41 511.256 199.24 510.796 199C510.036 198.64 509.416 198.2 508.936 197.68C508.476 197.16 508.246 196.49 508.246 195.67C508.246 195.21 508.356 194.75 508.576 194.29C508.816 193.81 509.136 193.45 509.536 193.21C510.136 192.83 510.796 192.54 511.516 192.34C512.236 192.14 512.906 192.04 513.526 192.04C514.026 192.04 514.586 192.09 515.206 192.19C515.846 192.29 516.306 192.43 516.586 192.61C517.106 192.89 517.486 193.18 517.726 193.48C517.966 193.78 518.086 194.16 518.086 194.62C518.086 194.84 518.036 195.06 517.936 195.28C517.836 195.48 517.716 195.62 517.576 195.7C517.256 195.82 516.976 195.88 516.736 195.88C516.556 195.88 516.406 195.85 516.286 195.79C516.166 195.71 516.056 195.63 515.956 195.55C515.876 195.47 515.826 195.42 515.806 195.4C515.546 195.12 515.256 194.9 514.936 194.74C514.616 194.58 514.146 194.5 513.526 194.5C513.126 194.5 512.736 194.56 512.356 194.68C511.996 194.78 511.716 194.91 511.516 195.07C511.356 195.19 511.246 195.3 511.186 195.4C511.126 195.48 511.096 195.59 511.096 195.73C511.096 196.29 511.656 196.7 512.776 196.96C513.916 197.22 514.516 197.36 514.576 197.38C514.696 197.42 515.026 197.52 515.566 197.68C516.126 197.84 516.526 197.99 516.766 198.13Z" fill="black"/>
<path d="M704.46 195.07C705.68 195.55 706.66 196.19 707.4 196.99C708.14 197.79 708.51 198.71 708.51 199.75C708.51 200.05 708.44 200.43 708.3 200.89C708.18 201.33 708.01 201.71 707.79 202.03C706.47 204.07 704.14 205.09 700.8 205.09C699.06 205.09 697.55 204.74 696.27 204.04C694.99 203.32 694.35 202.25 694.35 200.83C694.35 198.81 695.74 197.08 698.52 195.64C695.92 194.68 694.62 193.26 694.62 191.38C694.62 190.24 694.94 189.28 695.58 188.5C696.22 187.72 697.06 187.14 698.1 186.76C699.16 186.38 700.31 186.19 701.55 186.19C702.47 186.19 703.41 186.41 704.37 186.85C705.33 187.27 705.99 187.82 706.35 188.5C706.71 189.26 706.89 189.97 706.89 190.63C706.89 191.49 706.71 192.28 706.35 193C706.01 193.72 705.38 194.41 704.46 195.07ZM701.34 194.17C701.98 193.75 702.47 193.41 702.81 193.15C703.17 192.87 703.47 192.54 703.71 192.16C703.97 191.76 704.1 191.3 704.1 190.78C704.1 190.18 703.86 189.68 703.38 189.28C702.9 188.88 702.32 188.68 701.64 188.68C700.18 188.68 699.16 188.93 698.58 189.43C698.02 189.93 697.74 190.52 697.74 191.2C697.74 191.74 697.92 192.2 698.28 192.58C698.64 192.94 699.04 193.23 699.48 193.45C699.94 193.65 700.56 193.89 701.34 194.17ZM705.33 199.54C705.33 199.2 705.11 198.84 704.67 198.46C704.25 198.08 703.75 197.75 703.17 197.47C702.59 197.17 702.1 196.97 701.7 196.87C701.02 197.15 700.27 197.6 699.45 198.22C698.63 198.82 698.13 199.26 697.95 199.54C697.75 199.82 697.61 200.06 697.53 200.26C697.47 200.44 697.44 200.66 697.44 200.92C697.44 201.22 697.62 201.51 697.98 201.79C698.34 202.05 698.77 202.26 699.27 202.42C699.77 202.58 700.2 202.66 700.56 202.66C701.98 202.66 703.13 202.38 704.01 201.82C704.89 201.24 705.33 200.48 705.33 199.54ZM728.414 200.74C728.454 200.78 728.574 200.9 728.774 201.1C728.994 201.3 729.164 201.52 729.284 201.76C729.424 201.98 729.494 202.21 729.494 202.45C729.494 202.79 729.354 203.08 729.074 203.32C728.794 203.54 728.464 203.65 728.084 203.65C727.804 203.65 727.404 203.45 726.884 203.05C726.384 202.65 725.794 202.13 725.114 201.49C724.714 201.09 724.474 200.87 724.394 200.83C723.894 200.53 723.534 200.23 723.314 199.93C723.034 200.11 722.744 200.37 722.444 200.71C722.164 201.05 721.964 201.29 721.844 201.43C721.564 201.81 721.034 202.41 720.254 203.23C720.014 203.49 719.794 203.68 719.594 203.8C719.414 203.92 719.174 203.98 718.874 203.98C718.554 203.98 718.244 203.88 717.944 203.68C717.664 203.46 717.524 203.19 717.524 202.87C717.524 202.47 717.754 201.96 718.214 201.34C718.654 200.86 719.134 200.41 719.654 199.99C720.094 199.61 720.434 199.29 720.674 199.03C720.934 198.77 721.144 198.48 721.304 198.16C721.004 197.8 720.654 197.45 720.254 197.11C719.854 196.75 719.434 196.4 718.994 196.06C718.094 195.2 717.644 194.54 717.644 194.08C717.644 193.78 717.804 193.48 718.124 193.18C718.444 192.88 718.814 192.73 719.234 192.73C719.574 192.73 719.914 192.9 720.254 193.24C720.594 193.56 720.964 193.96 721.364 194.44C722.324 195.48 722.974 196.11 723.314 196.33C723.694 195.89 724.124 195.46 724.604 195.04C725.324 194.3 725.894 193.76 726.314 193.42C726.754 193.08 727.134 192.91 727.454 192.91C727.854 192.91 728.204 193.01 728.504 193.21C728.804 193.41 728.954 193.69 728.954 194.05C728.954 194.37 728.914 194.6 728.834 194.74C728.754 194.88 728.644 195.01 728.504 195.13C727.024 196.07 725.904 197.06 725.144 198.1C725.524 198.5 726.084 198.96 726.824 199.48C727.544 200 728.074 200.42 728.414 200.74ZM752.86 202.69C752.96 202.73 753.12 202.78 753.34 202.84C753.56 202.9 753.72 202.96 753.82 203.02C753.92 203.08 753.97 203.17 753.97 203.29C753.99 203.77 753.81 204.17 753.43 204.49C753.07 204.79 752.64 204.94 752.14 204.94C751.36 204.94 750.75 204.73 750.31 204.31C749.87 203.89 749.55 203.25 749.35 202.39C749.27 202.05 749.23 201.58 749.23 200.98C749.23 200.64 749.25 200.09 749.29 199.33C749.33 198.53 749.35 197.89 749.35 197.41C749.35 196.71 749.15 196.1 748.75 195.58C748.37 195.04 747.83 194.77 747.13 194.77C746.71 194.77 746.27 194.9 745.81 195.16C745.35 195.4 745.03 195.7 744.85 196.06C744.55 196.64 744.34 197.27 744.22 197.95C744 199.15 743.89 200.4 743.89 201.7C743.89 202.32 743.9 202.8 743.92 203.14C743.92 203.22 743.92 203.38 743.92 203.62C743.94 203.84 743.92 204.05 743.86 204.25C743.82 204.43 743.74 204.6 743.62 204.76C743.52 204.86 743.36 204.94 743.14 205C742.94 205.08 742.75 205.12 742.57 205.12C742.29 205.12 741.94 205 741.52 204.76C741.1 204.52 740.86 204.25 740.8 203.95L740.77 203.44C740.77 203.26 740.79 203.05 740.83 202.81C741.07 201.41 741.19 200.19 741.19 199.15C741.19 198.69 741.18 198.33 741.16 198.07L741.13 196.66C741.13 196.18 741.01 195.72 740.77 195.28C740.53 194.82 740.25 194.59 739.93 194.59C739.83 194.59 739.69 194.63 739.51 194.71C739.33 194.77 739.18 194.8 739.06 194.8C738.86 194.8 738.64 194.7 738.4 194.5C738.18 194.3 738.07 194.09 738.07 193.87C738.07 193.45 738.21 193.11 738.49 192.85C738.79 192.61 739.08 192.42 739.36 192.28C739.66 192.14 740 192.07 740.38 192.07C740.7 192.07 740.96 192.1 741.16 192.16C741.36 192.22 741.63 192.35 741.97 192.55C742.15 192.65 742.36 192.87 742.6 193.21C742.84 193.55 743.04 194.03 743.2 194.65C743.72 193.69 744.36 193.02 745.12 192.64C745.9 192.24 746.89 192.04 748.09 192.04C748.55 192.04 749.04 192.19 749.56 192.49C750.1 192.79 750.56 193.14 750.94 193.54C751.3 193.98 751.6 194.53 751.84 195.19C752.08 195.83 752.2 196.41 752.2 196.93C752.2 197.23 752.18 197.72 752.14 198.4C752.08 198.94 752.05 199.51 752.05 200.11C752.05 201.51 752.32 202.37 752.86 202.69ZM763.601 199.6C763.601 198.48 763.611 197.63 763.631 197.05L763.661 194.2C763.661 193.04 763.631 191.77 763.571 190.39C763.551 189.97 763.481 189.39 763.361 188.65C763.201 187.53 763.121 186.69 763.121 186.13C763.121 185.21 763.581 184.75 764.501 184.75C765.081 184.75 765.491 184.91 765.731 185.23C765.991 185.53 766.171 186.01 766.271 186.67C766.471 188.05 766.571 189.67 766.571 191.53C766.571 192.09 766.551 192.93 766.511 194.05C766.891 193.45 767.381 192.98 767.981 192.64C768.601 192.3 769.211 192.13 769.811 192.13C771.551 192.13 773.051 192.85 774.311 194.29C774.651 194.79 774.951 195.39 775.211 196.09C775.491 196.77 775.631 197.36 775.631 197.86C775.631 198.74 775.531 199.55 775.331 200.29C775.151 201.03 774.821 201.75 774.341 202.45C773.861 203.15 773.251 203.72 772.511 204.16C771.791 204.6 770.951 204.82 769.991 204.82C769.151 204.82 768.391 204.65 767.711 204.31C767.051 203.97 766.521 203.52 766.121 202.96C766.021 203.46 765.801 203.96 765.461 204.46C765.121 204.94 764.731 205.18 764.291 205.18C763.931 205.18 763.631 205.09 763.391 204.91C763.151 204.71 763.031 204.42 763.031 204.04C763.031 203.76 763.091 203.41 763.211 202.99C763.331 202.41 763.421 201.88 763.481 201.4C763.561 200.9 763.601 200.3 763.601 199.6ZM769.241 202.33C770.221 202.33 771.041 201.99 771.701 201.31C772.361 200.61 772.691 199.67 772.691 198.49C772.691 197.41 772.401 196.48 771.821 195.7C771.621 195.44 771.331 195.23 770.951 195.07C770.591 194.91 770.231 194.83 769.871 194.83C769.031 194.83 768.321 195.08 767.741 195.58C767.161 196.06 766.831 196.73 766.751 197.59C766.671 198.75 766.631 199.75 766.631 200.59C766.871 201.05 767.231 201.46 767.711 201.82C768.211 202.16 768.721 202.33 769.241 202.33ZM779.997 185.74C780.697 185.8 781.307 185.99 781.827 186.31C782.347 186.61 782.607 187.07 782.607 187.69C782.607 188.15 782.387 188.52 781.947 188.8C781.527 189.06 781.017 189.19 780.417 189.19C779.837 189.19 779.437 189.04 779.217 188.74C778.997 188.44 778.887 188.13 778.887 187.81C778.887 187.21 778.947 186.71 779.067 186.31C779.207 185.91 779.517 185.72 779.997 185.74ZM782.397 199.03V199.9C782.397 200.68 782.417 201.42 782.457 202.12C782.517 202.8 782.587 203.49 782.667 204.19C782.647 204.39 782.497 204.6 782.217 204.82C781.937 205.02 781.687 205.12 781.467 205.12C781.087 205.12 780.697 205.05 780.297 204.91C779.917 204.75 779.687 204.56 779.607 204.34C779.487 203.7 779.427 203.13 779.427 202.63C779.427 200.99 779.377 199.15 779.277 197.11C779.197 195.31 779.157 194.05 779.157 193.33C779.157 192.97 779.337 192.66 779.697 192.4C780.057 192.14 780.437 192.01 780.837 192.01C781.417 192.01 781.817 192.14 782.037 192.4C782.277 192.66 782.397 193.07 782.397 193.63V199.03ZM786.143 194.56C785.863 194.52 785.633 194.41 785.453 194.23C785.293 194.03 785.213 193.79 785.213 193.51C785.213 193.15 785.353 192.85 785.633 192.61C785.693 192.55 785.793 192.5 785.933 192.46C786.073 192.4 786.183 192.35 786.263 192.31C786.703 192.17 786.983 192.06 787.103 191.98C787.563 191.7 787.873 191.24 788.033 190.6C788.193 189.84 788.293 189.32 788.333 189.04C788.373 188.6 788.513 188.27 788.753 188.05C789.013 187.81 789.333 187.69 789.713 187.69C790.213 187.69 790.563 187.82 790.763 188.08C790.963 188.34 791.063 188.82 791.063 189.52C791.063 190.44 790.843 191.31 790.403 192.13C790.683 192.13 791.143 192.11 791.783 192.07C792.743 192.03 793.413 192.01 793.793 192.01C794.133 192.01 794.423 192.1 794.663 192.28C794.923 192.44 795.053 192.68 795.053 193C795.053 193.76 794.703 194.21 794.003 194.35C793.363 194.53 792.203 194.64 790.523 194.68C790.383 196.64 790.313 198.19 790.313 199.33C790.313 200.03 790.343 200.53 790.403 200.83C790.523 201.45 790.723 201.91 791.003 202.21C791.303 202.49 791.743 202.63 792.323 202.63C792.603 202.63 793.023 202.56 793.583 202.42C793.923 202.32 794.193 202.27 794.393 202.27C794.653 202.27 794.853 202.36 794.993 202.54C795.133 202.72 795.203 202.96 795.203 203.26C795.203 203.8 794.853 204.25 794.153 204.61C793.453 204.95 792.623 205.12 791.663 205.12C791.063 205.12 790.473 204.98 789.893 204.7C789.313 204.4 788.823 204.04 788.423 203.62C788.343 203.58 788.223 203.36 788.063 202.96C787.923 202.56 787.783 202.12 787.643 201.64C787.583 201.4 787.553 200.82 787.553 199.9C787.553 199.02 787.613 197.5 787.733 195.34L787.763 194.68C787.623 194.68 787.363 194.67 786.983 194.65C786.603 194.61 786.323 194.58 786.143 194.56ZM805.883 198.13C806.683 198.59 807.243 199.05 807.563 199.51C807.883 199.95 808.043 200.53 808.043 201.25C808.043 201.97 807.833 202.61 807.413 203.17C806.993 203.71 806.453 204.13 805.793 204.43C805.313 204.65 804.713 204.82 803.993 204.94C803.293 205.06 802.743 205.12 802.343 205.12C801.643 205.12 800.883 204.99 800.063 204.73C799.243 204.47 798.543 204.1 797.963 203.62C797.403 203.14 797.123 202.58 797.123 201.94C797.123 201.54 797.253 201.23 797.513 201.01C797.773 200.77 798.113 200.65 798.533 200.65C798.873 200.65 799.233 200.89 799.613 201.37C799.993 201.79 800.433 202.11 800.933 202.33C801.453 202.55 801.963 202.66 802.463 202.66C804.363 202.66 805.313 202.23 805.313 201.37C805.313 201.19 805.253 201.02 805.133 200.86C805.013 200.68 804.903 200.56 804.803 200.5C804.623 200.36 804.373 200.24 804.053 200.14C803.733 200.04 803.413 199.96 803.093 199.9C802.773 199.82 802.533 199.76 802.373 199.72C802.213 199.68 801.873 199.61 801.353 199.51C800.853 199.41 800.373 199.24 799.913 199C799.153 198.64 798.533 198.2 798.053 197.68C797.593 197.16 797.363 196.49 797.363 195.67C797.363 195.21 797.473 194.75 797.693 194.29C797.933 193.81 798.253 193.45 798.653 193.21C799.253 192.83 799.913 192.54 800.633 192.34C801.353 192.14 802.023 192.04 802.643 192.04C803.143 192.04 803.703 192.09 804.323 192.19C804.963 192.29 805.423 192.43 805.703 192.61C806.223 192.89 806.603 193.18 806.843 193.48C807.083 193.78 807.203 194.16 807.203 194.62C807.203 194.84 807.153 195.06 807.053 195.28C806.953 195.48 806.833 195.62 806.693 195.7C806.373 195.82 806.093 195.88 805.853 195.88C805.673 195.88 805.523 195.85 805.403 195.79C805.283 195.71 805.173 195.63 805.073 195.55C804.993 195.47 804.943 195.42 804.923 195.4C804.663 195.12 804.373 194.9 804.053 194.74C803.733 194.58 803.263 194.5 802.643 194.5C802.243 194.5 801.853 194.56 801.473 194.68C801.113 194.78 800.833 194.91 800.633 195.07C800.473 195.19 800.363 195.3 800.303 195.4C800.243 195.48 800.213 195.59 800.213 195.73C800.213 196.29 800.773 196.7 801.893 196.96C803.033 197.22 803.633 197.36 803.693 197.38C803.813 197.42 804.143 197.52 804.683 197.68C805.243 197.84 805.643 197.99 805.883 198.13Z" fill="black"/>
<line x1="364.5" y1="249" x2="364.5" y2="27" stroke="white" stroke-width="5"/>
<line x1="606.5" y1="249" x2="606.5" y2="27" stroke="white" stroke-width="5"/>
<line x1="914" y1="140.5" x2="55" y2="140.5" stroke="white" stroke-width="5"/>
<defs>
<filter id="filter0_d_24_183" x="51" y="27" width="867" height="119" filterUnits="userSpaceOnUse" color-interpolation-filters="sRGB">
<feFlood flood-opacity="0" result="BackgroundImageFix"/>
<feColorMatrix in="SourceAlpha" type="matrix" values="0 0 0 0 0 0 0 0 0 0 0 0 0 0 0 0 0 0 127 0" result="hardAlpha"/>
<feOffset dy="4"/>
<feGaussianBlur stdDeviation="2"/>
<feComposite in2="hardAlpha" operator="out"/>
<feColorMatrix type="matrix" values="0 0 0 0 0 0 0 0 0 0 0 0 0 0 0 0 0 0 0.25 0"/>
<feBlend mode="normal" in2="BackgroundImageFix" result="effect1_dropShadow_24_183"/>
<feBlend mode="normal" in="SourceGraphic" in2="effect1_dropShadow_24_183" result="shape"/>
</filter>
<filter id="filter1_d_24_183" x="51" y="138" width="867" height="119" filterUnits="userSpaceOnUse" color-interpolation-filters="sRGB">
<feFlood flood-opacity="0" result="BackgroundImageFix"/>
<feColorMatrix in="SourceAlpha" type="matrix" values="0 0 0 0 0 0 0 0 0 0 0 0 0 0 0 0 0 0 127 0" result="hardAlpha"/>
<feOffset dy="4"/>
<feGaussianBlur stdDeviation="2"/>
<feComposite in2="hardAlpha" operator="out"/>
<feColorMatrix type="matrix" values="0 0 0 0 0 0 0 0 0 0 0 0 0 0 0 0 0 0 0.25 0"/>
<feBlend mode="normal" in2="BackgroundImageFix" result="effect1_dropShadow_24_183"/>
<feBlend mode="normal" in="SourceGraphic" in2="effect1_dropShadow_24_183" result="shape"/>
</filter>
</defs>
</svg>
