<?xml version="1.0" encoding="us-ascii" standalone="no"?><svg xmlns="http://www.w3.org/2000/svg" xmlns:xlink="http://www.w3.org/1999/xlink" contentStyleType="text/css" height="1811px" preserveAspectRatio="none" style="width:1471px;height:1811px;background:#FFFFFF;" version="1.1" viewBox="0 0 1471 1811" width="1471px" zoomAndPan="magnify"><defs/><g><text fill="#000000" font-family="sans-serif" font-size="14" font-weight="bold" lengthAdjust="spacing" textLength="409" x="530.25" y="27.9951">BSP Sequence - Multiple Requests All Success Case</text><rect fill="#FF9F1C" height="50.2656" style="stroke:#1E1E1E;stroke-width:1.0;" width="10" x="38.5" y="83.5938"/><rect fill="#FF9F1C" height="58.2656" style="stroke:#1E1E1E;stroke-width:1.0;" width="10" x="38.5" y="1272.3047"/><rect fill="#FF9F1C" height="123.6641" style="stroke:#1E1E1E;stroke-width:1.0;" width="10" x="251.5" y="133.8594"/><rect fill="#FF9F1C" height="58.2656" style="stroke:#1E1E1E;stroke-width:1.0;" width="10" x="251.5" y="336.9219"/><rect fill="#FF9F1C" height="93.3984" style="stroke:#1E1E1E;stroke-width:1.0;" width="10" x="251.5" y="1178.9063"/><rect fill="#FF9F1C" height="108.5313" style="stroke:#1E1E1E;stroke-width:1.0;" width="10" x="251.5" y="1330.5703"/><rect fill="#FF9F1C" height="58.2656" style="stroke:#1E1E1E;stroke-width:1.0;" width="10" x="251.5" y="1518.5"/><rect fill="#FF9F1C" height="79.3984" style="stroke:#1E1E1E;stroke-width:1.0;" width="10" x="431.5" y="257.5234"/><rect fill="#FF9F1C" height="108.5313" style="stroke:#1E1E1E;stroke-width:1.0;" width="10" x="431.5" y="1070.375"/><rect fill="#FF9F1C" height="79.3984" style="stroke:#1E1E1E;stroke-width:1.0;" width="10" x="431.5" y="1439.1016"/><rect fill="#FF9F1C" height="58.2656" style="stroke:#1E1E1E;stroke-width:1.0;" width="10" x="632.5" y="395.1875"/><rect fill="#FF9F1C" height="58.2656" style="stroke:#1E1E1E;stroke-width:1.0;" width="10" x="632.5" y="1012.1094"/><rect fill="#FF9F1C" height="58.2656" style="stroke:#1E1E1E;stroke-width:1.0;" width="10" x="632.5" y="1576.7656"/><rect fill="#FF9F1C" height="58.2656" style="stroke:#1E1E1E;stroke-width:1.0;" width="10" x="818.5" y="453.4531"/><rect fill="#FF9F1C" height="58.2656" style="stroke:#1E1E1E;stroke-width:1.0;" width="10" x="818.5" y="953.8438"/><rect fill="#FF9F1C" height="58.2656" style="stroke:#1E1E1E;stroke-width:1.0;" width="10" x="818.5" y="1635.0313"/><rect fill="#FF9F1C" height="108.5313" style="stroke:#1E1E1E;stroke-width:1.0;" width="10" x="1017.5" y="511.7188"/><rect fill="#FF9F1C" height="108.5313" style="stroke:#1E1E1E;stroke-width:1.0;" width="10" x="1017.5" y="845.3125"/><rect fill="#FF9F1C" height="74.3984" style="stroke:#1E1E1E;stroke-width:1.0;" width="10" x="1017.5" y="1693.2969"/><rect fill="#FF9F1C" height="58.2656" style="stroke:#1E1E1E;stroke-width:1.0;" width="10" x="1197.5" y="620.25"/><rect fill="#FF9F1C" height="108.5313" style="stroke:#1E1E1E;stroke-width:1.0;" width="10" x="1197.5" y="736.7813"/><rect fill="#FF9F1C" height="58.2656" style="stroke:#1E1E1E;stroke-width:1.0;" width="10" x="1415.5" y="678.5156"/><line style="stroke:#1E1E1E;stroke-width:0.5;stroke-dasharray:5.0,5.0;" x1="43" x2="43" y1="73.5938" y2="1776.6953"/><line style="stroke:#1E1E1E;stroke-width:0.5;stroke-dasharray:5.0,5.0;" x1="256.5" x2="256.5" y1="73.5938" y2="1776.6953"/><line style="stroke:#1E1E1E;stroke-width:0.5;stroke-dasharray:5.0,5.0;" x1="436" x2="436" y1="73.5938" y2="1776.6953"/><line style="stroke:#1E1E1E;stroke-width:0.5;stroke-dasharray:5.0,5.0;" x1="637.5" x2="637.5" y1="73.5938" y2="1776.6953"/><line style="stroke:#1E1E1E;stroke-width:0.5;stroke-dasharray:5.0,5.0;" x1="823" x2="823" y1="73.5938" y2="1776.6953"/><line style="stroke:#1E1E1E;stroke-width:0.5;stroke-dasharray:5.0,5.0;" x1="1022.5" x2="1022.5" y1="73.5938" y2="1776.6953"/><line style="stroke:#1E1E1E;stroke-width:0.5;stroke-dasharray:5.0,5.0;" x1="1202" x2="1202" y1="73.5938" y2="1776.6953"/><line style="stroke:#1E1E1E;stroke-width:0.5;stroke-dasharray:5.0,5.0;" x1="1420.5" x2="1420.5" y1="73.5938" y2="1776.6953"/><rect fill="#053671" height="30.2969" rx="2.5" ry="2.5" style="stroke:#1E1E1E;stroke-width:0.5;" width="77" x="5" y="42.2969"/><text fill="#FFFFFF" font-family="sans-serif" font-size="14" lengthAdjust="spacing" textLength="63" x="12" y="62.292">Host App</text><rect fill="#053671" height="30.2969" rx="2.5" ry="2.5" style="stroke:#1E1E1E;stroke-width:0.5;" width="77" x="5" y="1775.6953"/><text fill="#FFFFFF" font-family="sans-serif" font-size="14" lengthAdjust="spacing" textLength="63" x="12" y="1795.6904">Host App</text><rect fill="#053671" height="30.2969" rx="2.5" ry="2.5" style="stroke:#1E1E1E;stroke-width:0.5;" width="122" x="195.5" y="42.2969"/><text fill="#FFFFFF" font-family="sans-serif" font-size="14" lengthAdjust="spacing" textLength="108" x="202.5" y="62.292">Host Cmd Layer</text><rect fill="#053671" height="30.2969" rx="2.5" ry="2.5" style="stroke:#1E1E1E;stroke-width:0.5;" width="122" x="195.5" y="1775.6953"/><text fill="#FFFFFF" font-family="sans-serif" font-size="14" lengthAdjust="spacing" textLength="108" x="202.5" y="1795.6904">Host Cmd Layer</text><rect fill="#053671" height="30.2969" rx="2.5" ry="2.5" style="stroke:#1E1E1E;stroke-width:0.5;" width="117" x="378" y="42.2969"/><text fill="#FFFFFF" font-family="sans-serif" font-size="14" lengthAdjust="spacing" textLength="103" x="385" y="62.292">Host DTL Layer</text><rect fill="#053671" height="30.2969" rx="2.5" ry="2.5" style="stroke:#1E1E1E;stroke-width:0.5;" width="117" x="378" y="1775.6953"/><text fill="#FFFFFF" font-family="sans-serif" font-size="14" lengthAdjust="spacing" textLength="103" x="385" y="1795.6904">Host DTL Layer</text><rect fill="#053671" height="30.2969" rx="2.5" ry="2.5" style="stroke:#1E1E1E;stroke-width:0.5;" width="118" x="578.5" y="42.2969"/><text fill="#FFFFFF" font-family="sans-serif" font-size="14" lengthAdjust="spacing" textLength="104" x="585.5" y="62.292">Host PHY Layer</text><rect fill="#053671" height="30.2969" rx="2.5" ry="2.5" style="stroke:#1E1E1E;stroke-width:0.5;" width="118" x="578.5" y="1775.6953"/><text fill="#FFFFFF" font-family="sans-serif" font-size="14" lengthAdjust="spacing" textLength="104" x="585.5" y="1795.6904">Host PHY Layer</text><rect fill="#053671" height="30.2969" rx="2.5" ry="2.5" style="stroke:#1E1E1E;stroke-width:0.5;" width="131" x="758" y="42.2969"/><text fill="#FFFFFF" font-family="sans-serif" font-size="14" lengthAdjust="spacing" textLength="117" x="765" y="62.292">Target PHY Layer</text><rect fill="#053671" height="30.2969" rx="2.5" ry="2.5" style="stroke:#1E1E1E;stroke-width:0.5;" width="131" x="758" y="1775.6953"/><text fill="#FFFFFF" font-family="sans-serif" font-size="14" lengthAdjust="spacing" textLength="117" x="765" y="1795.6904">Target PHY Layer</text><rect fill="#053671" height="30.2969" rx="2.5" ry="2.5" style="stroke:#1E1E1E;stroke-width:0.5;" width="130" x="957.5" y="42.2969"/><text fill="#FFFFFF" font-family="sans-serif" font-size="14" lengthAdjust="spacing" textLength="116" x="964.5" y="62.292">Target DTL Layer</text><rect fill="#053671" height="30.2969" rx="2.5" ry="2.5" style="stroke:#1E1E1E;stroke-width:0.5;" width="130" x="957.5" y="1775.6953"/><text fill="#FFFFFF" font-family="sans-serif" font-size="14" lengthAdjust="spacing" textLength="116" x="964.5" y="1795.6904">Target DTL Layer</text><rect fill="#053671" height="30.2969" rx="2.5" ry="2.5" style="stroke:#1E1E1E;stroke-width:0.5;" width="135" x="1135" y="42.2969"/><text fill="#FFFFFF" font-family="sans-serif" font-size="14" lengthAdjust="spacing" textLength="121" x="1142" y="62.292">Target Cmd Layer</text><rect fill="#053671" height="30.2969" rx="2.5" ry="2.5" style="stroke:#1E1E1E;stroke-width:0.5;" width="135" x="1135" y="1775.6953"/><text fill="#FFFFFF" font-family="sans-serif" font-size="14" lengthAdjust="spacing" textLength="121" x="1142" y="1795.6904">Target Cmd Layer</text><rect fill="#053671" height="30.2969" rx="2.5" ry="2.5" style="stroke:#1E1E1E;stroke-width:0.5;" width="90" x="1375.5" y="42.2969"/><text fill="#FFFFFF" font-family="sans-serif" font-size="14" lengthAdjust="spacing" textLength="76" x="1382.5" y="62.292">Target App</text><rect fill="#053671" height="30.2969" rx="2.5" ry="2.5" style="stroke:#1E1E1E;stroke-width:0.5;" width="90" x="1375.5" y="1775.6953"/><text fill="#FFFFFF" font-family="sans-serif" font-size="14" lengthAdjust="spacing" textLength="76" x="1382.5" y="1795.6904">Target App</text><rect fill="#FF9F1C" height="50.2656" style="stroke:#1E1E1E;stroke-width:1.0;" width="10" x="38.5" y="83.5938"/><rect fill="#FF9F1C" height="58.2656" style="stroke:#1E1E1E;stroke-width:1.0;" width="10" x="38.5" y="1272.3047"/><rect fill="#FF9F1C" height="123.6641" style="stroke:#1E1E1E;stroke-width:1.0;" width="10" x="251.5" y="133.8594"/><rect fill="#FF9F1C" height="58.2656" style="stroke:#1E1E1E;stroke-width:1.0;" width="10" x="251.5" y="336.9219"/><rect fill="#FF9F1C" height="93.3984" style="stroke:#1E1E1E;stroke-width:1.0;" width="10" x="251.5" y="1178.9063"/><rect fill="#FF9F1C" height="108.5313" style="stroke:#1E1E1E;stroke-width:1.0;" width="10" x="251.5" y="1330.5703"/><rect fill="#FF9F1C" height="58.2656" style="stroke:#1E1E1E;stroke-width:1.0;" width="10" x="251.5" y="1518.5"/><rect fill="#FF9F1C" height="79.3984" style="stroke:#1E1E1E;stroke-width:1.0;" width="10" x="431.5" y="257.5234"/><rect fill="#FF9F1C" height="108.5313" style="stroke:#1E1E1E;stroke-width:1.0;" width="10" x="431.5" y="1070.375"/><rect fill="#FF9F1C" height="79.3984" style="stroke:#1E1E1E;stroke-width:1.0;" width="10" x="431.5" y="1439.1016"/><rect fill="#FF9F1C" height="58.2656" style="stroke:#1E1E1E;stroke-width:1.0;" width="10" x="632.5" y="395.1875"/><rect fill="#FF9F1C" height="58.2656" style="stroke:#1E1E1E;stroke-width:1.0;" width="10" x="632.5" y="1012.1094"/><rect fill="#FF9F1C" height="58.2656" style="stroke:#1E1E1E;stroke-width:1.0;" width="10" x="632.5" y="1576.7656"/><rect fill="#FF9F1C" height="58.2656" style="stroke:#1E1E1E;stroke-width:1.0;" width="10" x="818.5" y="453.4531"/><rect fill="#FF9F1C" height="58.2656" style="stroke:#1E1E1E;stroke-width:1.0;" width="10" x="818.5" y="953.8438"/><rect fill="#FF9F1C" height="58.2656" style="stroke:#1E1E1E;stroke-width:1.0;" width="10" x="818.5" y="1635.0313"/><rect fill="#FF9F1C" height="108.5313" style="stroke:#1E1E1E;stroke-width:1.0;" width="10" x="1017.5" y="511.7188"/><rect fill="#FF9F1C" height="108.5313" style="stroke:#1E1E1E;stroke-width:1.0;" width="10" x="1017.5" y="845.3125"/><rect fill="#FF9F1C" height="74.3984" style="stroke:#1E1E1E;stroke-width:1.0;" width="10" x="1017.5" y="1693.2969"/><rect fill="#FF9F1C" height="58.2656" style="stroke:#1E1E1E;stroke-width:1.0;" width="10" x="1197.5" y="620.25"/><rect fill="#FF9F1C" height="108.5313" style="stroke:#1E1E1E;stroke-width:1.0;" width="10" x="1197.5" y="736.7813"/><rect fill="#FF9F1C" height="58.2656" style="stroke:#1E1E1E;stroke-width:1.0;" width="10" x="1415.5" y="678.5156"/><polygon fill="#1E1E1E" points="244.5,100.7266,254.5,104.7266,244.5,108.7266,248.5,104.7266" style="stroke:#1E1E1E;stroke-width:1.0;"/><line style="stroke:#1E1E1E;stroke-width:1.0;" x1="48.5" x2="250.5" y1="104.7266" y2="104.7266"/><text fill="#000000" font-family="sans-serif" font-size="13" font-weight="bold" lengthAdjust="spacing" textLength="21" x="55.5" y="99.6606">[1]</text><text fill="#000000" font-family="sans-serif" font-size="13" lengthAdjust="spacing" textLength="144" x="80.5" y="99.6606">sendCommand(cmd1)</text><polygon fill="#1E1E1E" points="239.5,129.8594,249.5,133.8594,239.5,137.8594,243.5,133.8594" style="stroke:#1E1E1E;stroke-width:1.0;"/><line style="stroke:#1E1E1E;stroke-width:1.0;" x1="43.5" x2="245.5" y1="133.8594" y2="133.8594"/><text fill="#000000" font-family="sans-serif" font-size="13" font-weight="bold" lengthAdjust="spacing" textLength="21" x="50.5" y="128.7935">[2]</text><text fill="#000000" font-family="sans-serif" font-size="13" lengthAdjust="spacing" textLength="144" x="75.5" y="128.7935">sendCommand(cmd2)</text><path d="M266,146.8594 L266,201.8594 L464,201.8594 L464,156.8594 L454,146.8594 L266,146.8594 " fill="#FEFFDD" style="stroke:#181818;stroke-width:0.5;"/><path d="M454,146.8594 L454,156.8594 L464,156.8594 L454,146.8594 " fill="#FEFFDD" style="stroke:#181818;stroke-width:0.5;"/><text fill="#000000" font-family="sans-serif" font-size="13" lengthAdjust="spacing" textLength="126" x="272" y="163.9263">&#8226; frame CRA(cmd1)</text><text fill="#000000" font-family="sans-serif" font-size="13" lengthAdjust="spacing" textLength="126" x="272" y="179.0591">&#8226; frame CRA(cmd2)</text><text fill="#000000" font-family="sans-serif" font-size="13" lengthAdjust="spacing" textLength="177" x="272" y="194.1919">&#8226; start timers(cmd1, cmd2)</text><polygon fill="#1E1E1E" points="424.5,224.3906,434.5,228.3906,424.5,232.3906,428.5,228.3906" style="stroke:#1E1E1E;stroke-width:1.0;"/><line style="stroke:#1E1E1E;stroke-width:1.0;" x1="261.5" x2="430.5" y1="228.3906" y2="228.3906"/><text fill="#000000" font-family="sans-serif" font-size="13" font-weight="bold" lengthAdjust="spacing" textLength="21" x="268.5" y="223.3247">[3]</text><text fill="#000000" font-family="sans-serif" font-size="13" lengthAdjust="spacing" textLength="102" x="293.5" y="223.3247">wrapCRA(cmd1)</text><polygon fill="#1E1E1E" points="419.5,253.5234,429.5,257.5234,419.5,261.5234,423.5,257.5234" style="stroke:#1E1E1E;stroke-width:1.0;"/><line style="stroke:#1E1E1E;stroke-width:1.0;" x1="256.5" x2="425.5" y1="257.5234" y2="257.5234"/><text fill="#000000" font-family="sans-serif" font-size="13" font-weight="bold" lengthAdjust="spacing" textLength="21" x="263.5" y="252.4575">[4]</text><text fill="#000000" font-family="sans-serif" font-size="13" lengthAdjust="spacing" textLength="102" x="288.5" y="252.4575">wrapCRA(cmd2)</text><path d="M446,270.5234 L446,310.5234 L597,310.5234 L597,280.5234 L587,270.5234 L446,270.5234 " fill="#FEFFDD" style="stroke:#181818;stroke-width:0.5;"/><path d="M587,270.5234 L587,280.5234 L597,280.5234 L587,270.5234 " fill="#FEFFDD" style="stroke:#181818;stroke-width:0.5;"/><text fill="#000000" font-family="sans-serif" font-size="13" lengthAdjust="spacing" textLength="122" x="452" y="287.5903">&#8226; SLIP+CRC(cmd1)</text><text fill="#000000" font-family="sans-serif" font-size="13" lengthAdjust="spacing" textLength="122" x="452" y="302.7231">&#8226; SLIP+CRC(cmd2)</text><polygon fill="#1E1E1E" points="272.5,332.9219,262.5,336.9219,272.5,340.9219,268.5,336.9219" style="stroke:#1E1E1E;stroke-width:1.0;"/><line style="stroke:#1E1E1E;stroke-width:1.0;stroke-dasharray:2.0,2.0;" x1="266.5" x2="435.5" y1="336.9219" y2="336.9219"/><text fill="#000000" font-family="sans-serif" font-size="13" font-weight="bold" lengthAdjust="spacing" textLength="21" x="278.5" y="331.856">[5]</text><text fill="#000000" font-family="sans-serif" font-size="13" lengthAdjust="spacing" textLength="76" x="303.5" y="331.856">CRA1, CRA2</text><polygon fill="#1E1E1E" points="625.5,362.0547,635.5,366.0547,625.5,370.0547,629.5,366.0547" style="stroke:#1E1E1E;stroke-width:1.0;"/><line style="stroke:#1E1E1E;stroke-width:1.0;" x1="261.5" x2="631.5" y1="366.0547" y2="366.0547"/><text fill="#000000" font-family="sans-serif" font-size="13" font-weight="bold" lengthAdjust="spacing" textLength="21" x="268.5" y="360.9888">[6]</text><text fill="#000000" font-family="sans-serif" font-size="13" lengthAdjust="spacing" textLength="116" x="293.5" y="360.9888">sendFrame(CRA1)</text><polygon fill="#1E1E1E" points="620.5,391.1875,630.5,395.1875,620.5,399.1875,624.5,395.1875" style="stroke:#1E1E1E;stroke-width:1.0;"/><line style="stroke:#1E1E1E;stroke-width:1.0;" x1="256.5" x2="626.5" y1="395.1875" y2="395.1875"/><text fill="#000000" font-family="sans-serif" font-size="13" font-weight="bold" lengthAdjust="spacing" textLength="21" x="263.5" y="390.1216">[7]</text><text fill="#000000" font-family="sans-serif" font-size="13" lengthAdjust="spacing" textLength="116" x="288.5" y="390.1216">sendFrame(CRA2)</text><polygon fill="#1E1E1E" points="811.5,420.3203,821.5,424.3203,811.5,428.3203,815.5,424.3203" style="stroke:#1E1E1E;stroke-width:1.0;"/><line style="stroke:#1E1E1E;stroke-width:1.0;" x1="642.5" x2="817.5" y1="424.3203" y2="424.3203"/><text fill="#000000" font-family="sans-serif" font-size="13" font-weight="bold" lengthAdjust="spacing" textLength="21" x="649.5" y="419.2544">[8]</text><text fill="#000000" font-family="sans-serif" font-size="13" lengthAdjust="spacing" textLength="121" x="674.5" y="419.2544">UART bytes (CRA1)</text><polygon fill="#1E1E1E" points="806.5,449.4531,816.5,453.4531,806.5,457.4531,810.5,453.4531" style="stroke:#1E1E1E;stroke-width:1.0;"/><line style="stroke:#1E1E1E;stroke-width:1.0;" x1="637.5" x2="812.5" y1="453.4531" y2="453.4531"/><text fill="#000000" font-family="sans-serif" font-size="13" font-weight="bold" lengthAdjust="spacing" textLength="21" x="644.5" y="448.3872">[9]</text><text fill="#000000" font-family="sans-serif" font-size="13" lengthAdjust="spacing" textLength="121" x="669.5" y="448.3872">UART bytes (CRA2)</text><polygon fill="#1E1E1E" points="1010.5,478.5859,1020.5,482.5859,1010.5,486.5859,1014.5,482.5859" style="stroke:#1E1E1E;stroke-width:1.0;"/><line style="stroke:#1E1E1E;stroke-width:1.0;" x1="828.5" x2="1016.5" y1="482.5859" y2="482.5859"/><text fill="#000000" font-family="sans-serif" font-size="13" font-weight="bold" lengthAdjust="spacing" textLength="30" x="835.5" y="477.52">[10]</text><text fill="#000000" font-family="sans-serif" font-size="13" lengthAdjust="spacing" textLength="136" x="869.5" y="477.52">deliverBytes() [CRA1]</text><polygon fill="#1E1E1E" points="1005.5,507.7188,1015.5,511.7188,1005.5,515.7188,1009.5,511.7188" style="stroke:#1E1E1E;stroke-width:1.0;"/><line style="stroke:#1E1E1E;stroke-width:1.0;" x1="823.5" x2="1011.5" y1="511.7188" y2="511.7188"/><text fill="#000000" font-family="sans-serif" font-size="13" font-weight="bold" lengthAdjust="spacing" textLength="30" x="830.5" y="506.6528">[11]</text><text fill="#000000" font-family="sans-serif" font-size="13" lengthAdjust="spacing" textLength="136" x="864.5" y="506.6528">deliverBytes() [CRA2]</text><path d="M1032,524.7188 L1032,564.7188 L1225,564.7188 L1225,534.7188 L1215,524.7188 L1032,524.7188 " fill="#FEFFDD" style="stroke:#181818;stroke-width:0.5;"/><path d="M1215,524.7188 L1215,534.7188 L1225,534.7188 L1215,524.7188 " fill="#FEFFDD" style="stroke:#181818;stroke-width:0.5;"/><text fill="#000000" font-family="sans-serif" font-size="13" lengthAdjust="spacing" textLength="164" x="1038" y="541.7856">&#8226; decode+CRC OK(cmd1)</text><text fill="#000000" font-family="sans-serif" font-size="13" lengthAdjust="spacing" textLength="164" x="1038" y="556.9185">&#8226; decode+CRC OK(cmd2)</text><polygon fill="#1E1E1E" points="1190.5,587.1172,1200.5,591.1172,1190.5,595.1172,1194.5,591.1172" style="stroke:#1E1E1E;stroke-width:1.0;"/><line style="stroke:#1E1E1E;stroke-width:1.0;" x1="1027.5" x2="1196.5" y1="591.1172" y2="591.1172"/><text fill="#000000" font-family="sans-serif" font-size="13" font-weight="bold" lengthAdjust="spacing" textLength="30" x="1034.5" y="586.0513">[12]</text><text fill="#000000" font-family="sans-serif" font-size="13" lengthAdjust="spacing" textLength="117" x="1068.5" y="586.0513">extractCRA(cmd1)</text><polygon fill="#1E1E1E" points="1185.5,616.25,1195.5,620.25,1185.5,624.25,1189.5,620.25" style="stroke:#1E1E1E;stroke-width:1.0;"/><line style="stroke:#1E1E1E;stroke-width:1.0;" x1="1022.5" x2="1191.5" y1="620.25" y2="620.25"/><text fill="#000000" font-family="sans-serif" font-size="13" font-weight="bold" lengthAdjust="spacing" textLength="30" x="1029.5" y="615.1841">[13]</text><text fill="#000000" font-family="sans-serif" font-size="13" lengthAdjust="spacing" textLength="117" x="1063.5" y="615.1841">extractCRA(cmd2)</text><polygon fill="#1E1E1E" points="1408.5,645.3828,1418.5,649.3828,1408.5,653.3828,1412.5,649.3828" style="stroke:#1E1E1E;stroke-width:1.0;"/><line style="stroke:#1E1E1E;stroke-width:1.0;" x1="1207.5" x2="1414.5" y1="649.3828" y2="649.3828"/><text fill="#000000" font-family="sans-serif" font-size="13" font-weight="bold" lengthAdjust="spacing" textLength="30" x="1214.5" y="644.3169">[14]</text><text fill="#000000" font-family="sans-serif" font-size="13" lengthAdjust="spacing" textLength="155" x="1248.5" y="644.3169">deliverCommand(cmd1)</text><polygon fill="#1E1E1E" points="1403.5,674.5156,1413.5,678.5156,1403.5,682.5156,1407.5,678.5156" style="stroke:#1E1E1E;stroke-width:1.0;"/><line style="stroke:#1E1E1E;stroke-width:1.0;" x1="1202.5" x2="1409.5" y1="678.5156" y2="678.5156"/><text fill="#000000" font-family="sans-serif" font-size="13" font-weight="bold" lengthAdjust="spacing" textLength="30" x="1209.5" y="673.4497">[15]</text><text fill="#000000" font-family="sans-serif" font-size="13" lengthAdjust="spacing" textLength="155" x="1243.5" y="673.4497">deliverCommand(cmd2)</text><polygon fill="#1E1E1E" points="1213.5,703.6484,1203.5,707.6484,1213.5,711.6484,1209.5,707.6484" style="stroke:#1E1E1E;stroke-width:1.0;"/><line style="stroke:#1E1E1E;stroke-width:1.0;stroke-dasharray:2.0,2.0;" x1="1207.5" x2="1414.5" y1="707.6484" y2="707.6484"/><text fill="#000000" font-family="sans-serif" font-size="13" font-weight="bold" lengthAdjust="spacing" textLength="30" x="1219.5" y="702.5825">[16]</text><text fill="#000000" font-family="sans-serif" font-size="13" lengthAdjust="spacing" textLength="139" x="1253.5" y="702.5825">sendResponse(resp1)</text><polygon fill="#1E1E1E" points="1218.5,732.7813,1208.5,736.7813,1218.5,740.7813,1214.5,736.7813" style="stroke:#1E1E1E;stroke-width:1.0;"/><line style="stroke:#1E1E1E;stroke-width:1.0;stroke-dasharray:2.0,2.0;" x1="1212.5" x2="1419.5" y1="736.7813" y2="736.7813"/><text fill="#000000" font-family="sans-serif" font-size="13" font-weight="bold" lengthAdjust="spacing" textLength="30" x="1224.5" y="731.7153">[17]</text><text fill="#000000" font-family="sans-serif" font-size="13" lengthAdjust="spacing" textLength="139" x="1258.5" y="731.7153">sendResponse(resp2)</text><path d="M1212,749.7813 L1212,789.7813 L1355,789.7813 L1355,759.7813 L1345,749.7813 L1212,749.7813 " fill="#FEFFDD" style="stroke:#181818;stroke-width:0.5;"/><path d="M1345,749.7813 L1345,759.7813 L1355,759.7813 L1345,749.7813 " fill="#FEFFDD" style="stroke:#181818;stroke-width:0.5;"/><text fill="#000000" font-family="sans-serif" font-size="13" lengthAdjust="spacing" textLength="114" x="1218" y="766.8481">&#8226; wrapCRA(resp1)</text><text fill="#000000" font-family="sans-serif" font-size="13" lengthAdjust="spacing" textLength="114" x="1218" y="781.981">&#8226; wrapCRA(resp2)</text><polygon fill="#1E1E1E" points="1033.5,812.1797,1023.5,816.1797,1033.5,820.1797,1029.5,816.1797" style="stroke:#1E1E1E;stroke-width:1.0;"/><line style="stroke:#1E1E1E;stroke-width:1.0;" x1="1027.5" x2="1196.5" y1="816.1797" y2="816.1797"/><text fill="#000000" font-family="sans-serif" font-size="13" font-weight="bold" lengthAdjust="spacing" textLength="30" x="1039.5" y="811.1138">[18]</text><text fill="#000000" font-family="sans-serif" font-size="13" lengthAdjust="spacing" textLength="102" x="1073.5" y="811.1138">wrapCRA(resp1)</text><polygon fill="#1E1E1E" points="1038.5,841.3125,1028.5,845.3125,1038.5,849.3125,1034.5,845.3125" style="stroke:#1E1E1E;stroke-width:1.0;"/><line style="stroke:#1E1E1E;stroke-width:1.0;" x1="1032.5" x2="1201.5" y1="845.3125" y2="845.3125"/><text fill="#000000" font-family="sans-serif" font-size="13" font-weight="bold" lengthAdjust="spacing" textLength="30" x="1044.5" y="840.2466">[19]</text><text fill="#000000" font-family="sans-serif" font-size="13" lengthAdjust="spacing" textLength="102" x="1078.5" y="840.2466">wrapCRA(resp2)</text><path d="M1032,858.3125 L1032,898.3125 L1183,898.3125 L1183,868.3125 L1173,858.3125 L1032,858.3125 " fill="#FEFFDD" style="stroke:#181818;stroke-width:0.5;"/><path d="M1173,858.3125 L1173,868.3125 L1183,868.3125 L1173,858.3125 " fill="#FEFFDD" style="stroke:#181818;stroke-width:0.5;"/><text fill="#000000" font-family="sans-serif" font-size="13" lengthAdjust="spacing" textLength="122" x="1038" y="875.3794">&#8226; SLIP+CRC(resp1)</text><text fill="#000000" font-family="sans-serif" font-size="13" lengthAdjust="spacing" textLength="122" x="1038" y="890.5122">&#8226; SLIP+CRC(resp2)</text><polygon fill="#1E1E1E" points="834.5,920.7109,824.5,924.7109,834.5,928.7109,830.5,924.7109" style="stroke:#1E1E1E;stroke-width:1.0;"/><line style="stroke:#1E1E1E;stroke-width:1.0;" x1="828.5" x2="1016.5" y1="924.7109" y2="924.7109"/><text fill="#000000" font-family="sans-serif" font-size="13" font-weight="bold" lengthAdjust="spacing" textLength="30" x="840.5" y="919.645">[20]</text><text fill="#000000" font-family="sans-serif" font-size="13" lengthAdjust="spacing" textLength="118" x="874.5" y="919.645">sendFrame(resp1)</text><polygon fill="#1E1E1E" points="839.5,949.8438,829.5,953.8438,839.5,957.8438,835.5,953.8438" style="stroke:#1E1E1E;stroke-width:1.0;"/><line style="stroke:#1E1E1E;stroke-width:1.0;" x1="833.5" x2="1021.5" y1="953.8438" y2="953.8438"/><text fill="#000000" font-family="sans-serif" font-size="13" font-weight="bold" lengthAdjust="spacing" textLength="30" x="845.5" y="948.7778">[21]</text><text fill="#000000" font-family="sans-serif" font-size="13" lengthAdjust="spacing" textLength="118" x="879.5" y="948.7778">sendFrame(resp2)</text><polygon fill="#1E1E1E" points="648.5,978.9766,638.5,982.9766,648.5,986.9766,644.5,982.9766" style="stroke:#1E1E1E;stroke-width:1.0;"/><line style="stroke:#1E1E1E;stroke-width:1.0;" x1="642.5" x2="817.5" y1="982.9766" y2="982.9766"/><text fill="#000000" font-family="sans-serif" font-size="13" font-weight="bold" lengthAdjust="spacing" textLength="30" x="654.5" y="977.9106">[22]</text><text fill="#000000" font-family="sans-serif" font-size="13" lengthAdjust="spacing" textLength="123" x="688.5" y="977.9106">UART bytes (resp1)</text><polygon fill="#1E1E1E" points="653.5,1008.1094,643.5,1012.1094,653.5,1016.1094,649.5,1012.1094" style="stroke:#1E1E1E;stroke-width:1.0;"/><line style="stroke:#1E1E1E;stroke-width:1.0;" x1="647.5" x2="822.5" y1="1012.1094" y2="1012.1094"/><text fill="#000000" font-family="sans-serif" font-size="13" font-weight="bold" lengthAdjust="spacing" textLength="30" x="659.5" y="1007.0435">[23]</text><text fill="#000000" font-family="sans-serif" font-size="13" lengthAdjust="spacing" textLength="123" x="693.5" y="1007.0435">UART bytes (resp2)</text><polygon fill="#1E1E1E" points="447.5,1037.2422,437.5,1041.2422,447.5,1045.2422,443.5,1041.2422" style="stroke:#1E1E1E;stroke-width:1.0;"/><line style="stroke:#1E1E1E;stroke-width:1.0;" x1="441.5" x2="631.5" y1="1041.2422" y2="1041.2422"/><text fill="#000000" font-family="sans-serif" font-size="13" font-weight="bold" lengthAdjust="spacing" textLength="30" x="453.5" y="1036.1763">[24]</text><text fill="#000000" font-family="sans-serif" font-size="13" lengthAdjust="spacing" textLength="138" x="487.5" y="1036.1763">deliverBytes() [resp1]</text><polygon fill="#1E1E1E" points="452.5,1066.375,442.5,1070.375,452.5,1074.375,448.5,1070.375" style="stroke:#1E1E1E;stroke-width:1.0;"/><line style="stroke:#1E1E1E;stroke-width:1.0;" x1="446.5" x2="636.5" y1="1070.375" y2="1070.375"/><text fill="#000000" font-family="sans-serif" font-size="13" font-weight="bold" lengthAdjust="spacing" textLength="30" x="458.5" y="1065.3091">[25]</text><text fill="#000000" font-family="sans-serif" font-size="13" lengthAdjust="spacing" textLength="138" x="492.5" y="1065.3091">deliverBytes() [resp2]</text><path d="M446,1083.375 L446,1123.375 L639,1123.375 L639,1093.375 L629,1083.375 L446,1083.375 " fill="#FEFFDD" style="stroke:#181818;stroke-width:0.5;"/><path d="M629,1083.375 L629,1093.375 L639,1093.375 L629,1083.375 " fill="#FEFFDD" style="stroke:#181818;stroke-width:0.5;"/><text fill="#000000" font-family="sans-serif" font-size="13" lengthAdjust="spacing" textLength="164" x="452" y="1100.4419">&#8226; decode+CRC OK(resp1)</text><text fill="#000000" font-family="sans-serif" font-size="13" lengthAdjust="spacing" textLength="164" x="452" y="1115.5747">&#8226; decode+CRC OK(resp2)</text><polygon fill="#1E1E1E" points="267.5,1145.7734,257.5,1149.7734,267.5,1153.7734,263.5,1149.7734" style="stroke:#1E1E1E;stroke-width:1.0;"/><line style="stroke:#1E1E1E;stroke-width:1.0;" x1="261.5" x2="430.5" y1="1149.7734" y2="1149.7734"/><text fill="#000000" font-family="sans-serif" font-size="13" font-weight="bold" lengthAdjust="spacing" textLength="30" x="273.5" y="1144.7075">[26]</text><text fill="#000000" font-family="sans-serif" font-size="13" lengthAdjust="spacing" textLength="117" x="307.5" y="1144.7075">extractCRA(resp1)</text><polygon fill="#1E1E1E" points="272.5,1174.9063,262.5,1178.9063,272.5,1182.9063,268.5,1178.9063" style="stroke:#1E1E1E;stroke-width:1.0;"/><line style="stroke:#1E1E1E;stroke-width:1.0;" x1="266.5" x2="435.5" y1="1178.9063" y2="1178.9063"/><text fill="#000000" font-family="sans-serif" font-size="13" font-weight="bold" lengthAdjust="spacing" textLength="30" x="278.5" y="1173.8403">[27]</text><text fill="#000000" font-family="sans-serif" font-size="13" lengthAdjust="spacing" textLength="117" x="312.5" y="1173.8403">extractCRA(resp2)</text><path d="M266,1191.9063 L266,1216.9063 L462,1216.9063 L462,1201.9063 L452,1191.9063 L266,1191.9063 " fill="#FEFFDD" style="stroke:#181818;stroke-width:0.5;"/><path d="M452,1191.9063 L452,1201.9063 L462,1201.9063 L452,1191.9063 " fill="#FEFFDD" style="stroke:#181818;stroke-width:0.5;"/><text fill="#000000" font-family="sans-serif" font-size="13" lengthAdjust="spacing" textLength="175" x="272" y="1208.9731">&#8226; stop timers(cmd1, cmd2)</text><polygon fill="#1E1E1E" points="54.5,1239.1719,44.5,1243.1719,54.5,1247.1719,50.5,1243.1719" style="stroke:#1E1E1E;stroke-width:1.0;"/><line style="stroke:#1E1E1E;stroke-width:1.0;" x1="48.5" x2="250.5" y1="1243.1719" y2="1243.1719"/><text fill="#000000" font-family="sans-serif" font-size="13" font-weight="bold" lengthAdjust="spacing" textLength="30" x="60.5" y="1238.106">[28]</text><text fill="#000000" font-family="sans-serif" font-size="13" lengthAdjust="spacing" textLength="150" x="94.5" y="1238.106">deliverResponse(resp1)</text><polygon fill="#1E1E1E" points="59.5,1268.3047,49.5,1272.3047,59.5,1276.3047,55.5,1272.3047" style="stroke:#1E1E1E;stroke-width:1.0;"/><line style="stroke:#1E1E1E;stroke-width:1.0;" x1="53.5" x2="255.5" y1="1272.3047" y2="1272.3047"/><text fill="#000000" font-family="sans-serif" font-size="13" font-weight="bold" lengthAdjust="spacing" textLength="30" x="65.5" y="1267.2388">[29]</text><text fill="#000000" font-family="sans-serif" font-size="13" lengthAdjust="spacing" textLength="150" x="99.5" y="1267.2388">deliverResponse(resp2)</text><polygon fill="#1E1E1E" points="244.5,1297.4375,254.5,1301.4375,244.5,1305.4375,248.5,1301.4375" style="stroke:#1E1E1E;stroke-width:1.0;"/><line style="stroke:#1E1E1E;stroke-width:1.0;stroke-dasharray:2.0,2.0;" x1="48.5" x2="250.5" y1="1301.4375" y2="1301.4375"/><text fill="#000000" font-family="sans-serif" font-size="13" font-weight="bold" lengthAdjust="spacing" textLength="30" x="55.5" y="1296.3716">[30]</text><text fill="#000000" font-family="sans-serif" font-size="13" lengthAdjust="spacing" textLength="138" x="89.5" y="1296.3716">sendACK() [for resp1]</text><polygon fill="#1E1E1E" points="239.5,1326.5703,249.5,1330.5703,239.5,1334.5703,243.5,1330.5703" style="stroke:#1E1E1E;stroke-width:1.0;"/><line style="stroke:#1E1E1E;stroke-width:1.0;stroke-dasharray:2.0,2.0;" x1="43.5" x2="245.5" y1="1330.5703" y2="1330.5703"/><text fill="#000000" font-family="sans-serif" font-size="13" font-weight="bold" lengthAdjust="spacing" textLength="30" x="50.5" y="1325.5044">[31]</text><text fill="#000000" font-family="sans-serif" font-size="13" lengthAdjust="spacing" textLength="138" x="84.5" y="1325.5044">sendACK() [for resp2]</text><path d="M266,1343.5703 L266,1383.5703 L407,1383.5703 L407,1353.5703 L397,1343.5703 L266,1343.5703 " fill="#FEFFDD" style="stroke:#181818;stroke-width:0.5;"/><path d="M397,1343.5703 L397,1353.5703 L407,1353.5703 L397,1343.5703 " fill="#FEFFDD" style="stroke:#181818;stroke-width:0.5;"/><text fill="#000000" font-family="sans-serif" font-size="13" lengthAdjust="spacing" textLength="112" x="272" y="1360.6372">&#8226; wrapCRA(ACK1)</text><text fill="#000000" font-family="sans-serif" font-size="13" lengthAdjust="spacing" textLength="112" x="272" y="1375.77">&#8226; wrapCRA(ACK2)</text><polygon fill="#1E1E1E" points="424.5,1405.9688,434.5,1409.9688,424.5,1413.9688,428.5,1409.9688" style="stroke:#1E1E1E;stroke-width:1.0;"/><line style="stroke:#1E1E1E;stroke-width:1.0;" x1="261.5" x2="430.5" y1="1409.9688" y2="1409.9688"/><text fill="#000000" font-family="sans-serif" font-size="13" font-weight="bold" lengthAdjust="spacing" textLength="30" x="268.5" y="1404.9028">[32]</text><text fill="#000000" font-family="sans-serif" font-size="13" lengthAdjust="spacing" textLength="100" x="302.5" y="1404.9028">wrapCRA(ACK1)</text><polygon fill="#1E1E1E" points="419.5,1435.1016,429.5,1439.1016,419.5,1443.1016,423.5,1439.1016" style="stroke:#1E1E1E;stroke-width:1.0;"/><line style="stroke:#1E1E1E;stroke-width:1.0;" x1="256.5" x2="425.5" y1="1439.1016" y2="1439.1016"/><text fill="#000000" font-family="sans-serif" font-size="13" font-weight="bold" lengthAdjust="spacing" textLength="30" x="263.5" y="1434.0356">[33]</text><text fill="#000000" font-family="sans-serif" font-size="13" lengthAdjust="spacing" textLength="100" x="297.5" y="1434.0356">wrapCRA(ACK2)</text><path d="M446,1452.1016 L446,1492.1016 L597,1492.1016 L597,1462.1016 L587,1452.1016 L446,1452.1016 " fill="#FEFFDD" style="stroke:#181818;stroke-width:0.5;"/><path d="M587,1452.1016 L587,1462.1016 L597,1462.1016 L587,1452.1016 " fill="#FEFFDD" style="stroke:#181818;stroke-width:0.5;"/><text fill="#000000" font-family="sans-serif" font-size="13" lengthAdjust="spacing" textLength="122" x="452" y="1469.1685">&#8226; build ACK frame1</text><text fill="#000000" font-family="sans-serif" font-size="13" lengthAdjust="spacing" textLength="122" x="452" y="1484.3013">&#8226; build ACK frame2</text><polygon fill="#1E1E1E" points="272.5,1514.5,262.5,1518.5,272.5,1522.5,268.5,1518.5" style="stroke:#1E1E1E;stroke-width:1.0;"/><line style="stroke:#1E1E1E;stroke-width:1.0;stroke-dasharray:2.0,2.0;" x1="266.5" x2="435.5" y1="1518.5" y2="1518.5"/><text fill="#000000" font-family="sans-serif" font-size="13" font-weight="bold" lengthAdjust="spacing" textLength="30" x="278.5" y="1513.4341">[34]</text><text fill="#000000" font-family="sans-serif" font-size="13" lengthAdjust="spacing" textLength="76" x="312.5" y="1513.4341">ACK1, ACK2</text><polygon fill="#1E1E1E" points="625.5,1543.6328,635.5,1547.6328,625.5,1551.6328,629.5,1547.6328" style="stroke:#1E1E1E;stroke-width:1.0;"/><line style="stroke:#1E1E1E;stroke-width:1.0;" x1="261.5" x2="631.5" y1="1547.6328" y2="1547.6328"/><text fill="#000000" font-family="sans-serif" font-size="13" font-weight="bold" lengthAdjust="spacing" textLength="30" x="268.5" y="1542.5669">[35]</text><text fill="#000000" font-family="sans-serif" font-size="13" lengthAdjust="spacing" textLength="116" x="302.5" y="1542.5669">sendFrame(ACK1)</text><polygon fill="#1E1E1E" points="620.5,1572.7656,630.5,1576.7656,620.5,1580.7656,624.5,1576.7656" style="stroke:#1E1E1E;stroke-width:1.0;"/><line style="stroke:#1E1E1E;stroke-width:1.0;" x1="256.5" x2="626.5" y1="1576.7656" y2="1576.7656"/><text fill="#000000" font-family="sans-serif" font-size="13" font-weight="bold" lengthAdjust="spacing" textLength="30" x="263.5" y="1571.6997">[36]</text><text fill="#000000" font-family="sans-serif" font-size="13" lengthAdjust="spacing" textLength="116" x="297.5" y="1571.6997">sendFrame(ACK2)</text><polygon fill="#1E1E1E" points="811.5,1601.8984,821.5,1605.8984,811.5,1609.8984,815.5,1605.8984" style="stroke:#1E1E1E;stroke-width:1.0;"/><line style="stroke:#1E1E1E;stroke-width:1.0;" x1="642.5" x2="817.5" y1="1605.8984" y2="1605.8984"/><text fill="#000000" font-family="sans-serif" font-size="13" font-weight="bold" lengthAdjust="spacing" textLength="30" x="649.5" y="1600.8325">[37]</text><text fill="#000000" font-family="sans-serif" font-size="13" lengthAdjust="spacing" textLength="121" x="683.5" y="1600.8325">UART bytes (ACK1)</text><polygon fill="#1E1E1E" points="806.5,1631.0313,816.5,1635.0313,806.5,1639.0313,810.5,1635.0313" style="stroke:#1E1E1E;stroke-width:1.0;"/><line style="stroke:#1E1E1E;stroke-width:1.0;" x1="637.5" x2="812.5" y1="1635.0313" y2="1635.0313"/><text fill="#000000" font-family="sans-serif" font-size="13" font-weight="bold" lengthAdjust="spacing" textLength="30" x="644.5" y="1629.9653">[38]</text><text fill="#000000" font-family="sans-serif" font-size="13" lengthAdjust="spacing" textLength="121" x="678.5" y="1629.9653">UART bytes (ACK2)</text><polygon fill="#1E1E1E" points="1010.5,1660.1641,1020.5,1664.1641,1010.5,1668.1641,1014.5,1664.1641" style="stroke:#1E1E1E;stroke-width:1.0;"/><line style="stroke:#1E1E1E;stroke-width:1.0;" x1="828.5" x2="1016.5" y1="1664.1641" y2="1664.1641"/><text fill="#000000" font-family="sans-serif" font-size="13" font-weight="bold" lengthAdjust="spacing" textLength="30" x="835.5" y="1659.0981">[39]</text><text fill="#000000" font-family="sans-serif" font-size="13" lengthAdjust="spacing" textLength="136" x="869.5" y="1659.0981">deliverBytes() [ACK1]</text><polygon fill="#1E1E1E" points="1005.5,1689.2969,1015.5,1693.2969,1005.5,1697.2969,1009.5,1693.2969" style="stroke:#1E1E1E;stroke-width:1.0;"/><line style="stroke:#1E1E1E;stroke-width:1.0;" x1="823.5" x2="1011.5" y1="1693.2969" y2="1693.2969"/><text fill="#000000" font-family="sans-serif" font-size="13" font-weight="bold" lengthAdjust="spacing" textLength="30" x="830.5" y="1688.231">[40]</text><text fill="#000000" font-family="sans-serif" font-size="13" lengthAdjust="spacing" textLength="136" x="864.5" y="1688.231">deliverBytes() [ACK2]</text><path d="M1032,1706.2969 L1032,1761.2969 L1188,1761.2969 L1188,1716.2969 L1178,1706.2969 L1032,1706.2969 " fill="#FEFFDD" style="stroke:#181818;stroke-width:0.5;"/><path d="M1178,1706.2969 L1178,1716.2969 L1188,1716.2969 L1178,1706.2969 " fill="#FEFFDD" style="stroke:#181818;stroke-width:0.5;"/><text fill="#000000" font-family="sans-serif" font-size="13" lengthAdjust="spacing" textLength="127" x="1038" y="1723.3638">&#8226; extractCRA(ACK1)</text><text fill="#000000" font-family="sans-serif" font-size="13" lengthAdjust="spacing" textLength="127" x="1038" y="1738.4966">&#8226; extractCRA(ACK2)</text><text fill="#000000" font-family="sans-serif" font-size="13" lengthAdjust="spacing" textLength="116" x="1038" y="1753.6294">&#8226; stop ACK-timers</text><!--SRC=[nLVjRjD85FtlfxWA4cswH3HX-HIgv3f2GSrghTGiGYW_9lQa7P7OPcRSWj1AFCG-mJuQJy8TVyvCRBSg0LBQehbdFkwvPyxS7dpxx-jU_i4_J6Ha0u9AoU8B0VjQs14VM9mIJhRW4ovPo58IIvz44Mu3uyan76YGj8705mVmSqh23nSyoUB8IpO9Xtl7ZnyzUJekOWcFA2_6rUVUcAglFFOgYMKJ0RY-P98w_sfx2Venet58ourSpfDhVKRpqTUTipMTivZQUtV1hEChs7hzV3qESvX6ILyoEgo73mtMbRuZcTnGE3ewFVVXl69W17zb6ybIZ2pKc902tCq6phCmf4A0HmGzEd8SlJo3MI8ak6awg7aY0cPk2yZRHZ0ddoaVb22l1JGDvYPesWBoP-zCa6-20i8lg053KD0EqZPKe6ahI3kw0dcj88q41N8TXsGoYRFjYd8Ol5oTl3zUldouEXaupa5puyP3o7DYGY3Z8AyJ29FjbiJH_cvVvwqaeMHNH59Li9aBenCi2hp0Ew5qbH_YCDn6us5FS39q8ggleotgEN62lpcxk9IGhDK0mBUl_yCQRnu5R-4MomEqZK-QSI6HRv1iIxd8fpo0Ociy2wWz34fnubjEKbWbyXAk6Cbh_BEvR2SO6LEyJP6tQpnIdN57m2BJqycSscHEItBEvw_zFxo5Pt6f3-jCuPwZgfQuBLA9FoV6lbE3paT323Y9nPR9WjBa2WMjBjUlO51deoJDBrNuIgdbKEKmx0prCUexYCTPWPhrnbq4iFeiyGvMItO6hKLzWwu_aQx243WDARl2EVSXec4IqPzyevlKqEk2ulHAO17Tu37ugJh_uH3Ug_IMDm0cIpr5N4zRt5PYK2cno5A93lu-i-Iu4zCrYQTGPr6If9yanwsQcz8PCwiGcA9zN5U1Vg9X9lCgf9oYSUD_yJjDOl631T4eyPmW5s3WDdIQ3jeRjrBHLOhl24uQLHGeSI_Aqn-gDDJIVN5hQTsV0zkVWygVAqigDgXhg0yRvVDgAPapkoAx-MgbUrANJlcsclPxpDkiSAVeQv-ro3B6MyHkMbN5LrUiL-nFXxaTgndxqlP-x6TccsULPdVKIjJqrcTbizJYhFjCk-MDcBNvP9xDyYQ4QQKp_rQFkccNbhHsW_O3Nxxlcc6Mp7S7hKTjUgj6JiWalNLVzhoiNg5JrpiJiCO_JVAUubTrOfh_sZPw0wAlaoYwPxr3nknK_LL-bKhw4PPARjT7LvwAQxNOD8uQkjXjEVDv7O4xzQAhZ6qYLTgYbH_NPx82a_P-L9tdWVevwTDYQwzdfB8JkbCRM2xP6Unh0yV7zIkcxaWkzr5nKU0t675hcwVoMzu0k5CVg3cBgKmpOFo1XpxIKDIemtpqlWC0]--></g></svg>