<?xml version="1.0" encoding="us-ascii" standalone="no"?><svg xmlns="http://www.w3.org/2000/svg" xmlns:xlink="http://www.w3.org/1999/xlink" contentStyleType="text/css" height="1217px" preserveAspectRatio="none" style="width:2097px;height:1217px;background:#FFFFFF;" version="1.1" viewBox="0 0 2097 1217" width="2097px" zoomAndPan="magnify"><defs/><g><text fill="#000000" font-family="sans-serif" font-size="14" font-weight="bold" lengthAdjust="spacing" textLength="311" x="891.5" y="27.9951">BSP Sequence - Write Chunk Sequence</text><rect fill="#FF9F1C" height="21.1328" style="stroke:#1E1E1E;stroke-width:1.0;" width="10" x="38.5" y="83.5938"/><rect fill="#FF9F1C" height="29.1328" style="stroke:#1E1E1E;stroke-width:1.0;" width="10" x="38.5" y="869.3125"/><rect fill="#FF9F1C" height="79.3984" style="stroke:#1E1E1E;stroke-width:1.0;" width="10" x="345.5" y="104.7266"/><rect fill="#FF9F1C" height="29.1328" style="stroke:#1E1E1E;stroke-width:1.0;" width="10" x="345.5" y="248.3906"/><rect fill="#FF9F1C" height="79.3984" style="stroke:#1E1E1E;stroke-width:1.0;" width="10" x="345.5" y="789.9141"/><rect fill="#FF9F1C" height="64.2656" style="stroke:#1E1E1E;stroke-width:1.0;" width="10" x="345.5" y="898.4453"/><rect fill="#FF9F1C" height="29.1328" style="stroke:#1E1E1E;stroke-width:1.0;" width="10" x="345.5" y="1026.9766"/><rect fill="#FF9F1C" height="64.2656" style="stroke:#1E1E1E;stroke-width:1.0;" width="10" x="610.5" y="184.125"/><rect fill="#FF9F1C" height="79.3984" style="stroke:#1E1E1E;stroke-width:1.0;" width="10" x="610.5" y="710.5156"/><rect fill="#FF9F1C" height="64.2656" style="stroke:#1E1E1E;stroke-width:1.0;" width="10" x="610.5" y="962.7109"/><rect fill="#FF9F1C" height="29.1328" style="stroke:#1E1E1E;stroke-width:1.0;" width="10" x="848.5" y="277.5234"/><rect fill="#FF9F1C" height="29.1328" style="stroke:#1E1E1E;stroke-width:1.0;" width="10" x="848.5" y="681.3828"/><rect fill="#FF9F1C" height="29.1328" style="stroke:#1E1E1E;stroke-width:1.0;" width="10" x="848.5" y="1056.1094"/><rect fill="#FF9F1C" height="29.1328" style="stroke:#1E1E1E;stroke-width:1.0;" width="10" x="1071.5" y="306.6563"/><rect fill="#FF9F1C" height="29.1328" style="stroke:#1E1E1E;stroke-width:1.0;" width="10" x="1071.5" y="652.25"/><rect fill="#FF9F1C" height="29.1328" style="stroke:#1E1E1E;stroke-width:1.0;" width="10" x="1071.5" y="1085.2422"/><rect fill="#FF9F1C" height="79.3984" style="stroke:#1E1E1E;stroke-width:1.0;" width="10" x="1307.5" y="335.7891"/><rect fill="#FF9F1C" height="64.2656" style="stroke:#1E1E1E;stroke-width:1.0;" width="10" x="1307.5" y="587.9844"/><rect fill="#FF9F1C" height="59.2656" style="stroke:#1E1E1E;stroke-width:1.0;" width="10" x="1307.5" y="1114.375"/><rect fill="#FF9F1C" height="29.1328" style="stroke:#1E1E1E;stroke-width:1.0;" width="10" x="1587.5" y="415.1875"/><rect fill="#FF9F1C" height="79.3984" style="stroke:#1E1E1E;stroke-width:1.0;" width="10" x="1587.5" y="508.5859"/><rect fill="#FF9F1C" height="64.2656" style="stroke:#1E1E1E;stroke-width:1.0;" width="10" x="1909.5" y="444.3203"/><line style="stroke:#1E1E1E;stroke-width:0.5;stroke-dasharray:5.0,5.0;" x1="43" x2="43" y1="73.5938" y2="1182.6406"/><line style="stroke:#1E1E1E;stroke-width:0.5;stroke-dasharray:5.0,5.0;" x1="350.5" x2="350.5" y1="73.5938" y2="1182.6406"/><line style="stroke:#1E1E1E;stroke-width:0.5;stroke-dasharray:5.0,5.0;" x1="615" x2="615" y1="73.5938" y2="1182.6406"/><line style="stroke:#1E1E1E;stroke-width:0.5;stroke-dasharray:5.0,5.0;" x1="853.5" x2="853.5" y1="73.5938" y2="1182.6406"/><line style="stroke:#1E1E1E;stroke-width:0.5;stroke-dasharray:5.0,5.0;" x1="1076" x2="1076" y1="73.5938" y2="1182.6406"/><line style="stroke:#1E1E1E;stroke-width:0.5;stroke-dasharray:5.0,5.0;" x1="1312.5" x2="1312.5" y1="73.5938" y2="1182.6406"/><line style="stroke:#1E1E1E;stroke-width:0.5;stroke-dasharray:5.0,5.0;" x1="1592" x2="1592" y1="73.5938" y2="1182.6406"/><line style="stroke:#1E1E1E;stroke-width:0.5;stroke-dasharray:5.0,5.0;" x1="1914.5" x2="1914.5" y1="73.5938" y2="1182.6406"/><rect fill="#053671" height="30.2969" rx="2.5" ry="2.5" style="stroke:#1E1E1E;stroke-width:0.5;" width="77" x="5" y="42.2969"/><text fill="#FFFFFF" font-family="sans-serif" font-size="14" lengthAdjust="spacing" textLength="63" x="12" y="62.292">Host App</text><rect fill="#053671" height="30.2969" rx="2.5" ry="2.5" style="stroke:#1E1E1E;stroke-width:0.5;" width="77" x="5" y="1181.6406"/><text fill="#FFFFFF" font-family="sans-serif" font-size="14" lengthAdjust="spacing" textLength="63" x="12" y="1201.6357">Host App</text><rect fill="#053671" height="30.2969" rx="2.5" ry="2.5" style="stroke:#1E1E1E;stroke-width:0.5;" width="122" x="289.5" y="42.2969"/><text fill="#FFFFFF" font-family="sans-serif" font-size="14" lengthAdjust="spacing" textLength="108" x="296.5" y="62.292">Host Cmd Layer</text><rect fill="#053671" height="30.2969" rx="2.5" ry="2.5" style="stroke:#1E1E1E;stroke-width:0.5;" width="122" x="289.5" y="1181.6406"/><text fill="#FFFFFF" font-family="sans-serif" font-size="14" lengthAdjust="spacing" textLength="108" x="296.5" y="1201.6357">Host Cmd Layer</text><rect fill="#053671" height="30.2969" rx="2.5" ry="2.5" style="stroke:#1E1E1E;stroke-width:0.5;" width="117" x="557" y="42.2969"/><text fill="#FFFFFF" font-family="sans-serif" font-size="14" lengthAdjust="spacing" textLength="103" x="564" y="62.292">Host DTL Layer</text><rect fill="#053671" height="30.2969" rx="2.5" ry="2.5" style="stroke:#1E1E1E;stroke-width:0.5;" width="117" x="557" y="1181.6406"/><text fill="#FFFFFF" font-family="sans-serif" font-size="14" lengthAdjust="spacing" textLength="103" x="564" y="1201.6357">Host DTL Layer</text><rect fill="#053671" height="30.2969" rx="2.5" ry="2.5" style="stroke:#1E1E1E;stroke-width:0.5;" width="118" x="794.5" y="42.2969"/><text fill="#FFFFFF" font-family="sans-serif" font-size="14" lengthAdjust="spacing" textLength="104" x="801.5" y="62.292">Host PHY Layer</text><rect fill="#053671" height="30.2969" rx="2.5" ry="2.5" style="stroke:#1E1E1E;stroke-width:0.5;" width="118" x="794.5" y="1181.6406"/><text fill="#FFFFFF" font-family="sans-serif" font-size="14" lengthAdjust="spacing" textLength="104" x="801.5" y="1201.6357">Host PHY Layer</text><rect fill="#053671" height="30.2969" rx="2.5" ry="2.5" style="stroke:#1E1E1E;stroke-width:0.5;" width="131" x="1011" y="42.2969"/><text fill="#FFFFFF" font-family="sans-serif" font-size="14" lengthAdjust="spacing" textLength="117" x="1018" y="62.292">Target PHY Layer</text><rect fill="#053671" height="30.2969" rx="2.5" ry="2.5" style="stroke:#1E1E1E;stroke-width:0.5;" width="131" x="1011" y="1181.6406"/><text fill="#FFFFFF" font-family="sans-serif" font-size="14" lengthAdjust="spacing" textLength="117" x="1018" y="1201.6357">Target PHY Layer</text><rect fill="#053671" height="30.2969" rx="2.5" ry="2.5" style="stroke:#1E1E1E;stroke-width:0.5;" width="130" x="1247.5" y="42.2969"/><text fill="#FFFFFF" font-family="sans-serif" font-size="14" lengthAdjust="spacing" textLength="116" x="1254.5" y="62.292">Target DTL Layer</text><rect fill="#053671" height="30.2969" rx="2.5" ry="2.5" style="stroke:#1E1E1E;stroke-width:0.5;" width="130" x="1247.5" y="1181.6406"/><text fill="#FFFFFF" font-family="sans-serif" font-size="14" lengthAdjust="spacing" textLength="116" x="1254.5" y="1201.6357">Target DTL Layer</text><rect fill="#053671" height="30.2969" rx="2.5" ry="2.5" style="stroke:#1E1E1E;stroke-width:0.5;" width="135" x="1525" y="42.2969"/><text fill="#FFFFFF" font-family="sans-serif" font-size="14" lengthAdjust="spacing" textLength="121" x="1532" y="62.292">Target Cmd Layer</text><rect fill="#053671" height="30.2969" rx="2.5" ry="2.5" style="stroke:#1E1E1E;stroke-width:0.5;" width="135" x="1525" y="1181.6406"/><text fill="#FFFFFF" font-family="sans-serif" font-size="14" lengthAdjust="spacing" textLength="121" x="1532" y="1201.6357">Target Cmd Layer</text><rect fill="#053671" height="30.2969" rx="2.5" ry="2.5" style="stroke:#1E1E1E;stroke-width:0.5;" width="90" x="1869.5" y="42.2969"/><text fill="#FFFFFF" font-family="sans-serif" font-size="14" lengthAdjust="spacing" textLength="76" x="1876.5" y="62.292">Target App</text><rect fill="#053671" height="30.2969" rx="2.5" ry="2.5" style="stroke:#1E1E1E;stroke-width:0.5;" width="90" x="1869.5" y="1181.6406"/><text fill="#FFFFFF" font-family="sans-serif" font-size="14" lengthAdjust="spacing" textLength="76" x="1876.5" y="1201.6357">Target App</text><rect fill="#FF9F1C" height="21.1328" style="stroke:#1E1E1E;stroke-width:1.0;" width="10" x="38.5" y="83.5938"/><rect fill="#FF9F1C" height="29.1328" style="stroke:#1E1E1E;stroke-width:1.0;" width="10" x="38.5" y="869.3125"/><rect fill="#FF9F1C" height="79.3984" style="stroke:#1E1E1E;stroke-width:1.0;" width="10" x="345.5" y="104.7266"/><rect fill="#FF9F1C" height="29.1328" style="stroke:#1E1E1E;stroke-width:1.0;" width="10" x="345.5" y="248.3906"/><rect fill="#FF9F1C" height="79.3984" style="stroke:#1E1E1E;stroke-width:1.0;" width="10" x="345.5" y="789.9141"/><rect fill="#FF9F1C" height="64.2656" style="stroke:#1E1E1E;stroke-width:1.0;" width="10" x="345.5" y="898.4453"/><rect fill="#FF9F1C" height="29.1328" style="stroke:#1E1E1E;stroke-width:1.0;" width="10" x="345.5" y="1026.9766"/><rect fill="#FF9F1C" height="64.2656" style="stroke:#1E1E1E;stroke-width:1.0;" width="10" x="610.5" y="184.125"/><rect fill="#FF9F1C" height="79.3984" style="stroke:#1E1E1E;stroke-width:1.0;" width="10" x="610.5" y="710.5156"/><rect fill="#FF9F1C" height="64.2656" style="stroke:#1E1E1E;stroke-width:1.0;" width="10" x="610.5" y="962.7109"/><rect fill="#FF9F1C" height="29.1328" style="stroke:#1E1E1E;stroke-width:1.0;" width="10" x="848.5" y="277.5234"/><rect fill="#FF9F1C" height="29.1328" style="stroke:#1E1E1E;stroke-width:1.0;" width="10" x="848.5" y="681.3828"/><rect fill="#FF9F1C" height="29.1328" style="stroke:#1E1E1E;stroke-width:1.0;" width="10" x="848.5" y="1056.1094"/><rect fill="#FF9F1C" height="29.1328" style="stroke:#1E1E1E;stroke-width:1.0;" width="10" x="1071.5" y="306.6563"/><rect fill="#FF9F1C" height="29.1328" style="stroke:#1E1E1E;stroke-width:1.0;" width="10" x="1071.5" y="652.25"/><rect fill="#FF9F1C" height="29.1328" style="stroke:#1E1E1E;stroke-width:1.0;" width="10" x="1071.5" y="1085.2422"/><rect fill="#FF9F1C" height="79.3984" style="stroke:#1E1E1E;stroke-width:1.0;" width="10" x="1307.5" y="335.7891"/><rect fill="#FF9F1C" height="64.2656" style="stroke:#1E1E1E;stroke-width:1.0;" width="10" x="1307.5" y="587.9844"/><rect fill="#FF9F1C" height="59.2656" style="stroke:#1E1E1E;stroke-width:1.0;" width="10" x="1307.5" y="1114.375"/><rect fill="#FF9F1C" height="29.1328" style="stroke:#1E1E1E;stroke-width:1.0;" width="10" x="1587.5" y="415.1875"/><rect fill="#FF9F1C" height="79.3984" style="stroke:#1E1E1E;stroke-width:1.0;" width="10" x="1587.5" y="508.5859"/><rect fill="#FF9F1C" height="64.2656" style="stroke:#1E1E1E;stroke-width:1.0;" width="10" x="1909.5" y="444.3203"/><polygon fill="#1E1E1E" points="333.5,100.7266,343.5,104.7266,333.5,108.7266,337.5,104.7266" style="stroke:#1E1E1E;stroke-width:1.0;"/><line style="stroke:#1E1E1E;stroke-width:1.0;" x1="43.5" x2="339.5" y1="104.7266" y2="104.7266"/><text fill="#000000" font-family="sans-serif" font-size="13" font-weight="bold" lengthAdjust="spacing" textLength="21" x="50.5" y="99.6606">[1]</text><text fill="#000000" font-family="sans-serif" font-size="13" lengthAdjust="spacing" textLength="253" x="75.5" y="99.6606">sendCommand(WRITE_CHUNK, chunk1)</text><path d="M360,117.7266 L360,157.7266 L690,157.7266 L690,127.7266 L680,117.7266 L360,117.7266 " fill="#FEFFDD" style="stroke:#181818;stroke-width:0.5;"/><path d="M680,117.7266 L680,127.7266 L690,127.7266 L680,117.7266 " fill="#FEFFDD" style="stroke:#181818;stroke-width:0.5;"/><text fill="#000000" font-family="sans-serif" font-size="13" lengthAdjust="spacing" textLength="301" x="366" y="134.7935">&#8226; Frame CRA(WRITE_CHUNK, Session ID=0x02)</text><text fill="#000000" font-family="sans-serif" font-size="13" lengthAdjust="spacing" textLength="211" x="366" y="149.9263">&#8226; Start Response-timer (200 ms)</text><polygon fill="#1E1E1E" points="598.5,180.125,608.5,184.125,598.5,188.125,602.5,184.125" style="stroke:#1E1E1E;stroke-width:1.0;"/><line style="stroke:#1E1E1E;stroke-width:1.0;" x1="350.5" x2="604.5" y1="184.125" y2="184.125"/><text fill="#000000" font-family="sans-serif" font-size="13" font-weight="bold" lengthAdjust="spacing" textLength="21" x="357.5" y="179.0591">[2]</text><text fill="#000000" font-family="sans-serif" font-size="13" lengthAdjust="spacing" textLength="211" x="382.5" y="179.0591">wrapCRA(WRITE_CHUNK, chunk1)</text><path d="M625,197.125 L625,222.125 L907,222.125 L907,207.125 L897,197.125 L625,197.125 " fill="#FEFFDD" style="stroke:#181818;stroke-width:0.5;"/><path d="M897,197.125 L897,207.125 L907,207.125 L897,197.125 " fill="#FEFFDD" style="stroke:#181818;stroke-width:0.5;"/><text fill="#000000" font-family="sans-serif" font-size="13" lengthAdjust="spacing" textLength="261" x="631" y="214.1919">&#8226; SLIP+CRC(chunk1, Seq#=0, Len=256)</text><polygon fill="#1E1E1E" points="366.5,244.3906,356.5,248.3906,366.5,252.3906,362.5,248.3906" style="stroke:#1E1E1E;stroke-width:1.0;"/><line style="stroke:#1E1E1E;stroke-width:1.0;stroke-dasharray:2.0,2.0;" x1="360.5" x2="614.5" y1="248.3906" y2="248.3906"/><text fill="#000000" font-family="sans-serif" font-size="13" font-weight="bold" lengthAdjust="spacing" textLength="21" x="372.5" y="243.3247">[3]</text><text fill="#000000" font-family="sans-serif" font-size="13" lengthAdjust="spacing" textLength="71" x="397.5" y="243.3247">CRA_write1</text><polygon fill="#1E1E1E" points="836.5,273.5234,846.5,277.5234,836.5,281.5234,840.5,277.5234" style="stroke:#1E1E1E;stroke-width:1.0;"/><line style="stroke:#1E1E1E;stroke-width:1.0;" x1="350.5" x2="842.5" y1="277.5234" y2="277.5234"/><text fill="#000000" font-family="sans-serif" font-size="13" font-weight="bold" lengthAdjust="spacing" textLength="21" x="357.5" y="272.4575">[4]</text><text fill="#000000" font-family="sans-serif" font-size="13" lengthAdjust="spacing" textLength="153" x="382.5" y="272.4575">sendFrame(CRA_write1)</text><polygon fill="#1E1E1E" points="1059.5,302.6563,1069.5,306.6563,1059.5,310.6563,1063.5,306.6563" style="stroke:#1E1E1E;stroke-width:1.0;"/><line style="stroke:#1E1E1E;stroke-width:1.0;" x1="853.5" x2="1065.5" y1="306.6563" y2="306.6563"/><text fill="#000000" font-family="sans-serif" font-size="13" font-weight="bold" lengthAdjust="spacing" textLength="21" x="860.5" y="301.5903">[5]</text><text fill="#000000" font-family="sans-serif" font-size="13" lengthAdjust="spacing" textLength="158" x="885.5" y="301.5903">UART bytes (CRA_write1)</text><polygon fill="#1E1E1E" points="1295.5,331.7891,1305.5,335.7891,1295.5,339.7891,1299.5,335.7891" style="stroke:#1E1E1E;stroke-width:1.0;"/><line style="stroke:#1E1E1E;stroke-width:1.0;" x1="1076.5" x2="1301.5" y1="335.7891" y2="335.7891"/><text fill="#000000" font-family="sans-serif" font-size="13" font-weight="bold" lengthAdjust="spacing" textLength="21" x="1083.5" y="330.7231">[6]</text><text fill="#000000" font-family="sans-serif" font-size="13" lengthAdjust="spacing" textLength="173" x="1108.5" y="330.7231">deliverBytes() [CRA_write1]</text><path d="M1322,348.7891 L1322,388.7891 L1444,388.7891 L1444,358.7891 L1434,348.7891 L1322,348.7891 " fill="#FEFFDD" style="stroke:#181818;stroke-width:0.5;"/><path d="M1434,348.7891 L1434,358.7891 L1444,358.7891 L1434,348.7891 " fill="#FEFFDD" style="stroke:#181818;stroke-width:0.5;"/><text fill="#000000" font-family="sans-serif" font-size="13" lengthAdjust="spacing" textLength="91" x="1328" y="365.856">&#8226; SLIP-decode</text><text fill="#000000" font-family="sans-serif" font-size="13" lengthAdjust="spacing" textLength="101" x="1328" y="380.9888">&#8226; CRC check OK</text><polygon fill="#1E1E1E" points="1575.5,411.1875,1585.5,415.1875,1575.5,419.1875,1579.5,415.1875" style="stroke:#1E1E1E;stroke-width:1.0;"/><line style="stroke:#1E1E1E;stroke-width:1.0;" x1="1312.5" x2="1581.5" y1="415.1875" y2="415.1875"/><text fill="#000000" font-family="sans-serif" font-size="13" font-weight="bold" lengthAdjust="spacing" textLength="21" x="1319.5" y="410.1216">[7]</text><text fill="#000000" font-family="sans-serif" font-size="13" lengthAdjust="spacing" textLength="226" x="1344.5" y="410.1216">extractCRA(WRITE_CHUNK, chunk1)</text><polygon fill="#1E1E1E" points="1897.5,440.3203,1907.5,444.3203,1897.5,448.3203,1901.5,444.3203" style="stroke:#1E1E1E;stroke-width:1.0;"/><line style="stroke:#1E1E1E;stroke-width:1.0;" x1="1592.5" x2="1903.5" y1="444.3203" y2="444.3203"/><text fill="#000000" font-family="sans-serif" font-size="13" font-weight="bold" lengthAdjust="spacing" textLength="21" x="1599.5" y="439.2544">[8]</text><text fill="#000000" font-family="sans-serif" font-size="13" lengthAdjust="spacing" textLength="264" x="1624.5" y="439.2544">deliverCommand(WRITE_CHUNK, chunk1)</text><path d="M1924,457.3203 L1924,482.3203 L2090,482.3203 L2090,467.3203 L2080,457.3203 L1924,457.3203 " fill="#FEFFDD" style="stroke:#181818;stroke-width:0.5;"/><path d="M2080,457.3203 L2080,467.3203 L2090,467.3203 L2080,457.3203 " fill="#FEFFDD" style="stroke:#181818;stroke-width:0.5;"/><text fill="#000000" font-family="sans-serif" font-size="13" lengthAdjust="spacing" textLength="145" x="1930" y="474.3872">&#8226; Write chunk1 to flash</text><polygon fill="#1E1E1E" points="1608.5,504.5859,1598.5,508.5859,1608.5,512.5859,1604.5,508.5859" style="stroke:#1E1E1E;stroke-width:1.0;"/><line style="stroke:#1E1E1E;stroke-width:1.0;stroke-dasharray:2.0,2.0;" x1="1602.5" x2="1913.5" y1="508.5859" y2="508.5859"/><text fill="#000000" font-family="sans-serif" font-size="13" font-weight="bold" lengthAdjust="spacing" textLength="21" x="1614.5" y="503.52">[9]</text><text fill="#000000" font-family="sans-serif" font-size="13" lengthAdjust="spacing" textLength="268" x="1639.5" y="503.52">sendResponse(write_resp1, Status=0x00)</text><path d="M1602,521.5859 L1602,561.5859 L1905,561.5859 L1905,531.5859 L1895,521.5859 L1602,521.5859 " fill="#FEFFDD" style="stroke:#181818;stroke-width:0.5;"/><path d="M1895,521.5859 L1895,531.5859 L1905,531.5859 L1895,521.5859 " fill="#FEFFDD" style="stroke:#181818;stroke-width:0.5;"/><text fill="#000000" font-family="sans-serif" font-size="13" lengthAdjust="spacing" textLength="274" x="1608" y="538.6528">&#8226; Wrap CRA(write_resp1, Session ID=0x02)</text><text fill="#000000" font-family="sans-serif" font-size="13" lengthAdjust="spacing" textLength="175" x="1608" y="553.7856">&#8226; Start ACK-timer (200 ms)</text><polygon fill="#1E1E1E" points="1328.5,583.9844,1318.5,587.9844,1328.5,591.9844,1324.5,587.9844" style="stroke:#1E1E1E;stroke-width:1.0;"/><line style="stroke:#1E1E1E;stroke-width:1.0;" x1="1322.5" x2="1591.5" y1="587.9844" y2="587.9844"/><text fill="#000000" font-family="sans-serif" font-size="13" font-weight="bold" lengthAdjust="spacing" textLength="30" x="1334.5" y="582.9185">[10]</text><text fill="#000000" font-family="sans-serif" font-size="13" lengthAdjust="spacing" textLength="139" x="1368.5" y="582.9185">wrapCRA(write_resp1)</text><path d="M1322,600.9844 L1322,625.9844 L1502,625.9844 L1502,610.9844 L1492,600.9844 L1322,600.9844 " fill="#FEFFDD" style="stroke:#181818;stroke-width:0.5;"/><path d="M1492,600.9844 L1492,610.9844 L1502,610.9844 L1492,600.9844 " fill="#FEFFDD" style="stroke:#181818;stroke-width:0.5;"/><text fill="#000000" font-family="sans-serif" font-size="13" lengthAdjust="spacing" textLength="159" x="1328" y="618.0513">&#8226; SLIP+CRC(write_resp1)</text><polygon fill="#1E1E1E" points="1092.5,648.25,1082.5,652.25,1092.5,656.25,1088.5,652.25" style="stroke:#1E1E1E;stroke-width:1.0;"/><line style="stroke:#1E1E1E;stroke-width:1.0;" x1="1086.5" x2="1311.5" y1="652.25" y2="652.25"/><text fill="#000000" font-family="sans-serif" font-size="13" font-weight="bold" lengthAdjust="spacing" textLength="30" x="1098.5" y="647.1841">[11]</text><text fill="#000000" font-family="sans-serif" font-size="13" lengthAdjust="spacing" textLength="155" x="1132.5" y="647.1841">sendFrame(write_resp1)</text><polygon fill="#1E1E1E" points="869.5,677.3828,859.5,681.3828,869.5,685.3828,865.5,681.3828" style="stroke:#1E1E1E;stroke-width:1.0;"/><line style="stroke:#1E1E1E;stroke-width:1.0;" x1="863.5" x2="1075.5" y1="681.3828" y2="681.3828"/><text fill="#000000" font-family="sans-serif" font-size="13" font-weight="bold" lengthAdjust="spacing" textLength="30" x="875.5" y="676.3169">[12]</text><text fill="#000000" font-family="sans-serif" font-size="13" lengthAdjust="spacing" textLength="160" x="909.5" y="676.3169">UART bytes (write_resp1)</text><polygon fill="#1E1E1E" points="631.5,706.5156,621.5,710.5156,631.5,714.5156,627.5,710.5156" style="stroke:#1E1E1E;stroke-width:1.0;"/><line style="stroke:#1E1E1E;stroke-width:1.0;" x1="625.5" x2="852.5" y1="710.5156" y2="710.5156"/><text fill="#000000" font-family="sans-serif" font-size="13" font-weight="bold" lengthAdjust="spacing" textLength="30" x="637.5" y="705.4497">[13]</text><text fill="#000000" font-family="sans-serif" font-size="13" lengthAdjust="spacing" textLength="175" x="671.5" y="705.4497">deliverBytes() [write_resp1]</text><path d="M625,723.5156 L625,763.5156 L747,763.5156 L747,733.5156 L737,723.5156 L625,723.5156 " fill="#FEFFDD" style="stroke:#181818;stroke-width:0.5;"/><path d="M737,723.5156 L737,733.5156 L747,733.5156 L737,723.5156 " fill="#FEFFDD" style="stroke:#181818;stroke-width:0.5;"/><text fill="#000000" font-family="sans-serif" font-size="13" lengthAdjust="spacing" textLength="91" x="631" y="740.5825">&#8226; SLIP-decode</text><text fill="#000000" font-family="sans-serif" font-size="13" lengthAdjust="spacing" textLength="101" x="631" y="755.7153">&#8226; CRC check OK</text><polygon fill="#1E1E1E" points="366.5,785.9141,356.5,789.9141,366.5,793.9141,362.5,789.9141" style="stroke:#1E1E1E;stroke-width:1.0;"/><line style="stroke:#1E1E1E;stroke-width:1.0;" x1="360.5" x2="614.5" y1="789.9141" y2="789.9141"/><text fill="#000000" font-family="sans-serif" font-size="13" font-weight="bold" lengthAdjust="spacing" textLength="30" x="372.5" y="784.8481">[14]</text><text fill="#000000" font-family="sans-serif" font-size="13" lengthAdjust="spacing" textLength="154" x="406.5" y="784.8481">extractCRA(write_resp1)</text><path d="M360,802.9141 L360,842.9141 L528,842.9141 L528,812.9141 L518,802.9141 L360,802.9141 " fill="#FEFFDD" style="stroke:#181818;stroke-width:0.5;"/><path d="M518,802.9141 L518,812.9141 L528,812.9141 L518,802.9141 " fill="#FEFFDD" style="stroke:#181818;stroke-width:0.5;"/><text fill="#000000" font-family="sans-serif" font-size="13" lengthAdjust="spacing" textLength="124" x="366" y="819.981">&#8226; Parse status (OK)</text><text fill="#000000" font-family="sans-serif" font-size="13" lengthAdjust="spacing" textLength="147" x="366" y="835.1138">&#8226; Stop Response-timer</text><polygon fill="#1E1E1E" points="59.5,865.3125,49.5,869.3125,59.5,873.3125,55.5,869.3125" style="stroke:#1E1E1E;stroke-width:1.0;"/><line style="stroke:#1E1E1E;stroke-width:1.0;" x1="53.5" x2="349.5" y1="869.3125" y2="869.3125"/><text fill="#000000" font-family="sans-serif" font-size="13" font-weight="bold" lengthAdjust="spacing" textLength="30" x="65.5" y="864.2466">[15]</text><text fill="#000000" font-family="sans-serif" font-size="13" lengthAdjust="spacing" textLength="187" x="99.5" y="864.2466">deliverResponse(write_resp1)</text><polygon fill="#1E1E1E" points="333.5,894.4453,343.5,898.4453,333.5,902.4453,337.5,898.4453" style="stroke:#1E1E1E;stroke-width:1.0;"/><line style="stroke:#1E1E1E;stroke-width:1.0;stroke-dasharray:2.0,2.0;" x1="43.5" x2="339.5" y1="898.4453" y2="898.4453"/><text fill="#000000" font-family="sans-serif" font-size="13" font-weight="bold" lengthAdjust="spacing" textLength="30" x="50.5" y="893.3794">[16]</text><text fill="#000000" font-family="sans-serif" font-size="13" lengthAdjust="spacing" textLength="175" x="84.5" y="893.3794">sendACK() [for write_resp1]</text><path d="M360,911.4453 L360,936.4453 L691,936.4453 L691,921.4453 L681,911.4453 L360,911.4453 " fill="#FEFFDD" style="stroke:#181818;stroke-width:0.5;"/><path d="M681,911.4453 L681,921.4453 L691,921.4453 L681,911.4453 " fill="#FEFFDD" style="stroke:#181818;stroke-width:0.5;"/><text fill="#000000" font-family="sans-serif" font-size="13" lengthAdjust="spacing" textLength="310" x="366" y="928.5122">&#8226; Wrap CRA(ACK, Session ID=0x02, Flags=0x04)</text><polygon fill="#1E1E1E" points="598.5,958.7109,608.5,962.7109,598.5,966.7109,602.5,962.7109" style="stroke:#1E1E1E;stroke-width:1.0;"/><line style="stroke:#1E1E1E;stroke-width:1.0;" x1="350.5" x2="604.5" y1="962.7109" y2="962.7109"/><text fill="#000000" font-family="sans-serif" font-size="13" font-weight="bold" lengthAdjust="spacing" textLength="30" x="357.5" y="957.645">[17]</text><text fill="#000000" font-family="sans-serif" font-size="13" lengthAdjust="spacing" textLength="92" x="391.5" y="957.645">wrapCRA(ACK)</text><path d="M625,975.7109 L625,1000.7109 L761,1000.7109 L761,985.7109 L751,975.7109 L625,975.7109 " fill="#FEFFDD" style="stroke:#181818;stroke-width:0.5;"/><path d="M751,975.7109 L751,985.7109 L761,985.7109 L751,975.7109 " fill="#FEFFDD" style="stroke:#181818;stroke-width:0.5;"/><text fill="#000000" font-family="sans-serif" font-size="13" lengthAdjust="spacing" textLength="115" x="631" y="992.7778">&#8226; Build ACK frame</text><polygon fill="#1E1E1E" points="366.5,1022.9766,356.5,1026.9766,366.5,1030.9766,362.5,1026.9766" style="stroke:#1E1E1E;stroke-width:1.0;"/><line style="stroke:#1E1E1E;stroke-width:1.0;stroke-dasharray:2.0,2.0;" x1="360.5" x2="614.5" y1="1026.9766" y2="1026.9766"/><text fill="#000000" font-family="sans-serif" font-size="13" font-weight="bold" lengthAdjust="spacing" textLength="30" x="372.5" y="1021.9106">[18]</text><text fill="#000000" font-family="sans-serif" font-size="13" lengthAdjust="spacing" textLength="71" x="406.5" y="1021.9106">ACK_write1</text><polygon fill="#1E1E1E" points="836.5,1052.1094,846.5,1056.1094,836.5,1060.1094,840.5,1056.1094" style="stroke:#1E1E1E;stroke-width:1.0;"/><line style="stroke:#1E1E1E;stroke-width:1.0;" x1="350.5" x2="842.5" y1="1056.1094" y2="1056.1094"/><text fill="#000000" font-family="sans-serif" font-size="13" font-weight="bold" lengthAdjust="spacing" textLength="30" x="357.5" y="1051.0435">[19]</text><text fill="#000000" font-family="sans-serif" font-size="13" lengthAdjust="spacing" textLength="153" x="391.5" y="1051.0435">sendFrame(ACK_write1)</text><polygon fill="#1E1E1E" points="1059.5,1081.2422,1069.5,1085.2422,1059.5,1089.2422,1063.5,1085.2422" style="stroke:#1E1E1E;stroke-width:1.0;"/><line style="stroke:#1E1E1E;stroke-width:1.0;" x1="853.5" x2="1065.5" y1="1085.2422" y2="1085.2422"/><text fill="#000000" font-family="sans-serif" font-size="13" font-weight="bold" lengthAdjust="spacing" textLength="30" x="860.5" y="1080.1763">[20]</text><text fill="#000000" font-family="sans-serif" font-size="13" lengthAdjust="spacing" textLength="158" x="894.5" y="1080.1763">UART bytes (ACK_write1)</text><polygon fill="#1E1E1E" points="1295.5,1110.375,1305.5,1114.375,1295.5,1118.375,1299.5,1114.375" style="stroke:#1E1E1E;stroke-width:1.0;"/><line style="stroke:#1E1E1E;stroke-width:1.0;" x1="1076.5" x2="1301.5" y1="1114.375" y2="1114.375"/><text fill="#000000" font-family="sans-serif" font-size="13" font-weight="bold" lengthAdjust="spacing" textLength="30" x="1083.5" y="1109.3091">[21]</text><text fill="#000000" font-family="sans-serif" font-size="13" lengthAdjust="spacing" textLength="173" x="1117.5" y="1109.3091">deliverBytes() [ACK_write1]</text><path d="M1322,1127.375 L1322,1167.375 L1474,1167.375 L1474,1137.375 L1464,1127.375 L1322,1127.375 " fill="#FEFFDD" style="stroke:#181818;stroke-width:0.5;"/><path d="M1464,1127.375 L1464,1137.375 L1474,1137.375 L1464,1127.375 " fill="#FEFFDD" style="stroke:#181818;stroke-width:0.5;"/><text fill="#000000" font-family="sans-serif" font-size="13" lengthAdjust="spacing" textLength="123" x="1328" y="1144.4419">&#8226; Extract CRA(ACK)</text><text fill="#000000" font-family="sans-serif" font-size="13" lengthAdjust="spacing" textLength="111" x="1328" y="1159.5747">&#8226; Stop ACK-timer</text><!--SRC=[hLRXQjj84Fw_Jp4uqDXfJENqsgEb2IXIWqFCHJXgIoaXRAIL8s9hrTrrqt8Sv27w17sqFidDIhArgqYk2N428T8tizz-Cz-CTt__l7-IN_YOoYMTWsHAfTbCmbCb9l8spN8gw082AbGQfJdDL43Z68-1qO43kmOaho7mBm7y7DFeTYRuCeizFkS2TfnNBr__FIhVSH4pKJxNdvqHqp_5knEUgVeDmDrDgXZvppXBigzBbaMiEiWLWj-P4VN7p3j94pP9CzOykmlMeAzXIV8c6KK5p91aqsLCs0Oz35ZNzObArPp1tjxnHG0NAmM6y4dWU_1kbjdj-l7U7Y5cGNfZBXMuUTvRAqCbZDqMaBU8OK9_CD6hG5uBo0ydDiXl0GNZppOei44X5JDcmH0KjeEC0pN8RmKPr3N8QmKP8cYGImXTAfuj5zTCGE_TzT4Nv_BTY-kZ7Y6xjST60oZk95aMI_WqFGtVNtdZ3_-SGSGN2vh5q4zIWO18rs7mPmyI6gdq6yNAOHN6BWoFK6buMnpWbIdxnZ7xPUBHWCJCZ3JIU2JZ-5Uaini5FD4F07xV_u8Jj0msoDIr4rumALEUmQb_w7nt3WO05Vv2eMmmPJBdcMH3bIvGcVw1uy123WZo0tqGGRgQj8-axmJD7-Hl8-oPXFqcONz5O78QFFUcNhzCeQb-tJbqzc72iiE3LwzD4ZuCLz8XWwixROQHTQPlYrJH3Ygj2t7wTUW6lW71A8mDTUm7Tnh2zG_597H61rOBeS9L2-Q2HoW-inlfgSPsIukXgSAIkgvMpERfDoQEDVd-0BxKz2zD-XXaP6WMApIBDOnPn6EsxY2i7PQVHRTmVbRN2W_N57Ifs7SbCFSsFHEQzKDFXqNzGhU-oBPs2Srgel4R5t8hykKyBUD1SKZcLDuOjt2BZWjNPbtvf5z8U2NmNzsnYggbrCPoR0wkVPi61s_DWUQ5O-sacnthUcUTPgrKCyrgfDuWqyQw5oQryZIBRTkiyqYhngjc7JTzrXbk6-rbDQlRRIQgUi6pQfYZRB35b5wvVznc8OFPPNC4R3dmjlFGs5zl2iD3NS8qPr_7Wi0l7wY7B5eM-kTdPcFnlB497Ym0mubjNjWmKCl5Psu-h8MMCy4lFvsIRhVqrWx2b0-SimydSpehxFdNves6qO_POCVBT1uNdPNenc_VL_ZwiVkg3dtClkgA3iYsAwFEy9YLyRxit5Lv6kss7cErQlQe-1y0]--></g></svg>