<?xml version="1.0" encoding="us-ascii" standalone="no"?><svg xmlns="http://www.w3.org/2000/svg" xmlns:xlink="http://www.w3.org/1999/xlink" contentStyleType="text/css" height="1217px" preserveAspectRatio="none" style="width:1964px;height:1217px;background:#FFFFFF;" version="1.1" viewBox="0 0 1964 1217" width="1964px" zoomAndPan="magnify"><defs/><g><text fill="#000000" font-family="sans-serif" font-size="14" font-weight="bold" lengthAdjust="spacing" textLength="328" x="816.5" y="27.9951">BSP Sequence - Reset and Run Sequence</text><rect fill="#FF9F1C" height="21.1328" style="stroke:#1E1E1E;stroke-width:1.0;" width="10" x="38.5" y="83.5938"/><rect fill="#FF9F1C" height="29.1328" style="stroke:#1E1E1E;stroke-width:1.0;" width="10" x="38.5" y="869.3125"/><rect fill="#FF9F1C" height="79.3984" style="stroke:#1E1E1E;stroke-width:1.0;" width="10" x="311.5" y="104.7266"/><rect fill="#FF9F1C" height="29.1328" style="stroke:#1E1E1E;stroke-width:1.0;" width="10" x="311.5" y="248.3906"/><rect fill="#FF9F1C" height="79.3984" style="stroke:#1E1E1E;stroke-width:1.0;" width="10" x="311.5" y="789.9141"/><rect fill="#FF9F1C" height="64.2656" style="stroke:#1E1E1E;stroke-width:1.0;" width="10" x="311.5" y="898.4453"/><rect fill="#FF9F1C" height="29.1328" style="stroke:#1E1E1E;stroke-width:1.0;" width="10" x="311.5" y="1026.9766"/><rect fill="#FF9F1C" height="64.2656" style="stroke:#1E1E1E;stroke-width:1.0;" width="10" x="542.5" y="184.125"/><rect fill="#FF9F1C" height="79.3984" style="stroke:#1E1E1E;stroke-width:1.0;" width="10" x="542.5" y="710.5156"/><rect fill="#FF9F1C" height="64.2656" style="stroke:#1E1E1E;stroke-width:1.0;" width="10" x="542.5" y="962.7109"/><rect fill="#FF9F1C" height="29.1328" style="stroke:#1E1E1E;stroke-width:1.0;" width="10" x="775.5" y="277.5234"/><rect fill="#FF9F1C" height="29.1328" style="stroke:#1E1E1E;stroke-width:1.0;" width="10" x="775.5" y="681.3828"/><rect fill="#FF9F1C" height="29.1328" style="stroke:#1E1E1E;stroke-width:1.0;" width="10" x="775.5" y="1056.1094"/><rect fill="#FF9F1C" height="29.1328" style="stroke:#1E1E1E;stroke-width:1.0;" width="10" x="993.5" y="306.6563"/><rect fill="#FF9F1C" height="29.1328" style="stroke:#1E1E1E;stroke-width:1.0;" width="10" x="993.5" y="652.25"/><rect fill="#FF9F1C" height="29.1328" style="stroke:#1E1E1E;stroke-width:1.0;" width="10" x="993.5" y="1085.2422"/><rect fill="#FF9F1C" height="79.3984" style="stroke:#1E1E1E;stroke-width:1.0;" width="10" x="1224.5" y="335.7891"/><rect fill="#FF9F1C" height="64.2656" style="stroke:#1E1E1E;stroke-width:1.0;" width="10" x="1224.5" y="587.9844"/><rect fill="#FF9F1C" height="59.2656" style="stroke:#1E1E1E;stroke-width:1.0;" width="10" x="1224.5" y="1114.375"/><rect fill="#FF9F1C" height="29.1328" style="stroke:#1E1E1E;stroke-width:1.0;" width="10" x="1470.5" y="415.1875"/><rect fill="#FF9F1C" height="79.3984" style="stroke:#1E1E1E;stroke-width:1.0;" width="10" x="1470.5" y="508.5859"/><rect fill="#FF9F1C" height="64.2656" style="stroke:#1E1E1E;stroke-width:1.0;" width="10" x="1787.5" y="444.3203"/><line style="stroke:#1E1E1E;stroke-width:0.5;stroke-dasharray:5.0,5.0;" x1="43" x2="43" y1="73.5938" y2="1182.6406"/><line style="stroke:#1E1E1E;stroke-width:0.5;stroke-dasharray:5.0,5.0;" x1="316.5" x2="316.5" y1="73.5938" y2="1182.6406"/><line style="stroke:#1E1E1E;stroke-width:0.5;stroke-dasharray:5.0,5.0;" x1="547" x2="547" y1="73.5938" y2="1182.6406"/><line style="stroke:#1E1E1E;stroke-width:0.5;stroke-dasharray:5.0,5.0;" x1="780.5" x2="780.5" y1="73.5938" y2="1182.6406"/><line style="stroke:#1E1E1E;stroke-width:0.5;stroke-dasharray:5.0,5.0;" x1="998" x2="998" y1="73.5938" y2="1182.6406"/><line style="stroke:#1E1E1E;stroke-width:0.5;stroke-dasharray:5.0,5.0;" x1="1229.5" x2="1229.5" y1="73.5938" y2="1182.6406"/><line style="stroke:#1E1E1E;stroke-width:0.5;stroke-dasharray:5.0,5.0;" x1="1475" x2="1475" y1="73.5938" y2="1182.6406"/><line style="stroke:#1E1E1E;stroke-width:0.5;stroke-dasharray:5.0,5.0;" x1="1792.5" x2="1792.5" y1="73.5938" y2="1182.6406"/><rect fill="#053671" height="30.2969" rx="2.5" ry="2.5" style="stroke:#1E1E1E;stroke-width:0.5;" width="77" x="5" y="42.2969"/><text fill="#FFFFFF" font-family="sans-serif" font-size="14" lengthAdjust="spacing" textLength="63" x="12" y="62.292">Host App</text><rect fill="#053671" height="30.2969" rx="2.5" ry="2.5" style="stroke:#1E1E1E;stroke-width:0.5;" width="77" x="5" y="1181.6406"/><text fill="#FFFFFF" font-family="sans-serif" font-size="14" lengthAdjust="spacing" textLength="63" x="12" y="1201.6357">Host App</text><rect fill="#053671" height="30.2969" rx="2.5" ry="2.5" style="stroke:#1E1E1E;stroke-width:0.5;" width="122" x="255.5" y="42.2969"/><text fill="#FFFFFF" font-family="sans-serif" font-size="14" lengthAdjust="spacing" textLength="108" x="262.5" y="62.292">Host Cmd Layer</text><rect fill="#053671" height="30.2969" rx="2.5" ry="2.5" style="stroke:#1E1E1E;stroke-width:0.5;" width="122" x="255.5" y="1181.6406"/><text fill="#FFFFFF" font-family="sans-serif" font-size="14" lengthAdjust="spacing" textLength="108" x="262.5" y="1201.6357">Host Cmd Layer</text><rect fill="#053671" height="30.2969" rx="2.5" ry="2.5" style="stroke:#1E1E1E;stroke-width:0.5;" width="117" x="489" y="42.2969"/><text fill="#FFFFFF" font-family="sans-serif" font-size="14" lengthAdjust="spacing" textLength="103" x="496" y="62.292">Host DTL Layer</text><rect fill="#053671" height="30.2969" rx="2.5" ry="2.5" style="stroke:#1E1E1E;stroke-width:0.5;" width="117" x="489" y="1181.6406"/><text fill="#FFFFFF" font-family="sans-serif" font-size="14" lengthAdjust="spacing" textLength="103" x="496" y="1201.6357">Host DTL Layer</text><rect fill="#053671" height="30.2969" rx="2.5" ry="2.5" style="stroke:#1E1E1E;stroke-width:0.5;" width="118" x="721.5" y="42.2969"/><text fill="#FFFFFF" font-family="sans-serif" font-size="14" lengthAdjust="spacing" textLength="104" x="728.5" y="62.292">Host PHY Layer</text><rect fill="#053671" height="30.2969" rx="2.5" ry="2.5" style="stroke:#1E1E1E;stroke-width:0.5;" width="118" x="721.5" y="1181.6406"/><text fill="#FFFFFF" font-family="sans-serif" font-size="14" lengthAdjust="spacing" textLength="104" x="728.5" y="1201.6357">Host PHY Layer</text><rect fill="#053671" height="30.2969" rx="2.5" ry="2.5" style="stroke:#1E1E1E;stroke-width:0.5;" width="131" x="933" y="42.2969"/><text fill="#FFFFFF" font-family="sans-serif" font-size="14" lengthAdjust="spacing" textLength="117" x="940" y="62.292">Target PHY Layer</text><rect fill="#053671" height="30.2969" rx="2.5" ry="2.5" style="stroke:#1E1E1E;stroke-width:0.5;" width="131" x="933" y="1181.6406"/><text fill="#FFFFFF" font-family="sans-serif" font-size="14" lengthAdjust="spacing" textLength="117" x="940" y="1201.6357">Target PHY Layer</text><rect fill="#053671" height="30.2969" rx="2.5" ry="2.5" style="stroke:#1E1E1E;stroke-width:0.5;" width="130" x="1164.5" y="42.2969"/><text fill="#FFFFFF" font-family="sans-serif" font-size="14" lengthAdjust="spacing" textLength="116" x="1171.5" y="62.292">Target DTL Layer</text><rect fill="#053671" height="30.2969" rx="2.5" ry="2.5" style="stroke:#1E1E1E;stroke-width:0.5;" width="130" x="1164.5" y="1181.6406"/><text fill="#FFFFFF" font-family="sans-serif" font-size="14" lengthAdjust="spacing" textLength="116" x="1171.5" y="1201.6357">Target DTL Layer</text><rect fill="#053671" height="30.2969" rx="2.5" ry="2.5" style="stroke:#1E1E1E;stroke-width:0.5;" width="135" x="1408" y="42.2969"/><text fill="#FFFFFF" font-family="sans-serif" font-size="14" lengthAdjust="spacing" textLength="121" x="1415" y="62.292">Target Cmd Layer</text><rect fill="#053671" height="30.2969" rx="2.5" ry="2.5" style="stroke:#1E1E1E;stroke-width:0.5;" width="135" x="1408" y="1181.6406"/><text fill="#FFFFFF" font-family="sans-serif" font-size="14" lengthAdjust="spacing" textLength="121" x="1415" y="1201.6357">Target Cmd Layer</text><rect fill="#053671" height="30.2969" rx="2.5" ry="2.5" style="stroke:#1E1E1E;stroke-width:0.5;" width="90" x="1747.5" y="42.2969"/><text fill="#FFFFFF" font-family="sans-serif" font-size="14" lengthAdjust="spacing" textLength="76" x="1754.5" y="62.292">Target App</text><rect fill="#053671" height="30.2969" rx="2.5" ry="2.5" style="stroke:#1E1E1E;stroke-width:0.5;" width="90" x="1747.5" y="1181.6406"/><text fill="#FFFFFF" font-family="sans-serif" font-size="14" lengthAdjust="spacing" textLength="76" x="1754.5" y="1201.6357">Target App</text><rect fill="#FF9F1C" height="21.1328" style="stroke:#1E1E1E;stroke-width:1.0;" width="10" x="38.5" y="83.5938"/><rect fill="#FF9F1C" height="29.1328" style="stroke:#1E1E1E;stroke-width:1.0;" width="10" x="38.5" y="869.3125"/><rect fill="#FF9F1C" height="79.3984" style="stroke:#1E1E1E;stroke-width:1.0;" width="10" x="311.5" y="104.7266"/><rect fill="#FF9F1C" height="29.1328" style="stroke:#1E1E1E;stroke-width:1.0;" width="10" x="311.5" y="248.3906"/><rect fill="#FF9F1C" height="79.3984" style="stroke:#1E1E1E;stroke-width:1.0;" width="10" x="311.5" y="789.9141"/><rect fill="#FF9F1C" height="64.2656" style="stroke:#1E1E1E;stroke-width:1.0;" width="10" x="311.5" y="898.4453"/><rect fill="#FF9F1C" height="29.1328" style="stroke:#1E1E1E;stroke-width:1.0;" width="10" x="311.5" y="1026.9766"/><rect fill="#FF9F1C" height="64.2656" style="stroke:#1E1E1E;stroke-width:1.0;" width="10" x="542.5" y="184.125"/><rect fill="#FF9F1C" height="79.3984" style="stroke:#1E1E1E;stroke-width:1.0;" width="10" x="542.5" y="710.5156"/><rect fill="#FF9F1C" height="64.2656" style="stroke:#1E1E1E;stroke-width:1.0;" width="10" x="542.5" y="962.7109"/><rect fill="#FF9F1C" height="29.1328" style="stroke:#1E1E1E;stroke-width:1.0;" width="10" x="775.5" y="277.5234"/><rect fill="#FF9F1C" height="29.1328" style="stroke:#1E1E1E;stroke-width:1.0;" width="10" x="775.5" y="681.3828"/><rect fill="#FF9F1C" height="29.1328" style="stroke:#1E1E1E;stroke-width:1.0;" width="10" x="775.5" y="1056.1094"/><rect fill="#FF9F1C" height="29.1328" style="stroke:#1E1E1E;stroke-width:1.0;" width="10" x="993.5" y="306.6563"/><rect fill="#FF9F1C" height="29.1328" style="stroke:#1E1E1E;stroke-width:1.0;" width="10" x="993.5" y="652.25"/><rect fill="#FF9F1C" height="29.1328" style="stroke:#1E1E1E;stroke-width:1.0;" width="10" x="993.5" y="1085.2422"/><rect fill="#FF9F1C" height="79.3984" style="stroke:#1E1E1E;stroke-width:1.0;" width="10" x="1224.5" y="335.7891"/><rect fill="#FF9F1C" height="64.2656" style="stroke:#1E1E1E;stroke-width:1.0;" width="10" x="1224.5" y="587.9844"/><rect fill="#FF9F1C" height="59.2656" style="stroke:#1E1E1E;stroke-width:1.0;" width="10" x="1224.5" y="1114.375"/><rect fill="#FF9F1C" height="29.1328" style="stroke:#1E1E1E;stroke-width:1.0;" width="10" x="1470.5" y="415.1875"/><rect fill="#FF9F1C" height="79.3984" style="stroke:#1E1E1E;stroke-width:1.0;" width="10" x="1470.5" y="508.5859"/><rect fill="#FF9F1C" height="64.2656" style="stroke:#1E1E1E;stroke-width:1.0;" width="10" x="1787.5" y="444.3203"/><polygon fill="#1E1E1E" points="299.5,100.7266,309.5,104.7266,299.5,108.7266,303.5,104.7266" style="stroke:#1E1E1E;stroke-width:1.0;"/><line style="stroke:#1E1E1E;stroke-width:1.0;" x1="43.5" x2="305.5" y1="104.7266" y2="104.7266"/><text fill="#000000" font-family="sans-serif" font-size="13" font-weight="bold" lengthAdjust="spacing" textLength="21" x="50.5" y="99.6606">[1]</text><text fill="#000000" font-family="sans-serif" font-size="13" lengthAdjust="spacing" textLength="219" x="75.5" y="99.6606">sendCommand(RESET_AND_RUN)</text><path d="M326,117.7266 L326,157.7266 L676,157.7266 L676,127.7266 L666,117.7266 L326,117.7266 " fill="#FEFFDD" style="stroke:#181818;stroke-width:0.5;"/><path d="M666,117.7266 L666,127.7266 L676,127.7266 L666,117.7266 " fill="#FEFFDD" style="stroke:#181818;stroke-width:0.5;"/><text fill="#000000" font-family="sans-serif" font-size="13" lengthAdjust="spacing" textLength="321" x="332" y="134.7935">&#8226; Frame CRA(RESET_AND_RUN, Session ID=0x04)</text><text fill="#000000" font-family="sans-serif" font-size="13" lengthAdjust="spacing" textLength="211" x="332" y="149.9263">&#8226; Start Response-timer (200 ms)</text><polygon fill="#1E1E1E" points="530.5,180.125,540.5,184.125,530.5,188.125,534.5,184.125" style="stroke:#1E1E1E;stroke-width:1.0;"/><line style="stroke:#1E1E1E;stroke-width:1.0;" x1="316.5" x2="536.5" y1="184.125" y2="184.125"/><text fill="#000000" font-family="sans-serif" font-size="13" font-weight="bold" lengthAdjust="spacing" textLength="21" x="323.5" y="179.0591">[2]</text><text fill="#000000" font-family="sans-serif" font-size="13" lengthAdjust="spacing" textLength="177" x="348.5" y="179.0591">wrapCRA(RESET_AND_RUN)</text><path d="M557,197.125 L557,222.125 L775,222.125 L775,207.125 L765,197.125 L557,197.125 " fill="#FEFFDD" style="stroke:#181818;stroke-width:0.5;"/><path d="M765,197.125 L765,207.125 L775,207.125 L765,197.125 " fill="#FEFFDD" style="stroke:#181818;stroke-width:0.5;"/><text fill="#000000" font-family="sans-serif" font-size="13" lengthAdjust="spacing" textLength="197" x="563" y="214.1919">&#8226; SLIP+CRC(RESET_AND_RUN)</text><polygon fill="#1E1E1E" points="332.5,244.3906,322.5,248.3906,332.5,252.3906,328.5,248.3906" style="stroke:#1E1E1E;stroke-width:1.0;"/><line style="stroke:#1E1E1E;stroke-width:1.0;stroke-dasharray:2.0,2.0;" x1="326.5" x2="546.5" y1="248.3906" y2="248.3906"/><text fill="#000000" font-family="sans-serif" font-size="13" font-weight="bold" lengthAdjust="spacing" textLength="21" x="338.5" y="243.3247">[3]</text><text fill="#000000" font-family="sans-serif" font-size="13" lengthAdjust="spacing" textLength="66" x="363.5" y="243.3247">CRA_reset</text><polygon fill="#1E1E1E" points="763.5,273.5234,773.5,277.5234,763.5,281.5234,767.5,277.5234" style="stroke:#1E1E1E;stroke-width:1.0;"/><line style="stroke:#1E1E1E;stroke-width:1.0;" x1="316.5" x2="769.5" y1="277.5234" y2="277.5234"/><text fill="#000000" font-family="sans-serif" font-size="13" font-weight="bold" lengthAdjust="spacing" textLength="21" x="323.5" y="272.4575">[4]</text><text fill="#000000" font-family="sans-serif" font-size="13" lengthAdjust="spacing" textLength="148" x="348.5" y="272.4575">sendFrame(CRA_reset)</text><polygon fill="#1E1E1E" points="981.5,302.6563,991.5,306.6563,981.5,310.6563,985.5,306.6563" style="stroke:#1E1E1E;stroke-width:1.0;"/><line style="stroke:#1E1E1E;stroke-width:1.0;" x1="780.5" x2="987.5" y1="306.6563" y2="306.6563"/><text fill="#000000" font-family="sans-serif" font-size="13" font-weight="bold" lengthAdjust="spacing" textLength="21" x="787.5" y="301.5903">[5]</text><text fill="#000000" font-family="sans-serif" font-size="13" lengthAdjust="spacing" textLength="153" x="812.5" y="301.5903">UART bytes (CRA_reset)</text><polygon fill="#1E1E1E" points="1212.5,331.7891,1222.5,335.7891,1212.5,339.7891,1216.5,335.7891" style="stroke:#1E1E1E;stroke-width:1.0;"/><line style="stroke:#1E1E1E;stroke-width:1.0;" x1="998.5" x2="1218.5" y1="335.7891" y2="335.7891"/><text fill="#000000" font-family="sans-serif" font-size="13" font-weight="bold" lengthAdjust="spacing" textLength="21" x="1005.5" y="330.7231">[6]</text><text fill="#000000" font-family="sans-serif" font-size="13" lengthAdjust="spacing" textLength="168" x="1030.5" y="330.7231">deliverBytes() [CRA_reset]</text><path d="M1239,348.7891 L1239,388.7891 L1361,388.7891 L1361,358.7891 L1351,348.7891 L1239,348.7891 " fill="#FEFFDD" style="stroke:#181818;stroke-width:0.5;"/><path d="M1351,348.7891 L1351,358.7891 L1361,358.7891 L1351,348.7891 " fill="#FEFFDD" style="stroke:#181818;stroke-width:0.5;"/><text fill="#000000" font-family="sans-serif" font-size="13" lengthAdjust="spacing" textLength="91" x="1245" y="365.856">&#8226; SLIP-decode</text><text fill="#000000" font-family="sans-serif" font-size="13" lengthAdjust="spacing" textLength="101" x="1245" y="380.9888">&#8226; CRC check OK</text><polygon fill="#1E1E1E" points="1458.5,411.1875,1468.5,415.1875,1458.5,419.1875,1462.5,415.1875" style="stroke:#1E1E1E;stroke-width:1.0;"/><line style="stroke:#1E1E1E;stroke-width:1.0;" x1="1229.5" x2="1464.5" y1="415.1875" y2="415.1875"/><text fill="#000000" font-family="sans-serif" font-size="13" font-weight="bold" lengthAdjust="spacing" textLength="21" x="1236.5" y="410.1216">[7]</text><text fill="#000000" font-family="sans-serif" font-size="13" lengthAdjust="spacing" textLength="192" x="1261.5" y="410.1216">extractCRA(RESET_AND_RUN)</text><polygon fill="#1E1E1E" points="1775.5,440.3203,1785.5,444.3203,1775.5,448.3203,1779.5,444.3203" style="stroke:#1E1E1E;stroke-width:1.0;"/><line style="stroke:#1E1E1E;stroke-width:1.0;" x1="1475.5" x2="1781.5" y1="444.3203" y2="444.3203"/><text fill="#000000" font-family="sans-serif" font-size="13" font-weight="bold" lengthAdjust="spacing" textLength="21" x="1482.5" y="439.2544">[8]</text><text fill="#000000" font-family="sans-serif" font-size="13" lengthAdjust="spacing" textLength="230" x="1507.5" y="439.2544">deliverCommand(RESET_AND_RUN)</text><path d="M1802,457.3203 L1802,482.3203 L1957,482.3203 L1957,467.3203 L1947,457.3203 L1802,457.3203 " fill="#FEFFDD" style="stroke:#181818;stroke-width:0.5;"/><path d="M1947,457.3203 L1947,467.3203 L1957,467.3203 L1947,457.3203 " fill="#FEFFDD" style="stroke:#181818;stroke-width:0.5;"/><text fill="#000000" font-family="sans-serif" font-size="13" lengthAdjust="spacing" textLength="134" x="1808" y="474.3872">&#8226; Jump to application</text><polygon fill="#1E1E1E" points="1491.5,504.5859,1481.5,508.5859,1491.5,512.5859,1487.5,508.5859" style="stroke:#1E1E1E;stroke-width:1.0;"/><line style="stroke:#1E1E1E;stroke-width:1.0;stroke-dasharray:2.0,2.0;" x1="1485.5" x2="1791.5" y1="508.5859" y2="508.5859"/><text fill="#000000" font-family="sans-serif" font-size="13" font-weight="bold" lengthAdjust="spacing" textLength="21" x="1497.5" y="503.52">[9]</text><text fill="#000000" font-family="sans-serif" font-size="13" lengthAdjust="spacing" textLength="263" x="1522.5" y="503.52">sendResponse(reset_resp, Status=0x00)</text><path d="M1485,521.5859 L1485,561.5859 L1783,561.5859 L1783,531.5859 L1773,521.5859 L1485,521.5859 " fill="#FEFFDD" style="stroke:#181818;stroke-width:0.5;"/><path d="M1773,521.5859 L1773,531.5859 L1783,531.5859 L1773,521.5859 " fill="#FEFFDD" style="stroke:#181818;stroke-width:0.5;"/><text fill="#000000" font-family="sans-serif" font-size="13" lengthAdjust="spacing" textLength="269" x="1491" y="538.6528">&#8226; Wrap CRA(reset_resp, Session ID=0x04)</text><text fill="#000000" font-family="sans-serif" font-size="13" lengthAdjust="spacing" textLength="175" x="1491" y="553.7856">&#8226; Start ACK-timer (200 ms)</text><polygon fill="#1E1E1E" points="1245.5,583.9844,1235.5,587.9844,1245.5,591.9844,1241.5,587.9844" style="stroke:#1E1E1E;stroke-width:1.0;"/><line style="stroke:#1E1E1E;stroke-width:1.0;" x1="1239.5" x2="1474.5" y1="587.9844" y2="587.9844"/><text fill="#000000" font-family="sans-serif" font-size="13" font-weight="bold" lengthAdjust="spacing" textLength="30" x="1251.5" y="582.9185">[10]</text><text fill="#000000" font-family="sans-serif" font-size="13" lengthAdjust="spacing" textLength="134" x="1285.5" y="582.9185">wrapCRA(reset_resp)</text><path d="M1239,600.9844 L1239,625.9844 L1414,625.9844 L1414,610.9844 L1404,600.9844 L1239,600.9844 " fill="#FEFFDD" style="stroke:#181818;stroke-width:0.5;"/><path d="M1404,600.9844 L1404,610.9844 L1414,610.9844 L1404,600.9844 " fill="#FEFFDD" style="stroke:#181818;stroke-width:0.5;"/><text fill="#000000" font-family="sans-serif" font-size="13" lengthAdjust="spacing" textLength="154" x="1245" y="618.0513">&#8226; SLIP+CRC(reset_resp)</text><polygon fill="#1E1E1E" points="1014.5,648.25,1004.5,652.25,1014.5,656.25,1010.5,652.25" style="stroke:#1E1E1E;stroke-width:1.0;"/><line style="stroke:#1E1E1E;stroke-width:1.0;" x1="1008.5" x2="1228.5" y1="652.25" y2="652.25"/><text fill="#000000" font-family="sans-serif" font-size="13" font-weight="bold" lengthAdjust="spacing" textLength="30" x="1020.5" y="647.1841">[11]</text><text fill="#000000" font-family="sans-serif" font-size="13" lengthAdjust="spacing" textLength="150" x="1054.5" y="647.1841">sendFrame(reset_resp)</text><polygon fill="#1E1E1E" points="796.5,677.3828,786.5,681.3828,796.5,685.3828,792.5,681.3828" style="stroke:#1E1E1E;stroke-width:1.0;"/><line style="stroke:#1E1E1E;stroke-width:1.0;" x1="790.5" x2="997.5" y1="681.3828" y2="681.3828"/><text fill="#000000" font-family="sans-serif" font-size="13" font-weight="bold" lengthAdjust="spacing" textLength="30" x="802.5" y="676.3169">[12]</text><text fill="#000000" font-family="sans-serif" font-size="13" lengthAdjust="spacing" textLength="155" x="836.5" y="676.3169">UART bytes (reset_resp)</text><polygon fill="#1E1E1E" points="563.5,706.5156,553.5,710.5156,563.5,714.5156,559.5,710.5156" style="stroke:#1E1E1E;stroke-width:1.0;"/><line style="stroke:#1E1E1E;stroke-width:1.0;" x1="557.5" x2="779.5" y1="710.5156" y2="710.5156"/><text fill="#000000" font-family="sans-serif" font-size="13" font-weight="bold" lengthAdjust="spacing" textLength="30" x="569.5" y="705.4497">[13]</text><text fill="#000000" font-family="sans-serif" font-size="13" lengthAdjust="spacing" textLength="170" x="603.5" y="705.4497">deliverBytes() [reset_resp]</text><path d="M557,723.5156 L557,763.5156 L679,763.5156 L679,733.5156 L669,723.5156 L557,723.5156 " fill="#FEFFDD" style="stroke:#181818;stroke-width:0.5;"/><path d="M669,723.5156 L669,733.5156 L679,733.5156 L669,723.5156 " fill="#FEFFDD" style="stroke:#181818;stroke-width:0.5;"/><text fill="#000000" font-family="sans-serif" font-size="13" lengthAdjust="spacing" textLength="91" x="563" y="740.5825">&#8226; SLIP-decode</text><text fill="#000000" font-family="sans-serif" font-size="13" lengthAdjust="spacing" textLength="101" x="563" y="755.7153">&#8226; CRC check OK</text><polygon fill="#1E1E1E" points="332.5,785.9141,322.5,789.9141,332.5,793.9141,328.5,789.9141" style="stroke:#1E1E1E;stroke-width:1.0;"/><line style="stroke:#1E1E1E;stroke-width:1.0;" x1="326.5" x2="546.5" y1="789.9141" y2="789.9141"/><text fill="#000000" font-family="sans-serif" font-size="13" font-weight="bold" lengthAdjust="spacing" textLength="30" x="338.5" y="784.8481">[14]</text><text fill="#000000" font-family="sans-serif" font-size="13" lengthAdjust="spacing" textLength="149" x="372.5" y="784.8481">extractCRA(reset_resp)</text><path d="M326,802.9141 L326,842.9141 L494,842.9141 L494,812.9141 L484,802.9141 L326,802.9141 " fill="#FEFFDD" style="stroke:#181818;stroke-width:0.5;"/><path d="M484,802.9141 L484,812.9141 L494,812.9141 L484,802.9141 " fill="#FEFFDD" style="stroke:#181818;stroke-width:0.5;"/><text fill="#000000" font-family="sans-serif" font-size="13" lengthAdjust="spacing" textLength="124" x="332" y="819.981">&#8226; Parse status (OK)</text><text fill="#000000" font-family="sans-serif" font-size="13" lengthAdjust="spacing" textLength="147" x="332" y="835.1138">&#8226; Stop Response-timer</text><polygon fill="#1E1E1E" points="59.5,865.3125,49.5,869.3125,59.5,873.3125,55.5,869.3125" style="stroke:#1E1E1E;stroke-width:1.0;"/><line style="stroke:#1E1E1E;stroke-width:1.0;" x1="53.5" x2="315.5" y1="869.3125" y2="869.3125"/><text fill="#000000" font-family="sans-serif" font-size="13" font-weight="bold" lengthAdjust="spacing" textLength="30" x="65.5" y="864.2466">[15]</text><text fill="#000000" font-family="sans-serif" font-size="13" lengthAdjust="spacing" textLength="182" x="99.5" y="864.2466">deliverResponse(reset_resp)</text><polygon fill="#1E1E1E" points="299.5,894.4453,309.5,898.4453,299.5,902.4453,303.5,898.4453" style="stroke:#1E1E1E;stroke-width:1.0;"/><line style="stroke:#1E1E1E;stroke-width:1.0;stroke-dasharray:2.0,2.0;" x1="43.5" x2="305.5" y1="898.4453" y2="898.4453"/><text fill="#000000" font-family="sans-serif" font-size="13" font-weight="bold" lengthAdjust="spacing" textLength="30" x="50.5" y="893.3794">[16]</text><text fill="#000000" font-family="sans-serif" font-size="13" lengthAdjust="spacing" textLength="170" x="84.5" y="893.3794">sendACK() [for reset_resp]</text><path d="M326,911.4453 L326,936.4453 L657,936.4453 L657,921.4453 L647,911.4453 L326,911.4453 " fill="#FEFFDD" style="stroke:#181818;stroke-width:0.5;"/><path d="M647,911.4453 L647,921.4453 L657,921.4453 L647,911.4453 " fill="#FEFFDD" style="stroke:#181818;stroke-width:0.5;"/><text fill="#000000" font-family="sans-serif" font-size="13" lengthAdjust="spacing" textLength="310" x="332" y="928.5122">&#8226; Wrap CRA(ACK, Session ID=0x04, Flags=0x04)</text><polygon fill="#1E1E1E" points="530.5,958.7109,540.5,962.7109,530.5,966.7109,534.5,962.7109" style="stroke:#1E1E1E;stroke-width:1.0;"/><line style="stroke:#1E1E1E;stroke-width:1.0;" x1="316.5" x2="536.5" y1="962.7109" y2="962.7109"/><text fill="#000000" font-family="sans-serif" font-size="13" font-weight="bold" lengthAdjust="spacing" textLength="30" x="323.5" y="957.645">[17]</text><text fill="#000000" font-family="sans-serif" font-size="13" lengthAdjust="spacing" textLength="92" x="357.5" y="957.645">wrapCRA(ACK)</text><path d="M557,975.7109 L557,1000.7109 L693,1000.7109 L693,985.7109 L683,975.7109 L557,975.7109 " fill="#FEFFDD" style="stroke:#181818;stroke-width:0.5;"/><path d="M683,975.7109 L683,985.7109 L693,985.7109 L683,975.7109 " fill="#FEFFDD" style="stroke:#181818;stroke-width:0.5;"/><text fill="#000000" font-family="sans-serif" font-size="13" lengthAdjust="spacing" textLength="115" x="563" y="992.7778">&#8226; Build ACK frame</text><polygon fill="#1E1E1E" points="332.5,1022.9766,322.5,1026.9766,332.5,1030.9766,328.5,1026.9766" style="stroke:#1E1E1E;stroke-width:1.0;"/><line style="stroke:#1E1E1E;stroke-width:1.0;stroke-dasharray:2.0,2.0;" x1="326.5" x2="546.5" y1="1026.9766" y2="1026.9766"/><text fill="#000000" font-family="sans-serif" font-size="13" font-weight="bold" lengthAdjust="spacing" textLength="30" x="338.5" y="1021.9106">[18]</text><text fill="#000000" font-family="sans-serif" font-size="13" lengthAdjust="spacing" textLength="66" x="372.5" y="1021.9106">ACK_reset</text><polygon fill="#1E1E1E" points="763.5,1052.1094,773.5,1056.1094,763.5,1060.1094,767.5,1056.1094" style="stroke:#1E1E1E;stroke-width:1.0;"/><line style="stroke:#1E1E1E;stroke-width:1.0;" x1="316.5" x2="769.5" y1="1056.1094" y2="1056.1094"/><text fill="#000000" font-family="sans-serif" font-size="13" font-weight="bold" lengthAdjust="spacing" textLength="30" x="323.5" y="1051.0435">[19]</text><text fill="#000000" font-family="sans-serif" font-size="13" lengthAdjust="spacing" textLength="148" x="357.5" y="1051.0435">sendFrame(ACK_reset)</text><polygon fill="#1E1E1E" points="981.5,1081.2422,991.5,1085.2422,981.5,1089.2422,985.5,1085.2422" style="stroke:#1E1E1E;stroke-width:1.0;"/><line style="stroke:#1E1E1E;stroke-width:1.0;" x1="780.5" x2="987.5" y1="1085.2422" y2="1085.2422"/><text fill="#000000" font-family="sans-serif" font-size="13" font-weight="bold" lengthAdjust="spacing" textLength="30" x="787.5" y="1080.1763">[20]</text><text fill="#000000" font-family="sans-serif" font-size="13" lengthAdjust="spacing" textLength="153" x="821.5" y="1080.1763">UART bytes (ACK_reset)</text><polygon fill="#1E1E1E" points="1212.5,1110.375,1222.5,1114.375,1212.5,1118.375,1216.5,1114.375" style="stroke:#1E1E1E;stroke-width:1.0;"/><line style="stroke:#1E1E1E;stroke-width:1.0;" x1="998.5" x2="1218.5" y1="1114.375" y2="1114.375"/><text fill="#000000" font-family="sans-serif" font-size="13" font-weight="bold" lengthAdjust="spacing" textLength="30" x="1005.5" y="1109.3091">[21]</text><text fill="#000000" font-family="sans-serif" font-size="13" lengthAdjust="spacing" textLength="168" x="1039.5" y="1109.3091">deliverBytes() [ACK_reset]</text><path d="M1239,1127.375 L1239,1167.375 L1391,1167.375 L1391,1137.375 L1381,1127.375 L1239,1127.375 " fill="#FEFFDD" style="stroke:#181818;stroke-width:0.5;"/><path d="M1381,1127.375 L1381,1137.375 L1391,1137.375 L1381,1127.375 " fill="#FEFFDD" style="stroke:#181818;stroke-width:0.5;"/><text fill="#000000" font-family="sans-serif" font-size="13" lengthAdjust="spacing" textLength="123" x="1245" y="1144.4419">&#8226; Extract CRA(ACK)</text><text fill="#000000" font-family="sans-serif" font-size="13" lengthAdjust="spacing" textLength="111" x="1245" y="1159.5747">&#8226; Stop ACK-timer</text><!--SRC=[hLPjJjj04FtlKunIgIIKg0dqGwrQ96E3qX9HAvXM5K9eiJV18l6wk-i2gYhr43r1ZzQJTDRnnwwnNOGmI97YDpDltyoRpSRVtxyUvHy-Ho8bIn1KoYXU27Yin9QuYkA4SB82Zt0P1L52OkcHCCGoCDuUmOO6IIe8_B00dpqIN2quI-FGOKl6uSdevSwhr-FrEyP3ojVVg-V9cAg_xDq1YsNr1k3wCfBK-gdL4lHRIkE0veLipjcr7b4zUjvfDAVJAARrscsm6dq5cy_VpCT11jCawJgC3klGGuEr7T-IaLnIsDpSE_RWk51W23EAdGSIXp1Bu_B5vgPbwItfJPYGO2T9hzI629ZO3I1d5SAKt5BUoq5E0yZrfoR8RG1vawyco3D1Fk4BQi0Gv3U3j88Av3Q2DEeAv3I2D14KoBOiaaeMfwiBog7txcBtT7Jsxld5Ri-oDYgNZGUGdKdGE1Gmsp_Uzy_j8_TyTd840LkjL0CUmNCaaD5t8gbgpSI6uIxA3s-pgiwwIj-eFR12giTe2HmhPlZ9eyMb13PNNm3y_VK73j1359oPRQRQmk4H8c8nV73VZsv6BmO0USInH1tLf2Ki5dGeenLArTyUZM0b1XPo0rNAGggAi8k4hpb9xbGmoJewMRTErYrAJpzupvoPKyzK5NLXMCY45S-vyeDHo3LLoLbwkQoP6lqoieEZPs4GXlegzCIU-N1nAwc0jc3F6A3j0UG3c70MeDAqFaQFjhXB2kWbVqrPzIIao-WxvNkAT7y0foNjCvqsncW9wdtnzRuCGngma9PZWcs2u986L_3fi6eGrbOCL7_eZUIOktimVBrVw64_wvTlLoVulnDylN5eyTeXx9pmntILW6H0acGP1KJYy6kyxMom_C9_nVZtCysKSicMSePCXRBBo2HWcuUe4IYi-0LjaZdHoDbjGzivR7LWhfNkm2fpXqATRSxifwUfjzQqKbj1ewt5O4xgNcgBDisqas_ZDYlnl5VmD5_OA1gqxzh2sPCccrICpkhslkV-kfzF9cwvxZMVjEXHNsejgnv_Lw088XjIw7ywr6U99RMDVcUHQvPh6FwEJRc-k_JB2_LNMixnPqsRdlUxl4h7OCOxLjc2WoLPYBLjEkybZ7x8RRINHiim6wQvclNcMmXVF_0MAYCVSWkr17lMVU-3Ci53xeFzzSWMhQaDMhcpAiNCrV0F]--></g></svg>