<?xml version="1.0" encoding="us-ascii" standalone="no"?><svg xmlns="http://www.w3.org/2000/svg" xmlns:xlink="http://www.w3.org/1999/xlink" contentStyleType="text/css" height="1399px" preserveAspectRatio="none" style="width:1589px;height:1399px;background:#FFFFFF;" version="1.1" viewBox="0 0 1589 1399" width="1589px" zoomAndPan="magnify"><defs/><g><text fill="#000000" font-family="sans-serif" font-size="14" font-weight="bold" lengthAdjust="spacing" textLength="430" x="578" y="27.9951">BSP Sequence - Single Command Corrupted Response</text><rect fill="#FF9F1C" height="21.1328" style="stroke:#1E1E1E;stroke-width:1.0;" width="10" x="38.5" y="83.5938"/><rect fill="#FF9F1C" height="29.1328" style="stroke:#1E1E1E;stroke-width:1.0;" width="10" x="38.5" y="1051.2422"/><rect fill="#FF9F1C" height="79.3984" style="stroke:#1E1E1E;stroke-width:1.0;" width="10" x="243.5" y="104.7266"/><rect fill="#FF9F1C" height="29.1328" style="stroke:#1E1E1E;stroke-width:1.0;" width="10" x="243.5" y="248.3906"/><rect fill="#FF9F1C" height="79.3984" style="stroke:#1E1E1E;stroke-width:1.0;" width="10" x="243.5" y="971.8438"/><rect fill="#FF9F1C" height="64.2656" style="stroke:#1E1E1E;stroke-width:1.0;" width="10" x="243.5" y="1080.375"/><rect fill="#FF9F1C" height="29.1328" style="stroke:#1E1E1E;stroke-width:1.0;" width="10" x="243.5" y="1208.9063"/><rect fill="#FF9F1C" height="64.2656" style="stroke:#1E1E1E;stroke-width:1.0;" width="10" x="420.5" y="184.125"/><rect fill="#FF9F1C" height="79.3984" style="stroke:#1E1E1E;stroke-width:1.0;" width="10" x="420.5" y="675.3828"/><rect fill="#FF9F1C" height="79.3984" style="stroke:#1E1E1E;stroke-width:1.0;" width="10" x="420.5" y="892.4453"/><rect fill="#FF9F1C" height="64.2656" style="stroke:#1E1E1E;stroke-width:1.0;" width="10" x="420.5" y="1144.6406"/><rect fill="#FF9F1C" height="29.1328" style="stroke:#1E1E1E;stroke-width:1.0;" width="10" x="679.5" y="277.5234"/><rect fill="#FF9F1C" height="29.1328" style="stroke:#1E1E1E;stroke-width:1.0;" width="10" x="679.5" y="646.25"/><rect fill="#FF9F1C" height="29.1328" style="stroke:#1E1E1E;stroke-width:1.0;" width="10" x="679.5" y="863.3125"/><rect fill="#FF9F1C" height="29.1328" style="stroke:#1E1E1E;stroke-width:1.0;" width="10" x="679.5" y="1238.0391"/><rect fill="#FF9F1C" height="29.1328" style="stroke:#1E1E1E;stroke-width:1.0;" width="10" x="923.5" y="306.6563"/><rect fill="#FF9F1C" height="29.1328" style="stroke:#1E1E1E;stroke-width:1.0;" width="10" x="923.5" y="617.1172"/><rect fill="#FF9F1C" height="29.1328" style="stroke:#1E1E1E;stroke-width:1.0;" width="10" x="923.5" y="834.1797"/><rect fill="#FF9F1C" height="29.1328" style="stroke:#1E1E1E;stroke-width:1.0;" width="10" x="923.5" y="1267.1719"/><rect fill="#FF9F1C" height="79.3984" style="stroke:#1E1E1E;stroke-width:1.0;" width="10" x="1146.5" y="335.7891"/><rect fill="#FF9F1C" height="64.2656" style="stroke:#1E1E1E;stroke-width:1.0;" width="10" x="1146.5" y="552.8516"/><rect fill="#FF9F1C" height="79.3984" style="stroke:#1E1E1E;stroke-width:1.0;" width="10" x="1146.5" y="754.7813"/><rect fill="#FF9F1C" height="59.2656" style="stroke:#1E1E1E;stroke-width:1.0;" width="10" x="1146.5" y="1296.3047"/><rect fill="#FF9F1C" height="29.1328" style="stroke:#1E1E1E;stroke-width:1.0;" width="10" x="1309.5" y="415.1875"/><rect fill="#FF9F1C" height="79.3984" style="stroke:#1E1E1E;stroke-width:1.0;" width="10" x="1309.5" y="473.4531"/><rect fill="#FF9F1C" height="29.1328" style="stroke:#1E1E1E;stroke-width:1.0;" width="10" x="1510.5" y="444.3203"/><line style="stroke:#1E1E1E;stroke-width:0.5;stroke-dasharray:5.0,5.0;" x1="43" x2="43" y1="73.5938" y2="1364.5703"/><line style="stroke:#1E1E1E;stroke-width:0.5;stroke-dasharray:5.0,5.0;" x1="248.5" x2="248.5" y1="73.5938" y2="1364.5703"/><line style="stroke:#1E1E1E;stroke-width:0.5;stroke-dasharray:5.0,5.0;" x1="425" x2="425" y1="73.5938" y2="1364.5703"/><line style="stroke:#1E1E1E;stroke-width:0.5;stroke-dasharray:5.0,5.0;" x1="684.5" x2="684.5" y1="73.5938" y2="1364.5703"/><line style="stroke:#1E1E1E;stroke-width:0.5;stroke-dasharray:5.0,5.0;" x1="928" x2="928" y1="73.5938" y2="1364.5703"/><line style="stroke:#1E1E1E;stroke-width:0.5;stroke-dasharray:5.0,5.0;" x1="1151.5" x2="1151.5" y1="73.5938" y2="1364.5703"/><line style="stroke:#1E1E1E;stroke-width:0.5;stroke-dasharray:5.0,5.0;" x1="1314" x2="1314" y1="73.5938" y2="1364.5703"/><line style="stroke:#1E1E1E;stroke-width:0.5;stroke-dasharray:5.0,5.0;" x1="1515.5" x2="1515.5" y1="73.5938" y2="1364.5703"/><rect fill="#053671" height="30.2969" rx="2.5" ry="2.5" style="stroke:#1E1E1E;stroke-width:0.5;" width="77" x="5" y="42.2969"/><text fill="#FFFFFF" font-family="sans-serif" font-size="14" lengthAdjust="spacing" textLength="63" x="12" y="62.292">Host App</text><rect fill="#053671" height="30.2969" rx="2.5" ry="2.5" style="stroke:#1E1E1E;stroke-width:0.5;" width="77" x="5" y="1363.5703"/><text fill="#FFFFFF" font-family="sans-serif" font-size="14" lengthAdjust="spacing" textLength="63" x="12" y="1383.5654">Host App</text><rect fill="#053671" height="30.2969" rx="2.5" ry="2.5" style="stroke:#1E1E1E;stroke-width:0.5;" width="122" x="187.5" y="42.2969"/><text fill="#FFFFFF" font-family="sans-serif" font-size="14" lengthAdjust="spacing" textLength="108" x="194.5" y="62.292">Host Cmd Layer</text><rect fill="#053671" height="30.2969" rx="2.5" ry="2.5" style="stroke:#1E1E1E;stroke-width:0.5;" width="122" x="187.5" y="1363.5703"/><text fill="#FFFFFF" font-family="sans-serif" font-size="14" lengthAdjust="spacing" textLength="108" x="194.5" y="1383.5654">Host Cmd Layer</text><rect fill="#053671" height="30.2969" rx="2.5" ry="2.5" style="stroke:#1E1E1E;stroke-width:0.5;" width="117" x="367" y="42.2969"/><text fill="#FFFFFF" font-family="sans-serif" font-size="14" lengthAdjust="spacing" textLength="103" x="374" y="62.292">Host DTL Layer</text><rect fill="#053671" height="30.2969" rx="2.5" ry="2.5" style="stroke:#1E1E1E;stroke-width:0.5;" width="117" x="367" y="1363.5703"/><text fill="#FFFFFF" font-family="sans-serif" font-size="14" lengthAdjust="spacing" textLength="103" x="374" y="1383.5654">Host DTL Layer</text><rect fill="#053671" height="30.2969" rx="2.5" ry="2.5" style="stroke:#1E1E1E;stroke-width:0.5;" width="118" x="625.5" y="42.2969"/><text fill="#FFFFFF" font-family="sans-serif" font-size="14" lengthAdjust="spacing" textLength="104" x="632.5" y="62.292">Host PHY Layer</text><rect fill="#053671" height="30.2969" rx="2.5" ry="2.5" style="stroke:#1E1E1E;stroke-width:0.5;" width="118" x="625.5" y="1363.5703"/><text fill="#FFFFFF" font-family="sans-serif" font-size="14" lengthAdjust="spacing" textLength="104" x="632.5" y="1383.5654">Host PHY Layer</text><rect fill="#053671" height="30.2969" rx="2.5" ry="2.5" style="stroke:#1E1E1E;stroke-width:0.5;" width="131" x="863" y="42.2969"/><text fill="#FFFFFF" font-family="sans-serif" font-size="14" lengthAdjust="spacing" textLength="117" x="870" y="62.292">Target PHY Layer</text><rect fill="#053671" height="30.2969" rx="2.5" ry="2.5" style="stroke:#1E1E1E;stroke-width:0.5;" width="131" x="863" y="1363.5703"/><text fill="#FFFFFF" font-family="sans-serif" font-size="14" lengthAdjust="spacing" textLength="117" x="870" y="1383.5654">Target PHY Layer</text><rect fill="#053671" height="30.2969" rx="2.5" ry="2.5" style="stroke:#1E1E1E;stroke-width:0.5;" width="130" x="1086.5" y="42.2969"/><text fill="#FFFFFF" font-family="sans-serif" font-size="14" lengthAdjust="spacing" textLength="116" x="1093.5" y="62.292">Target DTL Layer</text><rect fill="#053671" height="30.2969" rx="2.5" ry="2.5" style="stroke:#1E1E1E;stroke-width:0.5;" width="130" x="1086.5" y="1363.5703"/><text fill="#FFFFFF" font-family="sans-serif" font-size="14" lengthAdjust="spacing" textLength="116" x="1093.5" y="1383.5654">Target DTL Layer</text><rect fill="#053671" height="30.2969" rx="2.5" ry="2.5" style="stroke:#1E1E1E;stroke-width:0.5;" width="135" x="1247" y="42.2969"/><text fill="#FFFFFF" font-family="sans-serif" font-size="14" lengthAdjust="spacing" textLength="121" x="1254" y="62.292">Target Cmd Layer</text><rect fill="#053671" height="30.2969" rx="2.5" ry="2.5" style="stroke:#1E1E1E;stroke-width:0.5;" width="135" x="1247" y="1363.5703"/><text fill="#FFFFFF" font-family="sans-serif" font-size="14" lengthAdjust="spacing" textLength="121" x="1254" y="1383.5654">Target Cmd Layer</text><rect fill="#053671" height="30.2969" rx="2.5" ry="2.5" style="stroke:#1E1E1E;stroke-width:0.5;" width="90" x="1470.5" y="42.2969"/><text fill="#FFFFFF" font-family="sans-serif" font-size="14" lengthAdjust="spacing" textLength="76" x="1477.5" y="62.292">Target App</text><rect fill="#053671" height="30.2969" rx="2.5" ry="2.5" style="stroke:#1E1E1E;stroke-width:0.5;" width="90" x="1470.5" y="1363.5703"/><text fill="#FFFFFF" font-family="sans-serif" font-size="14" lengthAdjust="spacing" textLength="76" x="1477.5" y="1383.5654">Target App</text><rect fill="#FF9F1C" height="21.1328" style="stroke:#1E1E1E;stroke-width:1.0;" width="10" x="38.5" y="83.5938"/><rect fill="#FF9F1C" height="29.1328" style="stroke:#1E1E1E;stroke-width:1.0;" width="10" x="38.5" y="1051.2422"/><rect fill="#FF9F1C" height="79.3984" style="stroke:#1E1E1E;stroke-width:1.0;" width="10" x="243.5" y="104.7266"/><rect fill="#FF9F1C" height="29.1328" style="stroke:#1E1E1E;stroke-width:1.0;" width="10" x="243.5" y="248.3906"/><rect fill="#FF9F1C" height="79.3984" style="stroke:#1E1E1E;stroke-width:1.0;" width="10" x="243.5" y="971.8438"/><rect fill="#FF9F1C" height="64.2656" style="stroke:#1E1E1E;stroke-width:1.0;" width="10" x="243.5" y="1080.375"/><rect fill="#FF9F1C" height="29.1328" style="stroke:#1E1E1E;stroke-width:1.0;" width="10" x="243.5" y="1208.9063"/><rect fill="#FF9F1C" height="64.2656" style="stroke:#1E1E1E;stroke-width:1.0;" width="10" x="420.5" y="184.125"/><rect fill="#FF9F1C" height="79.3984" style="stroke:#1E1E1E;stroke-width:1.0;" width="10" x="420.5" y="675.3828"/><rect fill="#FF9F1C" height="79.3984" style="stroke:#1E1E1E;stroke-width:1.0;" width="10" x="420.5" y="892.4453"/><rect fill="#FF9F1C" height="64.2656" style="stroke:#1E1E1E;stroke-width:1.0;" width="10" x="420.5" y="1144.6406"/><rect fill="#FF9F1C" height="29.1328" style="stroke:#1E1E1E;stroke-width:1.0;" width="10" x="679.5" y="277.5234"/><rect fill="#FF9F1C" height="29.1328" style="stroke:#1E1E1E;stroke-width:1.0;" width="10" x="679.5" y="646.25"/><rect fill="#FF9F1C" height="29.1328" style="stroke:#1E1E1E;stroke-width:1.0;" width="10" x="679.5" y="863.3125"/><rect fill="#FF9F1C" height="29.1328" style="stroke:#1E1E1E;stroke-width:1.0;" width="10" x="679.5" y="1238.0391"/><rect fill="#FF9F1C" height="29.1328" style="stroke:#1E1E1E;stroke-width:1.0;" width="10" x="923.5" y="306.6563"/><rect fill="#FF9F1C" height="29.1328" style="stroke:#1E1E1E;stroke-width:1.0;" width="10" x="923.5" y="617.1172"/><rect fill="#FF9F1C" height="29.1328" style="stroke:#1E1E1E;stroke-width:1.0;" width="10" x="923.5" y="834.1797"/><rect fill="#FF9F1C" height="29.1328" style="stroke:#1E1E1E;stroke-width:1.0;" width="10" x="923.5" y="1267.1719"/><rect fill="#FF9F1C" height="79.3984" style="stroke:#1E1E1E;stroke-width:1.0;" width="10" x="1146.5" y="335.7891"/><rect fill="#FF9F1C" height="64.2656" style="stroke:#1E1E1E;stroke-width:1.0;" width="10" x="1146.5" y="552.8516"/><rect fill="#FF9F1C" height="79.3984" style="stroke:#1E1E1E;stroke-width:1.0;" width="10" x="1146.5" y="754.7813"/><rect fill="#FF9F1C" height="59.2656" style="stroke:#1E1E1E;stroke-width:1.0;" width="10" x="1146.5" y="1296.3047"/><rect fill="#FF9F1C" height="29.1328" style="stroke:#1E1E1E;stroke-width:1.0;" width="10" x="1309.5" y="415.1875"/><rect fill="#FF9F1C" height="79.3984" style="stroke:#1E1E1E;stroke-width:1.0;" width="10" x="1309.5" y="473.4531"/><rect fill="#FF9F1C" height="29.1328" style="stroke:#1E1E1E;stroke-width:1.0;" width="10" x="1510.5" y="444.3203"/><polygon fill="#1E1E1E" points="231.5,100.7266,241.5,104.7266,231.5,108.7266,235.5,104.7266" style="stroke:#1E1E1E;stroke-width:1.0;"/><line style="stroke:#1E1E1E;stroke-width:1.0;" x1="43.5" x2="237.5" y1="104.7266" y2="104.7266"/><text fill="#000000" font-family="sans-serif" font-size="13" font-weight="bold" lengthAdjust="spacing" textLength="21" x="50.5" y="99.6606">[1]</text><text fill="#000000" font-family="sans-serif" font-size="13" lengthAdjust="spacing" textLength="136" x="75.5" y="99.6606">sendCommand(cmd)</text><path d="M258,117.7266 L258,157.7266 L490,157.7266 L490,127.7266 L480,117.7266 L258,117.7266 " fill="#FEFFDD" style="stroke:#181818;stroke-width:0.5;"/><path d="M480,117.7266 L480,127.7266 L490,127.7266 L480,117.7266 " fill="#FEFFDD" style="stroke:#181818;stroke-width:0.5;"/><text fill="#000000" font-family="sans-serif" font-size="13" lengthAdjust="spacing" textLength="121" x="264" y="134.7935">&#8226; Frame CRA(cmd)</text><text fill="#000000" font-family="sans-serif" font-size="13" lengthAdjust="spacing" textLength="211" x="264" y="149.9263">&#8226; Start Response-timer (200 ms)</text><polygon fill="#1E1E1E" points="408.5,180.125,418.5,184.125,408.5,188.125,412.5,184.125" style="stroke:#1E1E1E;stroke-width:1.0;"/><line style="stroke:#1E1E1E;stroke-width:1.0;" x1="248.5" x2="414.5" y1="184.125" y2="184.125"/><text fill="#000000" font-family="sans-serif" font-size="13" font-weight="bold" lengthAdjust="spacing" textLength="21" x="255.5" y="179.0591">[2]</text><text fill="#000000" font-family="sans-serif" font-size="13" lengthAdjust="spacing" textLength="94" x="280.5" y="179.0591">wrapCRA(cmd)</text><path d="M435,197.125 L435,222.125 L570,222.125 L570,207.125 L560,197.125 L435,197.125 " fill="#FEFFDD" style="stroke:#181818;stroke-width:0.5;"/><path d="M560,197.125 L560,207.125 L570,207.125 L560,197.125 " fill="#FEFFDD" style="stroke:#181818;stroke-width:0.5;"/><text fill="#000000" font-family="sans-serif" font-size="13" lengthAdjust="spacing" textLength="114" x="441" y="214.1919">&#8226; SLIP+CRC(cmd)</text><polygon fill="#1E1E1E" points="264.5,244.3906,254.5,248.3906,264.5,252.3906,260.5,248.3906" style="stroke:#1E1E1E;stroke-width:1.0;"/><line style="stroke:#1E1E1E;stroke-width:1.0;stroke-dasharray:2.0,2.0;" x1="258.5" x2="424.5" y1="248.3906" y2="248.3906"/><text fill="#000000" font-family="sans-serif" font-size="13" font-weight="bold" lengthAdjust="spacing" textLength="21" x="270.5" y="243.3247">[3]</text><text fill="#000000" font-family="sans-serif" font-size="13" lengthAdjust="spacing" textLength="71" x="295.5" y="243.3247">CRA_frame</text><polygon fill="#1E1E1E" points="667.5,273.5234,677.5,277.5234,667.5,281.5234,671.5,277.5234" style="stroke:#1E1E1E;stroke-width:1.0;"/><line style="stroke:#1E1E1E;stroke-width:1.0;" x1="248.5" x2="673.5" y1="277.5234" y2="277.5234"/><text fill="#000000" font-family="sans-serif" font-size="13" font-weight="bold" lengthAdjust="spacing" textLength="21" x="255.5" y="272.4575">[4]</text><text fill="#000000" font-family="sans-serif" font-size="13" lengthAdjust="spacing" textLength="153" x="280.5" y="272.4575">sendFrame(CRA_frame)</text><polygon fill="#1E1E1E" points="911.5,302.6563,921.5,306.6563,911.5,310.6563,915.5,306.6563" style="stroke:#1E1E1E;stroke-width:1.0;"/><line style="stroke:#1E1E1E;stroke-width:1.0;" x1="684.5" x2="917.5" y1="306.6563" y2="306.6563"/><text fill="#000000" font-family="sans-serif" font-size="13" font-weight="bold" lengthAdjust="spacing" textLength="21" x="691.5" y="301.5903">[5]</text><text fill="#000000" font-family="sans-serif" font-size="13" lengthAdjust="spacing" textLength="158" x="716.5" y="301.5903">UART bytes (CRA_frame)</text><polygon fill="#1E1E1E" points="1134.5,331.7891,1144.5,335.7891,1134.5,339.7891,1138.5,335.7891" style="stroke:#1E1E1E;stroke-width:1.0;"/><line style="stroke:#1E1E1E;stroke-width:1.0;" x1="928.5" x2="1140.5" y1="335.7891" y2="335.7891"/><text fill="#000000" font-family="sans-serif" font-size="13" font-weight="bold" lengthAdjust="spacing" textLength="21" x="935.5" y="330.7231">[6]</text><text fill="#000000" font-family="sans-serif" font-size="13" lengthAdjust="spacing" textLength="128" x="960.5" y="330.7231">deliverBytes() [CRA]</text><path d="M1161,348.7891 L1161,388.7891 L1283,388.7891 L1283,358.7891 L1273,348.7891 L1161,348.7891 " fill="#FEFFDD" style="stroke:#181818;stroke-width:0.5;"/><path d="M1273,348.7891 L1273,358.7891 L1283,358.7891 L1273,348.7891 " fill="#FEFFDD" style="stroke:#181818;stroke-width:0.5;"/><text fill="#000000" font-family="sans-serif" font-size="13" lengthAdjust="spacing" textLength="91" x="1167" y="365.856">&#8226; SLIP-decode</text><text fill="#000000" font-family="sans-serif" font-size="13" lengthAdjust="spacing" textLength="101" x="1167" y="380.9888">&#8226; CRC check OK</text><polygon fill="#1E1E1E" points="1297.5,411.1875,1307.5,415.1875,1297.5,419.1875,1301.5,415.1875" style="stroke:#1E1E1E;stroke-width:1.0;"/><line style="stroke:#1E1E1E;stroke-width:1.0;" x1="1151.5" x2="1303.5" y1="415.1875" y2="415.1875"/><text fill="#000000" font-family="sans-serif" font-size="13" font-weight="bold" lengthAdjust="spacing" textLength="21" x="1158.5" y="410.1216">[7]</text><text fill="#000000" font-family="sans-serif" font-size="13" lengthAdjust="spacing" textLength="109" x="1183.5" y="410.1216">extractCRA(cmd)</text><polygon fill="#1E1E1E" points="1498.5,440.3203,1508.5,444.3203,1498.5,448.3203,1502.5,444.3203" style="stroke:#1E1E1E;stroke-width:1.0;"/><line style="stroke:#1E1E1E;stroke-width:1.0;" x1="1314.5" x2="1504.5" y1="444.3203" y2="444.3203"/><text fill="#000000" font-family="sans-serif" font-size="13" font-weight="bold" lengthAdjust="spacing" textLength="21" x="1321.5" y="439.2544">[8]</text><text fill="#000000" font-family="sans-serif" font-size="13" lengthAdjust="spacing" textLength="147" x="1346.5" y="439.2544">deliverCommand(cmd)</text><polygon fill="#1E1E1E" points="1330.5,469.4531,1320.5,473.4531,1330.5,477.4531,1326.5,473.4531" style="stroke:#1E1E1E;stroke-width:1.0;"/><line style="stroke:#1E1E1E;stroke-width:1.0;stroke-dasharray:2.0,2.0;" x1="1324.5" x2="1514.5" y1="473.4531" y2="473.4531"/><text fill="#000000" font-family="sans-serif" font-size="13" font-weight="bold" lengthAdjust="spacing" textLength="21" x="1336.5" y="468.3872">[9]</text><text fill="#000000" font-family="sans-serif" font-size="13" lengthAdjust="spacing" textLength="131" x="1361.5" y="468.3872">sendResponse(resp)</text><path d="M1324,486.4531 L1324,526.4531 L1582,526.4531 L1582,496.4531 L1572,486.4531 L1324,486.4531 " fill="#FEFFDD" style="stroke:#181818;stroke-width:0.5;"/><path d="M1572,486.4531 L1572,496.4531 L1582,496.4531 L1572,486.4531 " fill="#FEFFDD" style="stroke:#181818;stroke-width:0.5;"/><text fill="#000000" font-family="sans-serif" font-size="13" lengthAdjust="spacing" textLength="229" x="1330" y="503.52">&#8226; Wrap CRA(resp, Session ID=0xXX)</text><text fill="#000000" font-family="sans-serif" font-size="13" lengthAdjust="spacing" textLength="175" x="1330" y="518.6528">&#8226; Start ACK-timer (200 ms)</text><polygon fill="#1E1E1E" points="1167.5,548.8516,1157.5,552.8516,1167.5,556.8516,1163.5,552.8516" style="stroke:#1E1E1E;stroke-width:1.0;"/><line style="stroke:#1E1E1E;stroke-width:1.0;" x1="1161.5" x2="1313.5" y1="552.8516" y2="552.8516"/><text fill="#000000" font-family="sans-serif" font-size="13" font-weight="bold" lengthAdjust="spacing" textLength="30" x="1173.5" y="547.7856">[10]</text><text fill="#000000" font-family="sans-serif" font-size="13" lengthAdjust="spacing" textLength="94" x="1207.5" y="547.7856">wrapCRA(resp)</text><path d="M1161,565.8516 L1161,590.8516 L1296,590.8516 L1296,575.8516 L1286,565.8516 L1161,565.8516 " fill="#FEFFDD" style="stroke:#181818;stroke-width:0.5;"/><path d="M1286,565.8516 L1286,575.8516 L1296,575.8516 L1286,565.8516 " fill="#FEFFDD" style="stroke:#181818;stroke-width:0.5;"/><text fill="#000000" font-family="sans-serif" font-size="13" lengthAdjust="spacing" textLength="114" x="1167" y="582.9185">&#8226; SLIP+CRC(resp)</text><polygon fill="#1E1E1E" points="944.5,613.1172,934.5,617.1172,944.5,621.1172,940.5,617.1172" style="stroke:#1E1E1E;stroke-width:1.0;"/><line style="stroke:#1E1E1E;stroke-width:1.0;" x1="938.5" x2="1150.5" y1="617.1172" y2="617.1172"/><text fill="#000000" font-family="sans-serif" font-size="13" font-weight="bold" lengthAdjust="spacing" textLength="30" x="950.5" y="612.0513">[11]</text><text fill="#000000" font-family="sans-serif" font-size="13" lengthAdjust="spacing" textLength="110" x="984.5" y="612.0513">sendFrame(resp)</text><polygon fill="#1E1E1E" points="700.5,642.25,690.5,646.25,700.5,650.25,696.5,646.25" style="stroke:#1E1E1E;stroke-width:1.0;"/><line style="stroke:#1E1E1E;stroke-width:1.0;" x1="694.5" x2="927.5" y1="646.25" y2="646.25"/><text fill="#000000" font-family="sans-serif" font-size="13" font-weight="bold" lengthAdjust="spacing" textLength="30" x="706.5" y="641.1841">[12]</text><text fill="#000000" font-family="sans-serif" font-size="13" lengthAdjust="spacing" textLength="115" x="740.5" y="641.1841">UART bytes (resp)</text><text fill="#FF0000" font-family="sans-serif" font-size="13" lengthAdjust="spacing" textLength="62" x="859.5" y="641.1841">corrupted</text><polygon fill="#1E1E1E" points="441.5,671.3828,431.5,675.3828,441.5,679.3828,437.5,675.3828" style="stroke:#1E1E1E;stroke-width:1.0;"/><line style="stroke:#1E1E1E;stroke-width:1.0;" x1="435.5" x2="683.5" y1="675.3828" y2="675.3828"/><text fill="#000000" font-family="sans-serif" font-size="13" font-weight="bold" lengthAdjust="spacing" textLength="30" x="447.5" y="670.3169">[13]</text><text fill="#000000" font-family="sans-serif" font-size="13" lengthAdjust="spacing" textLength="196" x="481.5" y="670.3169">deliverBytes() [corrupted resp]</text><path d="M435,688.3828 L435,728.3828 L564,728.3828 L564,698.3828 L554,688.3828 L435,688.3828 " fill="#FEFFDD" style="stroke:#181818;stroke-width:0.5;"/><path d="M554,688.3828 L554,698.3828 L564,698.3828 L554,688.3828 " fill="#FEFFDD" style="stroke:#181818;stroke-width:0.5;"/><text fill="#000000" font-family="sans-serif" font-size="13" lengthAdjust="spacing" textLength="91" x="441" y="705.4497">&#8226; SLIP-decode</text><text fill="#000000" font-family="sans-serif" font-size="13" lengthAdjust="spacing" textLength="108" x="441" y="720.5825">&#8226; CRC check fails</text><polygon fill="#1E1E1E" points="259.5,750.7813,249.5,754.7813,259.5,758.7813,255.5,754.7813" style="stroke:#1E1E1E;stroke-width:1.0;"/><line style="stroke:#1E1E1E;stroke-width:1.0;" x1="253.5" x2="424.5" y1="754.7813" y2="754.7813"/><text fill="#000000" font-family="sans-serif" font-size="13" font-weight="bold" lengthAdjust="spacing" textLength="30" x="265.5" y="749.7153">[14]</text><text fill="#FF0000" font-family="sans-serif" font-size="13" lengthAdjust="spacing" textLength="114" x="299.5" y="749.7153">discard (bad CRC)</text><path d="M1161,767.7813 L1161,807.7813 L1450,807.7813 L1450,777.7813 L1440,767.7813 L1161,767.7813 " fill="#FEFFDD" style="stroke:#181818;stroke-width:0.5;"/><path d="M1440,767.7813 L1440,777.7813 L1450,777.7813 L1440,767.7813 " fill="#FEFFDD" style="stroke:#181818;stroke-width:0.5;"/><text fill="#000000" font-family="sans-serif" font-size="13" lengthAdjust="spacing" textLength="189" x="1167" y="784.8481">&#8226; ACK-timer expires (200 ms)</text><text fill="#000000" font-family="sans-serif" font-size="13" lengthAdjust="spacing" textLength="268" x="1167" y="799.981">&#8226; Retransmit response (Session ID=0xXX)</text><polygon fill="#1E1E1E" points="944.5,830.1797,934.5,834.1797,944.5,838.1797,940.5,834.1797" style="stroke:#1E1E1E;stroke-width:1.0;"/><line style="stroke:#1E1E1E;stroke-width:1.0;" x1="938.5" x2="1150.5" y1="834.1797" y2="834.1797"/><text fill="#000000" font-family="sans-serif" font-size="13" font-weight="bold" lengthAdjust="spacing" textLength="30" x="950.5" y="829.1138">[15]</text><text fill="#000000" font-family="sans-serif" font-size="13" lengthAdjust="spacing" textLength="160" x="984.5" y="829.1138">sendFrame(resp) &#171;retry&#187;</text><polygon fill="#1E1E1E" points="700.5,859.3125,690.5,863.3125,700.5,867.3125,696.5,863.3125" style="stroke:#1E1E1E;stroke-width:1.0;"/><line style="stroke:#1E1E1E;stroke-width:1.0;" x1="694.5" x2="927.5" y1="863.3125" y2="863.3125"/><text fill="#000000" font-family="sans-serif" font-size="13" font-weight="bold" lengthAdjust="spacing" textLength="30" x="706.5" y="858.2466">[16]</text><text fill="#000000" font-family="sans-serif" font-size="13" lengthAdjust="spacing" textLength="165" x="740.5" y="858.2466">UART bytes (resp) &#171;retry&#187;</text><polygon fill="#1E1E1E" points="441.5,888.4453,431.5,892.4453,441.5,896.4453,437.5,892.4453" style="stroke:#1E1E1E;stroke-width:1.0;"/><line style="stroke:#1E1E1E;stroke-width:1.0;" x1="435.5" x2="683.5" y1="892.4453" y2="892.4453"/><text fill="#000000" font-family="sans-serif" font-size="13" font-weight="bold" lengthAdjust="spacing" textLength="30" x="447.5" y="887.3794">[17]</text><text fill="#000000" font-family="sans-serif" font-size="13" lengthAdjust="spacing" textLength="164" x="481.5" y="887.3794">deliverBytes() [resp retry]</text><path d="M435,905.4453 L435,945.4453 L557,945.4453 L557,915.4453 L547,905.4453 L435,905.4453 " fill="#FEFFDD" style="stroke:#181818;stroke-width:0.5;"/><path d="M547,905.4453 L547,915.4453 L557,915.4453 L547,905.4453 " fill="#FEFFDD" style="stroke:#181818;stroke-width:0.5;"/><text fill="#000000" font-family="sans-serif" font-size="13" lengthAdjust="spacing" textLength="91" x="441" y="922.5122">&#8226; SLIP-decode</text><text fill="#000000" font-family="sans-serif" font-size="13" lengthAdjust="spacing" textLength="101" x="441" y="937.645">&#8226; CRC check OK</text><polygon fill="#1E1E1E" points="264.5,967.8438,254.5,971.8438,264.5,975.8438,260.5,971.8438" style="stroke:#1E1E1E;stroke-width:1.0;"/><line style="stroke:#1E1E1E;stroke-width:1.0;" x1="258.5" x2="424.5" y1="971.8438" y2="971.8438"/><text fill="#000000" font-family="sans-serif" font-size="13" font-weight="bold" lengthAdjust="spacing" textLength="30" x="270.5" y="966.7778">[18]</text><text fill="#000000" font-family="sans-serif" font-size="13" lengthAdjust="spacing" textLength="109" x="304.5" y="966.7778">extractCRA(resp)</text><path d="M258,984.8438 L258,1024.8438 L426,1024.8438 L426,994.8438 L416,984.8438 L258,984.8438 " fill="#FEFFDD" style="stroke:#181818;stroke-width:0.5;"/><path d="M416,984.8438 L416,994.8438 L426,994.8438 L416,984.8438 " fill="#FEFFDD" style="stroke:#181818;stroke-width:0.5;"/><text fill="#000000" font-family="sans-serif" font-size="13" lengthAdjust="spacing" textLength="92" x="264" y="1001.9106">&#8226; Parse status</text><text fill="#000000" font-family="sans-serif" font-size="13" lengthAdjust="spacing" textLength="147" x="264" y="1017.0435">&#8226; Stop Response-timer</text><polygon fill="#1E1E1E" points="59.5,1047.2422,49.5,1051.2422,59.5,1055.2422,55.5,1051.2422" style="stroke:#1E1E1E;stroke-width:1.0;"/><line style="stroke:#1E1E1E;stroke-width:1.0;" x1="53.5" x2="247.5" y1="1051.2422" y2="1051.2422"/><text fill="#000000" font-family="sans-serif" font-size="13" font-weight="bold" lengthAdjust="spacing" textLength="30" x="65.5" y="1046.1763">[19]</text><text fill="#000000" font-family="sans-serif" font-size="13" lengthAdjust="spacing" textLength="142" x="99.5" y="1046.1763">deliverResponse(resp)</text><polygon fill="#1E1E1E" points="231.5,1076.375,241.5,1080.375,231.5,1084.375,235.5,1080.375" style="stroke:#1E1E1E;stroke-width:1.0;"/><line style="stroke:#1E1E1E;stroke-width:1.0;stroke-dasharray:2.0,2.0;" x1="43.5" x2="237.5" y1="1080.375" y2="1080.375"/><text fill="#000000" font-family="sans-serif" font-size="13" font-weight="bold" lengthAdjust="spacing" textLength="30" x="50.5" y="1075.3091">[20]</text><text fill="#000000" font-family="sans-serif" font-size="13" lengthAdjust="spacing" textLength="130" x="84.5" y="1075.3091">sendACK() [for resp]</text><path d="M258,1093.375 L258,1118.375 L589,1118.375 L589,1103.375 L579,1093.375 L258,1093.375 " fill="#FEFFDD" style="stroke:#181818;stroke-width:0.5;"/><path d="M579,1093.375 L579,1103.375 L589,1103.375 L579,1093.375 " fill="#FEFFDD" style="stroke:#181818;stroke-width:0.5;"/><text fill="#000000" font-family="sans-serif" font-size="13" lengthAdjust="spacing" textLength="310" x="264" y="1110.4419">&#8226; Wrap CRA(ACK, Session ID=0xXX, Flags=0x08)</text><polygon fill="#1E1E1E" points="408.5,1140.6406,418.5,1144.6406,408.5,1148.6406,412.5,1144.6406" style="stroke:#1E1E1E;stroke-width:1.0;"/><line style="stroke:#1E1E1E;stroke-width:1.0;" x1="248.5" x2="414.5" y1="1144.6406" y2="1144.6406"/><text fill="#000000" font-family="sans-serif" font-size="13" font-weight="bold" lengthAdjust="spacing" textLength="30" x="255.5" y="1139.5747">[21]</text><text fill="#000000" font-family="sans-serif" font-size="13" lengthAdjust="spacing" textLength="92" x="289.5" y="1139.5747">wrapCRA(ACK)</text><path d="M435,1157.6406 L435,1182.6406 L571,1182.6406 L571,1167.6406 L561,1157.6406 L435,1157.6406 " fill="#FEFFDD" style="stroke:#181818;stroke-width:0.5;"/><path d="M561,1157.6406 L561,1167.6406 L571,1167.6406 L561,1157.6406 " fill="#FEFFDD" style="stroke:#181818;stroke-width:0.5;"/><text fill="#000000" font-family="sans-serif" font-size="13" lengthAdjust="spacing" textLength="115" x="441" y="1174.7075">&#8226; Build ACK frame</text><polygon fill="#1E1E1E" points="264.5,1204.9063,254.5,1208.9063,264.5,1212.9063,260.5,1208.9063" style="stroke:#1E1E1E;stroke-width:1.0;"/><line style="stroke:#1E1E1E;stroke-width:1.0;stroke-dasharray:2.0,2.0;" x1="258.5" x2="424.5" y1="1208.9063" y2="1208.9063"/><text fill="#000000" font-family="sans-serif" font-size="13" font-weight="bold" lengthAdjust="spacing" textLength="30" x="270.5" y="1203.8403">[22]</text><text fill="#000000" font-family="sans-serif" font-size="13" lengthAdjust="spacing" textLength="71" x="304.5" y="1203.8403">ACK_frame</text><polygon fill="#1E1E1E" points="667.5,1234.0391,677.5,1238.0391,667.5,1242.0391,671.5,1238.0391" style="stroke:#1E1E1E;stroke-width:1.0;"/><line style="stroke:#1E1E1E;stroke-width:1.0;" x1="248.5" x2="673.5" y1="1238.0391" y2="1238.0391"/><text fill="#000000" font-family="sans-serif" font-size="13" font-weight="bold" lengthAdjust="spacing" textLength="30" x="255.5" y="1232.9731">[23]</text><text fill="#000000" font-family="sans-serif" font-size="13" lengthAdjust="spacing" textLength="153" x="289.5" y="1232.9731">sendFrame(ACK_frame)</text><polygon fill="#1E1E1E" points="911.5,1263.1719,921.5,1267.1719,911.5,1271.1719,915.5,1267.1719" style="stroke:#1E1E1E;stroke-width:1.0;"/><line style="stroke:#1E1E1E;stroke-width:1.0;" x1="684.5" x2="917.5" y1="1267.1719" y2="1267.1719"/><text fill="#000000" font-family="sans-serif" font-size="13" font-weight="bold" lengthAdjust="spacing" textLength="30" x="691.5" y="1262.106">[24]</text><text fill="#000000" font-family="sans-serif" font-size="13" lengthAdjust="spacing" textLength="113" x="725.5" y="1262.106">UART bytes (ACK)</text><polygon fill="#1E1E1E" points="1134.5,1292.3047,1144.5,1296.3047,1134.5,1300.3047,1138.5,1296.3047" style="stroke:#1E1E1E;stroke-width:1.0;"/><line style="stroke:#1E1E1E;stroke-width:1.0;" x1="928.5" x2="1140.5" y1="1296.3047" y2="1296.3047"/><text fill="#000000" font-family="sans-serif" font-size="13" font-weight="bold" lengthAdjust="spacing" textLength="30" x="935.5" y="1291.2388">[25]</text><text fill="#000000" font-family="sans-serif" font-size="13" lengthAdjust="spacing" textLength="128" x="969.5" y="1291.2388">deliverBytes() [ACK]</text><path d="M1161,1309.3047 L1161,1349.3047 L1430,1349.3047 L1430,1319.3047 L1420,1309.3047 L1161,1309.3047 " fill="#FEFFDD" style="stroke:#181818;stroke-width:0.5;"/><path d="M1420,1309.3047 L1420,1319.3047 L1430,1319.3047 L1420,1309.3047 " fill="#FEFFDD" style="stroke:#181818;stroke-width:0.5;"/><text fill="#000000" font-family="sans-serif" font-size="13" lengthAdjust="spacing" textLength="240" x="1167" y="1326.3716">&#8226; Extract CRA(ACK, Session ID=0xXX)</text><text fill="#000000" font-family="sans-serif" font-size="13" lengthAdjust="spacing" textLength="111" x="1167" y="1341.5044">&#8226; Stop ACK-timer</text><!--SRC=[lLPRRjj65FtdAYuKe9RS296SLnku0cWoXe88A26pIOh0A4QSaJomHB8pezX64I2Bw0hwsoNaBql9IdA7ucE68XN5TIeRa42U-pxtSV3vxmztyW-lk5oJ9KYc58yN4kvAiIClUPmIGLOG4A5un5CIgu1GYcPWU3I00mEILX3uom7yd93eSY6ITKozP9a8k3Tu_F39q-7cNI8e4vld-dDloFHVzkuqYLNr1k3gWYlcl3TiIVRdciKHomsvGYHNfaJrCVLE-9nDUCpgjjjWDVSrR3x_UJwCCfYHabt1cB0T-J1WRU4xYgibWyF3axC0peeCzE4Cgu7FlMIr8Z75Ro7MgM8KfaocIIpPuQ7ZcDNfZ1Efm4tJJfac8c7iDe2y5OK9kM6YauEy1f0VJcoGtm0Anh_ReC06XKGic0L3KDWCCWngaDy8CbpN8AyHP2H1Wrp78MkLnElLZ0de7Cz6RmVdnmzceuxZ75GDD-n15fDaCPL0G6ug4EKLkAl-gxSZYHH_HnJJfHgxq1zXEU1PvaLU_6wqeZs7CXDfY7bEdE2tu8iB1SbSFm3u_E4VECMcGWPDtKm1GFxuJ67AIXhr5LzXLhf7Wm6iPCz1iw3rEUY5ziL7Nwu4IGirbX-UwOTVzyCl34vU13zwKsyZNndmeLz4Yzh_c6jtBVM-7MRkKP1d9mklMqhky2nmK0X5GotwcpiDONQZc8GsuS3YnL4FSbwb8ecOb2ZvdKbHfmPsJBY9G9U3iYL_nyI9Zg7RWxSOnRdfFw8DqNfPGhCiVSgYXBAI6rWbY2vOT0c_lgmgXLQrRLqeTgq4wcvYGsYM2pippCeLkfN7RNmEpMfXkw9Clp2eArrmjIlmXotfsZPheHQTy1e9d3M2Ld0VnwoKF8dXXV_BuFhDctfhkDxBrgx8WpAxOjifR-_yPssnKL3FjatpRIE-HTA7lRAZWMj-5kk2heNUwrYrMAxu9kx_oi9nlOyox-0uqlljcM1qLDe_Vf0z7BNoispESHErgpYqYVDwb-uvVDfPFYTyAUsHb4ya8nZAPKG4XUwCK2tRQmfgRDVZKJ4q3gJ19tQTSWm4Vi1myeeecOMM5Uvh-M-bqhQ5WhbbpDFIO6MlMs-4VKW8d_xLpjzy-jZU_5yXIhC6U-e-phTnDNEhb1LyQ4_QDsxUdHpKbZBZDtVFFtFA6kGpfknMuzUtOilonzCJaoCLKMjfpBSahMt-hOLlpElskQltgr6i9zRfX6pyleln6oygywH2ttHDvtY7Rq-K_SwgSfcWhgrTSXzEbsGXyVVWfzt754hVvfWwMVCbpLAykPSQpobyVSjpgfIypJcr5PBTqayR3gd_bIlx7bJer6qEgkURhctbHi_kmt9eLpMq1-eN]--></g></svg>