<?xml version="1.0" encoding="us-ascii" standalone="no"?><svg xmlns="http://www.w3.org/2000/svg" xmlns:xlink="http://www.w3.org/1999/xlink" contentStyleType="text/css" height="1217px" preserveAspectRatio="none" style="width:2025px;height:1217px;background:#FFFFFF;" version="1.1" viewBox="0 0 2025 1217" width="2025px" zoomAndPan="magnify"><defs/><g><text fill="#000000" font-family="sans-serif" font-size="14" font-weight="bold" lengthAdjust="spacing" textLength="316" x="853" y="27.9951">BSP Sequence - Verify Chunk Sequence</text><rect fill="#FF9F1C" height="21.1328" style="stroke:#1E1E1E;stroke-width:1.0;" width="10" x="38.5" y="83.5938"/><rect fill="#FF9F1C" height="29.1328" style="stroke:#1E1E1E;stroke-width:1.0;" width="10" x="38.5" y="869.3125"/><rect fill="#FF9F1C" height="79.3984" style="stroke:#1E1E1E;stroke-width:1.0;" width="10" x="350.5" y="104.7266"/><rect fill="#FF9F1C" height="29.1328" style="stroke:#1E1E1E;stroke-width:1.0;" width="10" x="350.5" y="248.3906"/><rect fill="#FF9F1C" height="79.3984" style="stroke:#1E1E1E;stroke-width:1.0;" width="10" x="350.5" y="789.9141"/><rect fill="#FF9F1C" height="64.2656" style="stroke:#1E1E1E;stroke-width:1.0;" width="10" x="350.5" y="898.4453"/><rect fill="#FF9F1C" height="29.1328" style="stroke:#1E1E1E;stroke-width:1.0;" width="10" x="350.5" y="1026.9766"/><rect fill="#FF9F1C" height="64.2656" style="stroke:#1E1E1E;stroke-width:1.0;" width="10" x="620.5" y="184.125"/><rect fill="#FF9F1C" height="79.3984" style="stroke:#1E1E1E;stroke-width:1.0;" width="10" x="620.5" y="710.5156"/><rect fill="#FF9F1C" height="64.2656" style="stroke:#1E1E1E;stroke-width:1.0;" width="10" x="620.5" y="962.7109"/><rect fill="#FF9F1C" height="29.1328" style="stroke:#1E1E1E;stroke-width:1.0;" width="10" x="854.5" y="277.5234"/><rect fill="#FF9F1C" height="29.1328" style="stroke:#1E1E1E;stroke-width:1.0;" width="10" x="854.5" y="681.3828"/><rect fill="#FF9F1C" height="29.1328" style="stroke:#1E1E1E;stroke-width:1.0;" width="10" x="854.5" y="1056.1094"/><rect fill="#FF9F1C" height="29.1328" style="stroke:#1E1E1E;stroke-width:1.0;" width="10" x="1073.5" y="306.6563"/><rect fill="#FF9F1C" height="29.1328" style="stroke:#1E1E1E;stroke-width:1.0;" width="10" x="1073.5" y="652.25"/><rect fill="#FF9F1C" height="29.1328" style="stroke:#1E1E1E;stroke-width:1.0;" width="10" x="1073.5" y="1085.2422"/><rect fill="#FF9F1C" height="79.3984" style="stroke:#1E1E1E;stroke-width:1.0;" width="10" x="1305.5" y="335.7891"/><rect fill="#FF9F1C" height="64.2656" style="stroke:#1E1E1E;stroke-width:1.0;" width="10" x="1305.5" y="587.9844"/><rect fill="#FF9F1C" height="59.2656" style="stroke:#1E1E1E;stroke-width:1.0;" width="10" x="1305.5" y="1114.375"/><rect fill="#FF9F1C" height="29.1328" style="stroke:#1E1E1E;stroke-width:1.0;" width="10" x="1536.5" y="415.1875"/><rect fill="#FF9F1C" height="79.3984" style="stroke:#1E1E1E;stroke-width:1.0;" width="10" x="1536.5" y="508.5859"/><rect fill="#FF9F1C" height="64.2656" style="stroke:#1E1E1E;stroke-width:1.0;" width="10" x="1854.5" y="444.3203"/><line style="stroke:#1E1E1E;stroke-width:0.5;stroke-dasharray:5.0,5.0;" x1="43" x2="43" y1="73.5938" y2="1182.6406"/><line style="stroke:#1E1E1E;stroke-width:0.5;stroke-dasharray:5.0,5.0;" x1="355.5" x2="355.5" y1="73.5938" y2="1182.6406"/><line style="stroke:#1E1E1E;stroke-width:0.5;stroke-dasharray:5.0,5.0;" x1="625" x2="625" y1="73.5938" y2="1182.6406"/><line style="stroke:#1E1E1E;stroke-width:0.5;stroke-dasharray:5.0,5.0;" x1="859.5" x2="859.5" y1="73.5938" y2="1182.6406"/><line style="stroke:#1E1E1E;stroke-width:0.5;stroke-dasharray:5.0,5.0;" x1="1078" x2="1078" y1="73.5938" y2="1182.6406"/><line style="stroke:#1E1E1E;stroke-width:0.5;stroke-dasharray:5.0,5.0;" x1="1310.5" x2="1310.5" y1="73.5938" y2="1182.6406"/><line style="stroke:#1E1E1E;stroke-width:0.5;stroke-dasharray:5.0,5.0;" x1="1541" x2="1541" y1="73.5938" y2="1182.6406"/><line style="stroke:#1E1E1E;stroke-width:0.5;stroke-dasharray:5.0,5.0;" x1="1859.5" x2="1859.5" y1="73.5938" y2="1182.6406"/><rect fill="#053671" height="30.2969" rx="2.5" ry="2.5" style="stroke:#1E1E1E;stroke-width:0.5;" width="77" x="5" y="42.2969"/><text fill="#FFFFFF" font-family="sans-serif" font-size="14" lengthAdjust="spacing" textLength="63" x="12" y="62.292">Host App</text><rect fill="#053671" height="30.2969" rx="2.5" ry="2.5" style="stroke:#1E1E1E;stroke-width:0.5;" width="77" x="5" y="1181.6406"/><text fill="#FFFFFF" font-family="sans-serif" font-size="14" lengthAdjust="spacing" textLength="63" x="12" y="1201.6357">Host App</text><rect fill="#053671" height="30.2969" rx="2.5" ry="2.5" style="stroke:#1E1E1E;stroke-width:0.5;" width="122" x="294.5" y="42.2969"/><text fill="#FFFFFF" font-family="sans-serif" font-size="14" lengthAdjust="spacing" textLength="108" x="301.5" y="62.292">Host Cmd Layer</text><rect fill="#053671" height="30.2969" rx="2.5" ry="2.5" style="stroke:#1E1E1E;stroke-width:0.5;" width="122" x="294.5" y="1181.6406"/><text fill="#FFFFFF" font-family="sans-serif" font-size="14" lengthAdjust="spacing" textLength="108" x="301.5" y="1201.6357">Host Cmd Layer</text><rect fill="#053671" height="30.2969" rx="2.5" ry="2.5" style="stroke:#1E1E1E;stroke-width:0.5;" width="117" x="567" y="42.2969"/><text fill="#FFFFFF" font-family="sans-serif" font-size="14" lengthAdjust="spacing" textLength="103" x="574" y="62.292">Host DTL Layer</text><rect fill="#053671" height="30.2969" rx="2.5" ry="2.5" style="stroke:#1E1E1E;stroke-width:0.5;" width="117" x="567" y="1181.6406"/><text fill="#FFFFFF" font-family="sans-serif" font-size="14" lengthAdjust="spacing" textLength="103" x="574" y="1201.6357">Host DTL Layer</text><rect fill="#053671" height="30.2969" rx="2.5" ry="2.5" style="stroke:#1E1E1E;stroke-width:0.5;" width="118" x="800.5" y="42.2969"/><text fill="#FFFFFF" font-family="sans-serif" font-size="14" lengthAdjust="spacing" textLength="104" x="807.5" y="62.292">Host PHY Layer</text><rect fill="#053671" height="30.2969" rx="2.5" ry="2.5" style="stroke:#1E1E1E;stroke-width:0.5;" width="118" x="800.5" y="1181.6406"/><text fill="#FFFFFF" font-family="sans-serif" font-size="14" lengthAdjust="spacing" textLength="104" x="807.5" y="1201.6357">Host PHY Layer</text><rect fill="#053671" height="30.2969" rx="2.5" ry="2.5" style="stroke:#1E1E1E;stroke-width:0.5;" width="131" x="1013" y="42.2969"/><text fill="#FFFFFF" font-family="sans-serif" font-size="14" lengthAdjust="spacing" textLength="117" x="1020" y="62.292">Target PHY Layer</text><rect fill="#053671" height="30.2969" rx="2.5" ry="2.5" style="stroke:#1E1E1E;stroke-width:0.5;" width="131" x="1013" y="1181.6406"/><text fill="#FFFFFF" font-family="sans-serif" font-size="14" lengthAdjust="spacing" textLength="117" x="1020" y="1201.6357">Target PHY Layer</text><rect fill="#053671" height="30.2969" rx="2.5" ry="2.5" style="stroke:#1E1E1E;stroke-width:0.5;" width="130" x="1245.5" y="42.2969"/><text fill="#FFFFFF" font-family="sans-serif" font-size="14" lengthAdjust="spacing" textLength="116" x="1252.5" y="62.292">Target DTL Layer</text><rect fill="#053671" height="30.2969" rx="2.5" ry="2.5" style="stroke:#1E1E1E;stroke-width:0.5;" width="130" x="1245.5" y="1181.6406"/><text fill="#FFFFFF" font-family="sans-serif" font-size="14" lengthAdjust="spacing" textLength="116" x="1252.5" y="1201.6357">Target DTL Layer</text><rect fill="#053671" height="30.2969" rx="2.5" ry="2.5" style="stroke:#1E1E1E;stroke-width:0.5;" width="135" x="1474" y="42.2969"/><text fill="#FFFFFF" font-family="sans-serif" font-size="14" lengthAdjust="spacing" textLength="121" x="1481" y="62.292">Target Cmd Layer</text><rect fill="#053671" height="30.2969" rx="2.5" ry="2.5" style="stroke:#1E1E1E;stroke-width:0.5;" width="135" x="1474" y="1181.6406"/><text fill="#FFFFFF" font-family="sans-serif" font-size="14" lengthAdjust="spacing" textLength="121" x="1481" y="1201.6357">Target Cmd Layer</text><rect fill="#053671" height="30.2969" rx="2.5" ry="2.5" style="stroke:#1E1E1E;stroke-width:0.5;" width="90" x="1814.5" y="42.2969"/><text fill="#FFFFFF" font-family="sans-serif" font-size="14" lengthAdjust="spacing" textLength="76" x="1821.5" y="62.292">Target App</text><rect fill="#053671" height="30.2969" rx="2.5" ry="2.5" style="stroke:#1E1E1E;stroke-width:0.5;" width="90" x="1814.5" y="1181.6406"/><text fill="#FFFFFF" font-family="sans-serif" font-size="14" lengthAdjust="spacing" textLength="76" x="1821.5" y="1201.6357">Target App</text><rect fill="#FF9F1C" height="21.1328" style="stroke:#1E1E1E;stroke-width:1.0;" width="10" x="38.5" y="83.5938"/><rect fill="#FF9F1C" height="29.1328" style="stroke:#1E1E1E;stroke-width:1.0;" width="10" x="38.5" y="869.3125"/><rect fill="#FF9F1C" height="79.3984" style="stroke:#1E1E1E;stroke-width:1.0;" width="10" x="350.5" y="104.7266"/><rect fill="#FF9F1C" height="29.1328" style="stroke:#1E1E1E;stroke-width:1.0;" width="10" x="350.5" y="248.3906"/><rect fill="#FF9F1C" height="79.3984" style="stroke:#1E1E1E;stroke-width:1.0;" width="10" x="350.5" y="789.9141"/><rect fill="#FF9F1C" height="64.2656" style="stroke:#1E1E1E;stroke-width:1.0;" width="10" x="350.5" y="898.4453"/><rect fill="#FF9F1C" height="29.1328" style="stroke:#1E1E1E;stroke-width:1.0;" width="10" x="350.5" y="1026.9766"/><rect fill="#FF9F1C" height="64.2656" style="stroke:#1E1E1E;stroke-width:1.0;" width="10" x="620.5" y="184.125"/><rect fill="#FF9F1C" height="79.3984" style="stroke:#1E1E1E;stroke-width:1.0;" width="10" x="620.5" y="710.5156"/><rect fill="#FF9F1C" height="64.2656" style="stroke:#1E1E1E;stroke-width:1.0;" width="10" x="620.5" y="962.7109"/><rect fill="#FF9F1C" height="29.1328" style="stroke:#1E1E1E;stroke-width:1.0;" width="10" x="854.5" y="277.5234"/><rect fill="#FF9F1C" height="29.1328" style="stroke:#1E1E1E;stroke-width:1.0;" width="10" x="854.5" y="681.3828"/><rect fill="#FF9F1C" height="29.1328" style="stroke:#1E1E1E;stroke-width:1.0;" width="10" x="854.5" y="1056.1094"/><rect fill="#FF9F1C" height="29.1328" style="stroke:#1E1E1E;stroke-width:1.0;" width="10" x="1073.5" y="306.6563"/><rect fill="#FF9F1C" height="29.1328" style="stroke:#1E1E1E;stroke-width:1.0;" width="10" x="1073.5" y="652.25"/><rect fill="#FF9F1C" height="29.1328" style="stroke:#1E1E1E;stroke-width:1.0;" width="10" x="1073.5" y="1085.2422"/><rect fill="#FF9F1C" height="79.3984" style="stroke:#1E1E1E;stroke-width:1.0;" width="10" x="1305.5" y="335.7891"/><rect fill="#FF9F1C" height="64.2656" style="stroke:#1E1E1E;stroke-width:1.0;" width="10" x="1305.5" y="587.9844"/><rect fill="#FF9F1C" height="59.2656" style="stroke:#1E1E1E;stroke-width:1.0;" width="10" x="1305.5" y="1114.375"/><rect fill="#FF9F1C" height="29.1328" style="stroke:#1E1E1E;stroke-width:1.0;" width="10" x="1536.5" y="415.1875"/><rect fill="#FF9F1C" height="79.3984" style="stroke:#1E1E1E;stroke-width:1.0;" width="10" x="1536.5" y="508.5859"/><rect fill="#FF9F1C" height="64.2656" style="stroke:#1E1E1E;stroke-width:1.0;" width="10" x="1854.5" y="444.3203"/><polygon fill="#1E1E1E" points="338.5,100.7266,348.5,104.7266,338.5,108.7266,342.5,104.7266" style="stroke:#1E1E1E;stroke-width:1.0;"/><line style="stroke:#1E1E1E;stroke-width:1.0;" x1="43.5" x2="344.5" y1="104.7266" y2="104.7266"/><text fill="#000000" font-family="sans-serif" font-size="13" font-weight="bold" lengthAdjust="spacing" textLength="21" x="50.5" y="99.6606">[1]</text><text fill="#000000" font-family="sans-serif" font-size="13" lengthAdjust="spacing" textLength="258" x="75.5" y="99.6606">sendCommand(VERIFY_CHUNK, chunk1)</text><path d="M365,117.7266 L365,157.7266 L700,157.7266 L700,127.7266 L690,117.7266 L365,117.7266 " fill="#FEFFDD" style="stroke:#181818;stroke-width:0.5;"/><path d="M690,117.7266 L690,127.7266 L700,127.7266 L690,117.7266 " fill="#FEFFDD" style="stroke:#181818;stroke-width:0.5;"/><text fill="#000000" font-family="sans-serif" font-size="13" lengthAdjust="spacing" textLength="306" x="371" y="134.7935">&#8226; Frame CRA(VERIFY_CHUNK, Session ID=0x03)</text><text fill="#000000" font-family="sans-serif" font-size="13" lengthAdjust="spacing" textLength="211" x="371" y="149.9263">&#8226; Start Response-timer (200 ms)</text><polygon fill="#1E1E1E" points="608.5,180.125,618.5,184.125,608.5,188.125,612.5,184.125" style="stroke:#1E1E1E;stroke-width:1.0;"/><line style="stroke:#1E1E1E;stroke-width:1.0;" x1="355.5" x2="614.5" y1="184.125" y2="184.125"/><text fill="#000000" font-family="sans-serif" font-size="13" font-weight="bold" lengthAdjust="spacing" textLength="21" x="362.5" y="179.0591">[2]</text><text fill="#000000" font-family="sans-serif" font-size="13" lengthAdjust="spacing" textLength="216" x="387.5" y="179.0591">wrapCRA(VERIFY_CHUNK, chunk1)</text><path d="M635,197.125 L635,222.125 L838,222.125 L838,207.125 L828,197.125 L635,197.125 " fill="#FEFFDD" style="stroke:#181818;stroke-width:0.5;"/><path d="M828,197.125 L828,207.125 L838,207.125 L828,197.125 " fill="#FEFFDD" style="stroke:#181818;stroke-width:0.5;"/><text fill="#000000" font-family="sans-serif" font-size="13" lengthAdjust="spacing" textLength="182" x="641" y="214.1919">&#8226; SLIP+CRC(VERIFY_CHUNK)</text><polygon fill="#1E1E1E" points="371.5,244.3906,361.5,248.3906,371.5,252.3906,367.5,248.3906" style="stroke:#1E1E1E;stroke-width:1.0;"/><line style="stroke:#1E1E1E;stroke-width:1.0;stroke-dasharray:2.0,2.0;" x1="365.5" x2="624.5" y1="248.3906" y2="248.3906"/><text fill="#000000" font-family="sans-serif" font-size="13" font-weight="bold" lengthAdjust="spacing" textLength="21" x="377.5" y="243.3247">[3]</text><text fill="#000000" font-family="sans-serif" font-size="13" lengthAdjust="spacing" textLength="67" x="402.5" y="243.3247">CRA_verify</text><polygon fill="#1E1E1E" points="842.5,273.5234,852.5,277.5234,842.5,281.5234,846.5,277.5234" style="stroke:#1E1E1E;stroke-width:1.0;"/><line style="stroke:#1E1E1E;stroke-width:1.0;" x1="355.5" x2="848.5" y1="277.5234" y2="277.5234"/><text fill="#000000" font-family="sans-serif" font-size="13" font-weight="bold" lengthAdjust="spacing" textLength="21" x="362.5" y="272.4575">[4]</text><text fill="#000000" font-family="sans-serif" font-size="13" lengthAdjust="spacing" textLength="149" x="387.5" y="272.4575">sendFrame(CRA_verify)</text><polygon fill="#1E1E1E" points="1061.5,302.6563,1071.5,306.6563,1061.5,310.6563,1065.5,306.6563" style="stroke:#1E1E1E;stroke-width:1.0;"/><line style="stroke:#1E1E1E;stroke-width:1.0;" x1="859.5" x2="1067.5" y1="306.6563" y2="306.6563"/><text fill="#000000" font-family="sans-serif" font-size="13" font-weight="bold" lengthAdjust="spacing" textLength="21" x="866.5" y="301.5903">[5]</text><text fill="#000000" font-family="sans-serif" font-size="13" lengthAdjust="spacing" textLength="154" x="891.5" y="301.5903">UART bytes (CRA_verify)</text><polygon fill="#1E1E1E" points="1293.5,331.7891,1303.5,335.7891,1293.5,339.7891,1297.5,335.7891" style="stroke:#1E1E1E;stroke-width:1.0;"/><line style="stroke:#1E1E1E;stroke-width:1.0;" x1="1078.5" x2="1299.5" y1="335.7891" y2="335.7891"/><text fill="#000000" font-family="sans-serif" font-size="13" font-weight="bold" lengthAdjust="spacing" textLength="21" x="1085.5" y="330.7231">[6]</text><text fill="#000000" font-family="sans-serif" font-size="13" lengthAdjust="spacing" textLength="169" x="1110.5" y="330.7231">deliverBytes() [CRA_verify]</text><path d="M1320,348.7891 L1320,388.7891 L1442,388.7891 L1442,358.7891 L1432,348.7891 L1320,348.7891 " fill="#FEFFDD" style="stroke:#181818;stroke-width:0.5;"/><path d="M1432,348.7891 L1432,358.7891 L1442,358.7891 L1432,348.7891 " fill="#FEFFDD" style="stroke:#181818;stroke-width:0.5;"/><text fill="#000000" font-family="sans-serif" font-size="13" lengthAdjust="spacing" textLength="91" x="1326" y="365.856">&#8226; SLIP-decode</text><text fill="#000000" font-family="sans-serif" font-size="13" lengthAdjust="spacing" textLength="101" x="1326" y="380.9888">&#8226; CRC check OK</text><polygon fill="#1E1E1E" points="1524.5,411.1875,1534.5,415.1875,1524.5,419.1875,1528.5,415.1875" style="stroke:#1E1E1E;stroke-width:1.0;"/><line style="stroke:#1E1E1E;stroke-width:1.0;" x1="1310.5" x2="1530.5" y1="415.1875" y2="415.1875"/><text fill="#000000" font-family="sans-serif" font-size="13" font-weight="bold" lengthAdjust="spacing" textLength="21" x="1317.5" y="410.1216">[7]</text><text fill="#000000" font-family="sans-serif" font-size="13" lengthAdjust="spacing" textLength="177" x="1342.5" y="410.1216">extractCRA(VERIFY_CHUNK)</text><polygon fill="#1E1E1E" points="1842.5,440.3203,1852.5,444.3203,1842.5,448.3203,1846.5,444.3203" style="stroke:#1E1E1E;stroke-width:1.0;"/><line style="stroke:#1E1E1E;stroke-width:1.0;" x1="1541.5" x2="1848.5" y1="444.3203" y2="444.3203"/><text fill="#000000" font-family="sans-serif" font-size="13" font-weight="bold" lengthAdjust="spacing" textLength="21" x="1548.5" y="439.2544">[8]</text><text fill="#000000" font-family="sans-serif" font-size="13" lengthAdjust="spacing" textLength="215" x="1573.5" y="439.2544">deliverCommand(VERIFY_CHUNK)</text><path d="M1869,457.3203 L1869,482.3203 L2018,482.3203 L2018,467.3203 L2008,457.3203 L1869,457.3203 " fill="#FEFFDD" style="stroke:#181818;stroke-width:0.5;"/><path d="M2008,457.3203 L2008,467.3203 L2018,467.3203 L2008,457.3203 " fill="#FEFFDD" style="stroke:#181818;stroke-width:0.5;"/><text fill="#000000" font-family="sans-serif" font-size="13" lengthAdjust="spacing" textLength="128" x="1875" y="474.3872">&#8226; Verify chunk1 CRC</text><polygon fill="#1E1E1E" points="1557.5,504.5859,1547.5,508.5859,1557.5,512.5859,1553.5,508.5859" style="stroke:#1E1E1E;stroke-width:1.0;"/><line style="stroke:#1E1E1E;stroke-width:1.0;stroke-dasharray:2.0,2.0;" x1="1551.5" x2="1858.5" y1="508.5859" y2="508.5859"/><text fill="#000000" font-family="sans-serif" font-size="13" font-weight="bold" lengthAdjust="spacing" textLength="21" x="1563.5" y="503.52">[9]</text><text fill="#000000" font-family="sans-serif" font-size="13" lengthAdjust="spacing" textLength="264" x="1588.5" y="503.52">sendResponse(verify_resp, Status=0x00)</text><path d="M1551,521.5859 L1551,561.5859 L1850,561.5859 L1850,531.5859 L1840,521.5859 L1551,521.5859 " fill="#FEFFDD" style="stroke:#181818;stroke-width:0.5;"/><path d="M1840,521.5859 L1840,531.5859 L1850,531.5859 L1840,521.5859 " fill="#FEFFDD" style="stroke:#181818;stroke-width:0.5;"/><text fill="#000000" font-family="sans-serif" font-size="13" lengthAdjust="spacing" textLength="270" x="1557" y="538.6528">&#8226; Wrap CRA(verify_resp, Session ID=0x03)</text><text fill="#000000" font-family="sans-serif" font-size="13" lengthAdjust="spacing" textLength="175" x="1557" y="553.7856">&#8226; Start ACK-timer (200 ms)</text><polygon fill="#1E1E1E" points="1326.5,583.9844,1316.5,587.9844,1326.5,591.9844,1322.5,587.9844" style="stroke:#1E1E1E;stroke-width:1.0;"/><line style="stroke:#1E1E1E;stroke-width:1.0;" x1="1320.5" x2="1540.5" y1="587.9844" y2="587.9844"/><text fill="#000000" font-family="sans-serif" font-size="13" font-weight="bold" lengthAdjust="spacing" textLength="30" x="1332.5" y="582.9185">[10]</text><text fill="#000000" font-family="sans-serif" font-size="13" lengthAdjust="spacing" textLength="135" x="1366.5" y="582.9185">wrapCRA(verify_resp)</text><path d="M1320,600.9844 L1320,625.9844 L1496,625.9844 L1496,610.9844 L1486,600.9844 L1320,600.9844 " fill="#FEFFDD" style="stroke:#181818;stroke-width:0.5;"/><path d="M1486,600.9844 L1486,610.9844 L1496,610.9844 L1486,600.9844 " fill="#FEFFDD" style="stroke:#181818;stroke-width:0.5;"/><text fill="#000000" font-family="sans-serif" font-size="13" lengthAdjust="spacing" textLength="155" x="1326" y="618.0513">&#8226; SLIP+CRC(verify_resp)</text><polygon fill="#1E1E1E" points="1094.5,648.25,1084.5,652.25,1094.5,656.25,1090.5,652.25" style="stroke:#1E1E1E;stroke-width:1.0;"/><line style="stroke:#1E1E1E;stroke-width:1.0;" x1="1088.5" x2="1309.5" y1="652.25" y2="652.25"/><text fill="#000000" font-family="sans-serif" font-size="13" font-weight="bold" lengthAdjust="spacing" textLength="30" x="1100.5" y="647.1841">[11]</text><text fill="#000000" font-family="sans-serif" font-size="13" lengthAdjust="spacing" textLength="151" x="1134.5" y="647.1841">sendFrame(verify_resp)</text><polygon fill="#1E1E1E" points="875.5,677.3828,865.5,681.3828,875.5,685.3828,871.5,681.3828" style="stroke:#1E1E1E;stroke-width:1.0;"/><line style="stroke:#1E1E1E;stroke-width:1.0;" x1="869.5" x2="1077.5" y1="681.3828" y2="681.3828"/><text fill="#000000" font-family="sans-serif" font-size="13" font-weight="bold" lengthAdjust="spacing" textLength="30" x="881.5" y="676.3169">[12]</text><text fill="#000000" font-family="sans-serif" font-size="13" lengthAdjust="spacing" textLength="156" x="915.5" y="676.3169">UART bytes (verify_resp)</text><polygon fill="#1E1E1E" points="641.5,706.5156,631.5,710.5156,641.5,714.5156,637.5,710.5156" style="stroke:#1E1E1E;stroke-width:1.0;"/><line style="stroke:#1E1E1E;stroke-width:1.0;" x1="635.5" x2="858.5" y1="710.5156" y2="710.5156"/><text fill="#000000" font-family="sans-serif" font-size="13" font-weight="bold" lengthAdjust="spacing" textLength="30" x="647.5" y="705.4497">[13]</text><text fill="#000000" font-family="sans-serif" font-size="13" lengthAdjust="spacing" textLength="171" x="681.5" y="705.4497">deliverBytes() [verify_resp]</text><path d="M635,723.5156 L635,763.5156 L757,763.5156 L757,733.5156 L747,723.5156 L635,723.5156 " fill="#FEFFDD" style="stroke:#181818;stroke-width:0.5;"/><path d="M747,723.5156 L747,733.5156 L757,733.5156 L747,723.5156 " fill="#FEFFDD" style="stroke:#181818;stroke-width:0.5;"/><text fill="#000000" font-family="sans-serif" font-size="13" lengthAdjust="spacing" textLength="91" x="641" y="740.5825">&#8226; SLIP-decode</text><text fill="#000000" font-family="sans-serif" font-size="13" lengthAdjust="spacing" textLength="101" x="641" y="755.7153">&#8226; CRC check OK</text><polygon fill="#1E1E1E" points="371.5,785.9141,361.5,789.9141,371.5,793.9141,367.5,789.9141" style="stroke:#1E1E1E;stroke-width:1.0;"/><line style="stroke:#1E1E1E;stroke-width:1.0;" x1="365.5" x2="624.5" y1="789.9141" y2="789.9141"/><text fill="#000000" font-family="sans-serif" font-size="13" font-weight="bold" lengthAdjust="spacing" textLength="30" x="377.5" y="784.8481">[14]</text><text fill="#000000" font-family="sans-serif" font-size="13" lengthAdjust="spacing" textLength="150" x="411.5" y="784.8481">extractCRA(verify_resp)</text><path d="M365,802.9141 L365,842.9141 L533,842.9141 L533,812.9141 L523,802.9141 L365,802.9141 " fill="#FEFFDD" style="stroke:#181818;stroke-width:0.5;"/><path d="M523,802.9141 L523,812.9141 L533,812.9141 L523,802.9141 " fill="#FEFFDD" style="stroke:#181818;stroke-width:0.5;"/><text fill="#000000" font-family="sans-serif" font-size="13" lengthAdjust="spacing" textLength="124" x="371" y="819.981">&#8226; Parse status (OK)</text><text fill="#000000" font-family="sans-serif" font-size="13" lengthAdjust="spacing" textLength="147" x="371" y="835.1138">&#8226; Stop Response-timer</text><polygon fill="#1E1E1E" points="59.5,865.3125,49.5,869.3125,59.5,873.3125,55.5,869.3125" style="stroke:#1E1E1E;stroke-width:1.0;"/><line style="stroke:#1E1E1E;stroke-width:1.0;" x1="53.5" x2="354.5" y1="869.3125" y2="869.3125"/><text fill="#000000" font-family="sans-serif" font-size="13" font-weight="bold" lengthAdjust="spacing" textLength="30" x="65.5" y="864.2466">[15]</text><text fill="#000000" font-family="sans-serif" font-size="13" lengthAdjust="spacing" textLength="183" x="99.5" y="864.2466">deliverResponse(verify_resp)</text><polygon fill="#1E1E1E" points="338.5,894.4453,348.5,898.4453,338.5,902.4453,342.5,898.4453" style="stroke:#1E1E1E;stroke-width:1.0;"/><line style="stroke:#1E1E1E;stroke-width:1.0;stroke-dasharray:2.0,2.0;" x1="43.5" x2="344.5" y1="898.4453" y2="898.4453"/><text fill="#000000" font-family="sans-serif" font-size="13" font-weight="bold" lengthAdjust="spacing" textLength="30" x="50.5" y="893.3794">[16]</text><text fill="#000000" font-family="sans-serif" font-size="13" lengthAdjust="spacing" textLength="171" x="84.5" y="893.3794">sendACK() [for verify_resp]</text><path d="M365,911.4453 L365,936.4453 L696,936.4453 L696,921.4453 L686,911.4453 L365,911.4453 " fill="#FEFFDD" style="stroke:#181818;stroke-width:0.5;"/><path d="M686,911.4453 L686,921.4453 L696,921.4453 L686,911.4453 " fill="#FEFFDD" style="stroke:#181818;stroke-width:0.5;"/><text fill="#000000" font-family="sans-serif" font-size="13" lengthAdjust="spacing" textLength="310" x="371" y="928.5122">&#8226; Wrap CRA(ACK, Session ID=0x03, Flags=0x08)</text><polygon fill="#1E1E1E" points="608.5,958.7109,618.5,962.7109,608.5,966.7109,612.5,962.7109" style="stroke:#1E1E1E;stroke-width:1.0;"/><line style="stroke:#1E1E1E;stroke-width:1.0;" x1="355.5" x2="614.5" y1="962.7109" y2="962.7109"/><text fill="#000000" font-family="sans-serif" font-size="13" font-weight="bold" lengthAdjust="spacing" textLength="30" x="362.5" y="957.645">[17]</text><text fill="#000000" font-family="sans-serif" font-size="13" lengthAdjust="spacing" textLength="92" x="396.5" y="957.645">wrapCRA(ACK)</text><path d="M635,975.7109 L635,1000.7109 L771,1000.7109 L771,985.7109 L761,975.7109 L635,975.7109 " fill="#FEFFDD" style="stroke:#181818;stroke-width:0.5;"/><path d="M761,975.7109 L761,985.7109 L771,985.7109 L761,975.7109 " fill="#FEFFDD" style="stroke:#181818;stroke-width:0.5;"/><text fill="#000000" font-family="sans-serif" font-size="13" lengthAdjust="spacing" textLength="115" x="641" y="992.7778">&#8226; Build ACK frame</text><polygon fill="#1E1E1E" points="371.5,1022.9766,361.5,1026.9766,371.5,1030.9766,367.5,1026.9766" style="stroke:#1E1E1E;stroke-width:1.0;"/><line style="stroke:#1E1E1E;stroke-width:1.0;stroke-dasharray:2.0,2.0;" x1="365.5" x2="624.5" y1="1026.9766" y2="1026.9766"/><text fill="#000000" font-family="sans-serif" font-size="13" font-weight="bold" lengthAdjust="spacing" textLength="30" x="377.5" y="1021.9106">[18]</text><text fill="#000000" font-family="sans-serif" font-size="13" lengthAdjust="spacing" textLength="67" x="411.5" y="1021.9106">ACK_verify</text><polygon fill="#1E1E1E" points="842.5,1052.1094,852.5,1056.1094,842.5,1060.1094,846.5,1056.1094" style="stroke:#1E1E1E;stroke-width:1.0;"/><line style="stroke:#1E1E1E;stroke-width:1.0;" x1="355.5" x2="848.5" y1="1056.1094" y2="1056.1094"/><text fill="#000000" font-family="sans-serif" font-size="13" font-weight="bold" lengthAdjust="spacing" textLength="30" x="362.5" y="1051.0435">[19]</text><text fill="#000000" font-family="sans-serif" font-size="13" lengthAdjust="spacing" textLength="149" x="396.5" y="1051.0435">sendFrame(ACK_verify)</text><polygon fill="#1E1E1E" points="1061.5,1081.2422,1071.5,1085.2422,1061.5,1089.2422,1065.5,1085.2422" style="stroke:#1E1E1E;stroke-width:1.0;"/><line style="stroke:#1E1E1E;stroke-width:1.0;" x1="859.5" x2="1067.5" y1="1085.2422" y2="1085.2422"/><text fill="#000000" font-family="sans-serif" font-size="13" font-weight="bold" lengthAdjust="spacing" textLength="30" x="866.5" y="1080.1763">[20]</text><text fill="#000000" font-family="sans-serif" font-size="13" lengthAdjust="spacing" textLength="154" x="900.5" y="1080.1763">UART bytes (ACK_verify)</text><polygon fill="#1E1E1E" points="1293.5,1110.375,1303.5,1114.375,1293.5,1118.375,1297.5,1114.375" style="stroke:#1E1E1E;stroke-width:1.0;"/><line style="stroke:#1E1E1E;stroke-width:1.0;" x1="1078.5" x2="1299.5" y1="1114.375" y2="1114.375"/><text fill="#000000" font-family="sans-serif" font-size="13" font-weight="bold" lengthAdjust="spacing" textLength="30" x="1085.5" y="1109.3091">[21]</text><text fill="#000000" font-family="sans-serif" font-size="13" lengthAdjust="spacing" textLength="169" x="1119.5" y="1109.3091">deliverBytes() [ACK_verify]</text><path d="M1320,1127.375 L1320,1167.375 L1472,1167.375 L1472,1137.375 L1462,1127.375 L1320,1127.375 " fill="#FEFFDD" style="stroke:#181818;stroke-width:0.5;"/><path d="M1462,1127.375 L1462,1137.375 L1472,1137.375 L1462,1127.375 " fill="#FEFFDD" style="stroke:#181818;stroke-width:0.5;"/><text fill="#000000" font-family="sans-serif" font-size="13" lengthAdjust="spacing" textLength="123" x="1326" y="1144.4419">&#8226; Extract CRA(ACK)</text><text fill="#000000" font-family="sans-serif" font-size="13" lengthAdjust="spacing" textLength="111" x="1326" y="1159.5747">&#8226; Stop ACK-timer</text><!--SRC=[hLPjQjj04FslKmmEDBORKpkXdwG1MQfHi6c4hQI4488ihHqHMr9tr_cW57A8dg17oqawAqlMhYAvnjW9X4XlPjw-cRVZ_PS_pplvXOk0BTmPCC9v44uPx2gnnkw2C7QfEmVRfJpmWjWDkUtwFfQ1pc4RzYL8d4FWbmRuwRhUtPH6Yz0tebb4OQ_z_kZ3nyxoNKHzGfVFnMUlGyHFyguNXJn_0_1m6t2Y_PPgCV9pGKAFf8LqIgC7EIB_o7a7mOGCWf0KQrV12lG5R3BvFEbu2KoIPDrXPDWQFIHOrV4r7l0PWMQpEx9Xb2dGWWj2WyaJ6BUBy6xrlDdKDBaZDIjY7FGuhgsaSHbOUWd8cFimS9y8hQKWemHaEWCLP9Q0REjI1Tago77fb2Wm13db8AcW09cb88cw01cb84a40T8rpLtmA5pCnuH2xNXySjM-FdutFgbfsdvkiau3aZCn4leCBhuDJtkNDuPr_hqFNZIVkw6_Ez-v7W_kNKv4VomTMYVO0_YIb3QMjUeoWGFmHEyx3SqdSgYKnz322F_IO7hB8Pg81m0lpt-XXtOYO0prGiOHOIo8GZWrlxOVsqSDW3HWn55I618MHo4ZBHxCKRNwORiDSzRGa268IXeI5hHDfFr0tVXrWJBAXapPB58sCmQ3K_kjCJIKX79f4rgPP5ZtvZxnXrB8LBL9oTgfneaczJnq3KbRmoYCTKJikJvqOFp42OFAQ5iPgiC6f4CPqyX3oKbXj7OrKiN1GfCvI-AYGpwP1KYsAwZN6t2Lax-MoMEGbA7O7qVkJyidNkIJrTHWkx3ZnBk3itxUAImkA8X6aKTECNTnJXJn7BbjQ6udQPkZvoSeSuUQGkuUMhzm13sbcrwfonaLv2NEUZ9TJcR8p0drfM0t5Fy_42xX2oQiqrRhw-eH2lKpL_v0ooIcL9EkzwHkz2ljc4ebsr5AlKQYjLrENAZaARPMjLHbIQMnsMXQHKzLXgkcEaflwWfBqRHXy2Qzor4t-DyzdFdSAhEBnEkwQFODxxFD_6APgrqW-QLAbk8jLx41y9i7Yi6IWONwMLyUgoWktFIlBdZ9V6LEM7DrBbURlDkm4KBE2NxpgPHqiwssyW-cVEMR0-ZDt6bYpa_hDnP6RxEWkejWvYTZDH5ZNxwPyFMscoaFtMOpLKNRsgRh8S-mpNhujfpSh3s5SLjTOhbgwaNn3m00]--></g></svg>