<?xml version="1.0" encoding="us-ascii" standalone="no"?><svg xmlns="http://www.w3.org/2000/svg" xmlns:xlink="http://www.w3.org/1999/xlink" contentStyleType="text/css" height="1649px" preserveAspectRatio="none" style="width:1604px;height:1649px;background:#FFFFFF;" version="1.1" viewBox="0 0 1604 1649" width="1604px" zoomAndPan="magnify"><defs/><g><text fill="#000000" font-family="sans-serif" font-size="14" font-weight="bold" lengthAdjust="spacing" textLength="339" x="631" y="27.9951">BSP Sequence - Single Command ACK Miss</text><rect fill="#FF9F1C" height="21.1328" style="stroke:#1E1E1E;stroke-width:1.0;" width="10" x="38.5" y="83.5938"/><rect fill="#FF9F1C" height="29.1328" style="stroke:#1E1E1E;stroke-width:1.0;" width="10" x="38.5" y="803.9141"/><rect fill="#FF9F1C" height="29.1328" style="stroke:#1E1E1E;stroke-width:1.0;" width="10" x="38.5" y="1301.1719"/><rect fill="#FF9F1C" height="79.3984" style="stroke:#1E1E1E;stroke-width:1.0;" width="10" x="311.5" y="104.7266"/><rect fill="#FF9F1C" height="29.1328" style="stroke:#1E1E1E;stroke-width:1.0;" width="10" x="311.5" y="248.3906"/><rect fill="#FF9F1C" height="79.3984" style="stroke:#1E1E1E;stroke-width:1.0;" width="10" x="311.5" y="724.5156"/><rect fill="#FF9F1C" height="64.2656" style="stroke:#1E1E1E;stroke-width:1.0;" width="10" x="311.5" y="833.0469"/><rect fill="#FF9F1C" height="29.1328" style="stroke:#1E1E1E;stroke-width:1.0;" width="10" x="311.5" y="961.5781"/><rect fill="#FF9F1C" height="79.3984" style="stroke:#1E1E1E;stroke-width:1.0;" width="10" x="311.5" y="1221.7734"/><rect fill="#FF9F1C" height="64.2656" style="stroke:#1E1E1E;stroke-width:1.0;" width="10" x="311.5" y="1330.3047"/><rect fill="#FF9F1C" height="29.1328" style="stroke:#1E1E1E;stroke-width:1.0;" width="10" x="311.5" y="1458.8359"/><rect fill="#FF9F1C" height="64.2656" style="stroke:#1E1E1E;stroke-width:1.0;" width="10" x="483.5" y="184.125"/><rect fill="#FF9F1C" height="64.2656" style="stroke:#1E1E1E;stroke-width:1.0;" width="10" x="483.5" y="660.25"/><rect fill="#FF9F1C" height="64.2656" style="stroke:#1E1E1E;stroke-width:1.0;" width="10" x="483.5" y="897.3125"/><rect fill="#FF9F1C" height="64.2656" style="stroke:#1E1E1E;stroke-width:1.0;" width="10" x="483.5" y="1157.5078"/><rect fill="#FF9F1C" height="64.2656" style="stroke:#1E1E1E;stroke-width:1.0;" width="10" x="483.5" y="1394.5703"/><rect fill="#FF9F1C" height="29.1328" style="stroke:#1E1E1E;stroke-width:1.0;" width="10" x="710.5" y="277.5234"/><rect fill="#FF9F1C" height="29.1328" style="stroke:#1E1E1E;stroke-width:1.0;" width="10" x="710.5" y="631.1172"/><rect fill="#FF9F1C" height="29.1328" style="stroke:#1E1E1E;stroke-width:1.0;" width="10" x="710.5" y="990.7109"/><rect fill="#FF9F1C" height="29.1328" style="stroke:#1E1E1E;stroke-width:1.0;" width="10" x="710.5" y="1128.375"/><rect fill="#FF9F1C" height="29.1328" style="stroke:#1E1E1E;stroke-width:1.0;" width="10" x="710.5" y="1487.9688"/><rect fill="#FF9F1C" height="29.1328" style="stroke:#1E1E1E;stroke-width:1.0;" width="10" x="938.5" y="306.6563"/><rect fill="#FF9F1C" height="29.1328" style="stroke:#1E1E1E;stroke-width:1.0;" width="10" x="938.5" y="601.9844"/><rect fill="#FF9F1C" height="29.1328" style="stroke:#1E1E1E;stroke-width:1.0;" width="10" x="938.5" y="1099.2422"/><rect fill="#FF9F1C" height="29.1328" style="stroke:#1E1E1E;stroke-width:1.0;" width="10" x="938.5" y="1517.1016"/><rect fill="#FF9F1C" height="64.2656" style="stroke:#1E1E1E;stroke-width:1.0;" width="10" x="1161.5" y="335.7891"/><rect fill="#FF9F1C" height="64.2656" style="stroke:#1E1E1E;stroke-width:1.0;" width="10" x="1161.5" y="537.7188"/><rect fill="#FF9F1C" height="79.3984" style="stroke:#1E1E1E;stroke-width:1.0;" width="10" x="1161.5" y="1019.8438"/><rect fill="#FF9F1C" height="59.2656" style="stroke:#1E1E1E;stroke-width:1.0;" width="10" x="1161.5" y="1546.2344"/><rect fill="#FF9F1C" height="29.1328" style="stroke:#1E1E1E;stroke-width:1.0;" width="10" x="1324.5" y="400.0547"/><rect fill="#FF9F1C" height="79.3984" style="stroke:#1E1E1E;stroke-width:1.0;" width="10" x="1324.5" y="458.3203"/><rect fill="#FF9F1C" height="29.1328" style="stroke:#1E1E1E;stroke-width:1.0;" width="10" x="1525.5" y="429.1875"/><line style="stroke:#1E1E1E;stroke-width:0.5;stroke-dasharray:5.0,5.0;" x1="43" x2="43" y1="73.5938" y2="1614.5"/><line style="stroke:#1E1E1E;stroke-width:0.5;stroke-dasharray:5.0,5.0;" x1="316.5" x2="316.5" y1="73.5938" y2="1614.5"/><line style="stroke:#1E1E1E;stroke-width:0.5;stroke-dasharray:5.0,5.0;" x1="488" x2="488" y1="73.5938" y2="1614.5"/><line style="stroke:#1E1E1E;stroke-width:0.5;stroke-dasharray:5.0,5.0;" x1="715.5" x2="715.5" y1="73.5938" y2="1614.5"/><line style="stroke:#1E1E1E;stroke-width:0.5;stroke-dasharray:5.0,5.0;" x1="943" x2="943" y1="73.5938" y2="1614.5"/><line style="stroke:#1E1E1E;stroke-width:0.5;stroke-dasharray:5.0,5.0;" x1="1166.5" x2="1166.5" y1="73.5938" y2="1614.5"/><line style="stroke:#1E1E1E;stroke-width:0.5;stroke-dasharray:5.0,5.0;" x1="1329" x2="1329" y1="73.5938" y2="1614.5"/><line style="stroke:#1E1E1E;stroke-width:0.5;stroke-dasharray:5.0,5.0;" x1="1530.5" x2="1530.5" y1="73.5938" y2="1614.5"/><rect fill="#053671" height="30.2969" rx="2.5" ry="2.5" style="stroke:#1E1E1E;stroke-width:0.5;" width="77" x="5" y="42.2969"/><text fill="#FFFFFF" font-family="sans-serif" font-size="14" lengthAdjust="spacing" textLength="63" x="12" y="62.292">Host App</text><rect fill="#053671" height="30.2969" rx="2.5" ry="2.5" style="stroke:#1E1E1E;stroke-width:0.5;" width="77" x="5" y="1613.5"/><text fill="#FFFFFF" font-family="sans-serif" font-size="14" lengthAdjust="spacing" textLength="63" x="12" y="1633.4951">Host App</text><rect fill="#053671" height="30.2969" rx="2.5" ry="2.5" style="stroke:#1E1E1E;stroke-width:0.5;" width="122" x="255.5" y="42.2969"/><text fill="#FFFFFF" font-family="sans-serif" font-size="14" lengthAdjust="spacing" textLength="108" x="262.5" y="62.292">Host Cmd Layer</text><rect fill="#053671" height="30.2969" rx="2.5" ry="2.5" style="stroke:#1E1E1E;stroke-width:0.5;" width="122" x="255.5" y="1613.5"/><text fill="#FFFFFF" font-family="sans-serif" font-size="14" lengthAdjust="spacing" textLength="108" x="262.5" y="1633.4951">Host Cmd Layer</text><rect fill="#053671" height="30.2969" rx="2.5" ry="2.5" style="stroke:#1E1E1E;stroke-width:0.5;" width="117" x="430" y="42.2969"/><text fill="#FFFFFF" font-family="sans-serif" font-size="14" lengthAdjust="spacing" textLength="103" x="437" y="62.292">Host DTL Layer</text><rect fill="#053671" height="30.2969" rx="2.5" ry="2.5" style="stroke:#1E1E1E;stroke-width:0.5;" width="117" x="430" y="1613.5"/><text fill="#FFFFFF" font-family="sans-serif" font-size="14" lengthAdjust="spacing" textLength="103" x="437" y="1633.4951">Host DTL Layer</text><rect fill="#053671" height="30.2969" rx="2.5" ry="2.5" style="stroke:#1E1E1E;stroke-width:0.5;" width="118" x="656.5" y="42.2969"/><text fill="#FFFFFF" font-family="sans-serif" font-size="14" lengthAdjust="spacing" textLength="104" x="663.5" y="62.292">Host PHY Layer</text><rect fill="#053671" height="30.2969" rx="2.5" ry="2.5" style="stroke:#1E1E1E;stroke-width:0.5;" width="118" x="656.5" y="1613.5"/><text fill="#FFFFFF" font-family="sans-serif" font-size="14" lengthAdjust="spacing" textLength="104" x="663.5" y="1633.4951">Host PHY Layer</text><rect fill="#053671" height="30.2969" rx="2.5" ry="2.5" style="stroke:#1E1E1E;stroke-width:0.5;" width="131" x="878" y="42.2969"/><text fill="#FFFFFF" font-family="sans-serif" font-size="14" lengthAdjust="spacing" textLength="117" x="885" y="62.292">Target PHY Layer</text><rect fill="#053671" height="30.2969" rx="2.5" ry="2.5" style="stroke:#1E1E1E;stroke-width:0.5;" width="131" x="878" y="1613.5"/><text fill="#FFFFFF" font-family="sans-serif" font-size="14" lengthAdjust="spacing" textLength="117" x="885" y="1633.4951">Target PHY Layer</text><rect fill="#053671" height="30.2969" rx="2.5" ry="2.5" style="stroke:#1E1E1E;stroke-width:0.5;" width="130" x="1101.5" y="42.2969"/><text fill="#FFFFFF" font-family="sans-serif" font-size="14" lengthAdjust="spacing" textLength="116" x="1108.5" y="62.292">Target DTL Layer</text><rect fill="#053671" height="30.2969" rx="2.5" ry="2.5" style="stroke:#1E1E1E;stroke-width:0.5;" width="130" x="1101.5" y="1613.5"/><text fill="#FFFFFF" font-family="sans-serif" font-size="14" lengthAdjust="spacing" textLength="116" x="1108.5" y="1633.4951">Target DTL Layer</text><rect fill="#053671" height="30.2969" rx="2.5" ry="2.5" style="stroke:#1E1E1E;stroke-width:0.5;" width="135" x="1262" y="42.2969"/><text fill="#FFFFFF" font-family="sans-serif" font-size="14" lengthAdjust="spacing" textLength="121" x="1269" y="62.292">Target Cmd Layer</text><rect fill="#053671" height="30.2969" rx="2.5" ry="2.5" style="stroke:#1E1E1E;stroke-width:0.5;" width="135" x="1262" y="1613.5"/><text fill="#FFFFFF" font-family="sans-serif" font-size="14" lengthAdjust="spacing" textLength="121" x="1269" y="1633.4951">Target Cmd Layer</text><rect fill="#053671" height="30.2969" rx="2.5" ry="2.5" style="stroke:#1E1E1E;stroke-width:0.5;" width="90" x="1485.5" y="42.2969"/><text fill="#FFFFFF" font-family="sans-serif" font-size="14" lengthAdjust="spacing" textLength="76" x="1492.5" y="62.292">Target App</text><rect fill="#053671" height="30.2969" rx="2.5" ry="2.5" style="stroke:#1E1E1E;stroke-width:0.5;" width="90" x="1485.5" y="1613.5"/><text fill="#FFFFFF" font-family="sans-serif" font-size="14" lengthAdjust="spacing" textLength="76" x="1492.5" y="1633.4951">Target App</text><rect fill="#FF9F1C" height="21.1328" style="stroke:#1E1E1E;stroke-width:1.0;" width="10" x="38.5" y="83.5938"/><rect fill="#FF9F1C" height="29.1328" style="stroke:#1E1E1E;stroke-width:1.0;" width="10" x="38.5" y="803.9141"/><rect fill="#FF9F1C" height="29.1328" style="stroke:#1E1E1E;stroke-width:1.0;" width="10" x="38.5" y="1301.1719"/><rect fill="#FF9F1C" height="79.3984" style="stroke:#1E1E1E;stroke-width:1.0;" width="10" x="311.5" y="104.7266"/><rect fill="#FF9F1C" height="29.1328" style="stroke:#1E1E1E;stroke-width:1.0;" width="10" x="311.5" y="248.3906"/><rect fill="#FF9F1C" height="79.3984" style="stroke:#1E1E1E;stroke-width:1.0;" width="10" x="311.5" y="724.5156"/><rect fill="#FF9F1C" height="64.2656" style="stroke:#1E1E1E;stroke-width:1.0;" width="10" x="311.5" y="833.0469"/><rect fill="#FF9F1C" height="29.1328" style="stroke:#1E1E1E;stroke-width:1.0;" width="10" x="311.5" y="961.5781"/><rect fill="#FF9F1C" height="79.3984" style="stroke:#1E1E1E;stroke-width:1.0;" width="10" x="311.5" y="1221.7734"/><rect fill="#FF9F1C" height="64.2656" style="stroke:#1E1E1E;stroke-width:1.0;" width="10" x="311.5" y="1330.3047"/><rect fill="#FF9F1C" height="29.1328" style="stroke:#1E1E1E;stroke-width:1.0;" width="10" x="311.5" y="1458.8359"/><rect fill="#FF9F1C" height="64.2656" style="stroke:#1E1E1E;stroke-width:1.0;" width="10" x="483.5" y="184.125"/><rect fill="#FF9F1C" height="64.2656" style="stroke:#1E1E1E;stroke-width:1.0;" width="10" x="483.5" y="660.25"/><rect fill="#FF9F1C" height="64.2656" style="stroke:#1E1E1E;stroke-width:1.0;" width="10" x="483.5" y="897.3125"/><rect fill="#FF9F1C" height="64.2656" style="stroke:#1E1E1E;stroke-width:1.0;" width="10" x="483.5" y="1157.5078"/><rect fill="#FF9F1C" height="64.2656" style="stroke:#1E1E1E;stroke-width:1.0;" width="10" x="483.5" y="1394.5703"/><rect fill="#FF9F1C" height="29.1328" style="stroke:#1E1E1E;stroke-width:1.0;" width="10" x="710.5" y="277.5234"/><rect fill="#FF9F1C" height="29.1328" style="stroke:#1E1E1E;stroke-width:1.0;" width="10" x="710.5" y="631.1172"/><rect fill="#FF9F1C" height="29.1328" style="stroke:#1E1E1E;stroke-width:1.0;" width="10" x="710.5" y="990.7109"/><rect fill="#FF9F1C" height="29.1328" style="stroke:#1E1E1E;stroke-width:1.0;" width="10" x="710.5" y="1128.375"/><rect fill="#FF9F1C" height="29.1328" style="stroke:#1E1E1E;stroke-width:1.0;" width="10" x="710.5" y="1487.9688"/><rect fill="#FF9F1C" height="29.1328" style="stroke:#1E1E1E;stroke-width:1.0;" width="10" x="938.5" y="306.6563"/><rect fill="#FF9F1C" height="29.1328" style="stroke:#1E1E1E;stroke-width:1.0;" width="10" x="938.5" y="601.9844"/><rect fill="#FF9F1C" height="29.1328" style="stroke:#1E1E1E;stroke-width:1.0;" width="10" x="938.5" y="1099.2422"/><rect fill="#FF9F1C" height="29.1328" style="stroke:#1E1E1E;stroke-width:1.0;" width="10" x="938.5" y="1517.1016"/><rect fill="#FF9F1C" height="64.2656" style="stroke:#1E1E1E;stroke-width:1.0;" width="10" x="1161.5" y="335.7891"/><rect fill="#FF9F1C" height="64.2656" style="stroke:#1E1E1E;stroke-width:1.0;" width="10" x="1161.5" y="537.7188"/><rect fill="#FF9F1C" height="79.3984" style="stroke:#1E1E1E;stroke-width:1.0;" width="10" x="1161.5" y="1019.8438"/><rect fill="#FF9F1C" height="59.2656" style="stroke:#1E1E1E;stroke-width:1.0;" width="10" x="1161.5" y="1546.2344"/><rect fill="#FF9F1C" height="29.1328" style="stroke:#1E1E1E;stroke-width:1.0;" width="10" x="1324.5" y="400.0547"/><rect fill="#FF9F1C" height="79.3984" style="stroke:#1E1E1E;stroke-width:1.0;" width="10" x="1324.5" y="458.3203"/><rect fill="#FF9F1C" height="29.1328" style="stroke:#1E1E1E;stroke-width:1.0;" width="10" x="1525.5" y="429.1875"/><polygon fill="#1E1E1E" points="299.5,100.7266,309.5,104.7266,299.5,108.7266,303.5,104.7266" style="stroke:#1E1E1E;stroke-width:1.0;"/><line style="stroke:#1E1E1E;stroke-width:1.0;" x1="43.5" x2="305.5" y1="104.7266" y2="104.7266"/><text fill="#000000" font-family="sans-serif" font-size="13" font-weight="bold" lengthAdjust="spacing" textLength="21" x="50.5" y="99.6606">[1]</text><text fill="#000000" font-family="sans-serif" font-size="13" lengthAdjust="spacing" textLength="136" x="75.5" y="99.6606">sendCommand(cmd)</text><path d="M326,117.7266 L326,157.7266 L558,157.7266 L558,127.7266 L548,117.7266 L326,117.7266 " fill="#FEFFDD" style="stroke:#181818;stroke-width:0.5;"/><path d="M548,117.7266 L548,127.7266 L558,127.7266 L548,117.7266 " fill="#FEFFDD" style="stroke:#181818;stroke-width:0.5;"/><text fill="#000000" font-family="sans-serif" font-size="13" lengthAdjust="spacing" textLength="121" x="332" y="134.7935">&#8226; Frame CRA(cmd)</text><text fill="#000000" font-family="sans-serif" font-size="13" lengthAdjust="spacing" textLength="211" x="332" y="149.9263">&#8226; Start Response-timer (200 ms)</text><polygon fill="#1E1E1E" points="471.5,180.125,481.5,184.125,471.5,188.125,475.5,184.125" style="stroke:#1E1E1E;stroke-width:1.0;"/><line style="stroke:#1E1E1E;stroke-width:1.0;" x1="316.5" x2="477.5" y1="184.125" y2="184.125"/><text fill="#000000" font-family="sans-serif" font-size="13" font-weight="bold" lengthAdjust="spacing" textLength="21" x="323.5" y="179.0591">[2]</text><text fill="#000000" font-family="sans-serif" font-size="13" lengthAdjust="spacing" textLength="94" x="348.5" y="179.0591">wrapCRA(cmd)</text><path d="M498,197.125 L498,222.125 L633,222.125 L633,207.125 L623,197.125 L498,197.125 " fill="#FEFFDD" style="stroke:#181818;stroke-width:0.5;"/><path d="M623,197.125 L623,207.125 L633,207.125 L623,197.125 " fill="#FEFFDD" style="stroke:#181818;stroke-width:0.5;"/><text fill="#000000" font-family="sans-serif" font-size="13" lengthAdjust="spacing" textLength="114" x="504" y="214.1919">&#8226; SLIP+CRC(cmd)</text><polygon fill="#1E1E1E" points="332.5,244.3906,322.5,248.3906,332.5,252.3906,328.5,248.3906" style="stroke:#1E1E1E;stroke-width:1.0;"/><line style="stroke:#1E1E1E;stroke-width:1.0;stroke-dasharray:2.0,2.0;" x1="326.5" x2="487.5" y1="248.3906" y2="248.3906"/><text fill="#000000" font-family="sans-serif" font-size="13" font-weight="bold" lengthAdjust="spacing" textLength="21" x="338.5" y="243.3247">[3]</text><text fill="#000000" font-family="sans-serif" font-size="13" lengthAdjust="spacing" textLength="71" x="363.5" y="243.3247">CRA_frame</text><polygon fill="#1E1E1E" points="698.5,273.5234,708.5,277.5234,698.5,281.5234,702.5,277.5234" style="stroke:#1E1E1E;stroke-width:1.0;"/><line style="stroke:#1E1E1E;stroke-width:1.0;" x1="316.5" x2="704.5" y1="277.5234" y2="277.5234"/><text fill="#000000" font-family="sans-serif" font-size="13" font-weight="bold" lengthAdjust="spacing" textLength="21" x="323.5" y="272.4575">[4]</text><text fill="#000000" font-family="sans-serif" font-size="13" lengthAdjust="spacing" textLength="153" x="348.5" y="272.4575">sendFrame(CRA_frame)</text><polygon fill="#1E1E1E" points="926.5,302.6563,936.5,306.6563,926.5,310.6563,930.5,306.6563" style="stroke:#1E1E1E;stroke-width:1.0;"/><line style="stroke:#1E1E1E;stroke-width:1.0;" x1="715.5" x2="932.5" y1="306.6563" y2="306.6563"/><text fill="#000000" font-family="sans-serif" font-size="13" font-weight="bold" lengthAdjust="spacing" textLength="21" x="722.5" y="301.5903">[5]</text><text fill="#000000" font-family="sans-serif" font-size="13" lengthAdjust="spacing" textLength="158" x="747.5" y="301.5903">UART bytes (CRA_frame)</text><polygon fill="#1E1E1E" points="1149.5,331.7891,1159.5,335.7891,1149.5,339.7891,1153.5,335.7891" style="stroke:#1E1E1E;stroke-width:1.0;"/><line style="stroke:#1E1E1E;stroke-width:1.0;" x1="943.5" x2="1155.5" y1="335.7891" y2="335.7891"/><text fill="#000000" font-family="sans-serif" font-size="13" font-weight="bold" lengthAdjust="spacing" textLength="21" x="950.5" y="330.7231">[6]</text><text fill="#000000" font-family="sans-serif" font-size="13" lengthAdjust="spacing" textLength="128" x="975.5" y="330.7231">deliverBytes() [CRA]</text><path d="M1176,348.7891 L1176,373.7891 L1355,373.7891 L1355,358.7891 L1345,348.7891 L1176,348.7891 " fill="#FEFFDD" style="stroke:#181818;stroke-width:0.5;"/><path d="M1345,348.7891 L1345,358.7891 L1355,358.7891 L1345,348.7891 " fill="#FEFFDD" style="stroke:#181818;stroke-width:0.5;"/><text fill="#000000" font-family="sans-serif" font-size="13" lengthAdjust="spacing" textLength="158" x="1182" y="365.856">&#8226; Decode+CRC OK(cmd)</text><polygon fill="#1E1E1E" points="1312.5,396.0547,1322.5,400.0547,1312.5,404.0547,1316.5,400.0547" style="stroke:#1E1E1E;stroke-width:1.0;"/><line style="stroke:#1E1E1E;stroke-width:1.0;" x1="1166.5" x2="1318.5" y1="400.0547" y2="400.0547"/><text fill="#000000" font-family="sans-serif" font-size="13" font-weight="bold" lengthAdjust="spacing" textLength="21" x="1173.5" y="394.9888">[7]</text><text fill="#000000" font-family="sans-serif" font-size="13" lengthAdjust="spacing" textLength="109" x="1198.5" y="394.9888">extractCRA(cmd)</text><polygon fill="#1E1E1E" points="1513.5,425.1875,1523.5,429.1875,1513.5,433.1875,1517.5,429.1875" style="stroke:#1E1E1E;stroke-width:1.0;"/><line style="stroke:#1E1E1E;stroke-width:1.0;" x1="1329.5" x2="1519.5" y1="429.1875" y2="429.1875"/><text fill="#000000" font-family="sans-serif" font-size="13" font-weight="bold" lengthAdjust="spacing" textLength="21" x="1336.5" y="424.1216">[8]</text><text fill="#000000" font-family="sans-serif" font-size="13" lengthAdjust="spacing" textLength="147" x="1361.5" y="424.1216">deliverCommand(cmd)</text><polygon fill="#1E1E1E" points="1345.5,454.3203,1335.5,458.3203,1345.5,462.3203,1341.5,458.3203" style="stroke:#1E1E1E;stroke-width:1.0;"/><line style="stroke:#1E1E1E;stroke-width:1.0;stroke-dasharray:2.0,2.0;" x1="1339.5" x2="1529.5" y1="458.3203" y2="458.3203"/><text fill="#000000" font-family="sans-serif" font-size="13" font-weight="bold" lengthAdjust="spacing" textLength="21" x="1351.5" y="453.2544">[9]</text><text fill="#000000" font-family="sans-serif" font-size="13" lengthAdjust="spacing" textLength="131" x="1376.5" y="453.2544">sendResponse(resp)</text><path d="M1339,471.3203 L1339,511.3203 L1597,511.3203 L1597,481.3203 L1587,471.3203 L1339,471.3203 " fill="#FEFFDD" style="stroke:#181818;stroke-width:0.5;"/><path d="M1587,471.3203 L1587,481.3203 L1597,481.3203 L1587,471.3203 " fill="#FEFFDD" style="stroke:#181818;stroke-width:0.5;"/><text fill="#000000" font-family="sans-serif" font-size="13" lengthAdjust="spacing" textLength="229" x="1345" y="488.3872">&#8226; Wrap CRA(resp, Session ID=0xXX)</text><text fill="#000000" font-family="sans-serif" font-size="13" lengthAdjust="spacing" textLength="175" x="1345" y="503.52">&#8226; Start ACK-timer (200 ms)</text><polygon fill="#1E1E1E" points="1182.5,533.7188,1172.5,537.7188,1182.5,541.7188,1178.5,537.7188" style="stroke:#1E1E1E;stroke-width:1.0;"/><line style="stroke:#1E1E1E;stroke-width:1.0;" x1="1176.5" x2="1328.5" y1="537.7188" y2="537.7188"/><text fill="#000000" font-family="sans-serif" font-size="13" font-weight="bold" lengthAdjust="spacing" textLength="30" x="1188.5" y="532.6528">[10]</text><text fill="#000000" font-family="sans-serif" font-size="13" lengthAdjust="spacing" textLength="94" x="1222.5" y="532.6528">wrapCRA(resp)</text><path d="M1176,550.7188 L1176,575.7188 L1311,575.7188 L1311,560.7188 L1301,550.7188 L1176,550.7188 " fill="#FEFFDD" style="stroke:#181818;stroke-width:0.5;"/><path d="M1301,550.7188 L1301,560.7188 L1311,560.7188 L1301,550.7188 " fill="#FEFFDD" style="stroke:#181818;stroke-width:0.5;"/><text fill="#000000" font-family="sans-serif" font-size="13" lengthAdjust="spacing" textLength="114" x="1182" y="567.7856">&#8226; SLIP+CRC(resp)</text><polygon fill="#1E1E1E" points="959.5,597.9844,949.5,601.9844,959.5,605.9844,955.5,601.9844" style="stroke:#1E1E1E;stroke-width:1.0;"/><line style="stroke:#1E1E1E;stroke-width:1.0;" x1="953.5" x2="1165.5" y1="601.9844" y2="601.9844"/><text fill="#000000" font-family="sans-serif" font-size="13" font-weight="bold" lengthAdjust="spacing" textLength="30" x="965.5" y="596.9185">[11]</text><text fill="#000000" font-family="sans-serif" font-size="13" lengthAdjust="spacing" textLength="110" x="999.5" y="596.9185">sendFrame(resp)</text><polygon fill="#1E1E1E" points="731.5,627.1172,721.5,631.1172,731.5,635.1172,727.5,631.1172" style="stroke:#1E1E1E;stroke-width:1.0;"/><line style="stroke:#1E1E1E;stroke-width:1.0;" x1="725.5" x2="942.5" y1="631.1172" y2="631.1172"/><text fill="#000000" font-family="sans-serif" font-size="13" font-weight="bold" lengthAdjust="spacing" textLength="30" x="737.5" y="626.0513">[12]</text><text fill="#000000" font-family="sans-serif" font-size="13" lengthAdjust="spacing" textLength="115" x="771.5" y="626.0513">UART bytes (resp)</text><polygon fill="#1E1E1E" points="504.5,656.25,494.5,660.25,504.5,664.25,500.5,660.25" style="stroke:#1E1E1E;stroke-width:1.0;"/><line style="stroke:#1E1E1E;stroke-width:1.0;" x1="498.5" x2="714.5" y1="660.25" y2="660.25"/><text fill="#000000" font-family="sans-serif" font-size="13" font-weight="bold" lengthAdjust="spacing" textLength="30" x="510.5" y="655.1841">[13]</text><text fill="#000000" font-family="sans-serif" font-size="13" lengthAdjust="spacing" textLength="130" x="544.5" y="655.1841">deliverBytes() [resp]</text><path d="M498,673.25 L498,698.25 L677,698.25 L677,683.25 L667,673.25 L498,673.25 " fill="#FEFFDD" style="stroke:#181818;stroke-width:0.5;"/><path d="M667,673.25 L667,683.25 L677,683.25 L667,673.25 " fill="#FEFFDD" style="stroke:#181818;stroke-width:0.5;"/><text fill="#000000" font-family="sans-serif" font-size="13" lengthAdjust="spacing" textLength="158" x="504" y="690.3169">&#8226; Decode+CRC OK(resp)</text><polygon fill="#1E1E1E" points="332.5,720.5156,322.5,724.5156,332.5,728.5156,328.5,724.5156" style="stroke:#1E1E1E;stroke-width:1.0;"/><line style="stroke:#1E1E1E;stroke-width:1.0;" x1="326.5" x2="487.5" y1="724.5156" y2="724.5156"/><text fill="#000000" font-family="sans-serif" font-size="13" font-weight="bold" lengthAdjust="spacing" textLength="30" x="338.5" y="719.4497">[14]</text><text fill="#000000" font-family="sans-serif" font-size="13" lengthAdjust="spacing" textLength="109" x="372.5" y="719.4497">extractCRA(resp)</text><path d="M326,737.5156 L326,777.5156 L494,777.5156 L494,747.5156 L484,737.5156 L326,737.5156 " fill="#FEFFDD" style="stroke:#181818;stroke-width:0.5;"/><path d="M484,737.5156 L484,747.5156 L494,747.5156 L484,737.5156 " fill="#FEFFDD" style="stroke:#181818;stroke-width:0.5;"/><text fill="#000000" font-family="sans-serif" font-size="13" lengthAdjust="spacing" textLength="92" x="332" y="754.5825">&#8226; Parse status</text><text fill="#000000" font-family="sans-serif" font-size="13" lengthAdjust="spacing" textLength="147" x="332" y="769.7153">&#8226; Stop Response-timer</text><polygon fill="#1E1E1E" points="59.5,799.9141,49.5,803.9141,59.5,807.9141,55.5,803.9141" style="stroke:#1E1E1E;stroke-width:1.0;"/><line style="stroke:#1E1E1E;stroke-width:1.0;" x1="53.5" x2="315.5" y1="803.9141" y2="803.9141"/><text fill="#000000" font-family="sans-serif" font-size="13" font-weight="bold" lengthAdjust="spacing" textLength="30" x="65.5" y="798.8481">[15]</text><text fill="#000000" font-family="sans-serif" font-size="13" lengthAdjust="spacing" textLength="142" x="99.5" y="798.8481">deliverResponse(resp)</text><polygon fill="#1E1E1E" points="299.5,829.0469,309.5,833.0469,299.5,837.0469,303.5,833.0469" style="stroke:#1E1E1E;stroke-width:1.0;"/><line style="stroke:#1E1E1E;stroke-width:1.0;stroke-dasharray:2.0,2.0;" x1="43.5" x2="305.5" y1="833.0469" y2="833.0469"/><text fill="#000000" font-family="sans-serif" font-size="13" font-weight="bold" lengthAdjust="spacing" textLength="30" x="50.5" y="827.981">[16]</text><text fill="#000000" font-family="sans-serif" font-size="13" lengthAdjust="spacing" textLength="130" x="84.5" y="827.981">sendACK() [for resp]</text><path d="M326,846.0469 L326,871.0469 L657,871.0469 L657,856.0469 L647,846.0469 L326,846.0469 " fill="#FEFFDD" style="stroke:#181818;stroke-width:0.5;"/><path d="M647,846.0469 L647,856.0469 L657,856.0469 L647,846.0469 " fill="#FEFFDD" style="stroke:#181818;stroke-width:0.5;"/><text fill="#000000" font-family="sans-serif" font-size="13" lengthAdjust="spacing" textLength="310" x="332" y="863.1138">&#8226; Wrap CRA(ACK, Session ID=0xXX, Flags=0x08)</text><polygon fill="#1E1E1E" points="471.5,893.3125,481.5,897.3125,471.5,901.3125,475.5,897.3125" style="stroke:#1E1E1E;stroke-width:1.0;"/><line style="stroke:#1E1E1E;stroke-width:1.0;" x1="316.5" x2="477.5" y1="897.3125" y2="897.3125"/><text fill="#000000" font-family="sans-serif" font-size="13" font-weight="bold" lengthAdjust="spacing" textLength="30" x="323.5" y="892.2466">[17]</text><text fill="#000000" font-family="sans-serif" font-size="13" lengthAdjust="spacing" textLength="92" x="357.5" y="892.2466">wrapCRA(ACK)</text><path d="M498,910.3125 L498,935.3125 L634,935.3125 L634,920.3125 L624,910.3125 L498,910.3125 " fill="#FEFFDD" style="stroke:#181818;stroke-width:0.5;"/><path d="M624,910.3125 L624,920.3125 L634,920.3125 L624,910.3125 " fill="#FEFFDD" style="stroke:#181818;stroke-width:0.5;"/><text fill="#000000" font-family="sans-serif" font-size="13" lengthAdjust="spacing" textLength="115" x="504" y="927.3794">&#8226; Build ACK frame</text><polygon fill="#1E1E1E" points="332.5,957.5781,322.5,961.5781,332.5,965.5781,328.5,961.5781" style="stroke:#1E1E1E;stroke-width:1.0;"/><line style="stroke:#1E1E1E;stroke-width:1.0;stroke-dasharray:2.0,2.0;" x1="326.5" x2="487.5" y1="961.5781" y2="961.5781"/><text fill="#000000" font-family="sans-serif" font-size="13" font-weight="bold" lengthAdjust="spacing" textLength="30" x="338.5" y="956.5122">[18]</text><text fill="#000000" font-family="sans-serif" font-size="13" lengthAdjust="spacing" textLength="71" x="372.5" y="956.5122">ACK_frame</text><polygon fill="#1E1E1E" points="698.5,986.7109,708.5,990.7109,698.5,994.7109,702.5,990.7109" style="stroke:#1E1E1E;stroke-width:1.0;"/><line style="stroke:#1E1E1E;stroke-width:1.0;" x1="316.5" x2="704.5" y1="990.7109" y2="990.7109"/><text fill="#000000" font-family="sans-serif" font-size="13" font-weight="bold" lengthAdjust="spacing" textLength="30" x="323.5" y="985.645">[19]</text><text fill="#000000" font-family="sans-serif" font-size="13" lengthAdjust="spacing" textLength="153" x="357.5" y="985.645">sendFrame(ACK_frame)</text><line style="stroke:#1E1E1E;stroke-width:2.0;" x1="925.5" x2="935.5" y1="1014.8438" y2="1024.8438"/><line style="stroke:#1E1E1E;stroke-width:2.0;" x1="925.5" x2="935.5" y1="1024.8438" y2="1014.8438"/><line style="stroke:#1E1E1E;stroke-width:1.0;" x1="715.5" x2="930.5" y1="1019.8438" y2="1019.8438"/><text fill="#000000" font-family="sans-serif" font-size="13" font-weight="bold" lengthAdjust="spacing" textLength="30" x="722.5" y="1014.7778">[20]</text><text fill="#000000" font-family="sans-serif" font-size="13" lengthAdjust="spacing" textLength="113" x="756.5" y="1014.7778">UART bytes (ACK)</text><text fill="#FF0000" font-family="sans-serif" font-size="13" lengthAdjust="spacing" textLength="35" x="873.5" y="1014.7778">X lost</text><path d="M1176,1032.8438 L1176,1072.8438 L1465,1072.8438 L1465,1042.8438 L1455,1032.8438 L1176,1032.8438 " fill="#FEFFDD" style="stroke:#181818;stroke-width:0.5;"/><path d="M1455,1032.8438 L1455,1042.8438 L1465,1042.8438 L1455,1032.8438 " fill="#FEFFDD" style="stroke:#181818;stroke-width:0.5;"/><text fill="#000000" font-family="sans-serif" font-size="13" lengthAdjust="spacing" textLength="189" x="1182" y="1049.9106">&#8226; ACK-timer expires (200 ms)</text><text fill="#000000" font-family="sans-serif" font-size="13" lengthAdjust="spacing" textLength="268" x="1182" y="1065.0435">&#8226; Retransmit response (Session ID=0xXX)</text><polygon fill="#1E1E1E" points="959.5,1095.2422,949.5,1099.2422,959.5,1103.2422,955.5,1099.2422" style="stroke:#1E1E1E;stroke-width:1.0;"/><line style="stroke:#1E1E1E;stroke-width:1.0;" x1="953.5" x2="1165.5" y1="1099.2422" y2="1099.2422"/><text fill="#000000" font-family="sans-serif" font-size="13" font-weight="bold" lengthAdjust="spacing" textLength="30" x="965.5" y="1094.1763">[21]</text><text fill="#000000" font-family="sans-serif" font-size="13" lengthAdjust="spacing" textLength="160" x="999.5" y="1094.1763">sendFrame(resp) &#171;retry&#187;</text><polygon fill="#1E1E1E" points="731.5,1124.375,721.5,1128.375,731.5,1132.375,727.5,1128.375" style="stroke:#1E1E1E;stroke-width:1.0;"/><line style="stroke:#1E1E1E;stroke-width:1.0;" x1="725.5" x2="942.5" y1="1128.375" y2="1128.375"/><text fill="#000000" font-family="sans-serif" font-size="13" font-weight="bold" lengthAdjust="spacing" textLength="30" x="737.5" y="1123.3091">[22]</text><text fill="#000000" font-family="sans-serif" font-size="13" lengthAdjust="spacing" textLength="165" x="771.5" y="1123.3091">UART bytes (resp) &#171;retry&#187;</text><polygon fill="#1E1E1E" points="504.5,1153.5078,494.5,1157.5078,504.5,1161.5078,500.5,1157.5078" style="stroke:#1E1E1E;stroke-width:1.0;"/><line style="stroke:#1E1E1E;stroke-width:1.0;" x1="498.5" x2="714.5" y1="1157.5078" y2="1157.5078"/><text fill="#000000" font-family="sans-serif" font-size="13" font-weight="bold" lengthAdjust="spacing" textLength="30" x="510.5" y="1152.4419">[23]</text><text fill="#000000" font-family="sans-serif" font-size="13" lengthAdjust="spacing" textLength="164" x="544.5" y="1152.4419">deliverBytes() [resp retry]</text><path d="M498,1170.5078 L498,1195.5078 L677,1195.5078 L677,1180.5078 L667,1170.5078 L498,1170.5078 " fill="#FEFFDD" style="stroke:#181818;stroke-width:0.5;"/><path d="M667,1170.5078 L667,1180.5078 L677,1180.5078 L667,1170.5078 " fill="#FEFFDD" style="stroke:#181818;stroke-width:0.5;"/><text fill="#000000" font-family="sans-serif" font-size="13" lengthAdjust="spacing" textLength="158" x="504" y="1187.5747">&#8226; Decode+CRC OK(resp)</text><polygon fill="#1E1E1E" points="332.5,1217.7734,322.5,1221.7734,332.5,1225.7734,328.5,1221.7734" style="stroke:#1E1E1E;stroke-width:1.0;"/><line style="stroke:#1E1E1E;stroke-width:1.0;" x1="326.5" x2="487.5" y1="1221.7734" y2="1221.7734"/><text fill="#000000" font-family="sans-serif" font-size="13" font-weight="bold" lengthAdjust="spacing" textLength="30" x="338.5" y="1216.7075">[24]</text><text fill="#000000" font-family="sans-serif" font-size="13" lengthAdjust="spacing" textLength="109" x="372.5" y="1216.7075">extractCRA(resp)</text><path d="M326,1234.7734 L326,1274.7734 L595,1274.7734 L595,1244.7734 L585,1234.7734 L326,1234.7734 " fill="#FEFFDD" style="stroke:#181818;stroke-width:0.5;"/><path d="M585,1234.7734 L585,1244.7734 L595,1244.7734 L585,1234.7734 " fill="#FEFFDD" style="stroke:#181818;stroke-width:0.5;"/><text fill="#000000" font-family="sans-serif" font-size="13" lengthAdjust="spacing" textLength="240" x="332" y="1251.8403">&#8226; Detect duplicate (Session ID=0xXX)</text><text fill="#000000" font-family="sans-serif" font-size="13" lengthAdjust="spacing" textLength="197" x="332" y="1266.9731">&#8226; Ignore response, resend ACK</text><polygon fill="#1E1E1E" points="59.5,1297.1719,49.5,1301.1719,59.5,1305.1719,55.5,1301.1719" style="stroke:#1E1E1E;stroke-width:1.0;"/><line style="stroke:#1E1E1E;stroke-width:1.0;" x1="53.5" x2="315.5" y1="1301.1719" y2="1301.1719"/><text fill="#000000" font-family="sans-serif" font-size="13" font-weight="bold" lengthAdjust="spacing" textLength="30" x="65.5" y="1296.106">[25]</text><text fill="#000000" font-family="sans-serif" font-size="13" lengthAdjust="spacing" textLength="210" x="99.5" y="1296.106">deliverResponse(resp) &#171;ignored&#187;</text><polygon fill="#1E1E1E" points="299.5,1326.3047,309.5,1330.3047,299.5,1334.3047,303.5,1330.3047" style="stroke:#1E1E1E;stroke-width:1.0;"/><line style="stroke:#1E1E1E;stroke-width:1.0;stroke-dasharray:2.0,2.0;" x1="43.5" x2="305.5" y1="1330.3047" y2="1330.3047"/><text fill="#000000" font-family="sans-serif" font-size="13" font-weight="bold" lengthAdjust="spacing" textLength="30" x="50.5" y="1325.2388">[26]</text><text fill="#000000" font-family="sans-serif" font-size="13" lengthAdjust="spacing" textLength="164" x="84.5" y="1325.2388">sendACK() [for resp retry]</text><path d="M326,1343.3047 L326,1368.3047 L657,1368.3047 L657,1353.3047 L647,1343.3047 L326,1343.3047 " fill="#FEFFDD" style="stroke:#181818;stroke-width:0.5;"/><path d="M647,1343.3047 L647,1353.3047 L657,1353.3047 L647,1343.3047 " fill="#FEFFDD" style="stroke:#181818;stroke-width:0.5;"/><text fill="#000000" font-family="sans-serif" font-size="13" lengthAdjust="spacing" textLength="310" x="332" y="1360.3716">&#8226; Wrap CRA(ACK, Session ID=0xXX, Flags=0x08)</text><polygon fill="#1E1E1E" points="471.5,1390.5703,481.5,1394.5703,471.5,1398.5703,475.5,1394.5703" style="stroke:#1E1E1E;stroke-width:1.0;"/><line style="stroke:#1E1E1E;stroke-width:1.0;" x1="316.5" x2="477.5" y1="1394.5703" y2="1394.5703"/><text fill="#000000" font-family="sans-serif" font-size="13" font-weight="bold" lengthAdjust="spacing" textLength="30" x="323.5" y="1389.5044">[27]</text><text fill="#000000" font-family="sans-serif" font-size="13" lengthAdjust="spacing" textLength="92" x="357.5" y="1389.5044">wrapCRA(ACK)</text><path d="M498,1407.5703 L498,1432.5703 L634,1432.5703 L634,1417.5703 L624,1407.5703 L498,1407.5703 " fill="#FEFFDD" style="stroke:#181818;stroke-width:0.5;"/><path d="M624,1407.5703 L624,1417.5703 L634,1417.5703 L624,1407.5703 " fill="#FEFFDD" style="stroke:#181818;stroke-width:0.5;"/><text fill="#000000" font-family="sans-serif" font-size="13" lengthAdjust="spacing" textLength="115" x="504" y="1424.6372">&#8226; Build ACK frame</text><polygon fill="#1E1E1E" points="332.5,1454.8359,322.5,1458.8359,332.5,1462.8359,328.5,1458.8359" style="stroke:#1E1E1E;stroke-width:1.0;"/><line style="stroke:#1E1E1E;stroke-width:1.0;stroke-dasharray:2.0,2.0;" x1="326.5" x2="487.5" y1="1458.8359" y2="1458.8359"/><text fill="#000000" font-family="sans-serif" font-size="13" font-weight="bold" lengthAdjust="spacing" textLength="30" x="338.5" y="1453.77">[28]</text><text fill="#000000" font-family="sans-serif" font-size="13" lengthAdjust="spacing" textLength="71" x="372.5" y="1453.77">ACK_frame</text><polygon fill="#1E1E1E" points="698.5,1483.9688,708.5,1487.9688,698.5,1491.9688,702.5,1487.9688" style="stroke:#1E1E1E;stroke-width:1.0;"/><line style="stroke:#1E1E1E;stroke-width:1.0;" x1="316.5" x2="704.5" y1="1487.9688" y2="1487.9688"/><text fill="#000000" font-family="sans-serif" font-size="13" font-weight="bold" lengthAdjust="spacing" textLength="30" x="323.5" y="1482.9028">[29]</text><text fill="#000000" font-family="sans-serif" font-size="13" lengthAdjust="spacing" textLength="153" x="357.5" y="1482.9028">sendFrame(ACK_frame)</text><polygon fill="#1E1E1E" points="926.5,1513.1016,936.5,1517.1016,926.5,1521.1016,930.5,1517.1016" style="stroke:#1E1E1E;stroke-width:1.0;"/><line style="stroke:#1E1E1E;stroke-width:1.0;" x1="715.5" x2="932.5" y1="1517.1016" y2="1517.1016"/><text fill="#000000" font-family="sans-serif" font-size="13" font-weight="bold" lengthAdjust="spacing" textLength="30" x="722.5" y="1512.0356">[30]</text><text fill="#000000" font-family="sans-serif" font-size="13" lengthAdjust="spacing" textLength="113" x="756.5" y="1512.0356">UART bytes (ACK)</text><polygon fill="#1E1E1E" points="1149.5,1542.2344,1159.5,1546.2344,1149.5,1550.2344,1153.5,1546.2344" style="stroke:#1E1E1E;stroke-width:1.0;"/><line style="stroke:#1E1E1E;stroke-width:1.0;" x1="943.5" x2="1155.5" y1="1546.2344" y2="1546.2344"/><text fill="#000000" font-family="sans-serif" font-size="13" font-weight="bold" lengthAdjust="spacing" textLength="30" x="950.5" y="1541.1685">[31]</text><text fill="#000000" font-family="sans-serif" font-size="13" lengthAdjust="spacing" textLength="128" x="984.5" y="1541.1685">deliverBytes() [ACK]</text><path d="M1176,1559.2344 L1176,1599.2344 L1445,1599.2344 L1445,1569.2344 L1435,1559.2344 L1176,1559.2344 " fill="#FEFFDD" style="stroke:#181818;stroke-width:0.5;"/><path d="M1435,1559.2344 L1435,1569.2344 L1445,1569.2344 L1435,1559.2344 " fill="#FEFFDD" style="stroke:#181818;stroke-width:0.5;"/><text fill="#000000" font-family="sans-serif" font-size="13" lengthAdjust="spacing" textLength="240" x="1182" y="1576.3013">&#8226; Extract CRA(ACK, Session ID=0xXX)</text><text fill="#000000" font-family="sans-serif" font-size="13" lengthAdjust="spacing" textLength="111" x="1182" y="1591.4341">&#8226; Stop ACK-timer</text><!--SRC=[xLVBRjj65DtpAowKXINNGYIdITh05K2JDMH4HGcPRLq4Ha6H8sKGyP6POMoZAE2FwARRRli9tULJ_2Mzm-SCHIgAO1TTL3PWWJntxklSSyS7zx_VFSWl_4Xvwgs14o5ejEBmK0SR_1sD4ezv8JWU4zIdYHS9nmi2T0FZun4SA92aXi2l1k3drFFVhLYSHe4LhsC6JqRFdxruESxVnImWB7ykFq_6HFvaxyxYIDHl0AxVKa6CtnHVdBnFIUIJmf79M7ojMjGVzTmPNP8PZKZJTnUi4Rw4BPTVByT-1bDAiYqP5RQb7WgiAtr3KB4cS7XuUk70HLc18LnWD_2v5OUX5mLWMg_XEyhvuQ5Xg3tfJMCkm4oINbKSZyFKR05POG0pxvQmNW6oMa2sEzD1TWl8cVwiWnmTv7fiHJGOWjnsaE9GWknMa1Aw15cj8AK84cGQXfUAE4h31M7GErbCteokJfuk9Zt3EAZ7R3o0B2TEee231polkr_K_Q6chZc4dY_e1qyGsQgf2SC9jWDUPL4KBU_xOJ0m0g8Y5JFBY6Byo-ZghO1uAHy0tD_z2MSuIiYRkPaT050ylX1OCfWJdiGH9qD1GwnA_tWqWf0F37GByZm3ev2ns1ZBDVEIyXWj3akDmsx6OPSEP-VE5zRSokrh1pOCospnz5-MCbpjU5jFiuZ8AQgJfTUlBBT4vXXeXAQkDFt1dBkmk1M4GvUne_7YU005hn8M-uHpj9I4O5a50mwFHGYS4pUFMpOX86lwWR1J6Nb_06ymzYirQaGhfirck6KpREB70P7jWEzVDpg2VgGtsH1o8nYUrjPrLsqBJg2RjSKrwnYxUEkgNS6nH9jXwL1sjEHaNvPMjpHrdutaIiR_X4JD22yFE48HvPp64PpRtunkBY-R8u1Asid-8YcL_Pj1MJjLlA9_Va2psZgTDvrerIuPCMqoUTDE9_6pGjng2hEYs8ybR6qALmxYj8tGCg2hvXpk82ywenj5djgLeYgKtgXMKsew51MtE1QC2q-aN25Jd3JaT4D5bU7e9haKBQLbNshx2Cbw18jK01NtTtzmMCjNZxoAr5s4_cMJbdXjsMpKRlkeciuibyPm7i7Psbjn_3xwQliMGkjzjj1fIjVvxIbVDArx25_lkOSgoq_kePlDFIHJWXDVNWfVCH9CBhFsdZpDdaosxARdrMwIlECG8q7otOHSZtX8nLw3lekirUf9RXBAP1g5YbQJCQ-Yg8FeDqLv5q64Zt_9Z6u__hslD7QSe5VpHOj8bXa84Zo0P7wE5cRER__ZYcWJGNm1GPgigI-X_SwbUxwAOaQg8Xx9RoJ_XsPtlSG-qkoSGE-aFcYVbA-sslulOfyXOfDs4TiYLIzRhj7wUCcq_gNBCxhQv_ByRJumdVqVw9U2IYBhFkdozGy0]--></g></svg>