<?xml version="1.0" encoding="us-ascii" standalone="no"?><svg xmlns="http://www.w3.org/2000/svg" xmlns:xlink="http://www.w3.org/1999/xlink" contentStyleType="text/css" height="1552px" preserveAspectRatio="none" style="width:1496px;height:1552px;background:#FFFFFF;" version="1.1" viewBox="0 0 1496 1552" width="1496px" zoomAndPan="magnify"><defs/><g><text fill="#000000" font-family="sans-serif" font-size="14" font-weight="bold" lengthAdjust="spacing" textLength="377" x="558.75" y="27.9951">BSP Sequence - Single Command Duplicate ACK</text><rect fill="#FF9F1C" height="21.1328" style="stroke:#1E1E1E;stroke-width:1.0;" width="10" x="38.5" y="83.5938"/><rect fill="#FF9F1C" height="29.1328" style="stroke:#1E1E1E;stroke-width:1.0;" width="10" x="38.5" y="834.1797"/><rect fill="#FF9F1C" height="29.1328" style="stroke:#1E1E1E;stroke-width:1.0;" width="10" x="38.5" y="1188.9063"/><rect fill="#FF9F1C" height="79.3984" style="stroke:#1E1E1E;stroke-width:1.0;" width="10" x="246.5" y="104.7266"/><rect fill="#FF9F1C" height="29.1328" style="stroke:#1E1E1E;stroke-width:1.0;" width="10" x="246.5" y="248.3906"/><rect fill="#FF9F1C" height="79.3984" style="stroke:#1E1E1E;stroke-width:1.0;" width="10" x="246.5" y="754.7813"/><rect fill="#FF9F1C" height="94.5313" style="stroke:#1E1E1E;stroke-width:1.0;" width="10" x="246.5" y="863.3125"/><rect fill="#FF9F1C" height="29.1328" style="stroke:#1E1E1E;stroke-width:1.0;" width="10" x="246.5" y="1022.1094"/><rect fill="#FF9F1C" height="79.3984" style="stroke:#1E1E1E;stroke-width:1.0;" width="10" x="246.5" y="1218.0391"/><rect fill="#FF9F1C" height="29.1328" style="stroke:#1E1E1E;stroke-width:1.0;" width="10" x="246.5" y="1361.7031"/><rect fill="#FF9F1C" height="64.2656" style="stroke:#1E1E1E;stroke-width:1.0;" width="10" x="418.5" y="184.125"/><rect fill="#FF9F1C" height="79.3984" style="stroke:#1E1E1E;stroke-width:1.0;" width="10" x="418.5" y="675.3828"/><rect fill="#FF9F1C" height="64.2656" style="stroke:#1E1E1E;stroke-width:1.0;" width="10" x="418.5" y="957.8438"/><rect fill="#FF9F1C" height="64.2656" style="stroke:#1E1E1E;stroke-width:1.0;" width="10" x="418.5" y="1297.4375"/><rect fill="#FF9F1C" height="29.1328" style="stroke:#1E1E1E;stroke-width:1.0;" width="10" x="569.5" y="277.5234"/><rect fill="#FF9F1C" height="29.1328" style="stroke:#1E1E1E;stroke-width:1.0;" width="10" x="569.5" y="646.25"/><rect fill="#FF9F1C" height="29.1328" style="stroke:#1E1E1E;stroke-width:1.0;" width="10" x="569.5" y="1051.2422"/><rect fill="#FF9F1C" height="29.1328" style="stroke:#1E1E1E;stroke-width:1.0;" width="10" x="569.5" y="1390.8359"/><rect fill="#FF9F1C" height="29.1328" style="stroke:#1E1E1E;stroke-width:1.0;" width="10" x="823.5" y="306.6563"/><rect fill="#FF9F1C" height="29.1328" style="stroke:#1E1E1E;stroke-width:1.0;" width="10" x="823.5" y="617.1172"/><rect fill="#FF9F1C" height="29.1328" style="stroke:#1E1E1E;stroke-width:1.0;" width="10" x="823.5" y="1080.375"/><rect fill="#FF9F1C" height="29.1328" style="stroke:#1E1E1E;stroke-width:1.0;" width="10" x="823.5" y="1419.9688"/><rect fill="#FF9F1C" height="79.3984" style="stroke:#1E1E1E;stroke-width:1.0;" width="10" x="1076.5" y="335.7891"/><rect fill="#FF9F1C" height="64.2656" style="stroke:#1E1E1E;stroke-width:1.0;" width="10" x="1076.5" y="552.8516"/><rect fill="#FF9F1C" height="79.3984" style="stroke:#1E1E1E;stroke-width:1.0;" width="10" x="1076.5" y="1109.5078"/><rect fill="#FF9F1C" height="59.2656" style="stroke:#1E1E1E;stroke-width:1.0;" width="10" x="1076.5" y="1449.1016"/><rect fill="#FF9F1C" height="29.1328" style="stroke:#1E1E1E;stroke-width:1.0;" width="10" x="1239.5" y="415.1875"/><rect fill="#FF9F1C" height="79.3984" style="stroke:#1E1E1E;stroke-width:1.0;" width="10" x="1239.5" y="473.4531"/><rect fill="#FF9F1C" height="29.1328" style="stroke:#1E1E1E;stroke-width:1.0;" width="10" x="1440.5" y="444.3203"/><line style="stroke:#1E1E1E;stroke-width:0.5;stroke-dasharray:5.0,5.0;" x1="43" x2="43" y1="73.5938" y2="1517.3672"/><line style="stroke:#1E1E1E;stroke-width:0.5;stroke-dasharray:5.0,5.0;" x1="251.5" x2="251.5" y1="73.5938" y2="1517.3672"/><line style="stroke:#1E1E1E;stroke-width:0.5;stroke-dasharray:5.0,5.0;" x1="423" x2="423" y1="73.5938" y2="1517.3672"/><line style="stroke:#1E1E1E;stroke-width:0.5;stroke-dasharray:5.0,5.0;" x1="574.5" x2="574.5" y1="73.5938" y2="1517.3672"/><line style="stroke:#1E1E1E;stroke-width:0.5;stroke-dasharray:5.0,5.0;" x1="828" x2="828" y1="73.5938" y2="1517.3672"/><line style="stroke:#1E1E1E;stroke-width:0.5;stroke-dasharray:5.0,5.0;" x1="1081.5" x2="1081.5" y1="73.5938" y2="1517.3672"/><line style="stroke:#1E1E1E;stroke-width:0.5;stroke-dasharray:5.0,5.0;" x1="1244" x2="1244" y1="73.5938" y2="1517.3672"/><line style="stroke:#1E1E1E;stroke-width:0.5;stroke-dasharray:5.0,5.0;" x1="1445.5" x2="1445.5" y1="73.5938" y2="1517.3672"/><rect fill="#053671" height="30.2969" rx="2.5" ry="2.5" style="stroke:#1E1E1E;stroke-width:0.5;" width="77" x="5" y="42.2969"/><text fill="#FFFFFF" font-family="sans-serif" font-size="14" lengthAdjust="spacing" textLength="63" x="12" y="62.292">Host App</text><rect fill="#053671" height="30.2969" rx="2.5" ry="2.5" style="stroke:#1E1E1E;stroke-width:0.5;" width="77" x="5" y="1516.3672"/><text fill="#FFFFFF" font-family="sans-serif" font-size="14" lengthAdjust="spacing" textLength="63" x="12" y="1536.3623">Host App</text><rect fill="#053671" height="30.2969" rx="2.5" ry="2.5" style="stroke:#1E1E1E;stroke-width:0.5;" width="122" x="190.5" y="42.2969"/><text fill="#FFFFFF" font-family="sans-serif" font-size="14" lengthAdjust="spacing" textLength="108" x="197.5" y="62.292">Host Cmd Layer</text><rect fill="#053671" height="30.2969" rx="2.5" ry="2.5" style="stroke:#1E1E1E;stroke-width:0.5;" width="122" x="190.5" y="1516.3672"/><text fill="#FFFFFF" font-family="sans-serif" font-size="14" lengthAdjust="spacing" textLength="108" x="197.5" y="1536.3623">Host Cmd Layer</text><rect fill="#053671" height="30.2969" rx="2.5" ry="2.5" style="stroke:#1E1E1E;stroke-width:0.5;" width="117" x="365" y="42.2969"/><text fill="#FFFFFF" font-family="sans-serif" font-size="14" lengthAdjust="spacing" textLength="103" x="372" y="62.292">Host DTL Layer</text><rect fill="#053671" height="30.2969" rx="2.5" ry="2.5" style="stroke:#1E1E1E;stroke-width:0.5;" width="117" x="365" y="1516.3672"/><text fill="#FFFFFF" font-family="sans-serif" font-size="14" lengthAdjust="spacing" textLength="103" x="372" y="1536.3623">Host DTL Layer</text><rect fill="#053671" height="30.2969" rx="2.5" ry="2.5" style="stroke:#1E1E1E;stroke-width:0.5;" width="118" x="515.5" y="42.2969"/><text fill="#FFFFFF" font-family="sans-serif" font-size="14" lengthAdjust="spacing" textLength="104" x="522.5" y="62.292">Host PHY Layer</text><rect fill="#053671" height="30.2969" rx="2.5" ry="2.5" style="stroke:#1E1E1E;stroke-width:0.5;" width="118" x="515.5" y="1516.3672"/><text fill="#FFFFFF" font-family="sans-serif" font-size="14" lengthAdjust="spacing" textLength="104" x="522.5" y="1536.3623">Host PHY Layer</text><rect fill="#053671" height="30.2969" rx="2.5" ry="2.5" style="stroke:#1E1E1E;stroke-width:0.5;" width="131" x="763" y="42.2969"/><text fill="#FFFFFF" font-family="sans-serif" font-size="14" lengthAdjust="spacing" textLength="117" x="770" y="62.292">Target PHY Layer</text><rect fill="#053671" height="30.2969" rx="2.5" ry="2.5" style="stroke:#1E1E1E;stroke-width:0.5;" width="131" x="763" y="1516.3672"/><text fill="#FFFFFF" font-family="sans-serif" font-size="14" lengthAdjust="spacing" textLength="117" x="770" y="1536.3623">Target PHY Layer</text><rect fill="#053671" height="30.2969" rx="2.5" ry="2.5" style="stroke:#1E1E1E;stroke-width:0.5;" width="130" x="1016.5" y="42.2969"/><text fill="#FFFFFF" font-family="sans-serif" font-size="14" lengthAdjust="spacing" textLength="116" x="1023.5" y="62.292">Target DTL Layer</text><rect fill="#053671" height="30.2969" rx="2.5" ry="2.5" style="stroke:#1E1E1E;stroke-width:0.5;" width="130" x="1016.5" y="1516.3672"/><text fill="#FFFFFF" font-family="sans-serif" font-size="14" lengthAdjust="spacing" textLength="116" x="1023.5" y="1536.3623">Target DTL Layer</text><rect fill="#053671" height="30.2969" rx="2.5" ry="2.5" style="stroke:#1E1E1E;stroke-width:0.5;" width="135" x="1177" y="42.2969"/><text fill="#FFFFFF" font-family="sans-serif" font-size="14" lengthAdjust="spacing" textLength="121" x="1184" y="62.292">Target Cmd Layer</text><rect fill="#053671" height="30.2969" rx="2.5" ry="2.5" style="stroke:#1E1E1E;stroke-width:0.5;" width="135" x="1177" y="1516.3672"/><text fill="#FFFFFF" font-family="sans-serif" font-size="14" lengthAdjust="spacing" textLength="121" x="1184" y="1536.3623">Target Cmd Layer</text><rect fill="#053671" height="30.2969" rx="2.5" ry="2.5" style="stroke:#1E1E1E;stroke-width:0.5;" width="90" x="1400.5" y="42.2969"/><text fill="#FFFFFF" font-family="sans-serif" font-size="14" lengthAdjust="spacing" textLength="76" x="1407.5" y="62.292">Target App</text><rect fill="#053671" height="30.2969" rx="2.5" ry="2.5" style="stroke:#1E1E1E;stroke-width:0.5;" width="90" x="1400.5" y="1516.3672"/><text fill="#FFFFFF" font-family="sans-serif" font-size="14" lengthAdjust="spacing" textLength="76" x="1407.5" y="1536.3623">Target App</text><rect fill="#FF9F1C" height="21.1328" style="stroke:#1E1E1E;stroke-width:1.0;" width="10" x="38.5" y="83.5938"/><rect fill="#FF9F1C" height="29.1328" style="stroke:#1E1E1E;stroke-width:1.0;" width="10" x="38.5" y="834.1797"/><rect fill="#FF9F1C" height="29.1328" style="stroke:#1E1E1E;stroke-width:1.0;" width="10" x="38.5" y="1188.9063"/><rect fill="#FF9F1C" height="79.3984" style="stroke:#1E1E1E;stroke-width:1.0;" width="10" x="246.5" y="104.7266"/><rect fill="#FF9F1C" height="29.1328" style="stroke:#1E1E1E;stroke-width:1.0;" width="10" x="246.5" y="248.3906"/><rect fill="#FF9F1C" height="79.3984" style="stroke:#1E1E1E;stroke-width:1.0;" width="10" x="246.5" y="754.7813"/><rect fill="#FF9F1C" height="94.5313" style="stroke:#1E1E1E;stroke-width:1.0;" width="10" x="246.5" y="863.3125"/><rect fill="#FF9F1C" height="29.1328" style="stroke:#1E1E1E;stroke-width:1.0;" width="10" x="246.5" y="1022.1094"/><rect fill="#FF9F1C" height="79.3984" style="stroke:#1E1E1E;stroke-width:1.0;" width="10" x="246.5" y="1218.0391"/><rect fill="#FF9F1C" height="29.1328" style="stroke:#1E1E1E;stroke-width:1.0;" width="10" x="246.5" y="1361.7031"/><rect fill="#FF9F1C" height="64.2656" style="stroke:#1E1E1E;stroke-width:1.0;" width="10" x="418.5" y="184.125"/><rect fill="#FF9F1C" height="79.3984" style="stroke:#1E1E1E;stroke-width:1.0;" width="10" x="418.5" y="675.3828"/><rect fill="#FF9F1C" height="64.2656" style="stroke:#1E1E1E;stroke-width:1.0;" width="10" x="418.5" y="957.8438"/><rect fill="#FF9F1C" height="64.2656" style="stroke:#1E1E1E;stroke-width:1.0;" width="10" x="418.5" y="1297.4375"/><rect fill="#FF9F1C" height="29.1328" style="stroke:#1E1E1E;stroke-width:1.0;" width="10" x="569.5" y="277.5234"/><rect fill="#FF9F1C" height="29.1328" style="stroke:#1E1E1E;stroke-width:1.0;" width="10" x="569.5" y="646.25"/><rect fill="#FF9F1C" height="29.1328" style="stroke:#1E1E1E;stroke-width:1.0;" width="10" x="569.5" y="1051.2422"/><rect fill="#FF9F1C" height="29.1328" style="stroke:#1E1E1E;stroke-width:1.0;" width="10" x="569.5" y="1390.8359"/><rect fill="#FF9F1C" height="29.1328" style="stroke:#1E1E1E;stroke-width:1.0;" width="10" x="823.5" y="306.6563"/><rect fill="#FF9F1C" height="29.1328" style="stroke:#1E1E1E;stroke-width:1.0;" width="10" x="823.5" y="617.1172"/><rect fill="#FF9F1C" height="29.1328" style="stroke:#1E1E1E;stroke-width:1.0;" width="10" x="823.5" y="1080.375"/><rect fill="#FF9F1C" height="29.1328" style="stroke:#1E1E1E;stroke-width:1.0;" width="10" x="823.5" y="1419.9688"/><rect fill="#FF9F1C" height="79.3984" style="stroke:#1E1E1E;stroke-width:1.0;" width="10" x="1076.5" y="335.7891"/><rect fill="#FF9F1C" height="64.2656" style="stroke:#1E1E1E;stroke-width:1.0;" width="10" x="1076.5" y="552.8516"/><rect fill="#FF9F1C" height="79.3984" style="stroke:#1E1E1E;stroke-width:1.0;" width="10" x="1076.5" y="1109.5078"/><rect fill="#FF9F1C" height="59.2656" style="stroke:#1E1E1E;stroke-width:1.0;" width="10" x="1076.5" y="1449.1016"/><rect fill="#FF9F1C" height="29.1328" style="stroke:#1E1E1E;stroke-width:1.0;" width="10" x="1239.5" y="415.1875"/><rect fill="#FF9F1C" height="79.3984" style="stroke:#1E1E1E;stroke-width:1.0;" width="10" x="1239.5" y="473.4531"/><rect fill="#FF9F1C" height="29.1328" style="stroke:#1E1E1E;stroke-width:1.0;" width="10" x="1440.5" y="444.3203"/><polygon fill="#1E1E1E" points="234.5,100.7266,244.5,104.7266,234.5,108.7266,238.5,104.7266" style="stroke:#1E1E1E;stroke-width:1.0;"/><line style="stroke:#1E1E1E;stroke-width:1.0;" x1="43.5" x2="240.5" y1="104.7266" y2="104.7266"/><text fill="#000000" font-family="sans-serif" font-size="13" font-weight="bold" lengthAdjust="spacing" textLength="21" x="50.5" y="99.6606">[1]</text><text fill="#000000" font-family="sans-serif" font-size="13" lengthAdjust="spacing" textLength="136" x="75.5" y="99.6606">sendCommand(cmd)</text><path d="M261,117.7266 L261,157.7266 L491,157.7266 L491,127.7266 L481,117.7266 L261,117.7266 " fill="#FEFFDD" style="stroke:#181818;stroke-width:0.5;"/><path d="M481,117.7266 L481,127.7266 L491,127.7266 L481,117.7266 " fill="#FEFFDD" style="stroke:#181818;stroke-width:0.5;"/><text fill="#000000" font-family="sans-serif" font-size="13" lengthAdjust="spacing" textLength="118" x="267" y="134.7935">&#8226; frame CRA(cmd)</text><text fill="#000000" font-family="sans-serif" font-size="13" lengthAdjust="spacing" textLength="209" x="267" y="149.9263">&#8226; start Response-timer (200 ms)</text><polygon fill="#1E1E1E" points="406.5,180.125,416.5,184.125,406.5,188.125,410.5,184.125" style="stroke:#1E1E1E;stroke-width:1.0;"/><line style="stroke:#1E1E1E;stroke-width:1.0;" x1="251.5" x2="412.5" y1="184.125" y2="184.125"/><text fill="#000000" font-family="sans-serif" font-size="13" font-weight="bold" lengthAdjust="spacing" textLength="21" x="258.5" y="179.0591">[2]</text><text fill="#000000" font-family="sans-serif" font-size="13" lengthAdjust="spacing" textLength="94" x="283.5" y="179.0591">wrapCRA(cmd)</text><path d="M433,197.125 L433,222.125 L628,222.125 L628,207.125 L618,197.125 L433,197.125 " fill="#FEFFDD" style="stroke:#181818;stroke-width:0.5;"/><path d="M618,197.125 L618,207.125 L628,207.125 L618,197.125 " fill="#FEFFDD" style="stroke:#181818;stroke-width:0.5;"/><text fill="#000000" font-family="sans-serif" font-size="13" lengthAdjust="spacing" textLength="174" x="439" y="214.1919">&#8226; SLIP-encode + CRC(cmd)</text><polygon fill="#1E1E1E" points="267.5,244.3906,257.5,248.3906,267.5,252.3906,263.5,248.3906" style="stroke:#1E1E1E;stroke-width:1.0;"/><line style="stroke:#1E1E1E;stroke-width:1.0;stroke-dasharray:2.0,2.0;" x1="261.5" x2="422.5" y1="248.3906" y2="248.3906"/><text fill="#000000" font-family="sans-serif" font-size="13" font-weight="bold" lengthAdjust="spacing" textLength="21" x="273.5" y="243.3247">[3]</text><text fill="#000000" font-family="sans-serif" font-size="13" lengthAdjust="spacing" textLength="71" x="298.5" y="243.3247">CRA_frame</text><polygon fill="#1E1E1E" points="557.5,273.5234,567.5,277.5234,557.5,281.5234,561.5,277.5234" style="stroke:#1E1E1E;stroke-width:1.0;"/><line style="stroke:#1E1E1E;stroke-width:1.0;" x1="251.5" x2="563.5" y1="277.5234" y2="277.5234"/><text fill="#000000" font-family="sans-serif" font-size="13" font-weight="bold" lengthAdjust="spacing" textLength="21" x="258.5" y="272.4575">[4]</text><text fill="#000000" font-family="sans-serif" font-size="13" lengthAdjust="spacing" textLength="153" x="283.5" y="272.4575">sendFrame(CRA_frame)</text><polygon fill="#1E1E1E" points="811.5,302.6563,821.5,306.6563,811.5,310.6563,815.5,306.6563" style="stroke:#1E1E1E;stroke-width:1.0;"/><line style="stroke:#1E1E1E;stroke-width:1.0;" x1="574.5" x2="817.5" y1="306.6563" y2="306.6563"/><text fill="#000000" font-family="sans-serif" font-size="13" font-weight="bold" lengthAdjust="spacing" textLength="21" x="581.5" y="301.5903">[5]</text><text fill="#000000" font-family="sans-serif" font-size="13" lengthAdjust="spacing" textLength="158" x="606.5" y="301.5903">UART bytes (CRA_frame)</text><polygon fill="#1E1E1E" points="1064.5,331.7891,1074.5,335.7891,1064.5,339.7891,1068.5,335.7891" style="stroke:#1E1E1E;stroke-width:1.0;"/><line style="stroke:#1E1E1E;stroke-width:1.0;" x1="828.5" x2="1070.5" y1="335.7891" y2="335.7891"/><text fill="#000000" font-family="sans-serif" font-size="13" font-weight="bold" lengthAdjust="spacing" textLength="21" x="835.5" y="330.7231">[6]</text><text fill="#000000" font-family="sans-serif" font-size="13" lengthAdjust="spacing" textLength="88" x="860.5" y="330.7231">deliverBytes()</text><path d="M1091,348.7891 L1091,388.7891 L1211,388.7891 L1211,358.7891 L1201,348.7891 L1091,348.7891 " fill="#FEFFDD" style="stroke:#181818;stroke-width:0.5;"/><path d="M1201,348.7891 L1201,358.7891 L1211,358.7891 L1201,348.7891 " fill="#FEFFDD" style="stroke:#181818;stroke-width:0.5;"/><text fill="#000000" font-family="sans-serif" font-size="13" lengthAdjust="spacing" textLength="91" x="1097" y="365.856">&#8226; SLIP-decode</text><text fill="#000000" font-family="sans-serif" font-size="13" lengthAdjust="spacing" textLength="76" x="1097" y="380.9888">&#8226; verify CRC</text><polygon fill="#1E1E1E" points="1227.5,411.1875,1237.5,415.1875,1227.5,419.1875,1231.5,415.1875" style="stroke:#1E1E1E;stroke-width:1.0;"/><line style="stroke:#1E1E1E;stroke-width:1.0;" x1="1081.5" x2="1233.5" y1="415.1875" y2="415.1875"/><text fill="#000000" font-family="sans-serif" font-size="13" font-weight="bold" lengthAdjust="spacing" textLength="21" x="1088.5" y="410.1216">[7]</text><text fill="#000000" font-family="sans-serif" font-size="13" lengthAdjust="spacing" textLength="109" x="1113.5" y="410.1216">extractCRA(cmd)</text><polygon fill="#1E1E1E" points="1428.5,440.3203,1438.5,444.3203,1428.5,448.3203,1432.5,444.3203" style="stroke:#1E1E1E;stroke-width:1.0;"/><line style="stroke:#1E1E1E;stroke-width:1.0;" x1="1244.5" x2="1434.5" y1="444.3203" y2="444.3203"/><text fill="#000000" font-family="sans-serif" font-size="13" font-weight="bold" lengthAdjust="spacing" textLength="21" x="1251.5" y="439.2544">[8]</text><text fill="#000000" font-family="sans-serif" font-size="13" lengthAdjust="spacing" textLength="147" x="1276.5" y="439.2544">deliverCommand(cmd)</text><polygon fill="#1E1E1E" points="1260.5,469.4531,1250.5,473.4531,1260.5,477.4531,1256.5,473.4531" style="stroke:#1E1E1E;stroke-width:1.0;"/><line style="stroke:#1E1E1E;stroke-width:1.0;stroke-dasharray:2.0,2.0;" x1="1254.5" x2="1444.5" y1="473.4531" y2="473.4531"/><text fill="#000000" font-family="sans-serif" font-size="13" font-weight="bold" lengthAdjust="spacing" textLength="21" x="1266.5" y="468.3872">[9]</text><text fill="#000000" font-family="sans-serif" font-size="13" lengthAdjust="spacing" textLength="131" x="1291.5" y="468.3872">sendResponse(resp)</text><path d="M1254,486.4531 L1254,526.4531 L1393,526.4531 L1393,496.4531 L1383,486.4531 L1254,486.4531 " fill="#FEFFDD" style="stroke:#181818;stroke-width:0.5;"/><path d="M1383,486.4531 L1383,496.4531 L1393,496.4531 L1383,486.4531 " fill="#FEFFDD" style="stroke:#181818;stroke-width:0.5;"/><text fill="#000000" font-family="sans-serif" font-size="13" lengthAdjust="spacing" textLength="110" x="1260" y="503.52">&#8226; wrap CRA(resp)</text><text fill="#000000" font-family="sans-serif" font-size="13" lengthAdjust="spacing" textLength="114" x="1260" y="518.6528">&#8226; reset ACK-timer</text><polygon fill="#1E1E1E" points="1097.5,548.8516,1087.5,552.8516,1097.5,556.8516,1093.5,552.8516" style="stroke:#1E1E1E;stroke-width:1.0;"/><line style="stroke:#1E1E1E;stroke-width:1.0;" x1="1091.5" x2="1243.5" y1="552.8516" y2="552.8516"/><text fill="#000000" font-family="sans-serif" font-size="13" font-weight="bold" lengthAdjust="spacing" textLength="30" x="1103.5" y="547.7856">[10]</text><text fill="#000000" font-family="sans-serif" font-size="13" lengthAdjust="spacing" textLength="94" x="1137.5" y="547.7856">wrapCRA(resp)</text><path d="M1091,565.8516 L1091,590.8516 L1286,590.8516 L1286,575.8516 L1276,565.8516 L1091,565.8516 " fill="#FEFFDD" style="stroke:#181818;stroke-width:0.5;"/><path d="M1276,565.8516 L1276,575.8516 L1286,575.8516 L1276,565.8516 " fill="#FEFFDD" style="stroke:#181818;stroke-width:0.5;"/><text fill="#000000" font-family="sans-serif" font-size="13" lengthAdjust="spacing" textLength="174" x="1097" y="582.9185">&#8226; SLIP-encode + CRC(resp)</text><polygon fill="#1E1E1E" points="844.5,613.1172,834.5,617.1172,844.5,621.1172,840.5,617.1172" style="stroke:#1E1E1E;stroke-width:1.0;"/><line style="stroke:#1E1E1E;stroke-width:1.0;" x1="838.5" x2="1080.5" y1="617.1172" y2="617.1172"/><text fill="#000000" font-family="sans-serif" font-size="13" font-weight="bold" lengthAdjust="spacing" textLength="30" x="850.5" y="612.0513">[11]</text><text fill="#000000" font-family="sans-serif" font-size="13" lengthAdjust="spacing" textLength="110" x="884.5" y="612.0513">sendFrame(resp)</text><polygon fill="#1E1E1E" points="590.5,642.25,580.5,646.25,590.5,650.25,586.5,646.25" style="stroke:#1E1E1E;stroke-width:1.0;"/><line style="stroke:#1E1E1E;stroke-width:1.0;" x1="584.5" x2="827.5" y1="646.25" y2="646.25"/><text fill="#000000" font-family="sans-serif" font-size="13" font-weight="bold" lengthAdjust="spacing" textLength="30" x="596.5" y="641.1841">[12]</text><text fill="#000000" font-family="sans-serif" font-size="13" lengthAdjust="spacing" textLength="115" x="630.5" y="641.1841">UART bytes (resp)</text><polygon fill="#1E1E1E" points="439.5,671.3828,429.5,675.3828,439.5,679.3828,435.5,675.3828" style="stroke:#1E1E1E;stroke-width:1.0;"/><line style="stroke:#1E1E1E;stroke-width:1.0;" x1="433.5" x2="573.5" y1="675.3828" y2="675.3828"/><text fill="#000000" font-family="sans-serif" font-size="13" font-weight="bold" lengthAdjust="spacing" textLength="30" x="445.5" y="670.3169">[13]</text><text fill="#000000" font-family="sans-serif" font-size="13" lengthAdjust="spacing" textLength="88" x="479.5" y="670.3169">deliverBytes()</text><path d="M433,688.3828 L433,728.3828 L553,728.3828 L553,698.3828 L543,688.3828 L433,688.3828 " fill="#FEFFDD" style="stroke:#181818;stroke-width:0.5;"/><path d="M543,688.3828 L543,698.3828 L553,698.3828 L543,688.3828 " fill="#FEFFDD" style="stroke:#181818;stroke-width:0.5;"/><text fill="#000000" font-family="sans-serif" font-size="13" lengthAdjust="spacing" textLength="91" x="439" y="705.4497">&#8226; SLIP-decode</text><text fill="#000000" font-family="sans-serif" font-size="13" lengthAdjust="spacing" textLength="76" x="439" y="720.5825">&#8226; verify CRC</text><polygon fill="#1E1E1E" points="267.5,750.7813,257.5,754.7813,267.5,758.7813,263.5,754.7813" style="stroke:#1E1E1E;stroke-width:1.0;"/><line style="stroke:#1E1E1E;stroke-width:1.0;" x1="261.5" x2="422.5" y1="754.7813" y2="754.7813"/><text fill="#000000" font-family="sans-serif" font-size="13" font-weight="bold" lengthAdjust="spacing" textLength="30" x="273.5" y="749.7153">[14]</text><text fill="#000000" font-family="sans-serif" font-size="13" lengthAdjust="spacing" textLength="109" x="307.5" y="749.7153">extractCRA(resp)</text><path d="M261,767.7813 L261,807.7813 L427,807.7813 L427,777.7813 L417,767.7813 L261,767.7813 " fill="#FEFFDD" style="stroke:#181818;stroke-width:0.5;"/><path d="M417,767.7813 L417,777.7813 L427,777.7813 L417,767.7813 " fill="#FEFFDD" style="stroke:#181818;stroke-width:0.5;"/><text fill="#000000" font-family="sans-serif" font-size="13" lengthAdjust="spacing" textLength="92" x="267" y="784.8481">&#8226; parse status</text><text fill="#000000" font-family="sans-serif" font-size="13" lengthAdjust="spacing" textLength="145" x="267" y="799.981">&#8226; stop Response-timer</text><polygon fill="#1E1E1E" points="59.5,830.1797,49.5,834.1797,59.5,838.1797,55.5,834.1797" style="stroke:#1E1E1E;stroke-width:1.0;"/><line style="stroke:#1E1E1E;stroke-width:1.0;" x1="53.5" x2="250.5" y1="834.1797" y2="834.1797"/><text fill="#000000" font-family="sans-serif" font-size="13" font-weight="bold" lengthAdjust="spacing" textLength="30" x="65.5" y="829.1138">[15]</text><text fill="#000000" font-family="sans-serif" font-size="13" lengthAdjust="spacing" textLength="142" x="99.5" y="829.1138">deliverResponse(resp)</text><polygon fill="#1E1E1E" points="234.5,859.3125,244.5,863.3125,234.5,867.3125,238.5,863.3125" style="stroke:#1E1E1E;stroke-width:1.0;"/><line style="stroke:#1E1E1E;stroke-width:1.0;stroke-dasharray:2.0,2.0;" x1="43.5" x2="240.5" y1="863.3125" y2="863.3125"/><text fill="#000000" font-family="sans-serif" font-size="13" font-weight="bold" lengthAdjust="spacing" textLength="30" x="50.5" y="858.2466">[16]</text><text fill="#000000" font-family="sans-serif" font-size="13" lengthAdjust="spacing" textLength="67" x="84.5" y="858.2466">sendACK()</text><path d="M261,876.3125 L261,931.3125 L407,931.3125 L407,886.3125 L397,876.3125 L261,876.3125 " fill="#FEFFDD" style="stroke:#181818;stroke-width:0.5;"/><path d="M397,876.3125 L397,886.3125 L407,886.3125 L397,876.3125 " fill="#FEFFDD" style="stroke:#181818;stroke-width:0.5;"/><text fill="#000000" font-family="sans-serif" font-size="13" lengthAdjust="spacing" textLength="117" x="267" y="893.3794">&#8226; Flags=0x04 only</text><text fill="#000000" font-family="sans-serif" font-size="13" lengthAdjust="spacing" textLength="82" x="267" y="908.5122">&#8226; no payload</text><text fill="#000000" font-family="sans-serif" font-size="13" lengthAdjust="spacing" textLength="112" x="267" y="923.645">&#8226; (no new timers)</text><polygon fill="#1E1E1E" points="406.5,953.8438,416.5,957.8438,406.5,961.8438,410.5,957.8438" style="stroke:#1E1E1E;stroke-width:1.0;"/><line style="stroke:#1E1E1E;stroke-width:1.0;" x1="251.5" x2="412.5" y1="957.8438" y2="957.8438"/><text fill="#000000" font-family="sans-serif" font-size="13" font-weight="bold" lengthAdjust="spacing" textLength="30" x="258.5" y="952.7778">[17]</text><text fill="#000000" font-family="sans-serif" font-size="13" lengthAdjust="spacing" textLength="92" x="292.5" y="952.7778">wrapCRA(ACK)</text><path d="M433,970.8438 L433,995.8438 L568,995.8438 L568,980.8438 L558,970.8438 L433,970.8438 " fill="#FEFFDD" style="stroke:#181818;stroke-width:0.5;"/><path d="M558,970.8438 L558,980.8438 L568,980.8438 L558,970.8438 " fill="#FEFFDD" style="stroke:#181818;stroke-width:0.5;"/><text fill="#000000" font-family="sans-serif" font-size="13" lengthAdjust="spacing" textLength="114" x="439" y="987.9106">&#8226; build ACK frame</text><polygon fill="#1E1E1E" points="267.5,1018.1094,257.5,1022.1094,267.5,1026.1094,263.5,1022.1094" style="stroke:#1E1E1E;stroke-width:1.0;"/><line style="stroke:#1E1E1E;stroke-width:1.0;stroke-dasharray:2.0,2.0;" x1="261.5" x2="422.5" y1="1022.1094" y2="1022.1094"/><text fill="#000000" font-family="sans-serif" font-size="13" font-weight="bold" lengthAdjust="spacing" textLength="30" x="273.5" y="1017.0435">[18]</text><text fill="#000000" font-family="sans-serif" font-size="13" lengthAdjust="spacing" textLength="71" x="307.5" y="1017.0435">ACK_frame</text><polygon fill="#1E1E1E" points="557.5,1047.2422,567.5,1051.2422,557.5,1055.2422,561.5,1051.2422" style="stroke:#1E1E1E;stroke-width:1.0;"/><line style="stroke:#1E1E1E;stroke-width:1.0;" x1="251.5" x2="563.5" y1="1051.2422" y2="1051.2422"/><text fill="#000000" font-family="sans-serif" font-size="13" font-weight="bold" lengthAdjust="spacing" textLength="30" x="258.5" y="1046.1763">[19]</text><text fill="#000000" font-family="sans-serif" font-size="13" lengthAdjust="spacing" textLength="153" x="292.5" y="1046.1763">sendFrame(ACK_frame)</text><polygon fill="#1E1E1E" points="811.5,1076.375,821.5,1080.375,811.5,1084.375,815.5,1080.375" style="stroke:#1E1E1E;stroke-width:1.0;"/><line style="stroke:#1E1E1E;stroke-width:1.0;" x1="574.5" x2="817.5" y1="1080.375" y2="1080.375"/><text fill="#000000" font-family="sans-serif" font-size="13" font-weight="bold" lengthAdjust="spacing" textLength="30" x="581.5" y="1075.3091">[20]</text><text fill="#000000" font-family="sans-serif" font-size="13" lengthAdjust="spacing" textLength="113" x="615.5" y="1075.3091">UART bytes (ACK)</text><polygon fill="#1E1E1E" points="1064.5,1105.5078,1074.5,1109.5078,1064.5,1113.5078,1068.5,1109.5078" style="stroke:#1E1E1E;stroke-width:1.0;"/><line style="stroke:#1E1E1E;stroke-width:1.0;" x1="828.5" x2="1070.5" y1="1109.5078" y2="1109.5078"/><text fill="#000000" font-family="sans-serif" font-size="13" font-weight="bold" lengthAdjust="spacing" textLength="30" x="835.5" y="1104.4419">[21]</text><text fill="#000000" font-family="sans-serif" font-size="13" lengthAdjust="spacing" textLength="88" x="869.5" y="1104.4419">deliverBytes()</text><path d="M1091,1122.5078 L1091,1162.5078 L1239,1162.5078 L1239,1132.5078 L1229,1122.5078 L1091,1122.5078 " fill="#FEFFDD" style="stroke:#181818;stroke-width:0.5;"/><path d="M1229,1122.5078 L1229,1132.5078 L1239,1132.5078 L1229,1122.5078 " fill="#FEFFDD" style="stroke:#181818;stroke-width:0.5;"/><text fill="#000000" font-family="sans-serif" font-size="13" lengthAdjust="spacing" textLength="119" x="1097" y="1139.5747">&#8226; extractCRA(ACK)</text><text fill="#000000" font-family="sans-serif" font-size="13" lengthAdjust="spacing" textLength="109" x="1097" y="1154.7075">&#8226; stop ACK-timer</text><polygon fill="#1E1E1E" points="59.5,1184.9063,49.5,1188.9063,59.5,1192.9063,55.5,1188.9063" style="stroke:#1E1E1E;stroke-width:1.0;"/><line style="stroke:#1E1E1E;stroke-width:1.0;stroke-dasharray:2.0,2.0;" x1="53.5" x2="1080.5" y1="1188.9063" y2="1188.9063"/><text fill="#000000" font-family="sans-serif" font-size="13" font-weight="bold" lengthAdjust="spacing" textLength="30" x="65.5" y="1183.8403">[22]</text><text fill="#FF0000" font-family="sans-serif" font-size="13" lengthAdjust="spacing" textLength="140" x="99.5" y="1183.8403">duplicate ACK ignored</text><polygon fill="#1E1E1E" points="234.5,1214.0391,244.5,1218.0391,234.5,1222.0391,238.5,1218.0391" style="stroke:#1E1E1E;stroke-width:1.0;"/><line style="stroke:#1E1E1E;stroke-width:1.0;stroke-dasharray:2.0,2.0;" x1="43.5" x2="240.5" y1="1218.0391" y2="1218.0391"/><text fill="#000000" font-family="sans-serif" font-size="13" font-weight="bold" lengthAdjust="spacing" textLength="30" x="50.5" y="1212.9731">[23]</text><text fill="#000000" font-family="sans-serif" font-size="13" lengthAdjust="spacing" textLength="145" x="84.5" y="1212.9731">sendACK() &#171;duplicate&#187;</text><path d="M261,1231.0391 L261,1271.0391 L424,1271.0391 L424,1241.0391 L414,1231.0391 L261,1231.0391 " fill="#FEFFDD" style="stroke:#181818;stroke-width:0.5;"/><path d="M414,1231.0391 L414,1241.0391 L424,1241.0391 L414,1231.0391 " fill="#FEFFDD" style="stroke:#181818;stroke-width:0.5;"/><text fill="#000000" font-family="sans-serif" font-size="13" lengthAdjust="spacing" textLength="104" x="267" y="1248.106">&#8226; wrapCRA(ACK)</text><text fill="#000000" font-family="sans-serif" font-size="13" lengthAdjust="spacing" textLength="142" x="267" y="1263.2388">&#8226; (duplicate; no timer)</text><polygon fill="#1E1E1E" points="406.5,1293.4375,416.5,1297.4375,406.5,1301.4375,410.5,1297.4375" style="stroke:#1E1E1E;stroke-width:1.0;"/><line style="stroke:#1E1E1E;stroke-width:1.0;" x1="251.5" x2="412.5" y1="1297.4375" y2="1297.4375"/><text fill="#000000" font-family="sans-serif" font-size="13" font-weight="bold" lengthAdjust="spacing" textLength="30" x="258.5" y="1292.3716">[24]</text><text fill="#000000" font-family="sans-serif" font-size="13" lengthAdjust="spacing" textLength="92" x="292.5" y="1292.3716">wrapCRA(ACK)</text><path d="M433,1310.4375 L433,1335.4375 L630,1335.4375 L630,1320.4375 L620,1310.4375 L433,1310.4375 " fill="#FEFFDD" style="stroke:#181818;stroke-width:0.5;"/><path d="M620,1310.4375 L620,1320.4375 L630,1320.4375 L620,1310.4375 " fill="#FEFFDD" style="stroke:#181818;stroke-width:0.5;"/><text fill="#000000" font-family="sans-serif" font-size="13" lengthAdjust="spacing" textLength="176" x="439" y="1327.5044">&#8226; build duplicate ACK frame</text><polygon fill="#1E1E1E" points="267.5,1357.7031,257.5,1361.7031,267.5,1365.7031,263.5,1361.7031" style="stroke:#1E1E1E;stroke-width:1.0;"/><line style="stroke:#1E1E1E;stroke-width:1.0;stroke-dasharray:2.0,2.0;" x1="261.5" x2="422.5" y1="1361.7031" y2="1361.7031"/><text fill="#000000" font-family="sans-serif" font-size="13" font-weight="bold" lengthAdjust="spacing" textLength="30" x="273.5" y="1356.6372">[25]</text><text fill="#000000" font-family="sans-serif" font-size="13" lengthAdjust="spacing" textLength="102" x="307.5" y="1356.6372">ACK_frame_dup</text><polygon fill="#1E1E1E" points="557.5,1386.8359,567.5,1390.8359,557.5,1394.8359,561.5,1390.8359" style="stroke:#1E1E1E;stroke-width:1.0;"/><line style="stroke:#1E1E1E;stroke-width:1.0;" x1="251.5" x2="563.5" y1="1390.8359" y2="1390.8359"/><text fill="#000000" font-family="sans-serif" font-size="13" font-weight="bold" lengthAdjust="spacing" textLength="30" x="258.5" y="1385.77">[26]</text><text fill="#000000" font-family="sans-serif" font-size="13" lengthAdjust="spacing" textLength="184" x="292.5" y="1385.77">sendFrame(ACK_frame_dup)</text><polygon fill="#1E1E1E" points="811.5,1415.9688,821.5,1419.9688,811.5,1423.9688,815.5,1419.9688" style="stroke:#1E1E1E;stroke-width:1.0;"/><line style="stroke:#1E1E1E;stroke-width:1.0;" x1="574.5" x2="817.5" y1="1419.9688" y2="1419.9688"/><text fill="#000000" font-family="sans-serif" font-size="13" font-weight="bold" lengthAdjust="spacing" textLength="30" x="581.5" y="1414.9028">[27]</text><text fill="#000000" font-family="sans-serif" font-size="13" lengthAdjust="spacing" textLength="191" x="615.5" y="1414.9028">UART bytes (ACK) &#171;duplicate&#187;</text><polygon fill="#1E1E1E" points="1064.5,1445.1016,1074.5,1449.1016,1064.5,1453.1016,1068.5,1449.1016" style="stroke:#1E1E1E;stroke-width:1.0;"/><line style="stroke:#1E1E1E;stroke-width:1.0;" x1="828.5" x2="1070.5" y1="1449.1016" y2="1449.1016"/><text fill="#000000" font-family="sans-serif" font-size="13" font-weight="bold" lengthAdjust="spacing" textLength="30" x="835.5" y="1444.0356">[28]</text><text fill="#000000" font-family="sans-serif" font-size="13" lengthAdjust="spacing" textLength="190" x="869.5" y="1444.0356">deliverBytes() [duplicate ACK]</text><path d="M1091,1462.1016 L1091,1502.1016 L1271,1502.1016 L1271,1472.1016 L1261,1462.1016 L1091,1462.1016 " fill="#FEFFDD" style="stroke:#181818;stroke-width:0.5;"/><path d="M1261,1462.1016 L1261,1472.1016 L1271,1472.1016 L1261,1462.1016 " fill="#FEFFDD" style="stroke:#181818;stroke-width:0.5;"/><text fill="#000000" font-family="sans-serif" font-size="13" lengthAdjust="spacing" textLength="119" x="1097" y="1479.1685">&#8226; extractCRA(ACK)</text><text fill="#000000" font-family="sans-serif" font-size="13" lengthAdjust="spacing" textLength="8" x="1097" y="1494.3013">&#8226;</text><text fill="#000000" font-family="sans-serif" font-size="13" font-weight="bold" lengthAdjust="spacing" textLength="147" x="1109" y="1494.3013">duplicate &#8594; ignored</text><!--SRC=[jLVTYjj65BxNKnoSYxLTJEnDqjBMCMWb5fVuGkogXH9264iZPuYiKMT6sPXIo5KV8EG9-cZx93qZI_ACBBl6NNiNp8w-ypFV-Suvsgl7Rr-Uv1T-Ox8WAKYg5CjM4fxAiIC_iYmdWgmX84AnYEKaKm69Omm3a-inN1cGV0U1Fnt0pms9Fgu4BxBOuoaNy6pywiNtFqospxY8gTYUwy-p2TK_vRDRdgdT4u273qnHvoyZbgH_53IBQ1N85O8_c1QxZ-btmHAwO1bjnpu4QwMlOKdoOpA9IfX1oR7BcB0ZV1YmGzTt55CfXU7mvZw0-vg14TnZDV3Su-iroMBmYpnb4L4KNE_DSEWuPc5wSouLk7dUQnWY4kPk1yXRnx0W6ofw5SZh0FdXmWRv7Q1W_hiD2cnGICIAMZ04XTqW8w06-PqW8tKDyZf11WaQv3eEAHJFYlMI2kXDbxEtutVJvyjPpt6kThqs6K1v9qcpM081kIK_giX_gjPhToA95FkaQugbchimcc4vuASoYwhk_MWT3voOcaZ3p7CoZj-2hJueu8a-07ZyyWyas4yedZktT01G7Kk5bC4TbJdF91qfjaPM-jVZCQpbmC6meFqv3gQXa_4ncGT1yjgFbOXd9kAt4_6hYFUBNu8HIfh75Bx3XBoj8oEK3wFwuXZdVPcv5SYtRrpb5bH4tMfylx4yacFWe16QXjhqL_SkXEL6KGc7Z0DB8jS3g2IM2nvHAT5IQqEKPCOIBgKDR9bmcxSkHqnJzecA6vrvtyeNSOPHko2XLP2ObWMfPO4EMRBHrJ4AW-5qK5qN-ba9TDqbWz2i3lPaM5OdT7Uf7b9oQ1O76nLjHdL0NTXQfNtDi6tfsZ5RDwrxG2ktR87IGNDP_4lF2U_DLlxcZRs6vbhr-x6zqrcsPB_rj4UlBUFzS1QzjHBcRGNlszdYVL7DDq4ZYZMHbMeblTHewvfnTV_DZ-ju7fm-M4xHyTnl1gkXupt6scFcm635dOEiuHnLXJJ6AizRKzL8mAZ3IslF94p8KeaNhq9LYsfq6irvkCdisRdTJ-Q2mhJxvsocsvIivElnv_5Bu5cwQJZCE7AxIJc9cwC-dcNq0Kf2_si_OJxdxATbmTAuhC5syNGl9dn-vc9gBCzPJ7jt2foBxGMZDtHOMzkTqxBYHwjfck3RBRukuUljwvwWSMyMc- -hm5OPn-FfSusRjGUSqI2lgWRfKtpvpoWlPBePLErYk_pVBrjxOeRfj0ancvqXRLEAEn4tFd_M6YzPlAIKRPPE4lLxj3bVsDhwN74VeVnKgSDRwyRldb3wm-7EzUFVNsiLutzVEq9jAVyB]--></g></svg>