<?xml version="1.0" encoding="us-ascii" standalone="no"?><svg xmlns="http://www.w3.org/2000/svg" xmlns:xlink="http://www.w3.org/1999/xlink" contentStyleType="text/css" height="1528px" preserveAspectRatio="none" style="width:2277px;height:1528px;background:#FFFFFF;" version="1.1" viewBox="0 0 2277 1528" width="2277px" zoomAndPan="magnify"><defs/><g><text fill="#000000" font-family="sans-serif" font-size="14" font-weight="bold" lengthAdjust="spacing" textLength="297" x="988.5" y="27.9951">BSP Sequence - CRC Error Auto-Retry</text><rect fill="#FF9F1C" height="21.1328" style="stroke:#1E1E1E;stroke-width:1.0;" width="10" x="38.5" y="83.5938"/><rect fill="#FF9F1C" height="29.1328" style="stroke:#1E1E1E;stroke-width:1.0;" width="10" x="38.5" y="1179.7734"/><rect fill="#FF9F1C" height="79.3984" style="stroke:#1E1E1E;stroke-width:1.0;" width="10" x="345.5" y="104.7266"/><rect fill="#FF9F1C" height="29.1328" style="stroke:#1E1E1E;stroke-width:1.0;" width="10" x="345.5" y="248.3906"/><rect fill="#FF9F1C" height="79.3984" style="stroke:#1E1E1E;stroke-width:1.0;" width="10" x="345.5" y="415.1875"/><rect fill="#FF9F1C" height="29.1328" style="stroke:#1E1E1E;stroke-width:1.0;" width="10" x="345.5" y="558.8516"/><rect fill="#FF9F1C" height="79.3984" style="stroke:#1E1E1E;stroke-width:1.0;" width="10" x="345.5" y="1100.375"/><rect fill="#FF9F1C" height="64.2656" style="stroke:#1E1E1E;stroke-width:1.0;" width="10" x="345.5" y="1208.9063"/><rect fill="#FF9F1C" height="29.1328" style="stroke:#1E1E1E;stroke-width:1.0;" width="10" x="345.5" y="1337.4375"/><rect fill="#FF9F1C" height="64.2656" style="stroke:#1E1E1E;stroke-width:1.0;" width="10" x="660.5" y="184.125"/><rect fill="#FF9F1C" height="64.2656" style="stroke:#1E1E1E;stroke-width:1.0;" width="10" x="660.5" y="494.5859"/><rect fill="#FF9F1C" height="79.3984" style="stroke:#1E1E1E;stroke-width:1.0;" width="10" x="660.5" y="1020.9766"/><rect fill="#FF9F1C" height="64.2656" style="stroke:#1E1E1E;stroke-width:1.0;" width="10" x="660.5" y="1273.1719"/><rect fill="#FF9F1C" height="29.1328" style="stroke:#1E1E1E;stroke-width:1.0;" width="10" x="898.5" y="277.5234"/><rect fill="#FF9F1C" height="29.1328" style="stroke:#1E1E1E;stroke-width:1.0;" width="10" x="898.5" y="587.9844"/><rect fill="#FF9F1C" height="29.1328" style="stroke:#1E1E1E;stroke-width:1.0;" width="10" x="898.5" y="991.8438"/><rect fill="#FF9F1C" height="29.1328" style="stroke:#1E1E1E;stroke-width:1.0;" width="10" x="898.5" y="1366.5703"/><rect fill="#FF9F1C" height="29.1328" style="stroke:#1E1E1E;stroke-width:1.0;" width="10" x="1176.5" y="306.6563"/><rect fill="#FF9F1C" height="29.1328" style="stroke:#1E1E1E;stroke-width:1.0;" width="10" x="1176.5" y="617.1172"/><rect fill="#FF9F1C" height="29.1328" style="stroke:#1E1E1E;stroke-width:1.0;" width="10" x="1176.5" y="962.7109"/><rect fill="#FF9F1C" height="29.1328" style="stroke:#1E1E1E;stroke-width:1.0;" width="10" x="1176.5" y="1395.7031"/><rect fill="#FF9F1C" height="79.3984" style="stroke:#1E1E1E;stroke-width:1.0;" width="10" x="1469.5" y="335.7891"/><rect fill="#FF9F1C" height="79.3984" style="stroke:#1E1E1E;stroke-width:1.0;" width="10" x="1469.5" y="646.25"/><rect fill="#FF9F1C" height="64.2656" style="stroke:#1E1E1E;stroke-width:1.0;" width="10" x="1469.5" y="898.4453"/><rect fill="#FF9F1C" height="59.2656" style="stroke:#1E1E1E;stroke-width:1.0;" width="10" x="1469.5" y="1424.8359"/><rect fill="#FF9F1C" height="29.1328" style="stroke:#1E1E1E;stroke-width:1.0;" width="10" x="1758.5" y="725.6484"/><rect fill="#FF9F1C" height="79.3984" style="stroke:#1E1E1E;stroke-width:1.0;" width="10" x="1758.5" y="819.0469"/><rect fill="#FF9F1C" height="64.2656" style="stroke:#1E1E1E;stroke-width:1.0;" width="10" x="2089.5" y="754.7813"/><line style="stroke:#1E1E1E;stroke-width:0.5;stroke-dasharray:5.0,5.0;" x1="43" x2="43" y1="73.5938" y2="1493.1016"/><line style="stroke:#1E1E1E;stroke-width:0.5;stroke-dasharray:5.0,5.0;" x1="350.5" x2="350.5" y1="73.5938" y2="1493.1016"/><line style="stroke:#1E1E1E;stroke-width:0.5;stroke-dasharray:5.0,5.0;" x1="665" x2="665" y1="73.5938" y2="1493.1016"/><line style="stroke:#1E1E1E;stroke-width:0.5;stroke-dasharray:5.0,5.0;" x1="903.5" x2="903.5" y1="73.5938" y2="1493.1016"/><line style="stroke:#1E1E1E;stroke-width:0.5;stroke-dasharray:5.0,5.0;" x1="1181" x2="1181" y1="73.5938" y2="1493.1016"/><line style="stroke:#1E1E1E;stroke-width:0.5;stroke-dasharray:5.0,5.0;" x1="1474.5" x2="1474.5" y1="73.5938" y2="1493.1016"/><line style="stroke:#1E1E1E;stroke-width:0.5;stroke-dasharray:5.0,5.0;" x1="1763" x2="1763" y1="73.5938" y2="1493.1016"/><line style="stroke:#1E1E1E;stroke-width:0.5;stroke-dasharray:5.0,5.0;" x1="2094.5" x2="2094.5" y1="73.5938" y2="1493.1016"/><rect fill="#053671" height="30.2969" rx="2.5" ry="2.5" style="stroke:#1E1E1E;stroke-width:0.5;" width="77" x="5" y="42.2969"/><text fill="#FFFFFF" font-family="sans-serif" font-size="14" lengthAdjust="spacing" textLength="63" x="12" y="62.292">Host App</text><rect fill="#053671" height="30.2969" rx="2.5" ry="2.5" style="stroke:#1E1E1E;stroke-width:0.5;" width="77" x="5" y="1492.1016"/><text fill="#FFFFFF" font-family="sans-serif" font-size="14" lengthAdjust="spacing" textLength="63" x="12" y="1512.0967">Host App</text><rect fill="#053671" height="30.2969" rx="2.5" ry="2.5" style="stroke:#1E1E1E;stroke-width:0.5;" width="122" x="289.5" y="42.2969"/><text fill="#FFFFFF" font-family="sans-serif" font-size="14" lengthAdjust="spacing" textLength="108" x="296.5" y="62.292">Host Cmd Layer</text><rect fill="#053671" height="30.2969" rx="2.5" ry="2.5" style="stroke:#1E1E1E;stroke-width:0.5;" width="122" x="289.5" y="1492.1016"/><text fill="#FFFFFF" font-family="sans-serif" font-size="14" lengthAdjust="spacing" textLength="108" x="296.5" y="1512.0967">Host Cmd Layer</text><rect fill="#053671" height="30.2969" rx="2.5" ry="2.5" style="stroke:#1E1E1E;stroke-width:0.5;" width="117" x="607" y="42.2969"/><text fill="#FFFFFF" font-family="sans-serif" font-size="14" lengthAdjust="spacing" textLength="103" x="614" y="62.292">Host DTL Layer</text><rect fill="#053671" height="30.2969" rx="2.5" ry="2.5" style="stroke:#1E1E1E;stroke-width:0.5;" width="117" x="607" y="1492.1016"/><text fill="#FFFFFF" font-family="sans-serif" font-size="14" lengthAdjust="spacing" textLength="103" x="614" y="1512.0967">Host DTL Layer</text><rect fill="#053671" height="30.2969" rx="2.5" ry="2.5" style="stroke:#1E1E1E;stroke-width:0.5;" width="118" x="844.5" y="42.2969"/><text fill="#FFFFFF" font-family="sans-serif" font-size="14" lengthAdjust="spacing" textLength="104" x="851.5" y="62.292">Host PHY Layer</text><rect fill="#053671" height="30.2969" rx="2.5" ry="2.5" style="stroke:#1E1E1E;stroke-width:0.5;" width="118" x="844.5" y="1492.1016"/><text fill="#FFFFFF" font-family="sans-serif" font-size="14" lengthAdjust="spacing" textLength="104" x="851.5" y="1512.0967">Host PHY Layer</text><rect fill="#053671" height="30.2969" rx="2.5" ry="2.5" style="stroke:#1E1E1E;stroke-width:0.5;" width="131" x="1116" y="42.2969"/><text fill="#FFFFFF" font-family="sans-serif" font-size="14" lengthAdjust="spacing" textLength="117" x="1123" y="62.292">Target PHY Layer</text><rect fill="#053671" height="30.2969" rx="2.5" ry="2.5" style="stroke:#1E1E1E;stroke-width:0.5;" width="131" x="1116" y="1492.1016"/><text fill="#FFFFFF" font-family="sans-serif" font-size="14" lengthAdjust="spacing" textLength="117" x="1123" y="1512.0967">Target PHY Layer</text><rect fill="#053671" height="30.2969" rx="2.5" ry="2.5" style="stroke:#1E1E1E;stroke-width:0.5;" width="130" x="1409.5" y="42.2969"/><text fill="#FFFFFF" font-family="sans-serif" font-size="14" lengthAdjust="spacing" textLength="116" x="1416.5" y="62.292">Target DTL Layer</text><rect fill="#053671" height="30.2969" rx="2.5" ry="2.5" style="stroke:#1E1E1E;stroke-width:0.5;" width="130" x="1409.5" y="1492.1016"/><text fill="#FFFFFF" font-family="sans-serif" font-size="14" lengthAdjust="spacing" textLength="116" x="1416.5" y="1512.0967">Target DTL Layer</text><rect fill="#053671" height="30.2969" rx="2.5" ry="2.5" style="stroke:#1E1E1E;stroke-width:0.5;" width="135" x="1696" y="42.2969"/><text fill="#FFFFFF" font-family="sans-serif" font-size="14" lengthAdjust="spacing" textLength="121" x="1703" y="62.292">Target Cmd Layer</text><rect fill="#053671" height="30.2969" rx="2.5" ry="2.5" style="stroke:#1E1E1E;stroke-width:0.5;" width="135" x="1696" y="1492.1016"/><text fill="#FFFFFF" font-family="sans-serif" font-size="14" lengthAdjust="spacing" textLength="121" x="1703" y="1512.0967">Target Cmd Layer</text><rect fill="#053671" height="30.2969" rx="2.5" ry="2.5" style="stroke:#1E1E1E;stroke-width:0.5;" width="90" x="2049.5" y="42.2969"/><text fill="#FFFFFF" font-family="sans-serif" font-size="14" lengthAdjust="spacing" textLength="76" x="2056.5" y="62.292">Target App</text><rect fill="#053671" height="30.2969" rx="2.5" ry="2.5" style="stroke:#1E1E1E;stroke-width:0.5;" width="90" x="2049.5" y="1492.1016"/><text fill="#FFFFFF" font-family="sans-serif" font-size="14" lengthAdjust="spacing" textLength="76" x="2056.5" y="1512.0967">Target App</text><rect fill="#FF9F1C" height="21.1328" style="stroke:#1E1E1E;stroke-width:1.0;" width="10" x="38.5" y="83.5938"/><rect fill="#FF9F1C" height="29.1328" style="stroke:#1E1E1E;stroke-width:1.0;" width="10" x="38.5" y="1179.7734"/><rect fill="#FF9F1C" height="79.3984" style="stroke:#1E1E1E;stroke-width:1.0;" width="10" x="345.5" y="104.7266"/><rect fill="#FF9F1C" height="29.1328" style="stroke:#1E1E1E;stroke-width:1.0;" width="10" x="345.5" y="248.3906"/><rect fill="#FF9F1C" height="79.3984" style="stroke:#1E1E1E;stroke-width:1.0;" width="10" x="345.5" y="415.1875"/><rect fill="#FF9F1C" height="29.1328" style="stroke:#1E1E1E;stroke-width:1.0;" width="10" x="345.5" y="558.8516"/><rect fill="#FF9F1C" height="79.3984" style="stroke:#1E1E1E;stroke-width:1.0;" width="10" x="345.5" y="1100.375"/><rect fill="#FF9F1C" height="64.2656" style="stroke:#1E1E1E;stroke-width:1.0;" width="10" x="345.5" y="1208.9063"/><rect fill="#FF9F1C" height="29.1328" style="stroke:#1E1E1E;stroke-width:1.0;" width="10" x="345.5" y="1337.4375"/><rect fill="#FF9F1C" height="64.2656" style="stroke:#1E1E1E;stroke-width:1.0;" width="10" x="660.5" y="184.125"/><rect fill="#FF9F1C" height="64.2656" style="stroke:#1E1E1E;stroke-width:1.0;" width="10" x="660.5" y="494.5859"/><rect fill="#FF9F1C" height="79.3984" style="stroke:#1E1E1E;stroke-width:1.0;" width="10" x="660.5" y="1020.9766"/><rect fill="#FF9F1C" height="64.2656" style="stroke:#1E1E1E;stroke-width:1.0;" width="10" x="660.5" y="1273.1719"/><rect fill="#FF9F1C" height="29.1328" style="stroke:#1E1E1E;stroke-width:1.0;" width="10" x="898.5" y="277.5234"/><rect fill="#FF9F1C" height="29.1328" style="stroke:#1E1E1E;stroke-width:1.0;" width="10" x="898.5" y="587.9844"/><rect fill="#FF9F1C" height="29.1328" style="stroke:#1E1E1E;stroke-width:1.0;" width="10" x="898.5" y="991.8438"/><rect fill="#FF9F1C" height="29.1328" style="stroke:#1E1E1E;stroke-width:1.0;" width="10" x="898.5" y="1366.5703"/><rect fill="#FF9F1C" height="29.1328" style="stroke:#1E1E1E;stroke-width:1.0;" width="10" x="1176.5" y="306.6563"/><rect fill="#FF9F1C" height="29.1328" style="stroke:#1E1E1E;stroke-width:1.0;" width="10" x="1176.5" y="617.1172"/><rect fill="#FF9F1C" height="29.1328" style="stroke:#1E1E1E;stroke-width:1.0;" width="10" x="1176.5" y="962.7109"/><rect fill="#FF9F1C" height="29.1328" style="stroke:#1E1E1E;stroke-width:1.0;" width="10" x="1176.5" y="1395.7031"/><rect fill="#FF9F1C" height="79.3984" style="stroke:#1E1E1E;stroke-width:1.0;" width="10" x="1469.5" y="335.7891"/><rect fill="#FF9F1C" height="79.3984" style="stroke:#1E1E1E;stroke-width:1.0;" width="10" x="1469.5" y="646.25"/><rect fill="#FF9F1C" height="64.2656" style="stroke:#1E1E1E;stroke-width:1.0;" width="10" x="1469.5" y="898.4453"/><rect fill="#FF9F1C" height="59.2656" style="stroke:#1E1E1E;stroke-width:1.0;" width="10" x="1469.5" y="1424.8359"/><rect fill="#FF9F1C" height="29.1328" style="stroke:#1E1E1E;stroke-width:1.0;" width="10" x="1758.5" y="725.6484"/><rect fill="#FF9F1C" height="79.3984" style="stroke:#1E1E1E;stroke-width:1.0;" width="10" x="1758.5" y="819.0469"/><rect fill="#FF9F1C" height="64.2656" style="stroke:#1E1E1E;stroke-width:1.0;" width="10" x="2089.5" y="754.7813"/><polygon fill="#1E1E1E" points="333.5,100.7266,343.5,104.7266,333.5,108.7266,337.5,104.7266" style="stroke:#1E1E1E;stroke-width:1.0;"/><line style="stroke:#1E1E1E;stroke-width:1.0;" x1="43.5" x2="339.5" y1="104.7266" y2="104.7266"/><text fill="#000000" font-family="sans-serif" font-size="13" font-weight="bold" lengthAdjust="spacing" textLength="21" x="50.5" y="99.6606">[1]</text><text fill="#000000" font-family="sans-serif" font-size="13" lengthAdjust="spacing" textLength="253" x="75.5" y="99.6606">sendCommand(WRITE_CHUNK, chunk1)</text><path d="M360,117.7266 L360,157.7266 L690,157.7266 L690,127.7266 L680,117.7266 L360,117.7266 " fill="#FEFFDD" style="stroke:#181818;stroke-width:0.5;"/><path d="M680,117.7266 L680,127.7266 L690,127.7266 L680,117.7266 " fill="#FEFFDD" style="stroke:#181818;stroke-width:0.5;"/><text fill="#000000" font-family="sans-serif" font-size="13" lengthAdjust="spacing" textLength="301" x="366" y="134.7935">&#8226; Frame CRA(WRITE_CHUNK, Session ID=0x05)</text><text fill="#000000" font-family="sans-serif" font-size="13" lengthAdjust="spacing" textLength="211" x="366" y="149.9263">&#8226; Start Response-timer (200 ms)</text><polygon fill="#1E1E1E" points="648.5,180.125,658.5,184.125,648.5,188.125,652.5,184.125" style="stroke:#1E1E1E;stroke-width:1.0;"/><line style="stroke:#1E1E1E;stroke-width:1.0;" x1="350.5" x2="654.5" y1="184.125" y2="184.125"/><text fill="#000000" font-family="sans-serif" font-size="13" font-weight="bold" lengthAdjust="spacing" textLength="21" x="357.5" y="179.0591">[2]</text><text fill="#000000" font-family="sans-serif" font-size="13" lengthAdjust="spacing" textLength="211" x="382.5" y="179.0591">wrapCRA(WRITE_CHUNK, chunk1)</text><path d="M675,197.125 L675,222.125 L957,222.125 L957,207.125 L947,197.125 L675,197.125 " fill="#FEFFDD" style="stroke:#181818;stroke-width:0.5;"/><path d="M947,197.125 L947,207.125 L957,207.125 L947,197.125 " fill="#FEFFDD" style="stroke:#181818;stroke-width:0.5;"/><text fill="#000000" font-family="sans-serif" font-size="13" lengthAdjust="spacing" textLength="261" x="681" y="214.1919">&#8226; SLIP+CRC(chunk1, Seq#=0, Len=256)</text><polygon fill="#1E1E1E" points="366.5,244.3906,356.5,248.3906,366.5,252.3906,362.5,248.3906" style="stroke:#1E1E1E;stroke-width:1.0;"/><line style="stroke:#1E1E1E;stroke-width:1.0;stroke-dasharray:2.0,2.0;" x1="360.5" x2="664.5" y1="248.3906" y2="248.3906"/><text fill="#000000" font-family="sans-serif" font-size="13" font-weight="bold" lengthAdjust="spacing" textLength="21" x="372.5" y="243.3247">[3]</text><text fill="#000000" font-family="sans-serif" font-size="13" lengthAdjust="spacing" textLength="71" x="397.5" y="243.3247">CRA_write1</text><polygon fill="#1E1E1E" points="886.5,273.5234,896.5,277.5234,886.5,281.5234,890.5,277.5234" style="stroke:#1E1E1E;stroke-width:1.0;"/><line style="stroke:#1E1E1E;stroke-width:1.0;" x1="350.5" x2="892.5" y1="277.5234" y2="277.5234"/><text fill="#000000" font-family="sans-serif" font-size="13" font-weight="bold" lengthAdjust="spacing" textLength="21" x="357.5" y="272.4575">[4]</text><text fill="#000000" font-family="sans-serif" font-size="13" lengthAdjust="spacing" textLength="153" x="382.5" y="272.4575">sendFrame(CRA_write1)</text><polygon fill="#1E1E1E" points="1164.5,302.6563,1174.5,306.6563,1164.5,310.6563,1168.5,306.6563" style="stroke:#1E1E1E;stroke-width:1.0;"/><line style="stroke:#1E1E1E;stroke-width:1.0;" x1="903.5" x2="1170.5" y1="306.6563" y2="306.6563"/><text fill="#000000" font-family="sans-serif" font-size="13" font-weight="bold" lengthAdjust="spacing" textLength="21" x="910.5" y="301.5903">[5]</text><text fill="#000000" font-family="sans-serif" font-size="13" lengthAdjust="spacing" textLength="158" x="935.5" y="301.5903">UART bytes (CRA_write1)</text><text fill="#FF0000" font-family="sans-serif" font-size="13" lengthAdjust="spacing" textLength="62" x="1097.5" y="301.5903">corrupted</text><polygon fill="#1E1E1E" points="1457.5,331.7891,1467.5,335.7891,1457.5,339.7891,1461.5,335.7891" style="stroke:#1E1E1E;stroke-width:1.0;"/><line style="stroke:#1E1E1E;stroke-width:1.0;" x1="1181.5" x2="1463.5" y1="335.7891" y2="335.7891"/><text fill="#000000" font-family="sans-serif" font-size="13" font-weight="bold" lengthAdjust="spacing" textLength="21" x="1188.5" y="330.7231">[6]</text><text fill="#000000" font-family="sans-serif" font-size="13" lengthAdjust="spacing" textLength="239" x="1213.5" y="330.7231">deliverBytes() [corrupted CRA_write1]</text><path d="M1484,348.7891 L1484,388.7891 L1613,388.7891 L1613,358.7891 L1603,348.7891 L1484,348.7891 " fill="#FEFFDD" style="stroke:#181818;stroke-width:0.5;"/><path d="M1603,348.7891 L1603,358.7891 L1613,358.7891 L1603,348.7891 " fill="#FEFFDD" style="stroke:#181818;stroke-width:0.5;"/><text fill="#000000" font-family="sans-serif" font-size="13" lengthAdjust="spacing" textLength="91" x="1490" y="365.856">&#8226; SLIP-decode</text><text fill="#000000" font-family="sans-serif" font-size="13" lengthAdjust="spacing" textLength="108" x="1490" y="380.9888">&#8226; CRC check fails</text><polygon fill="#1E1E1E" points="1751.5,411.1875,1761.5,415.1875,1751.5,419.1875,1755.5,415.1875" style="stroke:#1E1E1E;stroke-width:1.0;"/><line style="stroke:#1E1E1E;stroke-width:1.0;" x1="1474.5" x2="1757.5" y1="415.1875" y2="415.1875"/><text fill="#000000" font-family="sans-serif" font-size="13" font-weight="bold" lengthAdjust="spacing" textLength="21" x="1481.5" y="410.1216">[7]</text><text fill="#FF0000" font-family="sans-serif" font-size="13" lengthAdjust="spacing" textLength="114" x="1506.5" y="410.1216">discard (bad CRC)</text><path d="M360,428.1875 L360,468.1875 L790,468.1875 L790,438.1875 L780,428.1875 L360,428.1875 " fill="#FEFFDD" style="stroke:#181818;stroke-width:0.5;"/><path d="M780,428.1875 L780,438.1875 L790,438.1875 L780,428.1875 " fill="#FEFFDD" style="stroke:#181818;stroke-width:0.5;"/><text fill="#000000" font-family="sans-serif" font-size="13" lengthAdjust="spacing" textLength="225" x="366" y="445.2544">&#8226; Response-timer expires (200 ms)</text><text fill="#000000" font-family="sans-serif" font-size="13" lengthAdjust="spacing" textLength="409" x="366" y="460.3872">&#8226; Retry sendCommand(WRITE_CHUNK, chunk1) (Attempt 1 of 5)</text><polygon fill="#1E1E1E" points="648.5,490.5859,658.5,494.5859,648.5,498.5859,652.5,494.5859" style="stroke:#1E1E1E;stroke-width:1.0;"/><line style="stroke:#1E1E1E;stroke-width:1.0;" x1="350.5" x2="654.5" y1="494.5859" y2="494.5859"/><text fill="#000000" font-family="sans-serif" font-size="13" font-weight="bold" lengthAdjust="spacing" textLength="21" x="357.5" y="489.52">[8]</text><text fill="#000000" font-family="sans-serif" font-size="13" lengthAdjust="spacing" textLength="261" x="382.5" y="489.52">wrapCRA(WRITE_CHUNK, chunk1) &#171;retry&#187;</text><path d="M675,507.5859 L675,532.5859 L957,532.5859 L957,517.5859 L947,507.5859 L675,507.5859 " fill="#FEFFDD" style="stroke:#181818;stroke-width:0.5;"/><path d="M947,507.5859 L947,517.5859 L957,517.5859 L947,507.5859 " fill="#FEFFDD" style="stroke:#181818;stroke-width:0.5;"/><text fill="#000000" font-family="sans-serif" font-size="13" lengthAdjust="spacing" textLength="261" x="681" y="524.6528">&#8226; SLIP+CRC(chunk1, Seq#=0, Len=256)</text><polygon fill="#1E1E1E" points="366.5,554.8516,356.5,558.8516,366.5,562.8516,362.5,558.8516" style="stroke:#1E1E1E;stroke-width:1.0;"/><line style="stroke:#1E1E1E;stroke-width:1.0;stroke-dasharray:2.0,2.0;" x1="360.5" x2="664.5" y1="558.8516" y2="558.8516"/><text fill="#000000" font-family="sans-serif" font-size="13" font-weight="bold" lengthAdjust="spacing" textLength="21" x="372.5" y="553.7856">[9]</text><text fill="#000000" font-family="sans-serif" font-size="13" lengthAdjust="spacing" textLength="108" x="397.5" y="553.7856">CRA_write1_retry</text><polygon fill="#1E1E1E" points="886.5,583.9844,896.5,587.9844,886.5,591.9844,890.5,587.9844" style="stroke:#1E1E1E;stroke-width:1.0;"/><line style="stroke:#1E1E1E;stroke-width:1.0;" x1="350.5" x2="892.5" y1="587.9844" y2="587.9844"/><text fill="#000000" font-family="sans-serif" font-size="13" font-weight="bold" lengthAdjust="spacing" textLength="30" x="357.5" y="582.9185">[10]</text><text fill="#000000" font-family="sans-serif" font-size="13" lengthAdjust="spacing" textLength="190" x="391.5" y="582.9185">sendFrame(CRA_write1_retry)</text><polygon fill="#1E1E1E" points="1164.5,613.1172,1174.5,617.1172,1164.5,621.1172,1168.5,617.1172" style="stroke:#1E1E1E;stroke-width:1.0;"/><line style="stroke:#1E1E1E;stroke-width:1.0;" x1="903.5" x2="1170.5" y1="617.1172" y2="617.1172"/><text fill="#000000" font-family="sans-serif" font-size="13" font-weight="bold" lengthAdjust="spacing" textLength="30" x="910.5" y="612.0513">[11]</text><text fill="#000000" font-family="sans-serif" font-size="13" lengthAdjust="spacing" textLength="195" x="944.5" y="612.0513">UART bytes (CRA_write1_retry)</text><polygon fill="#1E1E1E" points="1457.5,642.25,1467.5,646.25,1457.5,650.25,1461.5,646.25" style="stroke:#1E1E1E;stroke-width:1.0;"/><line style="stroke:#1E1E1E;stroke-width:1.0;" x1="1181.5" x2="1463.5" y1="646.25" y2="646.25"/><text fill="#000000" font-family="sans-serif" font-size="13" font-weight="bold" lengthAdjust="spacing" textLength="30" x="1188.5" y="641.1841">[12]</text><text fill="#000000" font-family="sans-serif" font-size="13" lengthAdjust="spacing" textLength="210" x="1222.5" y="641.1841">deliverBytes() [CRA_write1_retry]</text><path d="M1484,659.25 L1484,699.25 L1606,699.25 L1606,669.25 L1596,659.25 L1484,659.25 " fill="#FEFFDD" style="stroke:#181818;stroke-width:0.5;"/><path d="M1596,659.25 L1596,669.25 L1606,669.25 L1596,659.25 " fill="#FEFFDD" style="stroke:#181818;stroke-width:0.5;"/><text fill="#000000" font-family="sans-serif" font-size="13" lengthAdjust="spacing" textLength="91" x="1490" y="676.3169">&#8226; SLIP-decode</text><text fill="#000000" font-family="sans-serif" font-size="13" lengthAdjust="spacing" textLength="101" x="1490" y="691.4497">&#8226; CRC check OK</text><polygon fill="#1E1E1E" points="1746.5,721.6484,1756.5,725.6484,1746.5,729.6484,1750.5,725.6484" style="stroke:#1E1E1E;stroke-width:1.0;"/><line style="stroke:#1E1E1E;stroke-width:1.0;" x1="1474.5" x2="1752.5" y1="725.6484" y2="725.6484"/><text fill="#000000" font-family="sans-serif" font-size="13" font-weight="bold" lengthAdjust="spacing" textLength="30" x="1481.5" y="720.5825">[13]</text><text fill="#000000" font-family="sans-serif" font-size="13" lengthAdjust="spacing" textLength="226" x="1515.5" y="720.5825">extractCRA(WRITE_CHUNK, chunk1)</text><polygon fill="#1E1E1E" points="2077.5,750.7813,2087.5,754.7813,2077.5,758.7813,2081.5,754.7813" style="stroke:#1E1E1E;stroke-width:1.0;"/><line style="stroke:#1E1E1E;stroke-width:1.0;" x1="1763.5" x2="2083.5" y1="754.7813" y2="754.7813"/><text fill="#000000" font-family="sans-serif" font-size="13" font-weight="bold" lengthAdjust="spacing" textLength="30" x="1770.5" y="749.7153">[14]</text><text fill="#000000" font-family="sans-serif" font-size="13" lengthAdjust="spacing" textLength="264" x="1804.5" y="749.7153">deliverCommand(WRITE_CHUNK, chunk1)</text><path d="M2104,767.7813 L2104,792.7813 L2270,792.7813 L2270,777.7813 L2260,767.7813 L2104,767.7813 " fill="#FEFFDD" style="stroke:#181818;stroke-width:0.5;"/><path d="M2260,767.7813 L2260,777.7813 L2270,777.7813 L2260,767.7813 " fill="#FEFFDD" style="stroke:#181818;stroke-width:0.5;"/><text fill="#000000" font-family="sans-serif" font-size="13" lengthAdjust="spacing" textLength="145" x="2110" y="784.8481">&#8226; Write chunk1 to flash</text><polygon fill="#1E1E1E" points="1779.5,815.0469,1769.5,819.0469,1779.5,823.0469,1775.5,819.0469" style="stroke:#1E1E1E;stroke-width:1.0;"/><line style="stroke:#1E1E1E;stroke-width:1.0;stroke-dasharray:2.0,2.0;" x1="1773.5" x2="2093.5" y1="819.0469" y2="819.0469"/><text fill="#000000" font-family="sans-serif" font-size="13" font-weight="bold" lengthAdjust="spacing" textLength="30" x="1785.5" y="813.981">[15]</text><text fill="#000000" font-family="sans-serif" font-size="13" lengthAdjust="spacing" textLength="268" x="1819.5" y="813.981">sendResponse(write_resp1, Status=0x00)</text><path d="M1773,832.0469 L1773,872.0469 L2076,872.0469 L2076,842.0469 L2066,832.0469 L1773,832.0469 " fill="#FEFFDD" style="stroke:#181818;stroke-width:0.5;"/><path d="M2066,832.0469 L2066,842.0469 L2076,842.0469 L2066,832.0469 " fill="#FEFFDD" style="stroke:#181818;stroke-width:0.5;"/><text fill="#000000" font-family="sans-serif" font-size="13" lengthAdjust="spacing" textLength="274" x="1779" y="849.1138">&#8226; Wrap CRA(write_resp1, Session ID=0x05)</text><text fill="#000000" font-family="sans-serif" font-size="13" lengthAdjust="spacing" textLength="175" x="1779" y="864.2466">&#8226; Start ACK-timer (200 ms)</text><polygon fill="#1E1E1E" points="1490.5,894.4453,1480.5,898.4453,1490.5,902.4453,1486.5,898.4453" style="stroke:#1E1E1E;stroke-width:1.0;"/><line style="stroke:#1E1E1E;stroke-width:1.0;" x1="1484.5" x2="1762.5" y1="898.4453" y2="898.4453"/><text fill="#000000" font-family="sans-serif" font-size="13" font-weight="bold" lengthAdjust="spacing" textLength="30" x="1496.5" y="893.3794">[16]</text><text fill="#000000" font-family="sans-serif" font-size="13" lengthAdjust="spacing" textLength="139" x="1530.5" y="893.3794">wrapCRA(write_resp1)</text><path d="M1484,911.4453 L1484,936.4453 L1664,936.4453 L1664,921.4453 L1654,911.4453 L1484,911.4453 " fill="#FEFFDD" style="stroke:#181818;stroke-width:0.5;"/><path d="M1654,911.4453 L1654,921.4453 L1664,921.4453 L1654,911.4453 " fill="#FEFFDD" style="stroke:#181818;stroke-width:0.5;"/><text fill="#000000" font-family="sans-serif" font-size="13" lengthAdjust="spacing" textLength="159" x="1490" y="928.5122">&#8226; SLIP+CRC(write_resp1)</text><polygon fill="#1E1E1E" points="1197.5,958.7109,1187.5,962.7109,1197.5,966.7109,1193.5,962.7109" style="stroke:#1E1E1E;stroke-width:1.0;"/><line style="stroke:#1E1E1E;stroke-width:1.0;" x1="1191.5" x2="1473.5" y1="962.7109" y2="962.7109"/><text fill="#000000" font-family="sans-serif" font-size="13" font-weight="bold" lengthAdjust="spacing" textLength="30" x="1203.5" y="957.645">[17]</text><text fill="#000000" font-family="sans-serif" font-size="13" lengthAdjust="spacing" textLength="155" x="1237.5" y="957.645">sendFrame(write_resp1)</text><polygon fill="#1E1E1E" points="919.5,987.8438,909.5,991.8438,919.5,995.8438,915.5,991.8438" style="stroke:#1E1E1E;stroke-width:1.0;"/><line style="stroke:#1E1E1E;stroke-width:1.0;" x1="913.5" x2="1180.5" y1="991.8438" y2="991.8438"/><text fill="#000000" font-family="sans-serif" font-size="13" font-weight="bold" lengthAdjust="spacing" textLength="30" x="925.5" y="986.7778">[18]</text><text fill="#000000" font-family="sans-serif" font-size="13" lengthAdjust="spacing" textLength="160" x="959.5" y="986.7778">UART bytes (write_resp1)</text><polygon fill="#1E1E1E" points="681.5,1016.9766,671.5,1020.9766,681.5,1024.9766,677.5,1020.9766" style="stroke:#1E1E1E;stroke-width:1.0;"/><line style="stroke:#1E1E1E;stroke-width:1.0;" x1="675.5" x2="902.5" y1="1020.9766" y2="1020.9766"/><text fill="#000000" font-family="sans-serif" font-size="13" font-weight="bold" lengthAdjust="spacing" textLength="30" x="687.5" y="1015.9106">[19]</text><text fill="#000000" font-family="sans-serif" font-size="13" lengthAdjust="spacing" textLength="175" x="721.5" y="1015.9106">deliverBytes() [write_resp1]</text><path d="M675,1033.9766 L675,1073.9766 L797,1073.9766 L797,1043.9766 L787,1033.9766 L675,1033.9766 " fill="#FEFFDD" style="stroke:#181818;stroke-width:0.5;"/><path d="M787,1033.9766 L787,1043.9766 L797,1043.9766 L787,1033.9766 " fill="#FEFFDD" style="stroke:#181818;stroke-width:0.5;"/><text fill="#000000" font-family="sans-serif" font-size="13" lengthAdjust="spacing" textLength="91" x="681" y="1051.0435">&#8226; SLIP-decode</text><text fill="#000000" font-family="sans-serif" font-size="13" lengthAdjust="spacing" textLength="101" x="681" y="1066.1763">&#8226; CRC check OK</text><polygon fill="#1E1E1E" points="366.5,1096.375,356.5,1100.375,366.5,1104.375,362.5,1100.375" style="stroke:#1E1E1E;stroke-width:1.0;"/><line style="stroke:#1E1E1E;stroke-width:1.0;" x1="360.5" x2="664.5" y1="1100.375" y2="1100.375"/><text fill="#000000" font-family="sans-serif" font-size="13" font-weight="bold" lengthAdjust="spacing" textLength="30" x="372.5" y="1095.3091">[20]</text><text fill="#000000" font-family="sans-serif" font-size="13" lengthAdjust="spacing" textLength="154" x="406.5" y="1095.3091">extractCRA(write_resp1)</text><path d="M360,1113.375 L360,1153.375 L528,1153.375 L528,1123.375 L518,1113.375 L360,1113.375 " fill="#FEFFDD" style="stroke:#181818;stroke-width:0.5;"/><path d="M518,1113.375 L518,1123.375 L528,1123.375 L518,1113.375 " fill="#FEFFDD" style="stroke:#181818;stroke-width:0.5;"/><text fill="#000000" font-family="sans-serif" font-size="13" lengthAdjust="spacing" textLength="124" x="366" y="1130.4419">&#8226; Parse status (OK)</text><text fill="#000000" font-family="sans-serif" font-size="13" lengthAdjust="spacing" textLength="147" x="366" y="1145.5747">&#8226; Stop Response-timer</text><polygon fill="#1E1E1E" points="59.5,1175.7734,49.5,1179.7734,59.5,1183.7734,55.5,1179.7734" style="stroke:#1E1E1E;stroke-width:1.0;"/><line style="stroke:#1E1E1E;stroke-width:1.0;" x1="53.5" x2="349.5" y1="1179.7734" y2="1179.7734"/><text fill="#000000" font-family="sans-serif" font-size="13" font-weight="bold" lengthAdjust="spacing" textLength="30" x="65.5" y="1174.7075">[21]</text><text fill="#000000" font-family="sans-serif" font-size="13" lengthAdjust="spacing" textLength="187" x="99.5" y="1174.7075">deliverResponse(write_resp1)</text><polygon fill="#1E1E1E" points="333.5,1204.9063,343.5,1208.9063,333.5,1212.9063,337.5,1208.9063" style="stroke:#1E1E1E;stroke-width:1.0;"/><line style="stroke:#1E1E1E;stroke-width:1.0;stroke-dasharray:2.0,2.0;" x1="43.5" x2="339.5" y1="1208.9063" y2="1208.9063"/><text fill="#000000" font-family="sans-serif" font-size="13" font-weight="bold" lengthAdjust="spacing" textLength="30" x="50.5" y="1203.8403">[22]</text><text fill="#000000" font-family="sans-serif" font-size="13" lengthAdjust="spacing" textLength="175" x="84.5" y="1203.8403">sendACK() [for write_resp1]</text><path d="M360,1221.9063 L360,1246.9063 L691,1246.9063 L691,1231.9063 L681,1221.9063 L360,1221.9063 " fill="#FEFFDD" style="stroke:#181818;stroke-width:0.5;"/><path d="M681,1221.9063 L681,1231.9063 L691,1231.9063 L681,1221.9063 " fill="#FEFFDD" style="stroke:#181818;stroke-width:0.5;"/><text fill="#000000" font-family="sans-serif" font-size="13" lengthAdjust="spacing" textLength="310" x="366" y="1238.9731">&#8226; Wrap CRA(ACK, Session ID=0x05, Flags=0x08)</text><polygon fill="#1E1E1E" points="648.5,1269.1719,658.5,1273.1719,648.5,1277.1719,652.5,1273.1719" style="stroke:#1E1E1E;stroke-width:1.0;"/><line style="stroke:#1E1E1E;stroke-width:1.0;" x1="350.5" x2="654.5" y1="1273.1719" y2="1273.1719"/><text fill="#000000" font-family="sans-serif" font-size="13" font-weight="bold" lengthAdjust="spacing" textLength="30" x="357.5" y="1268.106">[23]</text><text fill="#000000" font-family="sans-serif" font-size="13" lengthAdjust="spacing" textLength="92" x="391.5" y="1268.106">wrapCRA(ACK)</text><path d="M675,1286.1719 L675,1311.1719 L811,1311.1719 L811,1296.1719 L801,1286.1719 L675,1286.1719 " fill="#FEFFDD" style="stroke:#181818;stroke-width:0.5;"/><path d="M801,1286.1719 L801,1296.1719 L811,1296.1719 L801,1286.1719 " fill="#FEFFDD" style="stroke:#181818;stroke-width:0.5;"/><text fill="#000000" font-family="sans-serif" font-size="13" lengthAdjust="spacing" textLength="115" x="681" y="1303.2388">&#8226; Build ACK frame</text><polygon fill="#1E1E1E" points="366.5,1333.4375,356.5,1337.4375,366.5,1341.4375,362.5,1337.4375" style="stroke:#1E1E1E;stroke-width:1.0;"/><line style="stroke:#1E1E1E;stroke-width:1.0;stroke-dasharray:2.0,2.0;" x1="360.5" x2="664.5" y1="1337.4375" y2="1337.4375"/><text fill="#000000" font-family="sans-serif" font-size="13" font-weight="bold" lengthAdjust="spacing" textLength="30" x="372.5" y="1332.3716">[24]</text><text fill="#000000" font-family="sans-serif" font-size="13" lengthAdjust="spacing" textLength="71" x="406.5" y="1332.3716">ACK_write1</text><polygon fill="#1E1E1E" points="886.5,1362.5703,896.5,1366.5703,886.5,1370.5703,890.5,1366.5703" style="stroke:#1E1E1E;stroke-width:1.0;"/><line style="stroke:#1E1E1E;stroke-width:1.0;" x1="350.5" x2="892.5" y1="1366.5703" y2="1366.5703"/><text fill="#000000" font-family="sans-serif" font-size="13" font-weight="bold" lengthAdjust="spacing" textLength="30" x="357.5" y="1361.5044">[25]</text><text fill="#000000" font-family="sans-serif" font-size="13" lengthAdjust="spacing" textLength="153" x="391.5" y="1361.5044">sendFrame(ACK_write1)</text><polygon fill="#1E1E1E" points="1164.5,1391.7031,1174.5,1395.7031,1164.5,1399.7031,1168.5,1395.7031" style="stroke:#1E1E1E;stroke-width:1.0;"/><line style="stroke:#1E1E1E;stroke-width:1.0;" x1="903.5" x2="1170.5" y1="1395.7031" y2="1395.7031"/><text fill="#000000" font-family="sans-serif" font-size="13" font-weight="bold" lengthAdjust="spacing" textLength="30" x="910.5" y="1390.6372">[26]</text><text fill="#000000" font-family="sans-serif" font-size="13" lengthAdjust="spacing" textLength="158" x="944.5" y="1390.6372">UART bytes (ACK_write1)</text><polygon fill="#1E1E1E" points="1457.5,1420.8359,1467.5,1424.8359,1457.5,1428.8359,1461.5,1424.8359" style="stroke:#1E1E1E;stroke-width:1.0;"/><line style="stroke:#1E1E1E;stroke-width:1.0;" x1="1181.5" x2="1463.5" y1="1424.8359" y2="1424.8359"/><text fill="#000000" font-family="sans-serif" font-size="13" font-weight="bold" lengthAdjust="spacing" textLength="30" x="1188.5" y="1419.77">[27]</text><text fill="#000000" font-family="sans-serif" font-size="13" lengthAdjust="spacing" textLength="173" x="1222.5" y="1419.77">deliverBytes() [ACK_write1]</text><path d="M1484,1437.8359 L1484,1477.8359 L1636,1477.8359 L1636,1447.8359 L1626,1437.8359 L1484,1437.8359 " fill="#FEFFDD" style="stroke:#181818;stroke-width:0.5;"/><path d="M1626,1437.8359 L1626,1447.8359 L1636,1447.8359 L1626,1437.8359 " fill="#FEFFDD" style="stroke:#181818;stroke-width:0.5;"/><text fill="#000000" font-family="sans-serif" font-size="13" lengthAdjust="spacing" textLength="123" x="1490" y="1454.9028">&#8226; Extract CRA(ACK)</text><text fill="#000000" font-family="sans-serif" font-size="13" lengthAdjust="spacing" textLength="111" x="1490" y="1470.0356">&#8226; Stop ACK-timer</text><!--SRC=[nLTTRjj647xdAGOoK4kkXKXEbRQ1BO0cRSYmq10oqw0836D5BcN25CdiBcCBHO4S8YV8Qu_Gjnmb9-aiIP5BcbGLoq1b0uB9-Vdsc_bcrllVFdzwbb_utUS92O1J8VnmmU6v0clypWzZmiWIBCA4x_Wn2OL5N1VJmF1e0FkAILoQm9yQuEUKE7SB5YMXQqH1n61lC7hvwkTXzYvYBcNPS_dP6rBvaxuxZq9HlW6ul_K5rVvISd7w8Q6XG_D4EcFHlUfHVjIuKz-ZKp-azTnjPZNuqippVlM6JcgcKBBfCAhP1ZuKixRZQy8N0OM3WzCh2wxM3FJ1c1bmXWmmq1CHzMTKiDN1WQQf1UbC8Yv0Z-DEmGpXCD4RZ8ob2rEoegoJ6naDHgOzhHgP3KRMv8-gaLKriWbRq8eP6jdDHaf2QMGs6YdGfP7HQAIG88rqJID8MvWivvH1vtW-VZ-uFdun7tSqRR_KsB07wPau3LqE19nekIIX2rqdOYo91NLxpw0xZJZ2_qW4bQMPwD0V8_tmEirgP1cxxsONzjcDCNdxs-KXEBT9U3ViQIvLFPKmXXP6-CtynQs0o9CF0Bvz-WBdg2EAlQDN0rvHplqeX0lpPF0m6FK0SlihWLp2ZF8u2Zdj2t-9T7MF1WDOyfw6-40cqX2k16qYw7j6uaVncm0RAc2p3jXS0vXUM3zYhtUp41BgXxsJmI5CQNXoD7gbWZ2XlwOE4TpSCrJGi9BJh9AKmxPohbDokgNh1hoMXbxeQqlVj_hCXlbAK0wgDnmxKi-l6NN7HRySlqWVZYkXhKhJ7VKWRrgN2ke8dcgTfbgNpUVwt27C_Vw9N-97kTaPVbaobmR-HyfEvGcwFNXVW5Lel5O1exiIgruxMwrTtwLEvDAYeUHHd5lgt857_82NrKCa4eyidi9RVbRepeb4O_IQ-CE4AdylSz7MkfO-n3x34lq036UbJtVXhrrWBKdNaYbuIEVrVoeSkheGT1aB6Ceie- -N77pzMnvtzVMV_qDyDsdk7IIO1TXDY4qngehxgL1Sp287Po46O5c14aV-xIL1i89Tf_jcrTK1Fx_Ytbmsoeq-28QnjndQjbeztBHsMZrRBu-pxRworIhYEguTIC_1lvE4vFuW8l02mc-LK-XfrzdhRRbMNpSb4ddaiUnQGKJ2vMORL37erTFKC1W51XAdAxCQTFFAr8tBrcsPiwPALmczWQQDTK-5MebJBtPLPAqfApLUj-oahgzMzwgqHlamLeMLrGW7SNQjGgfsbbOn1oPDqbAmNjV7m9PZS3jLJSpYygQegesg-YniMIduJmAonTCcXkwRIxNLehYsSHuj24MRJUhOC5gpkwXw6SLAIJezl8YqKhhTFRJG58PyfAL3E0_88XNiBvit7de_vL9vclY1c_QT9wNGlCNmzLElaANhKpPNcxUbRRjAoWXFMI9dMUUkorDhjsAmbQnLXyU_]--></g></svg>