<?xml version="1.0" encoding="us-ascii" standalone="no"?><svg xmlns="http://www.w3.org/2000/svg" xmlns:xlink="http://www.w3.org/1999/xlink" contentStyleType="text/css" height="1217px" preserveAspectRatio="none" style="width:1926px;height:1217px;background:#FFFFFF;" version="1.1" viewBox="0 0 1926 1217" width="1926px" zoomAndPan="magnify"><defs/><g><text fill="#000000" font-family="sans-serif" font-size="14" font-weight="bold" lengthAdjust="spacing" textLength="304" x="809.5" y="27.9951">BSP Sequence - Erase Flash Sequence</text><rect fill="#FF9F1C" height="21.1328" style="stroke:#1E1E1E;stroke-width:1.0;" width="10" x="38.5" y="83.5938"/><rect fill="#FF9F1C" height="29.1328" style="stroke:#1E1E1E;stroke-width:1.0;" width="10" x="38.5" y="869.3125"/><rect fill="#FF9F1C" height="79.3984" style="stroke:#1E1E1E;stroke-width:1.0;" width="10" x="291.5" y="104.7266"/><rect fill="#FF9F1C" height="29.1328" style="stroke:#1E1E1E;stroke-width:1.0;" width="10" x="291.5" y="248.3906"/><rect fill="#FF9F1C" height="79.3984" style="stroke:#1E1E1E;stroke-width:1.0;" width="10" x="291.5" y="789.9141"/><rect fill="#FF9F1C" height="64.2656" style="stroke:#1E1E1E;stroke-width:1.0;" width="10" x="291.5" y="898.4453"/><rect fill="#FF9F1C" height="29.1328" style="stroke:#1E1E1E;stroke-width:1.0;" width="10" x="291.5" y="1026.9766"/><rect fill="#FF9F1C" height="64.2656" style="stroke:#1E1E1E;stroke-width:1.0;" width="10" x="506.5" y="184.125"/><rect fill="#FF9F1C" height="79.3984" style="stroke:#1E1E1E;stroke-width:1.0;" width="10" x="506.5" y="710.5156"/><rect fill="#FF9F1C" height="64.2656" style="stroke:#1E1E1E;stroke-width:1.0;" width="10" x="506.5" y="962.7109"/><rect fill="#FF9F1C" height="29.1328" style="stroke:#1E1E1E;stroke-width:1.0;" width="10" x="742.5" y="277.5234"/><rect fill="#FF9F1C" height="29.1328" style="stroke:#1E1E1E;stroke-width:1.0;" width="10" x="742.5" y="681.3828"/><rect fill="#FF9F1C" height="29.1328" style="stroke:#1E1E1E;stroke-width:1.0;" width="10" x="742.5" y="1056.1094"/><rect fill="#FF9F1C" height="29.1328" style="stroke:#1E1E1E;stroke-width:1.0;" width="10" x="963.5" y="306.6563"/><rect fill="#FF9F1C" height="29.1328" style="stroke:#1E1E1E;stroke-width:1.0;" width="10" x="963.5" y="652.25"/><rect fill="#FF9F1C" height="29.1328" style="stroke:#1E1E1E;stroke-width:1.0;" width="10" x="963.5" y="1085.2422"/><rect fill="#FF9F1C" height="79.3984" style="stroke:#1E1E1E;stroke-width:1.0;" width="10" x="1197.5" y="335.7891"/><rect fill="#FF9F1C" height="64.2656" style="stroke:#1E1E1E;stroke-width:1.0;" width="10" x="1197.5" y="587.9844"/><rect fill="#FF9F1C" height="59.2656" style="stroke:#1E1E1E;stroke-width:1.0;" width="10" x="1197.5" y="1114.375"/><rect fill="#FF9F1C" height="29.1328" style="stroke:#1E1E1E;stroke-width:1.0;" width="10" x="1423.5" y="415.1875"/><rect fill="#FF9F1C" height="79.3984" style="stroke:#1E1E1E;stroke-width:1.0;" width="10" x="1423.5" y="508.5859"/><rect fill="#FF9F1C" height="64.2656" style="stroke:#1E1E1E;stroke-width:1.0;" width="10" x="1743.5" y="444.3203"/><line style="stroke:#1E1E1E;stroke-width:0.5;stroke-dasharray:5.0,5.0;" x1="43" x2="43" y1="73.5938" y2="1182.6406"/><line style="stroke:#1E1E1E;stroke-width:0.5;stroke-dasharray:5.0,5.0;" x1="296.5" x2="296.5" y1="73.5938" y2="1182.6406"/><line style="stroke:#1E1E1E;stroke-width:0.5;stroke-dasharray:5.0,5.0;" x1="511" x2="511" y1="73.5938" y2="1182.6406"/><line style="stroke:#1E1E1E;stroke-width:0.5;stroke-dasharray:5.0,5.0;" x1="747.5" x2="747.5" y1="73.5938" y2="1182.6406"/><line style="stroke:#1E1E1E;stroke-width:0.5;stroke-dasharray:5.0,5.0;" x1="968" x2="968" y1="73.5938" y2="1182.6406"/><line style="stroke:#1E1E1E;stroke-width:0.5;stroke-dasharray:5.0,5.0;" x1="1202.5" x2="1202.5" y1="73.5938" y2="1182.6406"/><line style="stroke:#1E1E1E;stroke-width:0.5;stroke-dasharray:5.0,5.0;" x1="1428" x2="1428" y1="73.5938" y2="1182.6406"/><line style="stroke:#1E1E1E;stroke-width:0.5;stroke-dasharray:5.0,5.0;" x1="1748.5" x2="1748.5" y1="73.5938" y2="1182.6406"/><rect fill="#053671" height="30.2969" rx="2.5" ry="2.5" style="stroke:#1E1E1E;stroke-width:0.5;" width="77" x="5" y="42.2969"/><text fill="#FFFFFF" font-family="sans-serif" font-size="14" lengthAdjust="spacing" textLength="63" x="12" y="62.292">Host App</text><rect fill="#053671" height="30.2969" rx="2.5" ry="2.5" style="stroke:#1E1E1E;stroke-width:0.5;" width="77" x="5" y="1181.6406"/><text fill="#FFFFFF" font-family="sans-serif" font-size="14" lengthAdjust="spacing" textLength="63" x="12" y="1201.6357">Host App</text><rect fill="#053671" height="30.2969" rx="2.5" ry="2.5" style="stroke:#1E1E1E;stroke-width:0.5;" width="122" x="235.5" y="42.2969"/><text fill="#FFFFFF" font-family="sans-serif" font-size="14" lengthAdjust="spacing" textLength="108" x="242.5" y="62.292">Host Cmd Layer</text><rect fill="#053671" height="30.2969" rx="2.5" ry="2.5" style="stroke:#1E1E1E;stroke-width:0.5;" width="122" x="235.5" y="1181.6406"/><text fill="#FFFFFF" font-family="sans-serif" font-size="14" lengthAdjust="spacing" textLength="108" x="242.5" y="1201.6357">Host Cmd Layer</text><rect fill="#053671" height="30.2969" rx="2.5" ry="2.5" style="stroke:#1E1E1E;stroke-width:0.5;" width="117" x="453" y="42.2969"/><text fill="#FFFFFF" font-family="sans-serif" font-size="14" lengthAdjust="spacing" textLength="103" x="460" y="62.292">Host DTL Layer</text><rect fill="#053671" height="30.2969" rx="2.5" ry="2.5" style="stroke:#1E1E1E;stroke-width:0.5;" width="117" x="453" y="1181.6406"/><text fill="#FFFFFF" font-family="sans-serif" font-size="14" lengthAdjust="spacing" textLength="103" x="460" y="1201.6357">Host DTL Layer</text><rect fill="#053671" height="30.2969" rx="2.5" ry="2.5" style="stroke:#1E1E1E;stroke-width:0.5;" width="118" x="688.5" y="42.2969"/><text fill="#FFFFFF" font-family="sans-serif" font-size="14" lengthAdjust="spacing" textLength="104" x="695.5" y="62.292">Host PHY Layer</text><rect fill="#053671" height="30.2969" rx="2.5" ry="2.5" style="stroke:#1E1E1E;stroke-width:0.5;" width="118" x="688.5" y="1181.6406"/><text fill="#FFFFFF" font-family="sans-serif" font-size="14" lengthAdjust="spacing" textLength="104" x="695.5" y="1201.6357">Host PHY Layer</text><rect fill="#053671" height="30.2969" rx="2.5" ry="2.5" style="stroke:#1E1E1E;stroke-width:0.5;" width="131" x="903" y="42.2969"/><text fill="#FFFFFF" font-family="sans-serif" font-size="14" lengthAdjust="spacing" textLength="117" x="910" y="62.292">Target PHY Layer</text><rect fill="#053671" height="30.2969" rx="2.5" ry="2.5" style="stroke:#1E1E1E;stroke-width:0.5;" width="131" x="903" y="1181.6406"/><text fill="#FFFFFF" font-family="sans-serif" font-size="14" lengthAdjust="spacing" textLength="117" x="910" y="1201.6357">Target PHY Layer</text><rect fill="#053671" height="30.2969" rx="2.5" ry="2.5" style="stroke:#1E1E1E;stroke-width:0.5;" width="130" x="1137.5" y="42.2969"/><text fill="#FFFFFF" font-family="sans-serif" font-size="14" lengthAdjust="spacing" textLength="116" x="1144.5" y="62.292">Target DTL Layer</text><rect fill="#053671" height="30.2969" rx="2.5" ry="2.5" style="stroke:#1E1E1E;stroke-width:0.5;" width="130" x="1137.5" y="1181.6406"/><text fill="#FFFFFF" font-family="sans-serif" font-size="14" lengthAdjust="spacing" textLength="116" x="1144.5" y="1201.6357">Target DTL Layer</text><rect fill="#053671" height="30.2969" rx="2.5" ry="2.5" style="stroke:#1E1E1E;stroke-width:0.5;" width="135" x="1361" y="42.2969"/><text fill="#FFFFFF" font-family="sans-serif" font-size="14" lengthAdjust="spacing" textLength="121" x="1368" y="62.292">Target Cmd Layer</text><rect fill="#053671" height="30.2969" rx="2.5" ry="2.5" style="stroke:#1E1E1E;stroke-width:0.5;" width="135" x="1361" y="1181.6406"/><text fill="#FFFFFF" font-family="sans-serif" font-size="14" lengthAdjust="spacing" textLength="121" x="1368" y="1201.6357">Target Cmd Layer</text><rect fill="#053671" height="30.2969" rx="2.5" ry="2.5" style="stroke:#1E1E1E;stroke-width:0.5;" width="90" x="1703.5" y="42.2969"/><text fill="#FFFFFF" font-family="sans-serif" font-size="14" lengthAdjust="spacing" textLength="76" x="1710.5" y="62.292">Target App</text><rect fill="#053671" height="30.2969" rx="2.5" ry="2.5" style="stroke:#1E1E1E;stroke-width:0.5;" width="90" x="1703.5" y="1181.6406"/><text fill="#FFFFFF" font-family="sans-serif" font-size="14" lengthAdjust="spacing" textLength="76" x="1710.5" y="1201.6357">Target App</text><rect fill="#FF9F1C" height="21.1328" style="stroke:#1E1E1E;stroke-width:1.0;" width="10" x="38.5" y="83.5938"/><rect fill="#FF9F1C" height="29.1328" style="stroke:#1E1E1E;stroke-width:1.0;" width="10" x="38.5" y="869.3125"/><rect fill="#FF9F1C" height="79.3984" style="stroke:#1E1E1E;stroke-width:1.0;" width="10" x="291.5" y="104.7266"/><rect fill="#FF9F1C" height="29.1328" style="stroke:#1E1E1E;stroke-width:1.0;" width="10" x="291.5" y="248.3906"/><rect fill="#FF9F1C" height="79.3984" style="stroke:#1E1E1E;stroke-width:1.0;" width="10" x="291.5" y="789.9141"/><rect fill="#FF9F1C" height="64.2656" style="stroke:#1E1E1E;stroke-width:1.0;" width="10" x="291.5" y="898.4453"/><rect fill="#FF9F1C" height="29.1328" style="stroke:#1E1E1E;stroke-width:1.0;" width="10" x="291.5" y="1026.9766"/><rect fill="#FF9F1C" height="64.2656" style="stroke:#1E1E1E;stroke-width:1.0;" width="10" x="506.5" y="184.125"/><rect fill="#FF9F1C" height="79.3984" style="stroke:#1E1E1E;stroke-width:1.0;" width="10" x="506.5" y="710.5156"/><rect fill="#FF9F1C" height="64.2656" style="stroke:#1E1E1E;stroke-width:1.0;" width="10" x="506.5" y="962.7109"/><rect fill="#FF9F1C" height="29.1328" style="stroke:#1E1E1E;stroke-width:1.0;" width="10" x="742.5" y="277.5234"/><rect fill="#FF9F1C" height="29.1328" style="stroke:#1E1E1E;stroke-width:1.0;" width="10" x="742.5" y="681.3828"/><rect fill="#FF9F1C" height="29.1328" style="stroke:#1E1E1E;stroke-width:1.0;" width="10" x="742.5" y="1056.1094"/><rect fill="#FF9F1C" height="29.1328" style="stroke:#1E1E1E;stroke-width:1.0;" width="10" x="963.5" y="306.6563"/><rect fill="#FF9F1C" height="29.1328" style="stroke:#1E1E1E;stroke-width:1.0;" width="10" x="963.5" y="652.25"/><rect fill="#FF9F1C" height="29.1328" style="stroke:#1E1E1E;stroke-width:1.0;" width="10" x="963.5" y="1085.2422"/><rect fill="#FF9F1C" height="79.3984" style="stroke:#1E1E1E;stroke-width:1.0;" width="10" x="1197.5" y="335.7891"/><rect fill="#FF9F1C" height="64.2656" style="stroke:#1E1E1E;stroke-width:1.0;" width="10" x="1197.5" y="587.9844"/><rect fill="#FF9F1C" height="59.2656" style="stroke:#1E1E1E;stroke-width:1.0;" width="10" x="1197.5" y="1114.375"/><rect fill="#FF9F1C" height="29.1328" style="stroke:#1E1E1E;stroke-width:1.0;" width="10" x="1423.5" y="415.1875"/><rect fill="#FF9F1C" height="79.3984" style="stroke:#1E1E1E;stroke-width:1.0;" width="10" x="1423.5" y="508.5859"/><rect fill="#FF9F1C" height="64.2656" style="stroke:#1E1E1E;stroke-width:1.0;" width="10" x="1743.5" y="444.3203"/><polygon fill="#1E1E1E" points="279.5,100.7266,289.5,104.7266,279.5,108.7266,283.5,104.7266" style="stroke:#1E1E1E;stroke-width:1.0;"/><line style="stroke:#1E1E1E;stroke-width:1.0;" x1="43.5" x2="285.5" y1="104.7266" y2="104.7266"/><text fill="#000000" font-family="sans-serif" font-size="13" font-weight="bold" lengthAdjust="spacing" textLength="21" x="50.5" y="99.6606">[1]</text><text fill="#000000" font-family="sans-serif" font-size="13" lengthAdjust="spacing" textLength="199" x="75.5" y="99.6606">sendCommand(ERASE_FLASH)</text><path d="M306,117.7266 L306,157.7266 L636,157.7266 L636,127.7266 L626,117.7266 L306,117.7266 " fill="#FEFFDD" style="stroke:#181818;stroke-width:0.5;"/><path d="M626,117.7266 L626,127.7266 L636,127.7266 L626,117.7266 " fill="#FEFFDD" style="stroke:#181818;stroke-width:0.5;"/><text fill="#000000" font-family="sans-serif" font-size="13" lengthAdjust="spacing" textLength="301" x="312" y="134.7935">&#8226; Frame CRA(ERASE_FLASH, Session ID=0x01)</text><text fill="#000000" font-family="sans-serif" font-size="13" lengthAdjust="spacing" textLength="211" x="312" y="149.9263">&#8226; Start Response-timer (200 ms)</text><polygon fill="#1E1E1E" points="494.5,180.125,504.5,184.125,494.5,188.125,498.5,184.125" style="stroke:#1E1E1E;stroke-width:1.0;"/><line style="stroke:#1E1E1E;stroke-width:1.0;" x1="296.5" x2="500.5" y1="184.125" y2="184.125"/><text fill="#000000" font-family="sans-serif" font-size="13" font-weight="bold" lengthAdjust="spacing" textLength="21" x="303.5" y="179.0591">[2]</text><text fill="#000000" font-family="sans-serif" font-size="13" lengthAdjust="spacing" textLength="157" x="328.5" y="179.0591">wrapCRA(ERASE_FLASH)</text><path d="M521,197.125 L521,222.125 L719,222.125 L719,207.125 L709,197.125 L521,197.125 " fill="#FEFFDD" style="stroke:#181818;stroke-width:0.5;"/><path d="M709,197.125 L709,207.125 L719,207.125 L709,197.125 " fill="#FEFFDD" style="stroke:#181818;stroke-width:0.5;"/><text fill="#000000" font-family="sans-serif" font-size="13" lengthAdjust="spacing" textLength="177" x="527" y="214.1919">&#8226; SLIP+CRC(ERASE_FLASH)</text><polygon fill="#1E1E1E" points="312.5,244.3906,302.5,248.3906,312.5,252.3906,308.5,248.3906" style="stroke:#1E1E1E;stroke-width:1.0;"/><line style="stroke:#1E1E1E;stroke-width:1.0;stroke-dasharray:2.0,2.0;" x1="306.5" x2="510.5" y1="248.3906" y2="248.3906"/><text fill="#000000" font-family="sans-serif" font-size="13" font-weight="bold" lengthAdjust="spacing" textLength="21" x="318.5" y="243.3247">[3]</text><text fill="#000000" font-family="sans-serif" font-size="13" lengthAdjust="spacing" textLength="69" x="343.5" y="243.3247">CRA_erase</text><polygon fill="#1E1E1E" points="730.5,273.5234,740.5,277.5234,730.5,281.5234,734.5,277.5234" style="stroke:#1E1E1E;stroke-width:1.0;"/><line style="stroke:#1E1E1E;stroke-width:1.0;" x1="296.5" x2="736.5" y1="277.5234" y2="277.5234"/><text fill="#000000" font-family="sans-serif" font-size="13" font-weight="bold" lengthAdjust="spacing" textLength="21" x="303.5" y="272.4575">[4]</text><text fill="#000000" font-family="sans-serif" font-size="13" lengthAdjust="spacing" textLength="151" x="328.5" y="272.4575">sendFrame(CRA_erase)</text><polygon fill="#1E1E1E" points="951.5,302.6563,961.5,306.6563,951.5,310.6563,955.5,306.6563" style="stroke:#1E1E1E;stroke-width:1.0;"/><line style="stroke:#1E1E1E;stroke-width:1.0;" x1="747.5" x2="957.5" y1="306.6563" y2="306.6563"/><text fill="#000000" font-family="sans-serif" font-size="13" font-weight="bold" lengthAdjust="spacing" textLength="21" x="754.5" y="301.5903">[5]</text><text fill="#000000" font-family="sans-serif" font-size="13" lengthAdjust="spacing" textLength="156" x="779.5" y="301.5903">UART bytes (CRA_erase)</text><polygon fill="#1E1E1E" points="1185.5,331.7891,1195.5,335.7891,1185.5,339.7891,1189.5,335.7891" style="stroke:#1E1E1E;stroke-width:1.0;"/><line style="stroke:#1E1E1E;stroke-width:1.0;" x1="968.5" x2="1191.5" y1="335.7891" y2="335.7891"/><text fill="#000000" font-family="sans-serif" font-size="13" font-weight="bold" lengthAdjust="spacing" textLength="21" x="975.5" y="330.7231">[6]</text><text fill="#000000" font-family="sans-serif" font-size="13" lengthAdjust="spacing" textLength="171" x="1000.5" y="330.7231">deliverBytes() [CRA_erase]</text><path d="M1212,348.7891 L1212,388.7891 L1334,388.7891 L1334,358.7891 L1324,348.7891 L1212,348.7891 " fill="#FEFFDD" style="stroke:#181818;stroke-width:0.5;"/><path d="M1324,348.7891 L1324,358.7891 L1334,358.7891 L1324,348.7891 " fill="#FEFFDD" style="stroke:#181818;stroke-width:0.5;"/><text fill="#000000" font-family="sans-serif" font-size="13" lengthAdjust="spacing" textLength="91" x="1218" y="365.856">&#8226; SLIP-decode</text><text fill="#000000" font-family="sans-serif" font-size="13" lengthAdjust="spacing" textLength="101" x="1218" y="380.9888">&#8226; CRC check OK</text><polygon fill="#1E1E1E" points="1411.5,411.1875,1421.5,415.1875,1411.5,419.1875,1415.5,415.1875" style="stroke:#1E1E1E;stroke-width:1.0;"/><line style="stroke:#1E1E1E;stroke-width:1.0;" x1="1202.5" x2="1417.5" y1="415.1875" y2="415.1875"/><text fill="#000000" font-family="sans-serif" font-size="13" font-weight="bold" lengthAdjust="spacing" textLength="21" x="1209.5" y="410.1216">[7]</text><text fill="#000000" font-family="sans-serif" font-size="13" lengthAdjust="spacing" textLength="172" x="1234.5" y="410.1216">extractCRA(ERASE_FLASH)</text><polygon fill="#1E1E1E" points="1731.5,440.3203,1741.5,444.3203,1731.5,448.3203,1735.5,444.3203" style="stroke:#1E1E1E;stroke-width:1.0;"/><line style="stroke:#1E1E1E;stroke-width:1.0;" x1="1428.5" x2="1737.5" y1="444.3203" y2="444.3203"/><text fill="#000000" font-family="sans-serif" font-size="13" font-weight="bold" lengthAdjust="spacing" textLength="21" x="1435.5" y="439.2544">[8]</text><text fill="#000000" font-family="sans-serif" font-size="13" lengthAdjust="spacing" textLength="210" x="1460.5" y="439.2544">deliverCommand(ERASE_FLASH)</text><path d="M1758,457.3203 L1758,482.3203 L1919,482.3203 L1919,467.3203 L1909,457.3203 L1758,457.3203 " fill="#FEFFDD" style="stroke:#181818;stroke-width:0.5;"/><path d="M1909,457.3203 L1909,467.3203 L1919,467.3203 L1909,457.3203 " fill="#FEFFDD" style="stroke:#181818;stroke-width:0.5;"/><text fill="#000000" font-family="sans-serif" font-size="13" lengthAdjust="spacing" textLength="140" x="1764" y="474.3872">&#8226; Erase flash memory</text><polygon fill="#1E1E1E" points="1444.5,504.5859,1434.5,508.5859,1444.5,512.5859,1440.5,508.5859" style="stroke:#1E1E1E;stroke-width:1.0;"/><line style="stroke:#1E1E1E;stroke-width:1.0;stroke-dasharray:2.0,2.0;" x1="1438.5" x2="1747.5" y1="508.5859" y2="508.5859"/><text fill="#000000" font-family="sans-serif" font-size="13" font-weight="bold" lengthAdjust="spacing" textLength="21" x="1450.5" y="503.52">[9]</text><text fill="#000000" font-family="sans-serif" font-size="13" lengthAdjust="spacing" textLength="266" x="1475.5" y="503.52">sendResponse(erase_resp, Status=0x00)</text><path d="M1438,521.5859 L1438,561.5859 L1739,561.5859 L1739,531.5859 L1729,521.5859 L1438,521.5859 " fill="#FEFFDD" style="stroke:#181818;stroke-width:0.5;"/><path d="M1729,521.5859 L1729,531.5859 L1739,531.5859 L1729,521.5859 " fill="#FEFFDD" style="stroke:#181818;stroke-width:0.5;"/><text fill="#000000" font-family="sans-serif" font-size="13" lengthAdjust="spacing" textLength="272" x="1444" y="538.6528">&#8226; Wrap CRA(erase_resp, Session ID=0x01)</text><text fill="#000000" font-family="sans-serif" font-size="13" lengthAdjust="spacing" textLength="175" x="1444" y="553.7856">&#8226; Start ACK-timer (200 ms)</text><polygon fill="#1E1E1E" points="1218.5,583.9844,1208.5,587.9844,1218.5,591.9844,1214.5,587.9844" style="stroke:#1E1E1E;stroke-width:1.0;"/><line style="stroke:#1E1E1E;stroke-width:1.0;" x1="1212.5" x2="1427.5" y1="587.9844" y2="587.9844"/><text fill="#000000" font-family="sans-serif" font-size="13" font-weight="bold" lengthAdjust="spacing" textLength="30" x="1224.5" y="582.9185">[10]</text><text fill="#000000" font-family="sans-serif" font-size="13" lengthAdjust="spacing" textLength="137" x="1258.5" y="582.9185">wrapCRA(erase_resp)</text><path d="M1212,600.9844 L1212,625.9844 L1390,625.9844 L1390,610.9844 L1380,600.9844 L1212,600.9844 " fill="#FEFFDD" style="stroke:#181818;stroke-width:0.5;"/><path d="M1380,600.9844 L1380,610.9844 L1390,610.9844 L1380,600.9844 " fill="#FEFFDD" style="stroke:#181818;stroke-width:0.5;"/><text fill="#000000" font-family="sans-serif" font-size="13" lengthAdjust="spacing" textLength="157" x="1218" y="618.0513">&#8226; SLIP+CRC(erase_resp)</text><polygon fill="#1E1E1E" points="984.5,648.25,974.5,652.25,984.5,656.25,980.5,652.25" style="stroke:#1E1E1E;stroke-width:1.0;"/><line style="stroke:#1E1E1E;stroke-width:1.0;" x1="978.5" x2="1201.5" y1="652.25" y2="652.25"/><text fill="#000000" font-family="sans-serif" font-size="13" font-weight="bold" lengthAdjust="spacing" textLength="30" x="990.5" y="647.1841">[11]</text><text fill="#000000" font-family="sans-serif" font-size="13" lengthAdjust="spacing" textLength="153" x="1024.5" y="647.1841">sendFrame(erase_resp)</text><polygon fill="#1E1E1E" points="763.5,677.3828,753.5,681.3828,763.5,685.3828,759.5,681.3828" style="stroke:#1E1E1E;stroke-width:1.0;"/><line style="stroke:#1E1E1E;stroke-width:1.0;" x1="757.5" x2="967.5" y1="681.3828" y2="681.3828"/><text fill="#000000" font-family="sans-serif" font-size="13" font-weight="bold" lengthAdjust="spacing" textLength="30" x="769.5" y="676.3169">[12]</text><text fill="#000000" font-family="sans-serif" font-size="13" lengthAdjust="spacing" textLength="158" x="803.5" y="676.3169">UART bytes (erase_resp)</text><polygon fill="#1E1E1E" points="527.5,706.5156,517.5,710.5156,527.5,714.5156,523.5,710.5156" style="stroke:#1E1E1E;stroke-width:1.0;"/><line style="stroke:#1E1E1E;stroke-width:1.0;" x1="521.5" x2="746.5" y1="710.5156" y2="710.5156"/><text fill="#000000" font-family="sans-serif" font-size="13" font-weight="bold" lengthAdjust="spacing" textLength="30" x="533.5" y="705.4497">[13]</text><text fill="#000000" font-family="sans-serif" font-size="13" lengthAdjust="spacing" textLength="173" x="567.5" y="705.4497">deliverBytes() [erase_resp]</text><path d="M521,723.5156 L521,763.5156 L643,763.5156 L643,733.5156 L633,723.5156 L521,723.5156 " fill="#FEFFDD" style="stroke:#181818;stroke-width:0.5;"/><path d="M633,723.5156 L633,733.5156 L643,733.5156 L633,723.5156 " fill="#FEFFDD" style="stroke:#181818;stroke-width:0.5;"/><text fill="#000000" font-family="sans-serif" font-size="13" lengthAdjust="spacing" textLength="91" x="527" y="740.5825">&#8226; SLIP-decode</text><text fill="#000000" font-family="sans-serif" font-size="13" lengthAdjust="spacing" textLength="101" x="527" y="755.7153">&#8226; CRC check OK</text><polygon fill="#1E1E1E" points="312.5,785.9141,302.5,789.9141,312.5,793.9141,308.5,789.9141" style="stroke:#1E1E1E;stroke-width:1.0;"/><line style="stroke:#1E1E1E;stroke-width:1.0;" x1="306.5" x2="510.5" y1="789.9141" y2="789.9141"/><text fill="#000000" font-family="sans-serif" font-size="13" font-weight="bold" lengthAdjust="spacing" textLength="30" x="318.5" y="784.8481">[14]</text><text fill="#000000" font-family="sans-serif" font-size="13" lengthAdjust="spacing" textLength="152" x="352.5" y="784.8481">extractCRA(erase_resp)</text><path d="M306,802.9141 L306,842.9141 L474,842.9141 L474,812.9141 L464,802.9141 L306,802.9141 " fill="#FEFFDD" style="stroke:#181818;stroke-width:0.5;"/><path d="M464,802.9141 L464,812.9141 L474,812.9141 L464,802.9141 " fill="#FEFFDD" style="stroke:#181818;stroke-width:0.5;"/><text fill="#000000" font-family="sans-serif" font-size="13" lengthAdjust="spacing" textLength="124" x="312" y="819.981">&#8226; Parse status (OK)</text><text fill="#000000" font-family="sans-serif" font-size="13" lengthAdjust="spacing" textLength="147" x="312" y="835.1138">&#8226; Stop Response-timer</text><polygon fill="#1E1E1E" points="59.5,865.3125,49.5,869.3125,59.5,873.3125,55.5,869.3125" style="stroke:#1E1E1E;stroke-width:1.0;"/><line style="stroke:#1E1E1E;stroke-width:1.0;" x1="53.5" x2="295.5" y1="869.3125" y2="869.3125"/><text fill="#000000" font-family="sans-serif" font-size="13" font-weight="bold" lengthAdjust="spacing" textLength="30" x="65.5" y="864.2466">[15]</text><text fill="#000000" font-family="sans-serif" font-size="13" lengthAdjust="spacing" textLength="185" x="99.5" y="864.2466">deliverResponse(erase_resp)</text><polygon fill="#1E1E1E" points="279.5,894.4453,289.5,898.4453,279.5,902.4453,283.5,898.4453" style="stroke:#1E1E1E;stroke-width:1.0;"/><line style="stroke:#1E1E1E;stroke-width:1.0;stroke-dasharray:2.0,2.0;" x1="43.5" x2="285.5" y1="898.4453" y2="898.4453"/><text fill="#000000" font-family="sans-serif" font-size="13" font-weight="bold" lengthAdjust="spacing" textLength="30" x="50.5" y="893.3794">[16]</text><text fill="#000000" font-family="sans-serif" font-size="13" lengthAdjust="spacing" textLength="173" x="84.5" y="893.3794">sendACK() [for erase_resp]</text><path d="M306,911.4453 L306,936.4453 L637,936.4453 L637,921.4453 L627,911.4453 L306,911.4453 " fill="#FEFFDD" style="stroke:#181818;stroke-width:0.5;"/><path d="M627,911.4453 L627,921.4453 L637,921.4453 L627,911.4453 " fill="#FEFFDD" style="stroke:#181818;stroke-width:0.5;"/><text fill="#000000" font-family="sans-serif" font-size="13" lengthAdjust="spacing" textLength="310" x="312" y="928.5122">&#8226; Wrap CRA(ACK, Session ID=0x01, Flags=0x08)</text><polygon fill="#1E1E1E" points="494.5,958.7109,504.5,962.7109,494.5,966.7109,498.5,962.7109" style="stroke:#1E1E1E;stroke-width:1.0;"/><line style="stroke:#1E1E1E;stroke-width:1.0;" x1="296.5" x2="500.5" y1="962.7109" y2="962.7109"/><text fill="#000000" font-family="sans-serif" font-size="13" font-weight="bold" lengthAdjust="spacing" textLength="30" x="303.5" y="957.645">[17]</text><text fill="#000000" font-family="sans-serif" font-size="13" lengthAdjust="spacing" textLength="92" x="337.5" y="957.645">wrapCRA(ACK)</text><path d="M521,975.7109 L521,1000.7109 L657,1000.7109 L657,985.7109 L647,975.7109 L521,975.7109 " fill="#FEFFDD" style="stroke:#181818;stroke-width:0.5;"/><path d="M647,975.7109 L647,985.7109 L657,985.7109 L647,975.7109 " fill="#FEFFDD" style="stroke:#181818;stroke-width:0.5;"/><text fill="#000000" font-family="sans-serif" font-size="13" lengthAdjust="spacing" textLength="115" x="527" y="992.7778">&#8226; Build ACK frame</text><polygon fill="#1E1E1E" points="312.5,1022.9766,302.5,1026.9766,312.5,1030.9766,308.5,1026.9766" style="stroke:#1E1E1E;stroke-width:1.0;"/><line style="stroke:#1E1E1E;stroke-width:1.0;stroke-dasharray:2.0,2.0;" x1="306.5" x2="510.5" y1="1026.9766" y2="1026.9766"/><text fill="#000000" font-family="sans-serif" font-size="13" font-weight="bold" lengthAdjust="spacing" textLength="30" x="318.5" y="1021.9106">[18]</text><text fill="#000000" font-family="sans-serif" font-size="13" lengthAdjust="spacing" textLength="69" x="352.5" y="1021.9106">ACK_erase</text><polygon fill="#1E1E1E" points="730.5,1052.1094,740.5,1056.1094,730.5,1060.1094,734.5,1056.1094" style="stroke:#1E1E1E;stroke-width:1.0;"/><line style="stroke:#1E1E1E;stroke-width:1.0;" x1="296.5" x2="736.5" y1="1056.1094" y2="1056.1094"/><text fill="#000000" font-family="sans-serif" font-size="13" font-weight="bold" lengthAdjust="spacing" textLength="30" x="303.5" y="1051.0435">[19]</text><text fill="#000000" font-family="sans-serif" font-size="13" lengthAdjust="spacing" textLength="151" x="337.5" y="1051.0435">sendFrame(ACK_erase)</text><polygon fill="#1E1E1E" points="951.5,1081.2422,961.5,1085.2422,951.5,1089.2422,955.5,1085.2422" style="stroke:#1E1E1E;stroke-width:1.0;"/><line style="stroke:#1E1E1E;stroke-width:1.0;" x1="747.5" x2="957.5" y1="1085.2422" y2="1085.2422"/><text fill="#000000" font-family="sans-serif" font-size="13" font-weight="bold" lengthAdjust="spacing" textLength="30" x="754.5" y="1080.1763">[20]</text><text fill="#000000" font-family="sans-serif" font-size="13" lengthAdjust="spacing" textLength="156" x="788.5" y="1080.1763">UART bytes (ACK_erase)</text><polygon fill="#1E1E1E" points="1185.5,1110.375,1195.5,1114.375,1185.5,1118.375,1189.5,1114.375" style="stroke:#1E1E1E;stroke-width:1.0;"/><line style="stroke:#1E1E1E;stroke-width:1.0;" x1="968.5" x2="1191.5" y1="1114.375" y2="1114.375"/><text fill="#000000" font-family="sans-serif" font-size="13" font-weight="bold" lengthAdjust="spacing" textLength="30" x="975.5" y="1109.3091">[21]</text><text fill="#000000" font-family="sans-serif" font-size="13" lengthAdjust="spacing" textLength="171" x="1009.5" y="1109.3091">deliverBytes() [ACK_erase]</text><path d="M1212,1127.375 L1212,1167.375 L1364,1167.375 L1364,1137.375 L1354,1127.375 L1212,1127.375 " fill="#FEFFDD" style="stroke:#181818;stroke-width:0.5;"/><path d="M1354,1127.375 L1354,1137.375 L1364,1137.375 L1354,1127.375 " fill="#FEFFDD" style="stroke:#181818;stroke-width:0.5;"/><text fill="#000000" font-family="sans-serif" font-size="13" lengthAdjust="spacing" textLength="123" x="1218" y="1144.4419">&#8226; Extract CRA(ACK)</text><text fill="#000000" font-family="sans-serif" font-size="13" lengthAdjust="spacing" textLength="111" x="1218" y="1159.5747">&#8226; Stop ACK-timer</text><!--SRC=[hLR_Qjj84Fv_ds9meR7JcBDJhjSUlO0Y9RZ4K67hMae9OIEjdIMMLhUxRXgEWpv4dw2FrYVfhAmVArNIcJHA84JwPkRJD_FDwk3xro-FyWllkDhI3IYcDK_M2XuhCL6tF4cff37uL6eUyfGcsgTHX6LWUZo10mkILX3ubm1UfpIyNKknJI9NR8I49vFVdx_uOxfx9cJ4vEw-kPvCcVd9dfsBH5TF0Evkk6RaFwkMOlziMHAol90ZfRYp8whBpZldApRd2MlMxe8rw1lOQlLgDGqpc2L9tylOi1uzB5ZNwnFDzOR1uU7fqeTbeS0OpYHL3CutLDsKjmyF2R4RCfW9fS59qq6f35KmSrf0RXp1dDupESX1RWl82-PraDS2ycSVwY2_3WgeNBCQ3451EyWgQ41UAyYYRa1kAyWImO0SGkXMYsGRNpC9WzVN9nydbwz_kpuP479GUMmwWkoTUC8rfvefE5iuoxEhyxcpd44eufWcqQywZz1Gyq-OtNHcvi3u1DM7Ft7SpSXa9OPMsH69c1rXXRia4VXNylMD1h4oDm2-V_a6vsWV1kx2iHCTuTmenKK2Rxo_9fyd-BAGuvSQ9OG5Kwb851jh7gDAm-F9168r8iWBJ262D0rP3ydUIPesyjU9kZPHhqdKAmhFt_ZFt8LRprCLz61So8FLhfWnGQsCLzSZP-ZdScOw3Cl87eO-mI0C3KpetyuYWEjxq_-kOBysDySZoESkbI94bHkJyrYxkcM6q4d1ZhbfIyGs_1EJfuRxS0GVI_QNDdkCiH8qcnFOpHb7B1GHAoS5UmNX3GjluUr5rIUiRHYODh7FMcBklja8xAQXVuEiQO5JyVy_6mHsxz3SZHTmShAxdRdATcRCOY7lBSfEDbf1uRnY-8UPN5SI_pqolj1RPSmogTTtwc_Gg5_Oy3sQ97DXBMU_2HttejD_kL2s_whCFGBrTZYpdvscsTMwcReArdfQpEIiwQQkwBgTdkThkDrCCkyKFCreAICPxB5i2ulFsenI4Rji-dpFDRQVKsPUkUyjftJ8qjnk7TiUlofG3PNDAWpVNjWZ9TB6MlzfcrksQ_50pyhS7LxswOMDC5gkyAEcIy_zpg_IE9Zn9ySScQ-WTURAb_s74qO_v50wtV9Db4tLoeny-t64Znzu79MH3pcEEe9zik-9K2Puo8bmjXlPeZMDGIjNLwLOVKFy0000]--></g></svg>