<?xml version="1.0" encoding="us-ascii" standalone="no"?><svg xmlns="http://www.w3.org/2000/svg" xmlns:xlink="http://www.w3.org/1999/xlink" contentStyleType="text/css" height="1493px" preserveAspectRatio="none" style="width:1612px;height:1493px;background:#FFFFFF;" version="1.1" viewBox="0 0 1612 1493" width="1612px" zoomAndPan="magnify"><defs/><g><text fill="#000000" font-family="sans-serif" font-size="14" font-weight="bold" lengthAdjust="spacing" textLength="347" x="631" y="27.9951">BSP Sequence - Single Corrupted Command</text><rect fill="#FF9F1C" height="21.1328" style="stroke:#1E1E1E;stroke-width:1.0;" width="10" x="38.5" y="83.5938"/><rect fill="#FF9F1C" height="29.1328" style="stroke:#1E1E1E;stroke-width:1.0;" width="10" x="38.5" y="1144.6406"/><rect fill="#FF9F1C" height="79.3984" style="stroke:#1E1E1E;stroke-width:1.0;" width="10" x="243.5" y="104.7266"/><rect fill="#FF9F1C" height="29.1328" style="stroke:#1E1E1E;stroke-width:1.0;" width="10" x="243.5" y="248.3906"/><rect fill="#FF9F1C" height="79.3984" style="stroke:#1E1E1E;stroke-width:1.0;" width="10" x="243.5" y="415.1875"/><rect fill="#FF9F1C" height="29.1328" style="stroke:#1E1E1E;stroke-width:1.0;" width="10" x="243.5" y="558.8516"/><rect fill="#FF9F1C" height="79.3984" style="stroke:#1E1E1E;stroke-width:1.0;" width="10" x="243.5" y="1065.2422"/><rect fill="#FF9F1C" height="64.2656" style="stroke:#1E1E1E;stroke-width:1.0;" width="10" x="243.5" y="1173.7734"/><rect fill="#FF9F1C" height="29.1328" style="stroke:#1E1E1E;stroke-width:1.0;" width="10" x="243.5" y="1302.3047"/><rect fill="#FF9F1C" height="64.2656" style="stroke:#1E1E1E;stroke-width:1.0;" width="10" x="441.5" y="184.125"/><rect fill="#FF9F1C" height="64.2656" style="stroke:#1E1E1E;stroke-width:1.0;" width="10" x="441.5" y="494.5859"/><rect fill="#FF9F1C" height="79.3984" style="stroke:#1E1E1E;stroke-width:1.0;" width="10" x="441.5" y="985.8438"/><rect fill="#FF9F1C" height="64.2656" style="stroke:#1E1E1E;stroke-width:1.0;" width="10" x="441.5" y="1238.0391"/><rect fill="#FF9F1C" height="29.1328" style="stroke:#1E1E1E;stroke-width:1.0;" width="10" x="634.5" y="277.5234"/><rect fill="#FF9F1C" height="29.1328" style="stroke:#1E1E1E;stroke-width:1.0;" width="10" x="634.5" y="587.9844"/><rect fill="#FF9F1C" height="29.1328" style="stroke:#1E1E1E;stroke-width:1.0;" width="10" x="634.5" y="956.7109"/><rect fill="#FF9F1C" height="29.1328" style="stroke:#1E1E1E;stroke-width:1.0;" width="10" x="634.5" y="1331.4375"/><rect fill="#FF9F1C" height="29.1328" style="stroke:#1E1E1E;stroke-width:1.0;" width="10" x="912.5" y="306.6563"/><rect fill="#FF9F1C" height="29.1328" style="stroke:#1E1E1E;stroke-width:1.0;" width="10" x="912.5" y="617.1172"/><rect fill="#FF9F1C" height="29.1328" style="stroke:#1E1E1E;stroke-width:1.0;" width="10" x="912.5" y="927.5781"/><rect fill="#FF9F1C" height="29.1328" style="stroke:#1E1E1E;stroke-width:1.0;" width="10" x="912.5" y="1360.5703"/><rect fill="#FF9F1C" height="79.3984" style="stroke:#1E1E1E;stroke-width:1.0;" width="10" x="1160.5" y="335.7891"/><rect fill="#FF9F1C" height="79.3984" style="stroke:#1E1E1E;stroke-width:1.0;" width="10" x="1160.5" y="646.25"/><rect fill="#FF9F1C" height="64.2656" style="stroke:#1E1E1E;stroke-width:1.0;" width="10" x="1160.5" y="863.3125"/><rect fill="#FF9F1C" height="59.2656" style="stroke:#1E1E1E;stroke-width:1.0;" width="10" x="1160.5" y="1389.7031"/><rect fill="#FF9F1C" height="29.1328" style="stroke:#1E1E1E;stroke-width:1.0;" width="10" x="1332.5" y="725.6484"/><rect fill="#FF9F1C" height="79.3984" style="stroke:#1E1E1E;stroke-width:1.0;" width="10" x="1332.5" y="783.9141"/><rect fill="#FF9F1C" height="29.1328" style="stroke:#1E1E1E;stroke-width:1.0;" width="10" x="1542.5" y="754.7813"/><line style="stroke:#1E1E1E;stroke-width:0.5;stroke-dasharray:5.0,5.0;" x1="43" x2="43" y1="73.5938" y2="1457.9688"/><line style="stroke:#1E1E1E;stroke-width:0.5;stroke-dasharray:5.0,5.0;" x1="248.5" x2="248.5" y1="73.5938" y2="1457.9688"/><line style="stroke:#1E1E1E;stroke-width:0.5;stroke-dasharray:5.0,5.0;" x1="446" x2="446" y1="73.5938" y2="1457.9688"/><line style="stroke:#1E1E1E;stroke-width:0.5;stroke-dasharray:5.0,5.0;" x1="639.5" x2="639.5" y1="73.5938" y2="1457.9688"/><line style="stroke:#1E1E1E;stroke-width:0.5;stroke-dasharray:5.0,5.0;" x1="917" x2="917" y1="73.5938" y2="1457.9688"/><line style="stroke:#1E1E1E;stroke-width:0.5;stroke-dasharray:5.0,5.0;" x1="1165.5" x2="1165.5" y1="73.5938" y2="1457.9688"/><line style="stroke:#1E1E1E;stroke-width:0.5;stroke-dasharray:5.0,5.0;" x1="1337" x2="1337" y1="73.5938" y2="1457.9688"/><line style="stroke:#1E1E1E;stroke-width:0.5;stroke-dasharray:5.0,5.0;" x1="1547.5" x2="1547.5" y1="73.5938" y2="1457.9688"/><rect fill="#053671" height="30.2969" rx="2.5" ry="2.5" style="stroke:#1E1E1E;stroke-width:0.5;" width="77" x="5" y="42.2969"/><text fill="#FFFFFF" font-family="sans-serif" font-size="14" lengthAdjust="spacing" textLength="63" x="12" y="62.292">Host App</text><rect fill="#053671" height="30.2969" rx="2.5" ry="2.5" style="stroke:#1E1E1E;stroke-width:0.5;" width="77" x="5" y="1456.9688"/><text fill="#FFFFFF" font-family="sans-serif" font-size="14" lengthAdjust="spacing" textLength="63" x="12" y="1476.9639">Host App</text><rect fill="#053671" height="30.2969" rx="2.5" ry="2.5" style="stroke:#1E1E1E;stroke-width:0.5;" width="122" x="187.5" y="42.2969"/><text fill="#FFFFFF" font-family="sans-serif" font-size="14" lengthAdjust="spacing" textLength="108" x="194.5" y="62.292">Host Cmd Layer</text><rect fill="#053671" height="30.2969" rx="2.5" ry="2.5" style="stroke:#1E1E1E;stroke-width:0.5;" width="122" x="187.5" y="1456.9688"/><text fill="#FFFFFF" font-family="sans-serif" font-size="14" lengthAdjust="spacing" textLength="108" x="194.5" y="1476.9639">Host Cmd Layer</text><rect fill="#053671" height="30.2969" rx="2.5" ry="2.5" style="stroke:#1E1E1E;stroke-width:0.5;" width="117" x="388" y="42.2969"/><text fill="#FFFFFF" font-family="sans-serif" font-size="14" lengthAdjust="spacing" textLength="103" x="395" y="62.292">Host DTL Layer</text><rect fill="#053671" height="30.2969" rx="2.5" ry="2.5" style="stroke:#1E1E1E;stroke-width:0.5;" width="117" x="388" y="1456.9688"/><text fill="#FFFFFF" font-family="sans-serif" font-size="14" lengthAdjust="spacing" textLength="103" x="395" y="1476.9639">Host DTL Layer</text><rect fill="#053671" height="30.2969" rx="2.5" ry="2.5" style="stroke:#1E1E1E;stroke-width:0.5;" width="118" x="580.5" y="42.2969"/><text fill="#FFFFFF" font-family="sans-serif" font-size="14" lengthAdjust="spacing" textLength="104" x="587.5" y="62.292">Host PHY Layer</text><rect fill="#053671" height="30.2969" rx="2.5" ry="2.5" style="stroke:#1E1E1E;stroke-width:0.5;" width="118" x="580.5" y="1456.9688"/><text fill="#FFFFFF" font-family="sans-serif" font-size="14" lengthAdjust="spacing" textLength="104" x="587.5" y="1476.9639">Host PHY Layer</text><rect fill="#053671" height="30.2969" rx="2.5" ry="2.5" style="stroke:#1E1E1E;stroke-width:0.5;" width="131" x="852" y="42.2969"/><text fill="#FFFFFF" font-family="sans-serif" font-size="14" lengthAdjust="spacing" textLength="117" x="859" y="62.292">Target PHY Layer</text><rect fill="#053671" height="30.2969" rx="2.5" ry="2.5" style="stroke:#1E1E1E;stroke-width:0.5;" width="131" x="852" y="1456.9688"/><text fill="#FFFFFF" font-family="sans-serif" font-size="14" lengthAdjust="spacing" textLength="117" x="859" y="1476.9639">Target PHY Layer</text><rect fill="#053671" height="30.2969" rx="2.5" ry="2.5" style="stroke:#1E1E1E;stroke-width:0.5;" width="130" x="1100.5" y="42.2969"/><text fill="#FFFFFF" font-family="sans-serif" font-size="14" lengthAdjust="spacing" textLength="116" x="1107.5" y="62.292">Target DTL Layer</text><rect fill="#053671" height="30.2969" rx="2.5" ry="2.5" style="stroke:#1E1E1E;stroke-width:0.5;" width="130" x="1100.5" y="1456.9688"/><text fill="#FFFFFF" font-family="sans-serif" font-size="14" lengthAdjust="spacing" textLength="116" x="1107.5" y="1476.9639">Target DTL Layer</text><rect fill="#053671" height="30.2969" rx="2.5" ry="2.5" style="stroke:#1E1E1E;stroke-width:0.5;" width="135" x="1270" y="42.2969"/><text fill="#FFFFFF" font-family="sans-serif" font-size="14" lengthAdjust="spacing" textLength="121" x="1277" y="62.292">Target Cmd Layer</text><rect fill="#053671" height="30.2969" rx="2.5" ry="2.5" style="stroke:#1E1E1E;stroke-width:0.5;" width="135" x="1270" y="1456.9688"/><text fill="#FFFFFF" font-family="sans-serif" font-size="14" lengthAdjust="spacing" textLength="121" x="1277" y="1476.9639">Target Cmd Layer</text><rect fill="#053671" height="30.2969" rx="2.5" ry="2.5" style="stroke:#1E1E1E;stroke-width:0.5;" width="90" x="1502.5" y="42.2969"/><text fill="#FFFFFF" font-family="sans-serif" font-size="14" lengthAdjust="spacing" textLength="76" x="1509.5" y="62.292">Target App</text><rect fill="#053671" height="30.2969" rx="2.5" ry="2.5" style="stroke:#1E1E1E;stroke-width:0.5;" width="90" x="1502.5" y="1456.9688"/><text fill="#FFFFFF" font-family="sans-serif" font-size="14" lengthAdjust="spacing" textLength="76" x="1509.5" y="1476.9639">Target App</text><rect fill="#FF9F1C" height="21.1328" style="stroke:#1E1E1E;stroke-width:1.0;" width="10" x="38.5" y="83.5938"/><rect fill="#FF9F1C" height="29.1328" style="stroke:#1E1E1E;stroke-width:1.0;" width="10" x="38.5" y="1144.6406"/><rect fill="#FF9F1C" height="79.3984" style="stroke:#1E1E1E;stroke-width:1.0;" width="10" x="243.5" y="104.7266"/><rect fill="#FF9F1C" height="29.1328" style="stroke:#1E1E1E;stroke-width:1.0;" width="10" x="243.5" y="248.3906"/><rect fill="#FF9F1C" height="79.3984" style="stroke:#1E1E1E;stroke-width:1.0;" width="10" x="243.5" y="415.1875"/><rect fill="#FF9F1C" height="29.1328" style="stroke:#1E1E1E;stroke-width:1.0;" width="10" x="243.5" y="558.8516"/><rect fill="#FF9F1C" height="79.3984" style="stroke:#1E1E1E;stroke-width:1.0;" width="10" x="243.5" y="1065.2422"/><rect fill="#FF9F1C" height="64.2656" style="stroke:#1E1E1E;stroke-width:1.0;" width="10" x="243.5" y="1173.7734"/><rect fill="#FF9F1C" height="29.1328" style="stroke:#1E1E1E;stroke-width:1.0;" width="10" x="243.5" y="1302.3047"/><rect fill="#FF9F1C" height="64.2656" style="stroke:#1E1E1E;stroke-width:1.0;" width="10" x="441.5" y="184.125"/><rect fill="#FF9F1C" height="64.2656" style="stroke:#1E1E1E;stroke-width:1.0;" width="10" x="441.5" y="494.5859"/><rect fill="#FF9F1C" height="79.3984" style="stroke:#1E1E1E;stroke-width:1.0;" width="10" x="441.5" y="985.8438"/><rect fill="#FF9F1C" height="64.2656" style="stroke:#1E1E1E;stroke-width:1.0;" width="10" x="441.5" y="1238.0391"/><rect fill="#FF9F1C" height="29.1328" style="stroke:#1E1E1E;stroke-width:1.0;" width="10" x="634.5" y="277.5234"/><rect fill="#FF9F1C" height="29.1328" style="stroke:#1E1E1E;stroke-width:1.0;" width="10" x="634.5" y="587.9844"/><rect fill="#FF9F1C" height="29.1328" style="stroke:#1E1E1E;stroke-width:1.0;" width="10" x="634.5" y="956.7109"/><rect fill="#FF9F1C" height="29.1328" style="stroke:#1E1E1E;stroke-width:1.0;" width="10" x="634.5" y="1331.4375"/><rect fill="#FF9F1C" height="29.1328" style="stroke:#1E1E1E;stroke-width:1.0;" width="10" x="912.5" y="306.6563"/><rect fill="#FF9F1C" height="29.1328" style="stroke:#1E1E1E;stroke-width:1.0;" width="10" x="912.5" y="617.1172"/><rect fill="#FF9F1C" height="29.1328" style="stroke:#1E1E1E;stroke-width:1.0;" width="10" x="912.5" y="927.5781"/><rect fill="#FF9F1C" height="29.1328" style="stroke:#1E1E1E;stroke-width:1.0;" width="10" x="912.5" y="1360.5703"/><rect fill="#FF9F1C" height="79.3984" style="stroke:#1E1E1E;stroke-width:1.0;" width="10" x="1160.5" y="335.7891"/><rect fill="#FF9F1C" height="79.3984" style="stroke:#1E1E1E;stroke-width:1.0;" width="10" x="1160.5" y="646.25"/><rect fill="#FF9F1C" height="64.2656" style="stroke:#1E1E1E;stroke-width:1.0;" width="10" x="1160.5" y="863.3125"/><rect fill="#FF9F1C" height="59.2656" style="stroke:#1E1E1E;stroke-width:1.0;" width="10" x="1160.5" y="1389.7031"/><rect fill="#FF9F1C" height="29.1328" style="stroke:#1E1E1E;stroke-width:1.0;" width="10" x="1332.5" y="725.6484"/><rect fill="#FF9F1C" height="79.3984" style="stroke:#1E1E1E;stroke-width:1.0;" width="10" x="1332.5" y="783.9141"/><rect fill="#FF9F1C" height="29.1328" style="stroke:#1E1E1E;stroke-width:1.0;" width="10" x="1542.5" y="754.7813"/><polygon fill="#1E1E1E" points="231.5,100.7266,241.5,104.7266,231.5,108.7266,235.5,104.7266" style="stroke:#1E1E1E;stroke-width:1.0;"/><line style="stroke:#1E1E1E;stroke-width:1.0;" x1="43.5" x2="237.5" y1="104.7266" y2="104.7266"/><text fill="#000000" font-family="sans-serif" font-size="13" font-weight="bold" lengthAdjust="spacing" textLength="21" x="50.5" y="99.6606">[1]</text><text fill="#000000" font-family="sans-serif" font-size="13" lengthAdjust="spacing" textLength="136" x="75.5" y="99.6606">sendCommand(cmd)</text><path d="M258,117.7266 L258,157.7266 L490,157.7266 L490,127.7266 L480,117.7266 L258,117.7266 " fill="#FEFFDD" style="stroke:#181818;stroke-width:0.5;"/><path d="M480,117.7266 L480,127.7266 L490,127.7266 L480,117.7266 " fill="#FEFFDD" style="stroke:#181818;stroke-width:0.5;"/><text fill="#000000" font-family="sans-serif" font-size="13" lengthAdjust="spacing" textLength="121" x="264" y="134.7935">&#8226; Frame CRA(cmd)</text><text fill="#000000" font-family="sans-serif" font-size="13" lengthAdjust="spacing" textLength="211" x="264" y="149.9263">&#8226; Start Response-timer (200 ms)</text><polygon fill="#1E1E1E" points="429.5,180.125,439.5,184.125,429.5,188.125,433.5,184.125" style="stroke:#1E1E1E;stroke-width:1.0;"/><line style="stroke:#1E1E1E;stroke-width:1.0;" x1="248.5" x2="435.5" y1="184.125" y2="184.125"/><text fill="#000000" font-family="sans-serif" font-size="13" font-weight="bold" lengthAdjust="spacing" textLength="21" x="255.5" y="179.0591">[2]</text><text fill="#000000" font-family="sans-serif" font-size="13" lengthAdjust="spacing" textLength="94" x="280.5" y="179.0591">wrapCRA(cmd)</text><path d="M456,197.125 L456,222.125 L591,222.125 L591,207.125 L581,197.125 L456,197.125 " fill="#FEFFDD" style="stroke:#181818;stroke-width:0.5;"/><path d="M581,197.125 L581,207.125 L591,207.125 L581,197.125 " fill="#FEFFDD" style="stroke:#181818;stroke-width:0.5;"/><text fill="#000000" font-family="sans-serif" font-size="13" lengthAdjust="spacing" textLength="114" x="462" y="214.1919">&#8226; SLIP+CRC(cmd)</text><polygon fill="#1E1E1E" points="264.5,244.3906,254.5,248.3906,264.5,252.3906,260.5,248.3906" style="stroke:#1E1E1E;stroke-width:1.0;"/><line style="stroke:#1E1E1E;stroke-width:1.0;stroke-dasharray:2.0,2.0;" x1="258.5" x2="445.5" y1="248.3906" y2="248.3906"/><text fill="#000000" font-family="sans-serif" font-size="13" font-weight="bold" lengthAdjust="spacing" textLength="21" x="270.5" y="243.3247">[3]</text><text fill="#000000" font-family="sans-serif" font-size="13" lengthAdjust="spacing" textLength="71" x="295.5" y="243.3247">CRA_frame</text><polygon fill="#1E1E1E" points="622.5,273.5234,632.5,277.5234,622.5,281.5234,626.5,277.5234" style="stroke:#1E1E1E;stroke-width:1.0;"/><line style="stroke:#1E1E1E;stroke-width:1.0;" x1="248.5" x2="628.5" y1="277.5234" y2="277.5234"/><text fill="#000000" font-family="sans-serif" font-size="13" font-weight="bold" lengthAdjust="spacing" textLength="21" x="255.5" y="272.4575">[4]</text><text fill="#000000" font-family="sans-serif" font-size="13" lengthAdjust="spacing" textLength="153" x="280.5" y="272.4575">sendFrame(CRA_frame)</text><polygon fill="#1E1E1E" points="900.5,302.6563,910.5,306.6563,900.5,310.6563,904.5,306.6563" style="stroke:#1E1E1E;stroke-width:1.0;"/><line style="stroke:#1E1E1E;stroke-width:1.0;" x1="639.5" x2="906.5" y1="306.6563" y2="306.6563"/><text fill="#000000" font-family="sans-serif" font-size="13" font-weight="bold" lengthAdjust="spacing" textLength="21" x="646.5" y="301.5903">[5]</text><text fill="#000000" font-family="sans-serif" font-size="13" lengthAdjust="spacing" textLength="158" x="671.5" y="301.5903">UART bytes (CRA_frame)</text><text fill="#FF0000" font-family="sans-serif" font-size="13" lengthAdjust="spacing" textLength="62" x="833.5" y="301.5903">corrupted</text><polygon fill="#1E1E1E" points="1148.5,331.7891,1158.5,335.7891,1148.5,339.7891,1152.5,335.7891" style="stroke:#1E1E1E;stroke-width:1.0;"/><line style="stroke:#1E1E1E;stroke-width:1.0;" x1="917.5" x2="1154.5" y1="335.7891" y2="335.7891"/><text fill="#000000" font-family="sans-serif" font-size="13" font-weight="bold" lengthAdjust="spacing" textLength="21" x="924.5" y="330.7231">[6]</text><text fill="#000000" font-family="sans-serif" font-size="13" lengthAdjust="spacing" textLength="194" x="949.5" y="330.7231">deliverBytes() [corrupted CRA]</text><path d="M1175,348.7891 L1175,388.7891 L1304,388.7891 L1304,358.7891 L1294,348.7891 L1175,348.7891 " fill="#FEFFDD" style="stroke:#181818;stroke-width:0.5;"/><path d="M1294,348.7891 L1294,358.7891 L1304,358.7891 L1294,348.7891 " fill="#FEFFDD" style="stroke:#181818;stroke-width:0.5;"/><text fill="#000000" font-family="sans-serif" font-size="13" lengthAdjust="spacing" textLength="91" x="1181" y="365.856">&#8226; SLIP-decode</text><text fill="#000000" font-family="sans-serif" font-size="13" lengthAdjust="spacing" textLength="108" x="1181" y="380.9888">&#8226; CRC check fails</text><polygon fill="#1E1E1E" points="1325.5,411.1875,1335.5,415.1875,1325.5,419.1875,1329.5,415.1875" style="stroke:#1E1E1E;stroke-width:1.0;"/><line style="stroke:#1E1E1E;stroke-width:1.0;" x1="1165.5" x2="1331.5" y1="415.1875" y2="415.1875"/><text fill="#000000" font-family="sans-serif" font-size="13" font-weight="bold" lengthAdjust="spacing" textLength="21" x="1172.5" y="410.1216">[7]</text><text fill="#FF0000" font-family="sans-serif" font-size="13" lengthAdjust="spacing" textLength="114" x="1197.5" y="410.1216">discard (bad CRC)</text><path d="M258,428.1875 L258,468.1875 L512,468.1875 L512,438.1875 L502,428.1875 L258,428.1875 " fill="#FEFFDD" style="stroke:#181818;stroke-width:0.5;"/><path d="M502,428.1875 L502,438.1875 L512,438.1875 L502,428.1875 " fill="#FEFFDD" style="stroke:#181818;stroke-width:0.5;"/><text fill="#000000" font-family="sans-serif" font-size="13" lengthAdjust="spacing" textLength="225" x="264" y="445.2544">&#8226; Response-timer expires (200 ms)</text><text fill="#000000" font-family="sans-serif" font-size="13" lengthAdjust="spacing" textLength="185" x="264" y="460.3872">&#8226; Retry sendCommand(cmd)</text><polygon fill="#1E1E1E" points="429.5,490.5859,439.5,494.5859,429.5,498.5859,433.5,494.5859" style="stroke:#1E1E1E;stroke-width:1.0;"/><line style="stroke:#1E1E1E;stroke-width:1.0;" x1="248.5" x2="435.5" y1="494.5859" y2="494.5859"/><text fill="#000000" font-family="sans-serif" font-size="13" font-weight="bold" lengthAdjust="spacing" textLength="21" x="255.5" y="489.52">[8]</text><text fill="#000000" font-family="sans-serif" font-size="13" lengthAdjust="spacing" textLength="144" x="280.5" y="489.52">wrapCRA(cmd) &#171;retry&#187;</text><path d="M456,507.5859 L456,532.5859 L625,532.5859 L625,517.5859 L615,507.5859 L456,507.5859 " fill="#FEFFDD" style="stroke:#181818;stroke-width:0.5;"/><path d="M615,507.5859 L615,517.5859 L625,517.5859 L615,507.5859 " fill="#FEFFDD" style="stroke:#181818;stroke-width:0.5;"/><text fill="#000000" font-family="sans-serif" font-size="13" lengthAdjust="spacing" textLength="148" x="462" y="524.6528">&#8226; SLIP+CRC(cmd retry)</text><polygon fill="#1E1E1E" points="264.5,554.8516,254.5,558.8516,264.5,562.8516,260.5,558.8516" style="stroke:#1E1E1E;stroke-width:1.0;"/><line style="stroke:#1E1E1E;stroke-width:1.0;stroke-dasharray:2.0,2.0;" x1="258.5" x2="445.5" y1="558.8516" y2="558.8516"/><text fill="#000000" font-family="sans-serif" font-size="13" font-weight="bold" lengthAdjust="spacing" textLength="21" x="270.5" y="553.7856">[9]</text><text fill="#000000" font-family="sans-serif" font-size="13" lengthAdjust="spacing" textLength="108" x="295.5" y="553.7856">CRA_frame_retry</text><polygon fill="#1E1E1E" points="622.5,583.9844,632.5,587.9844,622.5,591.9844,626.5,587.9844" style="stroke:#1E1E1E;stroke-width:1.0;"/><line style="stroke:#1E1E1E;stroke-width:1.0;" x1="248.5" x2="628.5" y1="587.9844" y2="587.9844"/><text fill="#000000" font-family="sans-serif" font-size="13" font-weight="bold" lengthAdjust="spacing" textLength="30" x="255.5" y="582.9185">[10]</text><text fill="#000000" font-family="sans-serif" font-size="13" lengthAdjust="spacing" textLength="190" x="289.5" y="582.9185">sendFrame(CRA_frame_retry)</text><polygon fill="#1E1E1E" points="900.5,613.1172,910.5,617.1172,900.5,621.1172,904.5,617.1172" style="stroke:#1E1E1E;stroke-width:1.0;"/><line style="stroke:#1E1E1E;stroke-width:1.0;" x1="639.5" x2="906.5" y1="617.1172" y2="617.1172"/><text fill="#000000" font-family="sans-serif" font-size="13" font-weight="bold" lengthAdjust="spacing" textLength="30" x="646.5" y="612.0513">[11]</text><text fill="#000000" font-family="sans-serif" font-size="13" lengthAdjust="spacing" textLength="195" x="680.5" y="612.0513">UART bytes (CRA_frame_retry)</text><polygon fill="#1E1E1E" points="1148.5,642.25,1158.5,646.25,1148.5,650.25,1152.5,646.25" style="stroke:#1E1E1E;stroke-width:1.0;"/><line style="stroke:#1E1E1E;stroke-width:1.0;" x1="917.5" x2="1154.5" y1="646.25" y2="646.25"/><text fill="#000000" font-family="sans-serif" font-size="13" font-weight="bold" lengthAdjust="spacing" textLength="30" x="924.5" y="641.1841">[12]</text><text fill="#000000" font-family="sans-serif" font-size="13" lengthAdjust="spacing" textLength="162" x="958.5" y="641.1841">deliverBytes() [CRA retry]</text><path d="M1175,659.25 L1175,699.25 L1297,699.25 L1297,669.25 L1287,659.25 L1175,659.25 " fill="#FEFFDD" style="stroke:#181818;stroke-width:0.5;"/><path d="M1287,659.25 L1287,669.25 L1297,669.25 L1287,659.25 " fill="#FEFFDD" style="stroke:#181818;stroke-width:0.5;"/><text fill="#000000" font-family="sans-serif" font-size="13" lengthAdjust="spacing" textLength="91" x="1181" y="676.3169">&#8226; SLIP-decode</text><text fill="#000000" font-family="sans-serif" font-size="13" lengthAdjust="spacing" textLength="101" x="1181" y="691.4497">&#8226; CRC check OK</text><polygon fill="#1E1E1E" points="1320.5,721.6484,1330.5,725.6484,1320.5,729.6484,1324.5,725.6484" style="stroke:#1E1E1E;stroke-width:1.0;"/><line style="stroke:#1E1E1E;stroke-width:1.0;" x1="1165.5" x2="1326.5" y1="725.6484" y2="725.6484"/><text fill="#000000" font-family="sans-serif" font-size="13" font-weight="bold" lengthAdjust="spacing" textLength="30" x="1172.5" y="720.5825">[13]</text><text fill="#000000" font-family="sans-serif" font-size="13" lengthAdjust="spacing" textLength="109" x="1206.5" y="720.5825">extractCRA(cmd)</text><polygon fill="#1E1E1E" points="1530.5,750.7813,1540.5,754.7813,1530.5,758.7813,1534.5,754.7813" style="stroke:#1E1E1E;stroke-width:1.0;"/><line style="stroke:#1E1E1E;stroke-width:1.0;" x1="1337.5" x2="1536.5" y1="754.7813" y2="754.7813"/><text fill="#000000" font-family="sans-serif" font-size="13" font-weight="bold" lengthAdjust="spacing" textLength="30" x="1344.5" y="749.7153">[14]</text><text fill="#000000" font-family="sans-serif" font-size="13" lengthAdjust="spacing" textLength="147" x="1378.5" y="749.7153">deliverCommand(cmd)</text><polygon fill="#1E1E1E" points="1353.5,779.9141,1343.5,783.9141,1353.5,787.9141,1349.5,783.9141" style="stroke:#1E1E1E;stroke-width:1.0;"/><line style="stroke:#1E1E1E;stroke-width:1.0;stroke-dasharray:2.0,2.0;" x1="1347.5" x2="1546.5" y1="783.9141" y2="783.9141"/><text fill="#000000" font-family="sans-serif" font-size="13" font-weight="bold" lengthAdjust="spacing" textLength="30" x="1359.5" y="778.8481">[15]</text><text fill="#000000" font-family="sans-serif" font-size="13" lengthAdjust="spacing" textLength="131" x="1393.5" y="778.8481">sendResponse(resp)</text><path d="M1347,796.9141 L1347,836.9141 L1605,836.9141 L1605,806.9141 L1595,796.9141 L1347,796.9141 " fill="#FEFFDD" style="stroke:#181818;stroke-width:0.5;"/><path d="M1595,796.9141 L1595,806.9141 L1605,806.9141 L1595,796.9141 " fill="#FEFFDD" style="stroke:#181818;stroke-width:0.5;"/><text fill="#000000" font-family="sans-serif" font-size="13" lengthAdjust="spacing" textLength="229" x="1353" y="813.981">&#8226; Wrap CRA(resp, Session ID=0xXX)</text><text fill="#000000" font-family="sans-serif" font-size="13" lengthAdjust="spacing" textLength="175" x="1353" y="829.1138">&#8226; Start ACK-timer (200 ms)</text><polygon fill="#1E1E1E" points="1181.5,859.3125,1171.5,863.3125,1181.5,867.3125,1177.5,863.3125" style="stroke:#1E1E1E;stroke-width:1.0;"/><line style="stroke:#1E1E1E;stroke-width:1.0;" x1="1175.5" x2="1336.5" y1="863.3125" y2="863.3125"/><text fill="#000000" font-family="sans-serif" font-size="13" font-weight="bold" lengthAdjust="spacing" textLength="30" x="1187.5" y="858.2466">[16]</text><text fill="#000000" font-family="sans-serif" font-size="13" lengthAdjust="spacing" textLength="94" x="1221.5" y="858.2466">wrapCRA(resp)</text><path d="M1175,876.3125 L1175,901.3125 L1310,901.3125 L1310,886.3125 L1300,876.3125 L1175,876.3125 " fill="#FEFFDD" style="stroke:#181818;stroke-width:0.5;"/><path d="M1300,876.3125 L1300,886.3125 L1310,886.3125 L1300,876.3125 " fill="#FEFFDD" style="stroke:#181818;stroke-width:0.5;"/><text fill="#000000" font-family="sans-serif" font-size="13" lengthAdjust="spacing" textLength="114" x="1181" y="893.3794">&#8226; SLIP+CRC(resp)</text><polygon fill="#1E1E1E" points="933.5,923.5781,923.5,927.5781,933.5,931.5781,929.5,927.5781" style="stroke:#1E1E1E;stroke-width:1.0;"/><line style="stroke:#1E1E1E;stroke-width:1.0;" x1="927.5" x2="1164.5" y1="927.5781" y2="927.5781"/><text fill="#000000" font-family="sans-serif" font-size="13" font-weight="bold" lengthAdjust="spacing" textLength="30" x="939.5" y="922.5122">[17]</text><text fill="#000000" font-family="sans-serif" font-size="13" lengthAdjust="spacing" textLength="110" x="973.5" y="922.5122">sendFrame(resp)</text><polygon fill="#1E1E1E" points="655.5,952.7109,645.5,956.7109,655.5,960.7109,651.5,956.7109" style="stroke:#1E1E1E;stroke-width:1.0;"/><line style="stroke:#1E1E1E;stroke-width:1.0;" x1="649.5" x2="916.5" y1="956.7109" y2="956.7109"/><text fill="#000000" font-family="sans-serif" font-size="13" font-weight="bold" lengthAdjust="spacing" textLength="30" x="661.5" y="951.645">[18]</text><text fill="#000000" font-family="sans-serif" font-size="13" lengthAdjust="spacing" textLength="115" x="695.5" y="951.645">UART bytes (resp)</text><polygon fill="#1E1E1E" points="462.5,981.8438,452.5,985.8438,462.5,989.8438,458.5,985.8438" style="stroke:#1E1E1E;stroke-width:1.0;"/><line style="stroke:#1E1E1E;stroke-width:1.0;" x1="456.5" x2="638.5" y1="985.8438" y2="985.8438"/><text fill="#000000" font-family="sans-serif" font-size="13" font-weight="bold" lengthAdjust="spacing" textLength="30" x="468.5" y="980.7778">[19]</text><text fill="#000000" font-family="sans-serif" font-size="13" lengthAdjust="spacing" textLength="130" x="502.5" y="980.7778">deliverBytes() [resp]</text><path d="M456,998.8438 L456,1038.8438 L578,1038.8438 L578,1008.8438 L568,998.8438 L456,998.8438 " fill="#FEFFDD" style="stroke:#181818;stroke-width:0.5;"/><path d="M568,998.8438 L568,1008.8438 L578,1008.8438 L568,998.8438 " fill="#FEFFDD" style="stroke:#181818;stroke-width:0.5;"/><text fill="#000000" font-family="sans-serif" font-size="13" lengthAdjust="spacing" textLength="91" x="462" y="1015.9106">&#8226; SLIP-decode</text><text fill="#000000" font-family="sans-serif" font-size="13" lengthAdjust="spacing" textLength="101" x="462" y="1031.0435">&#8226; CRC check OK</text><polygon fill="#1E1E1E" points="264.5,1061.2422,254.5,1065.2422,264.5,1069.2422,260.5,1065.2422" style="stroke:#1E1E1E;stroke-width:1.0;"/><line style="stroke:#1E1E1E;stroke-width:1.0;" x1="258.5" x2="445.5" y1="1065.2422" y2="1065.2422"/><text fill="#000000" font-family="sans-serif" font-size="13" font-weight="bold" lengthAdjust="spacing" textLength="30" x="270.5" y="1060.1763">[20]</text><text fill="#000000" font-family="sans-serif" font-size="13" lengthAdjust="spacing" textLength="109" x="304.5" y="1060.1763">extractCRA(resp)</text><path d="M258,1078.2422 L258,1118.2422 L426,1118.2422 L426,1088.2422 L416,1078.2422 L258,1078.2422 " fill="#FEFFDD" style="stroke:#181818;stroke-width:0.5;"/><path d="M416,1078.2422 L416,1088.2422 L426,1088.2422 L416,1078.2422 " fill="#FEFFDD" style="stroke:#181818;stroke-width:0.5;"/><text fill="#000000" font-family="sans-serif" font-size="13" lengthAdjust="spacing" textLength="92" x="264" y="1095.3091">&#8226; Parse status</text><text fill="#000000" font-family="sans-serif" font-size="13" lengthAdjust="spacing" textLength="147" x="264" y="1110.4419">&#8226; Stop Response-timer</text><polygon fill="#1E1E1E" points="59.5,1140.6406,49.5,1144.6406,59.5,1148.6406,55.5,1144.6406" style="stroke:#1E1E1E;stroke-width:1.0;"/><line style="stroke:#1E1E1E;stroke-width:1.0;" x1="53.5" x2="247.5" y1="1144.6406" y2="1144.6406"/><text fill="#000000" font-family="sans-serif" font-size="13" font-weight="bold" lengthAdjust="spacing" textLength="30" x="65.5" y="1139.5747">[21]</text><text fill="#000000" font-family="sans-serif" font-size="13" lengthAdjust="spacing" textLength="142" x="99.5" y="1139.5747">deliverResponse(resp)</text><polygon fill="#1E1E1E" points="231.5,1169.7734,241.5,1173.7734,231.5,1177.7734,235.5,1173.7734" style="stroke:#1E1E1E;stroke-width:1.0;"/><line style="stroke:#1E1E1E;stroke-width:1.0;stroke-dasharray:2.0,2.0;" x1="43.5" x2="237.5" y1="1173.7734" y2="1173.7734"/><text fill="#000000" font-family="sans-serif" font-size="13" font-weight="bold" lengthAdjust="spacing" textLength="30" x="50.5" y="1168.7075">[22]</text><text fill="#000000" font-family="sans-serif" font-size="13" lengthAdjust="spacing" textLength="130" x="84.5" y="1168.7075">sendACK() [for resp]</text><path d="M258,1186.7734 L258,1211.7734 L589,1211.7734 L589,1196.7734 L579,1186.7734 L258,1186.7734 " fill="#FEFFDD" style="stroke:#181818;stroke-width:0.5;"/><path d="M579,1186.7734 L579,1196.7734 L589,1196.7734 L579,1186.7734 " fill="#FEFFDD" style="stroke:#181818;stroke-width:0.5;"/><text fill="#000000" font-family="sans-serif" font-size="13" lengthAdjust="spacing" textLength="310" x="264" y="1203.8403">&#8226; Wrap CRA(ACK, Session ID=0xXX, Flags=0x04)</text><polygon fill="#1E1E1E" points="429.5,1234.0391,439.5,1238.0391,429.5,1242.0391,433.5,1238.0391" style="stroke:#1E1E1E;stroke-width:1.0;"/><line style="stroke:#1E1E1E;stroke-width:1.0;" x1="248.5" x2="435.5" y1="1238.0391" y2="1238.0391"/><text fill="#000000" font-family="sans-serif" font-size="13" font-weight="bold" lengthAdjust="spacing" textLength="30" x="255.5" y="1232.9731">[23]</text><text fill="#000000" font-family="sans-serif" font-size="13" lengthAdjust="spacing" textLength="92" x="289.5" y="1232.9731">wrapCRA(ACK)</text><path d="M456,1251.0391 L456,1276.0391 L592,1276.0391 L592,1261.0391 L582,1251.0391 L456,1251.0391 " fill="#FEFFDD" style="stroke:#181818;stroke-width:0.5;"/><path d="M582,1251.0391 L582,1261.0391 L592,1261.0391 L582,1251.0391 " fill="#FEFFDD" style="stroke:#181818;stroke-width:0.5;"/><text fill="#000000" font-family="sans-serif" font-size="13" lengthAdjust="spacing" textLength="115" x="462" y="1268.106">&#8226; Build ACK frame</text><polygon fill="#1E1E1E" points="264.5,1298.3047,254.5,1302.3047,264.5,1306.3047,260.5,1302.3047" style="stroke:#1E1E1E;stroke-width:1.0;"/><line style="stroke:#1E1E1E;stroke-width:1.0;stroke-dasharray:2.0,2.0;" x1="258.5" x2="445.5" y1="1302.3047" y2="1302.3047"/><text fill="#000000" font-family="sans-serif" font-size="13" font-weight="bold" lengthAdjust="spacing" textLength="30" x="270.5" y="1297.2388">[24]</text><text fill="#000000" font-family="sans-serif" font-size="13" lengthAdjust="spacing" textLength="71" x="304.5" y="1297.2388">ACK_frame</text><polygon fill="#1E1E1E" points="622.5,1327.4375,632.5,1331.4375,622.5,1335.4375,626.5,1331.4375" style="stroke:#1E1E1E;stroke-width:1.0;"/><line style="stroke:#1E1E1E;stroke-width:1.0;" x1="248.5" x2="628.5" y1="1331.4375" y2="1331.4375"/><text fill="#000000" font-family="sans-serif" font-size="13" font-weight="bold" lengthAdjust="spacing" textLength="30" x="255.5" y="1326.3716">[25]</text><text fill="#000000" font-family="sans-serif" font-size="13" lengthAdjust="spacing" textLength="153" x="289.5" y="1326.3716">sendFrame(ACK_frame)</text><polygon fill="#1E1E1E" points="900.5,1356.5703,910.5,1360.5703,900.5,1364.5703,904.5,1360.5703" style="stroke:#1E1E1E;stroke-width:1.0;"/><line style="stroke:#1E1E1E;stroke-width:1.0;" x1="639.5" x2="906.5" y1="1360.5703" y2="1360.5703"/><text fill="#000000" font-family="sans-serif" font-size="13" font-weight="bold" lengthAdjust="spacing" textLength="30" x="646.5" y="1355.5044">[26]</text><text fill="#000000" font-family="sans-serif" font-size="13" lengthAdjust="spacing" textLength="113" x="680.5" y="1355.5044">UART bytes (ACK)</text><polygon fill="#1E1E1E" points="1148.5,1385.7031,1158.5,1389.7031,1148.5,1393.7031,1152.5,1389.7031" style="stroke:#1E1E1E;stroke-width:1.0;"/><line style="stroke:#1E1E1E;stroke-width:1.0;" x1="917.5" x2="1154.5" y1="1389.7031" y2="1389.7031"/><text fill="#000000" font-family="sans-serif" font-size="13" font-weight="bold" lengthAdjust="spacing" textLength="30" x="924.5" y="1384.6372">[27]</text><text fill="#000000" font-family="sans-serif" font-size="13" lengthAdjust="spacing" textLength="128" x="958.5" y="1384.6372">deliverBytes() [ACK]</text><path d="M1175,1402.7031 L1175,1442.7031 L1444,1442.7031 L1444,1412.7031 L1434,1402.7031 L1175,1402.7031 " fill="#FEFFDD" style="stroke:#181818;stroke-width:0.5;"/><path d="M1434,1402.7031 L1434,1412.7031 L1444,1412.7031 L1434,1402.7031 " fill="#FEFFDD" style="stroke:#181818;stroke-width:0.5;"/><text fill="#000000" font-family="sans-serif" font-size="13" lengthAdjust="spacing" textLength="240" x="1181" y="1419.77">&#8226; Extract CRA(ACK, Session ID=0xXX)</text><text fill="#000000" font-family="sans-serif" font-size="13" lengthAdjust="spacing" textLength="111" x="1181" y="1434.9028">&#8226; Stop ACK-timer</text><!--SRC=[lLThRjj64FxFKmmKe9RS296S5ngu0cYoXe88Y22pROh0C5RaIbvO8fdTPMoXA913v0JzsoFqNuwIatIMprsIibNP2Mr0ylARztmpwuEldpyzo2_ynaH2LY2eb2nS2dWenPQuOc5CE5d3b739V1QJK4v94A0P61uDu423n1K4_hG0dnFYNorvb8I14wqY3ey6pv- -U3dCtaKye3mxLy-Z8LK_wRlJA9JL6u3hIoQfzPTcIz0F2GrzcXkoEO-kTOdgqVLEs89EM4ZhjhV1Qkuhs6BnqsBefp0j9RS5eyDkoOS6snQ-9PbSKJWyF3cRmbcHWJwSOJNmt8auJs990_osNfCmE3oqBBqedN4a9DXnt2cpGmICxHQGimvWGZQKTtAGqm9olOa9Sbj0q_4V9cXgWZp2bzI08SXh1sa65SXj1MckAv3J2jAIe42sPP54Hc6odbCEdUFvwFtW_FZ9VDInh8EAPyCUf3496WO228WiyNwMRkZwHGLw-r3G8hva7ucagYHZ6_eZJ3kyIgtb5Utwww1d1LH7QcAE5KRuoTdoKaAqK0S0Np_z3QV86MoGcPqg0CYFpoIc1cPKn54eQ5-oDKRVFHeCO2rw5fe5fSz2BvGlBlfopKbSg37yS7G_tBeVRc5mydhwepDpCldAW0lz8bhKVh5GxXhgNJFCtADfdfqql6ufUOjdKmk5KDHJeh_QCm_c6qa5QC9mx2lklU8q69K5FNwI7euCpLEZEOvwa3TNG2NrfO1ScaNXWqtaEne7UUDbyQbY1NJ5Fb9-eYBizk2zNms8cNskXu9ocf9w-JozVFs0-b50onx2Qe9_IVqhM12s4bLHqGNbYAgfbj602PzmvCgSA3USNbjcqQ2UsQSvxMgDIczYnh5sFm2daZDwZxst2uUsM2_eKYPaXivicgIzYqtmvHyLnkRBl_VaLPgDpLtikaXH-tFi8hTo3wQrgJ0fzQoaLCmZdmg1yZnBR-AhlnV9QhM1xqGVT3op_l3KUVkcbJVqHdBKtJPmFRrQkEIyj5gUNVczRMLuUfbmyw5Clp2e2btqUHUxEpObRTDcBTI2ABzZLwUxHYbuZ1SL8TG8VEt-FBXvzww-VMpdpTR5amUbKwNfbBDp_bE6P0hgsJQxl6d4o7RH9UDwQpVbp7v-dWyolPkpP7_R1M5Ek8APuxOcLmwTrocvumJQhR_7RdcpqVgxaRhwEDeobV7QZDaJaiX4Q9qLnRLvtPY_6bEsTxmQQLhzNXZtF-pSRrws_tDTrE-Bw9kgvWB_XsXMTBSxOqbZrDLWyMCuNP6bmE-3PxVlDfJUvwPuah1LaAOukmosRZDylUTTiPJSPuCrGZ9P_h9bQttNNjbreQ5J-wooNpBMRksDdid3Si1NDJGdwty0]--></g></svg>