<?xml version="1.0" encoding="us-ascii" standalone="no"?><svg xmlns="http://www.w3.org/2000/svg" xmlns:xlink="http://www.w3.org/1999/xlink" contentStyleType="text/css" height="1437px" preserveAspectRatio="none" style="width:1351px;height:1437px;background:#FFFFFF;" version="1.1" viewBox="0 0 1351 1437" width="1351px" zoomAndPan="magnify"><defs/><g><text fill="#000000" font-family="sans-serif" font-size="14" font-weight="bold" lengthAdjust="spacing" textLength="398" x="475.75" y="27.9951">BSP Layered Sequence - Detailed CRA Transaction</text><rect fill="#FF9F1C" height="29.1328" style="stroke:#1E1E1E;stroke-width:1.0;" width="10" x="38.5" y="1043.2422"/><rect fill="#FF9F1C" height="79.3984" style="stroke:#1E1E1E;stroke-width:1.0;" width="10" x="243.5" y="104.7266"/><rect fill="#FF9F1C" height="29.1328" style="stroke:#1E1E1E;stroke-width:1.0;" width="10" x="243.5" y="263.5234"/><rect fill="#FF9F1C" height="79.3984" style="stroke:#1E1E1E;stroke-width:1.0;" width="10" x="243.5" y="963.8438"/><rect fill="#FF9F1C" height="94.5313" style="stroke:#1E1E1E;stroke-width:1.0;" width="10" x="243.5" y="1072.375"/><rect fill="#FF9F1C" height="29.1328" style="stroke:#1E1E1E;stroke-width:1.0;" width="10" x="243.5" y="1246.3047"/><rect fill="#FF9F1C" height="79.3984" style="stroke:#1E1E1E;stroke-width:1.0;" width="10" x="415.5" y="184.125"/><rect fill="#FF9F1C" height="79.3984" style="stroke:#1E1E1E;stroke-width:1.0;" width="10" x="415.5" y="884.4453"/><rect fill="#FF9F1C" height="79.3984" style="stroke:#1E1E1E;stroke-width:1.0;" width="10" x="415.5" y="1166.9063"/><rect fill="#FF9F1C" height="71.2656" style="stroke:#1E1E1E;stroke-width:1.0;" width="10" x="566.5" y="292.6563"/><rect fill="#FF9F1C" height="29.1328" style="stroke:#1E1E1E;stroke-width:1.0;" width="10" x="566.5" y="855.3125"/><rect fill="#FF9F1C" height="29.1328" style="stroke:#1E1E1E;stroke-width:1.0;" width="10" x="566.5" y="1275.4375"/><rect fill="#FF9F1C" height="29.1328" style="stroke:#1E1E1E;stroke-width:1.0;" width="10" x="774.5" y="363.9219"/><rect fill="#FF9F1C" height="71.2656" style="stroke:#1E1E1E;stroke-width:1.0;" width="10" x="774.5" y="784.0469"/><rect fill="#FF9F1C" height="29.1328" style="stroke:#1E1E1E;stroke-width:1.0;" width="10" x="774.5" y="1304.5703"/><rect fill="#FF9F1C" height="79.3984" style="stroke:#1E1E1E;stroke-width:1.0;" width="10" x="925.5" y="393.0547"/><rect fill="#FF9F1C" height="79.3984" style="stroke:#1E1E1E;stroke-width:1.0;" width="10" x="925.5" y="675.5156"/><rect fill="#FF9F1C" height="59.2656" style="stroke:#1E1E1E;stroke-width:1.0;" width="10" x="925.5" y="1333.7031"/><rect fill="#FF9F1C" height="79.3984" style="stroke:#1E1E1E;stroke-width:1.0;" width="10" x="1094.5" y="472.4531"/><rect fill="#FF9F1C" height="94.5313" style="stroke:#1E1E1E;stroke-width:1.0;" width="10" x="1094.5" y="580.9844"/><rect fill="#FF9F1C" height="29.1328" style="stroke:#1E1E1E;stroke-width:1.0;" width="10" x="1094.5" y="754.9141"/><rect fill="#FF9F1C" height="29.1328" style="stroke:#1E1E1E;stroke-width:1.0;" width="10" x="1295.5" y="551.8516"/><line style="stroke:#1E1E1E;stroke-width:0.5;stroke-dasharray:5.0,5.0;" x1="43" x2="43" y1="73.5938" y2="1401.9688"/><line style="stroke:#1E1E1E;stroke-width:0.5;stroke-dasharray:5.0,5.0;" x1="248.5" x2="248.5" y1="73.5938" y2="1401.9688"/><line style="stroke:#1E1E1E;stroke-width:0.5;stroke-dasharray:5.0,5.0;" x1="420" x2="420" y1="73.5938" y2="1401.9688"/><line style="stroke:#1E1E1E;stroke-width:0.5;stroke-dasharray:5.0,5.0;" x1="571.5" x2="571.5" y1="73.5938" y2="1401.9688"/><line style="stroke:#1E1E1E;stroke-width:0.5;stroke-dasharray:5.0,5.0;" x1="779" x2="779" y1="73.5938" y2="1401.9688"/><line style="stroke:#1E1E1E;stroke-width:0.5;stroke-dasharray:5.0,5.0;" x1="930.5" x2="930.5" y1="73.5938" y2="1401.9688"/><line style="stroke:#1E1E1E;stroke-width:0.5;stroke-dasharray:5.0,5.0;" x1="1099" x2="1099" y1="73.5938" y2="1401.9688"/><line style="stroke:#1E1E1E;stroke-width:0.5;stroke-dasharray:5.0,5.0;" x1="1300.5" x2="1300.5" y1="73.5938" y2="1401.9688"/><rect fill="#053671" height="30.2969" rx="2.5" ry="2.5" style="stroke:#1E1E1E;stroke-width:0.5;" width="77" x="5" y="42.2969"/><text fill="#FFFFFF" font-family="sans-serif" font-size="14" lengthAdjust="spacing" textLength="63" x="12" y="62.292">Host App</text><rect fill="#053671" height="30.2969" rx="2.5" ry="2.5" style="stroke:#1E1E1E;stroke-width:0.5;" width="77" x="5" y="1400.9688"/><text fill="#FFFFFF" font-family="sans-serif" font-size="14" lengthAdjust="spacing" textLength="63" x="12" y="1420.9639">Host App</text><rect fill="#053671" height="30.2969" rx="2.5" ry="2.5" style="stroke:#1E1E1E;stroke-width:0.5;" width="122" x="187.5" y="42.2969"/><text fill="#FFFFFF" font-family="sans-serif" font-size="14" lengthAdjust="spacing" textLength="108" x="194.5" y="62.292">Host Cmd Layer</text><rect fill="#053671" height="30.2969" rx="2.5" ry="2.5" style="stroke:#1E1E1E;stroke-width:0.5;" width="122" x="187.5" y="1400.9688"/><text fill="#FFFFFF" font-family="sans-serif" font-size="14" lengthAdjust="spacing" textLength="108" x="194.5" y="1420.9639">Host Cmd Layer</text><rect fill="#053671" height="30.2969" rx="2.5" ry="2.5" style="stroke:#1E1E1E;stroke-width:0.5;" width="117" x="362" y="42.2969"/><text fill="#FFFFFF" font-family="sans-serif" font-size="14" lengthAdjust="spacing" textLength="103" x="369" y="62.292">Host DTL Layer</text><rect fill="#053671" height="30.2969" rx="2.5" ry="2.5" style="stroke:#1E1E1E;stroke-width:0.5;" width="117" x="362" y="1400.9688"/><text fill="#FFFFFF" font-family="sans-serif" font-size="14" lengthAdjust="spacing" textLength="103" x="369" y="1420.9639">Host DTL Layer</text><rect fill="#053671" height="30.2969" rx="2.5" ry="2.5" style="stroke:#1E1E1E;stroke-width:0.5;" width="118" x="512.5" y="42.2969"/><text fill="#FFFFFF" font-family="sans-serif" font-size="14" lengthAdjust="spacing" textLength="104" x="519.5" y="62.292">Host PHY Layer</text><rect fill="#053671" height="30.2969" rx="2.5" ry="2.5" style="stroke:#1E1E1E;stroke-width:0.5;" width="118" x="512.5" y="1400.9688"/><text fill="#FFFFFF" font-family="sans-serif" font-size="14" lengthAdjust="spacing" textLength="104" x="519.5" y="1420.9639">Host PHY Layer</text><rect fill="#053671" height="30.2969" rx="2.5" ry="2.5" style="stroke:#1E1E1E;stroke-width:0.5;" width="131" x="714" y="42.2969"/><text fill="#FFFFFF" font-family="sans-serif" font-size="14" lengthAdjust="spacing" textLength="117" x="721" y="62.292">Target PHY Layer</text><rect fill="#053671" height="30.2969" rx="2.5" ry="2.5" style="stroke:#1E1E1E;stroke-width:0.5;" width="131" x="714" y="1400.9688"/><text fill="#FFFFFF" font-family="sans-serif" font-size="14" lengthAdjust="spacing" textLength="117" x="721" y="1420.9639">Target PHY Layer</text><rect fill="#053671" height="30.2969" rx="2.5" ry="2.5" style="stroke:#1E1E1E;stroke-width:0.5;" width="130" x="865.5" y="42.2969"/><text fill="#FFFFFF" font-family="sans-serif" font-size="14" lengthAdjust="spacing" textLength="116" x="872.5" y="62.292">Target DTL Layer</text><rect fill="#053671" height="30.2969" rx="2.5" ry="2.5" style="stroke:#1E1E1E;stroke-width:0.5;" width="130" x="865.5" y="1400.9688"/><text fill="#FFFFFF" font-family="sans-serif" font-size="14" lengthAdjust="spacing" textLength="116" x="872.5" y="1420.9639">Target DTL Layer</text><rect fill="#053671" height="30.2969" rx="2.5" ry="2.5" style="stroke:#1E1E1E;stroke-width:0.5;" width="135" x="1032" y="42.2969"/><text fill="#FFFFFF" font-family="sans-serif" font-size="14" lengthAdjust="spacing" textLength="121" x="1039" y="62.292">Target Cmd Layer</text><rect fill="#053671" height="30.2969" rx="2.5" ry="2.5" style="stroke:#1E1E1E;stroke-width:0.5;" width="135" x="1032" y="1400.9688"/><text fill="#FFFFFF" font-family="sans-serif" font-size="14" lengthAdjust="spacing" textLength="121" x="1039" y="1420.9639">Target Cmd Layer</text><rect fill="#053671" height="30.2969" rx="2.5" ry="2.5" style="stroke:#1E1E1E;stroke-width:0.5;" width="90" x="1255.5" y="42.2969"/><text fill="#FFFFFF" font-family="sans-serif" font-size="14" lengthAdjust="spacing" textLength="76" x="1262.5" y="62.292">Target App</text><rect fill="#053671" height="30.2969" rx="2.5" ry="2.5" style="stroke:#1E1E1E;stroke-width:0.5;" width="90" x="1255.5" y="1400.9688"/><text fill="#FFFFFF" font-family="sans-serif" font-size="14" lengthAdjust="spacing" textLength="76" x="1262.5" y="1420.9639">Target App</text><rect fill="#FF9F1C" height="29.1328" style="stroke:#1E1E1E;stroke-width:1.0;" width="10" x="38.5" y="1043.2422"/><rect fill="#FF9F1C" height="79.3984" style="stroke:#1E1E1E;stroke-width:1.0;" width="10" x="243.5" y="104.7266"/><rect fill="#FF9F1C" height="29.1328" style="stroke:#1E1E1E;stroke-width:1.0;" width="10" x="243.5" y="263.5234"/><rect fill="#FF9F1C" height="79.3984" style="stroke:#1E1E1E;stroke-width:1.0;" width="10" x="243.5" y="963.8438"/><rect fill="#FF9F1C" height="94.5313" style="stroke:#1E1E1E;stroke-width:1.0;" width="10" x="243.5" y="1072.375"/><rect fill="#FF9F1C" height="29.1328" style="stroke:#1E1E1E;stroke-width:1.0;" width="10" x="243.5" y="1246.3047"/><rect fill="#FF9F1C" height="79.3984" style="stroke:#1E1E1E;stroke-width:1.0;" width="10" x="415.5" y="184.125"/><rect fill="#FF9F1C" height="79.3984" style="stroke:#1E1E1E;stroke-width:1.0;" width="10" x="415.5" y="884.4453"/><rect fill="#FF9F1C" height="79.3984" style="stroke:#1E1E1E;stroke-width:1.0;" width="10" x="415.5" y="1166.9063"/><rect fill="#FF9F1C" height="71.2656" style="stroke:#1E1E1E;stroke-width:1.0;" width="10" x="566.5" y="292.6563"/><rect fill="#FF9F1C" height="29.1328" style="stroke:#1E1E1E;stroke-width:1.0;" width="10" x="566.5" y="855.3125"/><rect fill="#FF9F1C" height="29.1328" style="stroke:#1E1E1E;stroke-width:1.0;" width="10" x="566.5" y="1275.4375"/><rect fill="#FF9F1C" height="29.1328" style="stroke:#1E1E1E;stroke-width:1.0;" width="10" x="774.5" y="363.9219"/><rect fill="#FF9F1C" height="71.2656" style="stroke:#1E1E1E;stroke-width:1.0;" width="10" x="774.5" y="784.0469"/><rect fill="#FF9F1C" height="29.1328" style="stroke:#1E1E1E;stroke-width:1.0;" width="10" x="774.5" y="1304.5703"/><rect fill="#FF9F1C" height="79.3984" style="stroke:#1E1E1E;stroke-width:1.0;" width="10" x="925.5" y="393.0547"/><rect fill="#FF9F1C" height="79.3984" style="stroke:#1E1E1E;stroke-width:1.0;" width="10" x="925.5" y="675.5156"/><rect fill="#FF9F1C" height="59.2656" style="stroke:#1E1E1E;stroke-width:1.0;" width="10" x="925.5" y="1333.7031"/><rect fill="#FF9F1C" height="79.3984" style="stroke:#1E1E1E;stroke-width:1.0;" width="10" x="1094.5" y="472.4531"/><rect fill="#FF9F1C" height="94.5313" style="stroke:#1E1E1E;stroke-width:1.0;" width="10" x="1094.5" y="580.9844"/><rect fill="#FF9F1C" height="29.1328" style="stroke:#1E1E1E;stroke-width:1.0;" width="10" x="1094.5" y="754.9141"/><rect fill="#FF9F1C" height="29.1328" style="stroke:#1E1E1E;stroke-width:1.0;" width="10" x="1295.5" y="551.8516"/><polygon fill="#1E1E1E" points="231.5,100.7266,241.5,104.7266,231.5,108.7266,235.5,104.7266" style="stroke:#1E1E1E;stroke-width:1.0;"/><line style="stroke:#1E1E1E;stroke-width:1.0;" x1="43.5" x2="237.5" y1="104.7266" y2="104.7266"/><text fill="#000000" font-family="sans-serif" font-size="13" font-weight="bold" lengthAdjust="spacing" textLength="21" x="50.5" y="99.6606">[1]</text><text fill="#000000" font-family="sans-serif" font-size="13" lengthAdjust="spacing" textLength="136" x="75.5" y="99.6606">sendCommand(cmd)</text><path d="M258,117.7266 L258,157.7266 L488,157.7266 L488,127.7266 L478,117.7266 L258,117.7266 " fill="#FEFFDD" style="stroke:#181818;stroke-width:0.5;"/><path d="M478,117.7266 L478,127.7266 L488,127.7266 L478,117.7266 " fill="#FEFFDD" style="stroke:#181818;stroke-width:0.5;"/><text fill="#000000" font-family="sans-serif" font-size="13" lengthAdjust="spacing" textLength="129" x="264" y="134.7935">&#8226; frame CRA header</text><text fill="#000000" font-family="sans-serif" font-size="13" lengthAdjust="spacing" textLength="209" x="264" y="149.9263">&#8226; start Response-timer (200 ms)</text><polygon fill="#1E1E1E" points="403.5,180.125,413.5,184.125,403.5,188.125,407.5,184.125" style="stroke:#1E1E1E;stroke-width:1.0;"/><line style="stroke:#1E1E1E;stroke-width:1.0;" x1="248.5" x2="409.5" y1="184.125" y2="184.125"/><text fill="#000000" font-family="sans-serif" font-size="13" font-weight="bold" lengthAdjust="spacing" textLength="21" x="255.5" y="179.0591">[2]</text><text fill="#000000" font-family="sans-serif" font-size="13" lengthAdjust="spacing" textLength="94" x="280.5" y="179.0591">wrapCRA(cmd)</text><path d="M430,197.125 L430,237.125 L665,237.125 L665,207.125 L655,197.125 L430,197.125 " fill="#FEFFDD" style="stroke:#181818;stroke-width:0.5;"/><path d="M655,197.125 L655,207.125 L665,207.125 L655,197.125 " fill="#FEFFDD" style="stroke:#181818;stroke-width:0.5;"/><text fill="#000000" font-family="sans-serif" font-size="13" lengthAdjust="spacing" textLength="206" x="436" y="214.1919">&#8226; compute CRC-16 over payload</text><text fill="#000000" font-family="sans-serif" font-size="13" lengthAdjust="spacing" textLength="133" x="436" y="229.3247">&#8226; SLIP-encode frame</text><polygon fill="#1E1E1E" points="264.5,259.5234,254.5,263.5234,264.5,267.5234,260.5,263.5234" style="stroke:#1E1E1E;stroke-width:1.0;"/><line style="stroke:#1E1E1E;stroke-width:1.0;stroke-dasharray:2.0,2.0;" x1="258.5" x2="419.5" y1="263.5234" y2="263.5234"/><text fill="#000000" font-family="sans-serif" font-size="13" font-weight="bold" lengthAdjust="spacing" textLength="21" x="270.5" y="258.4575">[3]</text><text fill="#000000" font-family="sans-serif" font-size="13" lengthAdjust="spacing" textLength="71" x="295.5" y="258.4575">CRA_frame</text><polygon fill="#1E1E1E" points="554.5,288.6563,564.5,292.6563,554.5,296.6563,558.5,292.6563" style="stroke:#1E1E1E;stroke-width:1.0;"/><line style="stroke:#1E1E1E;stroke-width:1.0;" x1="248.5" x2="560.5" y1="292.6563" y2="292.6563"/><text fill="#000000" font-family="sans-serif" font-size="13" font-weight="bold" lengthAdjust="spacing" textLength="21" x="255.5" y="287.5903">[4]</text><text fill="#000000" font-family="sans-serif" font-size="13" lengthAdjust="spacing" textLength="153" x="280.5" y="287.5903">sendFrame(CRA_frame)</text><line style="stroke:#1E1E1E;stroke-width:1.0;" x1="576.5" x2="618.5" y1="321.7891" y2="321.7891"/><line style="stroke:#1E1E1E;stroke-width:1.0;" x1="618.5" x2="618.5" y1="321.7891" y2="334.7891"/><line style="stroke:#1E1E1E;stroke-width:1.0;" x1="577.5" x2="618.5" y1="334.7891" y2="334.7891"/><polygon fill="#1E1E1E" points="587.5,330.7891,577.5,334.7891,587.5,338.7891,583.5,334.7891" style="stroke:#1E1E1E;stroke-width:1.0;"/><text fill="#000000" font-family="sans-serif" font-size="13" font-weight="bold" lengthAdjust="spacing" textLength="21" x="583.5" y="316.7231">[5]</text><text fill="#000000" font-family="sans-serif" font-size="13" lengthAdjust="spacing" textLength="159" x="608.5" y="316.7231">shiftOut bytes over UART</text><polygon fill="#1E1E1E" points="762.5,359.9219,772.5,363.9219,762.5,367.9219,766.5,363.9219" style="stroke:#1E1E1E;stroke-width:1.0;"/><line style="stroke:#1E1E1E;stroke-width:1.0;" x1="571.5" x2="768.5" y1="363.9219" y2="363.9219"/><text fill="#000000" font-family="sans-serif" font-size="13" font-weight="bold" lengthAdjust="spacing" textLength="21" x="578.5" y="358.856">[6]</text><text fill="#000000" font-family="sans-serif" font-size="13" lengthAdjust="spacing" textLength="73" x="603.5" y="358.856">UART bytes</text><polygon fill="#1E1E1E" points="913.5,389.0547,923.5,393.0547,913.5,397.0547,917.5,393.0547" style="stroke:#1E1E1E;stroke-width:1.0;"/><line style="stroke:#1E1E1E;stroke-width:1.0;" x1="779.5" x2="919.5" y1="393.0547" y2="393.0547"/><text fill="#000000" font-family="sans-serif" font-size="13" font-weight="bold" lengthAdjust="spacing" textLength="21" x="786.5" y="387.9888">[7]</text><text fill="#000000" font-family="sans-serif" font-size="13" lengthAdjust="spacing" textLength="88" x="811.5" y="387.9888">deliverBytes()</text><path d="M940,406.0547 L940,446.0547 L1102,446.0547 L1102,416.0547 L1092,406.0547 L940,406.0547 " fill="#FEFFDD" style="stroke:#181818;stroke-width:0.5;"/><path d="M1092,406.0547 L1092,416.0547 L1102,416.0547 L1092,406.0547 " fill="#FEFFDD" style="stroke:#181818;stroke-width:0.5;"/><text fill="#000000" font-family="sans-serif" font-size="13" lengthAdjust="spacing" textLength="133" x="946" y="423.1216">&#8226; SLIP-decode frame</text><text fill="#000000" font-family="sans-serif" font-size="13" lengthAdjust="spacing" textLength="97" x="946" y="438.2544">&#8226; verify CRC-16</text><polygon fill="#1E1E1E" points="1082.5,468.4531,1092.5,472.4531,1082.5,476.4531,1086.5,472.4531" style="stroke:#1E1E1E;stroke-width:1.0;"/><line style="stroke:#1E1E1E;stroke-width:1.0;" x1="930.5" x2="1088.5" y1="472.4531" y2="472.4531"/><text fill="#000000" font-family="sans-serif" font-size="13" font-weight="bold" lengthAdjust="spacing" textLength="21" x="937.5" y="467.3872">[8]</text><text fill="#000000" font-family="sans-serif" font-size="13" lengthAdjust="spacing" textLength="109" x="962.5" y="467.3872">extractCRA(cmd)</text><path d="M1109,485.4531 L1109,525.4531 L1303,525.4531 L1303,495.4531 L1293,485.4531 L1109,485.4531 " fill="#FEFFDD" style="stroke:#181818;stroke-width:0.5;"/><path d="M1293,485.4531 L1293,495.4531 L1303,495.4531 L1293,485.4531 " fill="#FEFFDD" style="stroke:#181818;stroke-width:0.5;"/><text fill="#000000" font-family="sans-serif" font-size="13" lengthAdjust="spacing" textLength="85" x="1115" y="502.52">&#8226; parse fields</text><text fill="#000000" font-family="sans-serif" font-size="13" lengthAdjust="spacing" textLength="173" x="1115" y="517.6528">&#8226; start ACK-timer (200 ms)</text><polygon fill="#1E1E1E" points="1283.5,547.8516,1293.5,551.8516,1283.5,555.8516,1287.5,551.8516" style="stroke:#1E1E1E;stroke-width:1.0;"/><line style="stroke:#1E1E1E;stroke-width:1.0;" x1="1099.5" x2="1289.5" y1="551.8516" y2="551.8516"/><text fill="#000000" font-family="sans-serif" font-size="13" font-weight="bold" lengthAdjust="spacing" textLength="21" x="1106.5" y="546.7856">[9]</text><text fill="#000000" font-family="sans-serif" font-size="13" lengthAdjust="spacing" textLength="147" x="1131.5" y="546.7856">deliverCommand(cmd)</text><polygon fill="#1E1E1E" points="1115.5,576.9844,1105.5,580.9844,1115.5,584.9844,1111.5,580.9844" style="stroke:#1E1E1E;stroke-width:1.0;"/><line style="stroke:#1E1E1E;stroke-width:1.0;stroke-dasharray:2.0,2.0;" x1="1109.5" x2="1299.5" y1="580.9844" y2="580.9844"/><text fill="#000000" font-family="sans-serif" font-size="13" font-weight="bold" lengthAdjust="spacing" textLength="30" x="1121.5" y="575.9185">[10]</text><text fill="#000000" font-family="sans-serif" font-size="13" lengthAdjust="spacing" textLength="131" x="1155.5" y="575.9185">sendResponse(resp)</text><path d="M1109,593.9844 L1109,648.9844 L1259,648.9844 L1259,603.9844 L1249,593.9844 L1109,593.9844 " fill="#FEFFDD" style="stroke:#181818;stroke-width:0.5;"/><path d="M1249,593.9844 L1249,603.9844 L1259,603.9844 L1249,593.9844 " fill="#FEFFDD" style="stroke:#181818;stroke-width:0.5;"/><text fill="#000000" font-family="sans-serif" font-size="13" lengthAdjust="spacing" textLength="121" x="1115" y="611.0513">&#8226; wrap CRA header</text><text fill="#000000" font-family="sans-serif" font-size="13" lengthAdjust="spacing" textLength="101" x="1115" y="626.1841">&#8226; include status</text><text fill="#000000" font-family="sans-serif" font-size="13" lengthAdjust="spacing" textLength="114" x="1115" y="641.3169">&#8226; reset ACK-timer</text><polygon fill="#1E1E1E" points="946.5,671.5156,936.5,675.5156,946.5,679.5156,942.5,675.5156" style="stroke:#1E1E1E;stroke-width:1.0;"/><line style="stroke:#1E1E1E;stroke-width:1.0;" x1="940.5" x2="1098.5" y1="675.5156" y2="675.5156"/><text fill="#000000" font-family="sans-serif" font-size="13" font-weight="bold" lengthAdjust="spacing" textLength="30" x="952.5" y="670.4497">[11]</text><text fill="#000000" font-family="sans-serif" font-size="13" lengthAdjust="spacing" textLength="94" x="986.5" y="670.4497">wrapCRA(resp)</text><path d="M940,688.5156 L940,728.5156 L1089,728.5156 L1089,698.5156 L1079,688.5156 L940,688.5156 " fill="#FEFFDD" style="stroke:#181818;stroke-width:0.5;"/><path d="M1079,688.5156 L1079,698.5156 L1089,698.5156 L1079,688.5156 " fill="#FEFFDD" style="stroke:#181818;stroke-width:0.5;"/><text fill="#000000" font-family="sans-serif" font-size="13" lengthAdjust="spacing" textLength="120" x="946" y="705.5825">&#8226; compute CRC-16</text><text fill="#000000" font-family="sans-serif" font-size="13" lengthAdjust="spacing" textLength="91" x="946" y="720.7153">&#8226; SLIP-encode</text><polygon fill="#1E1E1E" points="1082.5,750.9141,1092.5,754.9141,1082.5,758.9141,1086.5,754.9141" style="stroke:#1E1E1E;stroke-width:1.0;"/><line style="stroke:#1E1E1E;stroke-width:1.0;stroke-dasharray:2.0,2.0;" x1="930.5" x2="1088.5" y1="754.9141" y2="754.9141"/><text fill="#000000" font-family="sans-serif" font-size="13" font-weight="bold" lengthAdjust="spacing" textLength="30" x="937.5" y="749.8481">[12]</text><text fill="#000000" font-family="sans-serif" font-size="13" lengthAdjust="spacing" textLength="106" x="971.5" y="749.8481">CRA_frame_resp</text><polygon fill="#1E1E1E" points="795.5,780.0469,785.5,784.0469,795.5,788.0469,791.5,784.0469" style="stroke:#1E1E1E;stroke-width:1.0;"/><line style="stroke:#1E1E1E;stroke-width:1.0;" x1="789.5" x2="1098.5" y1="784.0469" y2="784.0469"/><text fill="#000000" font-family="sans-serif" font-size="13" font-weight="bold" lengthAdjust="spacing" textLength="30" x="801.5" y="778.981">[13]</text><text fill="#000000" font-family="sans-serif" font-size="13" lengthAdjust="spacing" textLength="188" x="835.5" y="778.981">sendFrame(CRA_frame_resp)</text><line style="stroke:#1E1E1E;stroke-width:1.0;" x1="784.5" x2="826.5" y1="813.1797" y2="813.1797"/><line style="stroke:#1E1E1E;stroke-width:1.0;" x1="826.5" x2="826.5" y1="813.1797" y2="826.1797"/><line style="stroke:#1E1E1E;stroke-width:1.0;" x1="785.5" x2="826.5" y1="826.1797" y2="826.1797"/><polygon fill="#1E1E1E" points="795.5,822.1797,785.5,826.1797,795.5,830.1797,791.5,826.1797" style="stroke:#1E1E1E;stroke-width:1.0;"/><text fill="#000000" font-family="sans-serif" font-size="13" font-weight="bold" lengthAdjust="spacing" textLength="30" x="791.5" y="808.1138">[14]</text><text fill="#000000" font-family="sans-serif" font-size="13" lengthAdjust="spacing" textLength="89" x="825.5" y="808.1138">shiftOut bytes</text><polygon fill="#1E1E1E" points="587.5,851.3125,577.5,855.3125,587.5,859.3125,583.5,855.3125" style="stroke:#1E1E1E;stroke-width:1.0;"/><line style="stroke:#1E1E1E;stroke-width:1.0;" x1="581.5" x2="778.5" y1="855.3125" y2="855.3125"/><text fill="#000000" font-family="sans-serif" font-size="13" font-weight="bold" lengthAdjust="spacing" textLength="30" x="593.5" y="850.2466">[15]</text><text fill="#000000" font-family="sans-serif" font-size="13" lengthAdjust="spacing" textLength="73" x="627.5" y="850.2466">UART bytes</text><polygon fill="#1E1E1E" points="436.5,880.4453,426.5,884.4453,436.5,888.4453,432.5,884.4453" style="stroke:#1E1E1E;stroke-width:1.0;"/><line style="stroke:#1E1E1E;stroke-width:1.0;" x1="430.5" x2="570.5" y1="884.4453" y2="884.4453"/><text fill="#000000" font-family="sans-serif" font-size="13" font-weight="bold" lengthAdjust="spacing" textLength="30" x="442.5" y="879.3794">[16]</text><text fill="#000000" font-family="sans-serif" font-size="13" lengthAdjust="spacing" textLength="88" x="476.5" y="879.3794">deliverBytes()</text><path d="M430,897.4453 L430,937.4453 L592,937.4453 L592,907.4453 L582,897.4453 L430,897.4453 " fill="#FEFFDD" style="stroke:#181818;stroke-width:0.5;"/><path d="M582,897.4453 L582,907.4453 L592,907.4453 L582,897.4453 " fill="#FEFFDD" style="stroke:#181818;stroke-width:0.5;"/><text fill="#000000" font-family="sans-serif" font-size="13" lengthAdjust="spacing" textLength="133" x="436" y="914.5122">&#8226; SLIP-decode frame</text><text fill="#000000" font-family="sans-serif" font-size="13" lengthAdjust="spacing" textLength="97" x="436" y="929.645">&#8226; verify CRC-16</text><polygon fill="#1E1E1E" points="264.5,959.8438,254.5,963.8438,264.5,967.8438,260.5,963.8438" style="stroke:#1E1E1E;stroke-width:1.0;"/><line style="stroke:#1E1E1E;stroke-width:1.0;stroke-dasharray:2.0,2.0;" x1="258.5" x2="419.5" y1="963.8438" y2="963.8438"/><text fill="#000000" font-family="sans-serif" font-size="13" font-weight="bold" lengthAdjust="spacing" textLength="30" x="270.5" y="958.7778">[17]</text><text fill="#000000" font-family="sans-serif" font-size="13" lengthAdjust="spacing" textLength="109" x="304.5" y="958.7778">extractCRA(resp)</text><path d="M258,976.8438 L258,1016.8438 L424,1016.8438 L424,986.8438 L414,976.8438 L258,976.8438 " fill="#FEFFDD" style="stroke:#181818;stroke-width:0.5;"/><path d="M414,976.8438 L414,986.8438 L424,986.8438 L414,976.8438 " fill="#FEFFDD" style="stroke:#181818;stroke-width:0.5;"/><text fill="#000000" font-family="sans-serif" font-size="13" lengthAdjust="spacing" textLength="92" x="264" y="993.9106">&#8226; parse status</text><text fill="#000000" font-family="sans-serif" font-size="13" lengthAdjust="spacing" textLength="145" x="264" y="1009.0435">&#8226; stop Response-timer</text><polygon fill="#1E1E1E" points="59.5,1039.2422,49.5,1043.2422,59.5,1047.2422,55.5,1043.2422" style="stroke:#1E1E1E;stroke-width:1.0;"/><line style="stroke:#1E1E1E;stroke-width:1.0;stroke-dasharray:2.0,2.0;" x1="53.5" x2="247.5" y1="1043.2422" y2="1043.2422"/><text fill="#000000" font-family="sans-serif" font-size="13" font-weight="bold" lengthAdjust="spacing" textLength="30" x="65.5" y="1038.1763">[18]</text><text fill="#000000" font-family="sans-serif" font-size="13" lengthAdjust="spacing" textLength="142" x="99.5" y="1038.1763">deliverResponse(resp)</text><polygon fill="#1E1E1E" points="231.5,1068.375,241.5,1072.375,231.5,1076.375,235.5,1072.375" style="stroke:#1E1E1E;stroke-width:1.0;"/><line style="stroke:#1E1E1E;stroke-width:1.0;stroke-dasharray:2.0,2.0;" x1="43.5" x2="237.5" y1="1072.375" y2="1072.375"/><text fill="#000000" font-family="sans-serif" font-size="13" font-weight="bold" lengthAdjust="spacing" textLength="30" x="50.5" y="1067.3091">[19]</text><text fill="#000000" font-family="sans-serif" font-size="13" lengthAdjust="spacing" textLength="67" x="84.5" y="1067.3091">sendACK()</text><path d="M258,1085.375 L258,1140.375 L439,1140.375 L439,1095.375 L429,1085.375 L258,1085.375 " fill="#FEFFDD" style="stroke:#181818;stroke-width:0.5;"/><path d="M429,1085.375 L429,1095.375 L439,1095.375 L429,1085.375 " fill="#FEFFDD" style="stroke:#181818;stroke-width:0.5;"/><text fill="#000000" font-family="sans-serif" font-size="13" lengthAdjust="spacing" textLength="125" x="264" y="1102.4419">&#8226; Flags = 0x08 only</text><text fill="#000000" font-family="sans-serif" font-size="13" lengthAdjust="spacing" textLength="82" x="264" y="1117.5747">&#8226; no payload</text><text fill="#000000" font-family="sans-serif" font-size="13" lengthAdjust="spacing" textLength="160" x="264" y="1132.7075">&#8226; restart Response-timer</text><polygon fill="#1E1E1E" points="403.5,1162.9063,413.5,1166.9063,403.5,1170.9063,407.5,1166.9063" style="stroke:#1E1E1E;stroke-width:1.0;"/><line style="stroke:#1E1E1E;stroke-width:1.0;" x1="248.5" x2="409.5" y1="1166.9063" y2="1166.9063"/><text fill="#000000" font-family="sans-serif" font-size="13" font-weight="bold" lengthAdjust="spacing" textLength="30" x="255.5" y="1161.8403">[20]</text><text fill="#000000" font-family="sans-serif" font-size="13" lengthAdjust="spacing" textLength="92" x="289.5" y="1161.8403">wrapCRA(ACK)</text><path d="M430,1179.9063 L430,1219.9063 L618,1219.9063 L618,1189.9063 L608,1179.9063 L430,1179.9063 " fill="#FEFFDD" style="stroke:#181818;stroke-width:0.5;"/><path d="M608,1179.9063 L608,1189.9063 L618,1189.9063 L608,1179.9063 " fill="#FEFFDD" style="stroke:#181818;stroke-width:0.5;"/><text fill="#000000" font-family="sans-serif" font-size="13" lengthAdjust="spacing" textLength="159" x="436" y="1196.9731">&#8226; build 1-byte ACK frame</text><text fill="#000000" font-family="sans-serif" font-size="13" lengthAdjust="spacing" textLength="82" x="436" y="1212.106">&#8226; no payload</text><polygon fill="#1E1E1E" points="264.5,1242.3047,254.5,1246.3047,264.5,1250.3047,260.5,1246.3047" style="stroke:#1E1E1E;stroke-width:1.0;"/><line style="stroke:#1E1E1E;stroke-width:1.0;stroke-dasharray:2.0,2.0;" x1="258.5" x2="419.5" y1="1246.3047" y2="1246.3047"/><text fill="#000000" font-family="sans-serif" font-size="13" font-weight="bold" lengthAdjust="spacing" textLength="30" x="270.5" y="1241.2388">[21]</text><text fill="#000000" font-family="sans-serif" font-size="13" lengthAdjust="spacing" textLength="71" x="304.5" y="1241.2388">ACK_frame</text><polygon fill="#1E1E1E" points="554.5,1271.4375,564.5,1275.4375,554.5,1279.4375,558.5,1275.4375" style="stroke:#1E1E1E;stroke-width:1.0;"/><line style="stroke:#1E1E1E;stroke-width:1.0;" x1="248.5" x2="560.5" y1="1275.4375" y2="1275.4375"/><text fill="#000000" font-family="sans-serif" font-size="13" font-weight="bold" lengthAdjust="spacing" textLength="30" x="255.5" y="1270.3716">[22]</text><text fill="#000000" font-family="sans-serif" font-size="13" lengthAdjust="spacing" textLength="153" x="289.5" y="1270.3716">sendFrame(ACK_frame)</text><polygon fill="#1E1E1E" points="762.5,1300.5703,772.5,1304.5703,762.5,1308.5703,766.5,1304.5703" style="stroke:#1E1E1E;stroke-width:1.0;"/><line style="stroke:#1E1E1E;stroke-width:1.0;" x1="571.5" x2="768.5" y1="1304.5703" y2="1304.5703"/><text fill="#000000" font-family="sans-serif" font-size="13" font-weight="bold" lengthAdjust="spacing" textLength="30" x="578.5" y="1299.5044">[23]</text><text fill="#000000" font-family="sans-serif" font-size="13" lengthAdjust="spacing" textLength="73" x="612.5" y="1299.5044">UART bytes</text><polygon fill="#1E1E1E" points="913.5,1329.7031,923.5,1333.7031,913.5,1337.7031,917.5,1333.7031" style="stroke:#1E1E1E;stroke-width:1.0;"/><line style="stroke:#1E1E1E;stroke-width:1.0;" x1="779.5" x2="919.5" y1="1333.7031" y2="1333.7031"/><text fill="#000000" font-family="sans-serif" font-size="13" font-weight="bold" lengthAdjust="spacing" textLength="30" x="786.5" y="1328.6372">[24]</text><text fill="#000000" font-family="sans-serif" font-size="13" lengthAdjust="spacing" textLength="88" x="820.5" y="1328.6372">deliverBytes()</text><path d="M940,1346.7031 L940,1386.7031 L1088,1386.7031 L1088,1356.7031 L1078,1346.7031 L940,1346.7031 " fill="#FEFFDD" style="stroke:#181818;stroke-width:0.5;"/><path d="M1078,1346.7031 L1078,1356.7031 L1088,1356.7031 L1078,1346.7031 " fill="#FEFFDD" style="stroke:#181818;stroke-width:0.5;"/><text fill="#000000" font-family="sans-serif" font-size="13" lengthAdjust="spacing" textLength="119" x="946" y="1363.77">&#8226; extractCRA(ACK)</text><text fill="#000000" font-family="sans-serif" font-size="13" lengthAdjust="spacing" textLength="109" x="946" y="1378.9028">&#8226; stop ACK-timer</text><!--SRC=[lLVHQkD657tNLroyaCJfcjhPRdRNR0EAHCXIGqsY5aefOIoDdM4bZQeP9J6baAS-bz8lwAVbItf7agKPPUGDhHCba23TqRttpBbdZlOV_hxVoI_yo4H1OX1KIfQk1EpgnOxupDACv2I1ESab2rb6KZadKOHfO78qXdr7YydQ6FZD0RnEIVXvbVCYZJmUynnUZT- -ENutgPxnFA9vTLzThoPK_PJFpdWgsoS0jzTCKkTtBPUWlnOq3McToCrpVgklQ2_zlJEsf3EMqcxklh1E-IfikVomd8Hbc8R9jcRqi2ruQ65zxJkIoPZ2uU7fvHncP4rp6i7b1eaH-5GI5kCzxyA582Uf8A5aF3qyT1nzSmRdN4XmispGe4G4dBkM82-9gao3EiYp1Fd1p0poBK7pyv_CeBaP591yHOqm30hiGLf25UHRWxJILP1d3T90K46kuv12yhH85ZI7mSV5oS_ZNpv-lJWPECv-Et2J8PGzBUYAfQA4Mz0qsjdWFMauprqOdU26mBHCxl4a8Mbq42RHq57xVaCaLVkLSloRizMr1BvKDm0Uxl-19OuHBKk_fWJ92r0_419nWWigCfuAEf8imOS7H-Cn96Beg3RL6mqyZePGfuU7F_vIspE5svnay1KcyE2PSV1A77oeSc975GOHrL5e__UxYFXruo5Fia8gJBpHv1Zu3VQTaNNCITI0SpdxD1_XkF68LWYsW605eys6O15NrMEz2j_O5nt0DyEIqmey780fI3My2PCloYWDp7bDgZFLmq7JJJ-eSmVND2klsL9-N-1yh2KL5P0_k1U1qV8tGz16lg5DJaFARYWyPuzbfO6gL5LLLMbqDcyxGmKAgdX5i8Z6M5n-gbOS33j42doT915jITBG1zUovRfcM4iTBNUWv_ODnDws945jcmAzGvg44eVCzRwhvtJ7K67JgdL5wJgRRRmmIYkwgpZ1Hd5GVmK2mcWSYOxQj0ri5vhZXZJqZeQ5OjSUKaP9LIIUapD1EHU1stB0q5iT36qiy3p19QCDX6gYDhfweAes5xfF0R6KLOjgipIC2-GRuYcB5bxCGZLuxQY-6pPoFoqfzbBQROAhA_XZT3nZBdechoFX5jNM40ZyTciQYRjIcKro6zkYu_PUnqsfs0lBzWQu7hM-sWvY8soF9TinslnGkvqNrccjpVPeiGksBfhjKMGHx1wHx_S4_qVACOC6usJS8zzxEBCyWt8-TthCQNv44-z7fEZOaXwxM8btHrtAmasdQ5MOoSOmen1LJdbFOV1m_sTfq27BUKY5mA_ANVWNrRGcrFsAQpWOjpJKkgF6OZkKKPy7NuRgB2Ru4VujZE_6xu6dyRh1A-MF32KMPV7RTXJHPcDDbKY-Bajy3R8w3jLEY9rmoEQdCUj_yDEBWiKHJ4PgNCkTDmUe1SFkeN75bpmqE7R3sYpjL0qMcNYw3znY1FiDNCz1fGsa0jUSACjnRHv8Phf_0G00]--></g></svg>